<svg version="1.1" baseProfile="full" width="2123" height="1106.5" viewbox="0 0 2123 1106.5" xmlns="http://www.w3.org/2000/svg" xmlns:xlink="http://www.w3.org/1999/xlink" xmlns:ev="http://www.w3.org/2001/xml-events" style="font:bold  12pt Helvetica, Helvetica, sans-serif;;stroke-linejoin:round;stroke-linecap:round">
  <title >Ship V-Sekai Groups 4</title>
  <desc >#direction: right
#title: Ship V-Sekai Groups 4
#fontSize: 8
#spacing: 12
#padding: 3
#ranker: acyclicer
#zoom: 1
#bendSize: 1
#fontSize: 12

[goals] - [tasks]
[tasks] - [approaches]
[approaches] - [facts] 

[facts] - [server_infrastructure]
[facts] - [godot_ecosystem]
[facts] - [content_pipeline]
[approaches] - [godot_alpha: ☆ Godot 4 alpha]
[approaches] - [fix_godot_vrm_4]
[godot_ecosystem] - [fix_godot_vrm_4]
[godot_ecosystem] - [content_pipeline]
[godot_ecosystem] - [set_surface_material_pr]
[godot_ecosystem] - [fix_godot_vrm_3_4]
[godot_ecosystem] - [fix_godot_vrm_3_4]
[godot_ecosystem] - [godot_bugfixes_and_prs]
[server_infrastructure] - [server_backups]
[godot_ecosystem] - [glsl_materials]
[godot_ecosystem] - [cloth_proposal]
[godot_ecosystem] - [multi_8_uvs]
[godot_ecosystem] - [fix_gltf_bugs_and_tests]
[godot_bugfixes_and_prs] - [fix_autoload_ordering]
[goals] - [wasgo]
[content_pipeline] - [unidot_importer]
[content_pipeline] - [mozilla_hubs_importer]
[godot_ecosystem] - [openxr]
[godot_ecosystem] - [openvr]
[goals] - [godot_speech]
[godot_ecosystem] - [curl_integration]
[fix_autoload_ordering] - [export_build]
[tasks] - [set_surface_material_pr]
[godot_bugfixes_and_prs] - [set_surface_material_pr]
[wasgo] - [classdb_function_list]
[goals] - [personas]
[personas] - [active_user]
[personas] - [tourist]
[personas] - [first_timer]
[personas] - [future_creator] 
[personas] - [environment_creator] 
[personas] - [gameplay_creator] 
[personas] - [character_creator]
[personas] - [outfit_creator]
[personas] -[item_asset_artists_and_creators]
[personas] -[platform_host] 
[personas] -[tool_developers]
[personas] - [creation_tools]
[personas] - [shopkeeper] 
[first_timer] - [active_user: People who visit worlds regularly]
[first_timer] - [tourist: casual or new visitors to the ecosystem ]
[first_timer| First time user experiencers (FTUX)] - [openvr]
[first_timer| First time user experiencers (FTUX)] - [openxr]
[active_user] - [future_creator: New users interested in becoming creators]
[personas] - [environment_creator| The people who create things such as worlds or characters on platforms.]
[personas] - [gameplay_creator| People who create scripts, often users and environments.]
[gameplay_creator | People who create scripts, often users and environments.] - [wasgo]
[personas] - [character_creator | People who create characters and avatars] 
[personas] - [outfit_creator | Creators of characters and outfits which fit multiple characters]
[personas] - [item_asset_artists_and_creators | Creators of items, assets and props]
[personas] - [tool_developers | Developers within the ecosystem of tools]
[tool_developers |Developers within the ecosystem of tools] - [godot_ecosystem]
[personas] - [platform_host| The server operator / platform host] 
[platform_host| The server operator / platform host] - [server_backups]
[platform_host| The server operator / platform host] - [export_build]
[creation_tools| Tool that helps the creators get their job done.] - [creation_pipeline]
[creation_tools| Tool that helps the creators get their job done.] - [unidot_importer]
[creation_tools| Tool that helps the creators get their job done.] - [mozilla_hubs_importer]
[creation_tools| Tool that helps the creators get their job done.] - [creation_pipeline]
[personas] - [shopkeeper| Any person providing a service for the metaverse. (can be free or paid)] 
</desc>
  <rect x="0" y="0" height="1106.5" width="2123" style="stroke:none; fill:transparent;"></rect>
  <path d="M49.2 358 L78.5 109 L120 109 L120 109 " style="stroke:#33322E;fill:none;stroke-dasharray:none;stroke-width:3;"></path>
  <path d="M166.9 98.5 L209.5 79 L215.5 79 L215.5 79 " style="stroke:#33322E;fill:none;stroke-dasharray:none;stroke-width:3;"></path>
  <path d="M280.6 68.5 L321.5 40 L596 40 L596 40 " style="stroke:#33322E;fill:none;stroke-dasharray:none;stroke-width:3;"></path>
  <path d="M640 39.6 L914.5 34 L1068 34 L1068 34 " style="stroke:#33322E;fill:none;stroke-dasharray:none;stroke-width:3;"></path>
  <path d="M640 40.4 L914.5 46 L1148.4 526.8 L1148.4 526.8 " style="stroke:#33322E;fill:none;stroke-dasharray:none;stroke-width:3;"></path>
  <path d="M640 41.7 L914.5 63.3 L1153.5 63.3 L1153.5 63.3 L1392.5 63.3 L1392.5 63.3 L1518 63.3 L1518 63.3 " style="stroke:#33322E;fill:none;stroke-dasharray:none;stroke-width:3;"></path>
  <path d="M315.5 74.3 L321.5 73.8 L494 73.8 L494 73.8 " style="stroke:#33322E;fill:none;stroke-dasharray:none;stroke-width:3;"></path>
  <path d="M299.6 89.5 L321.5 96.3 L618 96.3 L618 96.3 L914.5 96.3 L914.5 96.3 L1153.5 96.3 L1153.5 96.3 L1392.5 96.3 L1392.5 96.3 L1517.5 96.3 L1517.5 96.3 " style="stroke:#33322E;fill:none;stroke-dasharray:none;stroke-width:3;"></path>
  <path d="M1160 526.8 L1392.5 151.8 L1549.8 106.8 L1549.8 106.8 " style="stroke:#33322E;fill:none;stroke-dasharray:none;stroke-width:3;"></path>
  <path d="M1160.2 526.8 L1392.5 163.8 L1566.2 73.8 L1566.2 73.8 " style="stroke:#33322E;fill:none;stroke-dasharray:none;stroke-width:3;"></path>
  <path d="M1160.4 526.8 L1392.5 175.8 L1586.5 175.8 L1586.5 175.8 L1780.5 175.8 L1780.5 175.8 L1863.9 135.3 L1863.9 135.3 " style="stroke:#33322E;fill:none;stroke-dasharray:none;stroke-width:3;"></path>
  <path d="M1160.9 526.8 L1392.5 198.3 L1507.5 198.3 L1507.5 198.3 " style="stroke:#33322E;fill:none;stroke-dasharray:none;stroke-width:3;"></path>
  <path d="M1161.7 526.8 L1392.5 231.3 L1485 231.3 L1485 231.3 " style="stroke:#33322E;fill:none;stroke-dasharray:none;stroke-width:3;"></path>
  <path d="M1239 34 L1392.5 34 L1582.4 518.5 L1582.4 518.5 " style="stroke:#33322E;fill:none;stroke-dasharray:none;stroke-width:3;"></path>
  <path d="M1162.7 526.8 L1392.5 264.3 L1529 264.3 L1529 264.3 " style="stroke:#33322E;fill:none;stroke-dasharray:none;stroke-width:3;"></path>
  <path d="M1180.1 526.8 L1392.5 442.8 L1525 442.8 L1525 442.8 " style="stroke:#33322E;fill:none;stroke-dasharray:none;stroke-width:3;"></path>
  <path d="M1198.7 526.8 L1392.5 481.8 L1561.1 551.5 L1561.1 551.5 " style="stroke:#33322E;fill:none;stroke-dasharray:none;stroke-width:3;"></path>
  <path d="M1226.5 527.2 L1392.5 504.3 L1564.1 584.5 L1564.1 584.5 " style="stroke:#33322E;fill:none;stroke-dasharray:none;stroke-width:3;"></path>
  <path d="M1680.2 220.8 L1780.5 209.5 L1864.2 168.3 L1864.2 168.3 " style="stroke:#33322E;fill:none;stroke-dasharray:none;stroke-width:3;"></path>
  <path d="M72.5 359.5 L78.5 357.3 L144 357.3 L144 357.3 L209.5 357.3 L209.5 357.3 L265.5 357.3 L265.5 357.3 L321.5 357.3 L321.5 357.3 L618 357.3 L618 357.3 L914.5 357.3 L914.5 357.3 L1143.4 595.8 L1143.4 595.8 " style="stroke:#33322E;fill:none;stroke-dasharray:none;stroke-width:3;"></path>
  <path d="M1655 61.1 L1780.5 57.3 L1877.2 180.3 L1877.2 180.3 " style="stroke:#33322E;fill:none;stroke-dasharray:none;stroke-width:3;"></path>
  <path d="M1655 70.9 L1780.5 85 L1877.8 218.5 L1877.8 218.5 " style="stroke:#33322E;fill:none;stroke-dasharray:none;stroke-width:3;"></path>
  <path d="M1226.5 544.1 L1392.5 559.8 L1571.3 683.5 L1571.3 683.5 " style="stroke:#33322E;fill:none;stroke-dasharray:none;stroke-width:3;"></path>
  <path d="M1209.3 547.8 L1392.5 582.3 L1572.4 716.5 L1572.4 716.5 " style="stroke:#33322E;fill:none;stroke-dasharray:none;stroke-width:3;"></path>
  <path d="M72.5 377.5 L78.5 379.8 L84.5 379.8 L84.5 379.8 " style="stroke:#33322E;fill:none;stroke-dasharray:none;stroke-width:3;"></path>
  <path d="M1197.5 547.8 L1392.5 594.3 L1526.1 617.5 L1526.1 617.5 " style="stroke:#33322E;fill:none;stroke-dasharray:none;stroke-width:3;"></path>
  <path d="M1975 157.8 L1990.5 157.8 L2047.6 799.8 L2047.6 799.8 " style="stroke:#33322E;fill:none;stroke-dasharray:none;stroke-width:3;"></path>
  <path d="M168 112.6 L209.5 118.8 L265.5 118.8 L265.5 118.8 L321.5 118.8 L321.5 118.8 L618 118.8 L618 118.8 L914.5 118.8 L914.5 118.8 L1153.5 118.8 L1153.5 118.8 L1392.5 118.8 L1392.5 118.8 L1586.5 118.8 L1586.5 118.8 L1780.5 118.8 L1780.5 118.8 L1786.5 119.1 L1786.5 119.1 " style="stroke:#33322E;fill:none;stroke-dasharray:none;stroke-width:3;"></path>
  <path d="M1592.1 241.8 L1780.5 598 L1883.2 135.3 L1883.2 135.3 " style="stroke:#33322E;fill:none;stroke-dasharray:none;stroke-width:3;"></path>
  <path d="M1182 606.3 L1392.5 606.3 L1549.3 650.5 L1549.3 650.5 " style="stroke:#33322E;fill:none;stroke-dasharray:none;stroke-width:3;"></path>
  <path d="M49.3 379 L78.5 609.3 L144 609.3 L144 609.3 L209.5 609.3 L209.5 609.3 L225.5 609.3 L225.5 609.3 " style="stroke:#33322E;fill:none;stroke-dasharray:none;stroke-width:3;"></path>
  <path d="M268.1 598.8 L321.5 383.5 L569 383.5 L569 383.5 " style="stroke:#33322E;fill:none;stroke-dasharray:none;stroke-width:3;"></path>
  <path d="M268.6 598.8 L321.5 416.5 L590.5 416.5 L590.5 416.5 " style="stroke:#33322E;fill:none;stroke-dasharray:none;stroke-width:3;"></path>
  <path d="M269 598.8 L321.5 439 L618 439 L618 439 L914.5 439 L914.5 439 L1131.5 646 L1131.5 646 " style="stroke:#33322E;fill:none;stroke-dasharray:none;stroke-width:3;"></path>
  <path d="M269.5 598.8 L321.5 461.5 L559 461.5 L559 461.5 " style="stroke:#33322E;fill:none;stroke-dasharray:none;stroke-width:3;"></path>
  <path d="M271.1 598.8 L321.5 505 L327.5 505 L327.5 505 " style="stroke:#33322E;fill:none;stroke-dasharray:none;stroke-width:3;"></path>
  <path d="M277.2 598.8 L321.5 559 L387.5 559 L387.5 559 " style="stroke:#33322E;fill:none;stroke-dasharray:none;stroke-width:3;"></path>
  <path d="M305.5 611.9 L321.5 613 L447.5 613 L447.5 613 " style="stroke:#33322E;fill:none;stroke-dasharray:none;stroke-width:3;"></path>
  <path d="M275.7 619.8 L321.5 667 L370.5 667 L370.5 667 " style="stroke:#33322E;fill:none;stroke-dasharray:none;stroke-width:3;"></path>
  <path d="M270.8 619.8 L321.5 721 L474 721 L474 721 " style="stroke:#33322E;fill:none;stroke-dasharray:none;stroke-width:3;"></path>
  <path d="M269.6 619.8 L321.5 754 L618 754 L618 754 L914.5 754 L914.5 754 L1129.6 943 L1129.6 943 " style="stroke:#33322E;fill:none;stroke-dasharray:none;stroke-width:3;"></path>
  <path d="M268.8 619.8 L321.5 787 L453.5 787 L453.5 787 " style="stroke:#33322E;fill:none;stroke-dasharray:none;stroke-width:3;"></path>
  <path d="M266.9 619.8 L321.5 1030 L618 1030 L618 1030 L914.5 1030 L914.5 1030 L1153.5 1030 L1153.5 1030 L1392.5 1030 L1392.5 1030 L1400.5 1030 L1400.5 1030 " style="stroke:#33322E;fill:none;stroke-dasharray:none;stroke-width:3;"></path>
  <path d="M266.8 619.8 L321.5 1063 L334.5 1063 L334.5 1063 " style="stroke:#33322E;fill:none;stroke-dasharray:none;stroke-width:3;"></path>
  <path d="M1296.5 647.7 L1392.5 634.8 L1572.3 767.5 L1572.3 767.5 " style="stroke:#33322E;fill:none;stroke-dasharray:none;stroke-width:3;"></path>
  <path d="M1296.5 661.2 L1392.5 657.3 L1573.3 800.5 L1573.3 800.5 " style="stroke:#33322E;fill:none;stroke-dasharray:none;stroke-width:3;"></path>
  <path d="M1199.3 688 L1392.5 776.5 L1556 734.8 L1556 734.8 " style="stroke:#33322E;fill:none;stroke-dasharray:none;stroke-width:3;"></path>
  <path d="M1194.8 688 L1392.5 788.5 L1564.9 704.5 L1564.9 704.5 " style="stroke:#33322E;fill:none;stroke-dasharray:none;stroke-width:3;"></path>
  <path d="M667 383.5 L914.5 383.5 L1140.1 559.8 L1140.1 559.8 " style="stroke:#33322E;fill:none;stroke-dasharray:none;stroke-width:3;"></path>
  <path d="M848.5 559 L914.5 559 L1125 600.6 L1125 600.6 " style="stroke:#33322E;fill:none;stroke-dasharray:none;stroke-width:3;"></path>
  <path d="M782.5 787 L914.5 787 L1143.5 547.8 L1143.5 547.8 " style="stroke:#33322E;fill:none;stroke-dasharray:none;stroke-width:3;"></path>
  <path d="M1184.2 943 L1392.5 800.5 L1579 539.5 L1579 539.5 " style="stroke:#33322E;fill:none;stroke-dasharray:none;stroke-width:3;"></path>
  <path d="M1294 982.5 L1392.5 995.5 L1586.5 995.5 L1586.5 995.5 L1780.5 995.5 L1780.5 995.5 L1885.5 995.5 L1885.5 995.5 L1990.5 995.5 L1990.5 995.5 L2045.2 820.8 L2045.2 820.8 " style="stroke:#33322E;fill:none;stroke-dasharray:none;stroke-width:3;"></path>
  <path d="M1772.5 1018.5 L1780.5 1018 L1814.5 1018 L1814.5 1018 " style="stroke:#33322E;fill:none;stroke-dasharray:none;stroke-width:3;"></path>
  <path d="M1772.5 1030 L1780.5 1030 L1884.2 201.3 L1884.2 201.3 " style="stroke:#33322E;fill:none;stroke-dasharray:none;stroke-width:3;"></path>
  <path d="M1772.5 1041.5 L1780.5 1042 L1884.1 239.5 L1884.1 239.5 " style="stroke:#33322E;fill:none;stroke-dasharray:none;stroke-width:3;"></path>
  <rect x="1010.5" y="646.5" height="42" width="286" data-name="first_timer" style="stroke:#33322E;fill:#eee8d5;stroke-dasharray:none;stroke-width:3;"></rect>
  <path d="M1010.5 667.5 L1296.5 667.5" data-name="first_timer" style="stroke:#33322E;fill:none;stroke-dasharray:none;stroke-width:3;"></path>
  <text x="1153.5" y="663" style="fill: #33322E;font:bold  12pt Helvetica, Helvetica, sans-serif;text-anchor: middle;" data-name="first_timer">first_timer</text>
  <text x="1013.5" y="684" style="fill: #33322E;font:normal  12pt Helvetica, Helvetica, sans-serif;" data-name="first_timer">First time user experiencers (FTUX)</text>
  <rect x="327.5" y="484.5" height="42" width="581" data-name="environment_creator" style="stroke:#33322E;fill:#eee8d5;stroke-dasharray:none;stroke-width:3;"></rect>
  <path d="M327.5 505.5 L908.5 505.5" data-name="environment_creator" style="stroke:#33322E;fill:none;stroke-dasharray:none;stroke-width:3;"></path>
  <text x="618" y="501" style="fill: #33322E;font:bold  12pt Helvetica, Helvetica, sans-serif;text-anchor: middle;" data-name="environment_creator">environment_creator</text>
  <text x="330.5" y="522" style="fill: #33322E;font:normal  12pt Helvetica, Helvetica, sans-serif;" data-name="environment_creator">The people who create things such as worlds or characters on platforms.</text>
  <rect x="387.5" y="538.5" height="42" width="461" data-name="gameplay_creator" style="stroke:#33322E;fill:#eee8d5;stroke-dasharray:none;stroke-width:3;"></rect>
  <path d="M387.5 559.5 L848.5 559.5" data-name="gameplay_creator" style="stroke:#33322E;fill:none;stroke-dasharray:none;stroke-width:3;"></path>
  <text x="618" y="555" style="fill: #33322E;font:bold  12pt Helvetica, Helvetica, sans-serif;text-anchor: middle;" data-name="gameplay_creator">gameplay_creator</text>
  <text x="390.5" y="576" style="fill: #33322E;font:normal  12pt Helvetica, Helvetica, sans-serif;" data-name="gameplay_creator">People who create scripts, often users and environments.</text>
  <rect x="447.5" y="592.5" height="42" width="341" data-name="character_creator" style="stroke:#33322E;fill:#eee8d5;stroke-dasharray:none;stroke-width:3;"></rect>
  <path d="M447.5 613.5 L788.5 613.5" data-name="character_creator" style="stroke:#33322E;fill:none;stroke-dasharray:none;stroke-width:3;"></path>
  <text x="618" y="609" style="fill: #33322E;font:bold  12pt Helvetica, Helvetica, sans-serif;text-anchor: middle;" data-name="character_creator">character_creator</text>
  <text x="450.5" y="630" style="fill: #33322E;font:normal  12pt Helvetica, Helvetica, sans-serif;" data-name="character_creator">People who create characters and avatars</text>
  <rect x="370.5" y="646.5" height="42" width="495" data-name="outfit_creator" style="stroke:#33322E;fill:#eee8d5;stroke-dasharray:none;stroke-width:3;"></rect>
  <path d="M370.5 667.5 L865.5 667.5" data-name="outfit_creator" style="stroke:#33322E;fill:none;stroke-dasharray:none;stroke-width:3;"></path>
  <text x="618" y="663" style="fill: #33322E;font:bold  12pt Helvetica, Helvetica, sans-serif;text-anchor: middle;" data-name="outfit_creator">outfit_creator</text>
  <text x="373.5" y="684" style="fill: #33322E;font:normal  12pt Helvetica, Helvetica, sans-serif;" data-name="outfit_creator">Creators of characters and outfits which fit multiple characters</text>
  <rect x="474.5" y="700.5" height="42" width="288" data-name="item_asset_artists_and_creators" style="stroke:#33322E;fill:#eee8d5;stroke-dasharray:none;stroke-width:3;"></rect>
  <path d="M474.5 721.5 L762.5 721.5" data-name="item_asset_artists_and_creators" style="stroke:#33322E;fill:none;stroke-dasharray:none;stroke-width:3;"></path>
  <text x="618.5" y="717" style="fill: #33322E;font:bold  12pt Helvetica, Helvetica, sans-serif;text-anchor: middle;" data-name="item_asset_artists_and_creators">item_asset_artists_and_creators</text>
  <text x="477.5" y="738" style="fill: #33322E;font:normal  12pt Helvetica, Helvetica, sans-serif;" data-name="item_asset_artists_and_creators">Creators of items, assets and props</text>
  <rect x="453.5" y="766.5" height="42" width="329" data-name="tool_developers" style="stroke:#33322E;fill:#eee8d5;stroke-dasharray:none;stroke-width:3;"></rect>
  <path d="M453.5 787.5 L782.5 787.5" data-name="tool_developers" style="stroke:#33322E;fill:none;stroke-dasharray:none;stroke-width:3;"></path>
  <text x="618" y="783" style="fill: #33322E;font:bold  12pt Helvetica, Helvetica, sans-serif;text-anchor: middle;" data-name="tool_developers">tool_developers</text>
  <text x="456.5" y="804" style="fill: #33322E;font:normal  12pt Helvetica, Helvetica, sans-serif;" data-name="tool_developers">Developers within the ecosystem of tools</text>
  <rect x="1013.5" y="943.5" height="42" width="281" data-name="platform_host" style="stroke:#33322E;fill:#eee8d5;stroke-dasharray:none;stroke-width:3;"></rect>
  <path d="M1013.5 964.5 L1294.5 964.5" data-name="platform_host" style="stroke:#33322E;fill:none;stroke-dasharray:none;stroke-width:3;"></path>
  <text x="1154" y="960" style="fill: #33322E;font:bold  12pt Helvetica, Helvetica, sans-serif;text-anchor: middle;" data-name="platform_host">platform_host</text>
  <text x="1016.5" y="981" style="fill: #33322E;font:normal  12pt Helvetica, Helvetica, sans-serif;" data-name="platform_host">The server operator / platform host</text>
  <rect x="1400.5" y="1009.5" height="42" width="372" data-name="creation_tools" style="stroke:#33322E;fill:#eee8d5;stroke-dasharray:none;stroke-width:3;"></rect>
  <path d="M1400.5 1030.5 L1772.5 1030.5" data-name="creation_tools" style="stroke:#33322E;fill:none;stroke-dasharray:none;stroke-width:3;"></path>
  <text x="1586.5" y="1026" style="fill: #33322E;font:bold  12pt Helvetica, Helvetica, sans-serif;text-anchor: middle;" data-name="creation_tools">creation_tools</text>
  <text x="1403.5" y="1047" style="fill: #33322E;font:normal  12pt Helvetica, Helvetica, sans-serif;" data-name="creation_tools">Tool that helps the creators get their job done.</text>
  <rect x="334.5" y="1042.5" height="42" width="567" data-name="shopkeeper" style="stroke:#33322E;fill:#eee8d5;stroke-dasharray:none;stroke-width:3;"></rect>
  <path d="M334.5 1063.5 L901.5 1063.5" data-name="shopkeeper" style="stroke:#33322E;fill:none;stroke-dasharray:none;stroke-width:3;"></path>
  <text x="618" y="1059" style="fill: #33322E;font:bold  12pt Helvetica, Helvetica, sans-serif;text-anchor: middle;" data-name="shopkeeper">shopkeeper</text>
  <text x="337.5" y="1080" style="fill: #33322E;font:normal  12pt Helvetica, Helvetica, sans-serif;" data-name="shopkeeper">Any person providing a service for the metaverse. (can be free or paid)</text>
  <rect x="23.5" y="358.5" height="21" width="49" data-name="goals" style="stroke:#33322E;fill:#eee8d5;stroke-dasharray:none;stroke-width:3;"></rect>
  <text x="48" y="375" style="fill: #33322E;font:bold  12pt Helvetica, Helvetica, sans-serif;text-anchor: middle;" data-name="goals">goals</text>
  <rect x="120.5" y="98.5" height="21" width="48" data-name="tasks" style="stroke:#33322E;fill:#eee8d5;stroke-dasharray:none;stroke-width:3;"></rect>
  <text x="144.5" y="115" style="fill: #33322E;font:bold  12pt Helvetica, Helvetica, sans-serif;text-anchor: middle;" data-name="tasks">tasks</text>
  <rect x="215.5" y="68.5" height="21" width="100" data-name="approaches" style="stroke:#33322E;fill:#eee8d5;stroke-dasharray:none;stroke-width:3;"></rect>
  <text x="265.5" y="85" style="fill: #33322E;font:bold  12pt Helvetica, Helvetica, sans-serif;text-anchor: middle;" data-name="approaches">approaches</text>
  <rect x="596.5" y="29.5" height="21" width="44" data-name="facts" style="stroke:#33322E;fill:#eee8d5;stroke-dasharray:none;stroke-width:3;"></rect>
  <text x="618.5" y="46" style="fill: #33322E;font:bold  12pt Helvetica, Helvetica, sans-serif;text-anchor: middle;" data-name="facts">facts</text>
  <rect x="1068.5" y="23.5" height="21" width="171" data-name="server_infrastructure" style="stroke:#33322E;fill:#eee8d5;stroke-dasharray:none;stroke-width:3;"></rect>
  <text x="1154" y="40" style="fill: #33322E;font:bold  12pt Helvetica, Helvetica, sans-serif;text-anchor: middle;" data-name="server_infrastructure">server_infrastructure</text>
  <rect x="1080.5" y="526.5" height="21" width="146" data-name="godot_ecosystem" style="stroke:#33322E;fill:#eee8d5;stroke-dasharray:none;stroke-width:3;"></rect>
  <text x="1153.5" y="543" style="fill: #33322E;font:bold  12pt Helvetica, Helvetica, sans-serif;text-anchor: middle;" data-name="godot_ecosystem">godot_ecosystem</text>
  <rect x="1518.5" y="52.5" height="21" width="137" data-name="content_pipeline" style="stroke:#33322E;fill:#eee8d5;stroke-dasharray:none;stroke-width:3;"></rect>
  <text x="1587" y="69" style="fill: #33322E;font:bold  12pt Helvetica, Helvetica, sans-serif;text-anchor: middle;" data-name="content_pipeline">content_pipeline</text>
  <rect x="494.5" y="63.5" height="21" width="248" data-name="godot_alpha: ☆ Godot 4 alpha" style="stroke:#33322E;fill:#eee8d5;stroke-dasharray:none;stroke-width:3;"></rect>
  <text x="618.5" y="80" style="fill: #33322E;font:bold  12pt Helvetica, Helvetica, sans-serif;text-anchor: middle;" data-name="godot_alpha: ☆ Godot 4 alpha">godot_alpha: ☆ Godot 4 alpha</text>
  <rect x="1517.5" y="85.5" height="21" width="138" data-name="fix_godot_vrm_4" style="stroke:#33322E;fill:#eee8d5;stroke-dasharray:none;stroke-width:3;"></rect>
  <text x="1586.5" y="102" style="fill: #33322E;font:bold  12pt Helvetica, Helvetica, sans-serif;text-anchor: middle;" data-name="fix_godot_vrm_4">fix_godot_vrm_4</text>
  <rect x="1786.5" y="114.5" height="21" width="198" data-name="set_surface_material_pr" style="stroke:#33322E;fill:#eee8d5;stroke-dasharray:none;stroke-width:3;"></rect>
  <text x="1885.5" y="131" style="fill: #33322E;font:bold  12pt Helvetica, Helvetica, sans-serif;text-anchor: middle;" data-name="set_surface_material_pr">set_surface_material_pr</text>
  <rect x="1507.5" y="187.5" height="21" width="158" data-name="fix_godot_vrm_3_4" style="stroke:#33322E;fill:#eee8d5;stroke-dasharray:none;stroke-width:3;"></rect>
  <text x="1586.5" y="204" style="fill: #33322E;font:bold  12pt Helvetica, Helvetica, sans-serif;text-anchor: middle;" data-name="fix_godot_vrm_3_4">fix_godot_vrm_3_4</text>
  <rect x="1485.5" y="220.5" height="21" width="203" data-name="godot_bugfixes_and_prs" style="stroke:#33322E;fill:#eee8d5;stroke-dasharray:none;stroke-width:3;"></rect>
  <text x="1587" y="237" style="fill: #33322E;font:bold  12pt Helvetica, Helvetica, sans-serif;text-anchor: middle;" data-name="godot_bugfixes_and_prs">godot_bugfixes_and_prs</text>
  <rect x="1520.5" y="518.5" height="21" width="133" data-name="server_backups" style="stroke:#33322E;fill:#eee8d5;stroke-dasharray:none;stroke-width:3;"></rect>
  <text x="1587" y="535" style="fill: #33322E;font:bold  12pt Helvetica, Helvetica, sans-serif;text-anchor: middle;" data-name="server_backups">server_backups</text>
  <rect x="1529.5" y="253.5" height="21" width="115" data-name="glsl_materials" style="stroke:#33322E;fill:#eee8d5;stroke-dasharray:none;stroke-width:3;"></rect>
  <text x="1587" y="270" style="fill: #33322E;font:bold  12pt Helvetica, Helvetica, sans-serif;text-anchor: middle;" data-name="glsl_materials">glsl_materials</text>
  <rect x="1525.5" y="432.5" height="21" width="123" data-name="cloth_proposal" style="stroke:#33322E;fill:#eee8d5;stroke-dasharray:none;stroke-width:3;"></rect>
  <text x="1587" y="449" style="fill: #33322E;font:bold  12pt Helvetica, Helvetica, sans-serif;text-anchor: middle;" data-name="cloth_proposal">cloth_proposal</text>
  <rect x="1536.5" y="551.5" height="21" width="101" data-name="multi_8_uvs" style="stroke:#33322E;fill:#eee8d5;stroke-dasharray:none;stroke-width:3;"></rect>
  <text x="1587" y="568" style="fill: #33322E;font:bold  12pt Helvetica, Helvetica, sans-serif;text-anchor: middle;" data-name="multi_8_uvs">multi_8_uvs</text>
  <rect x="1489.5" y="584.5" height="21" width="195" data-name="fix_gltf_bugs_and_tests" style="stroke:#33322E;fill:#eee8d5;stroke-dasharray:none;stroke-width:3;"></rect>
  <text x="1587" y="601" style="fill: #33322E;font:bold  12pt Helvetica, Helvetica, sans-serif;text-anchor: middle;" data-name="fix_gltf_bugs_and_tests">fix_gltf_bugs_and_tests</text>
  <rect x="1796.5" y="147.5" height="21" width="179" data-name="fix_autoload_ordering" style="stroke:#33322E;fill:#eee8d5;stroke-dasharray:none;stroke-width:3;"></rect>
  <text x="1886" y="164" style="fill: #33322E;font:bold  12pt Helvetica, Helvetica, sans-serif;text-anchor: middle;" data-name="fix_autoload_ordering">fix_autoload_ordering</text>
  <rect x="1125.5" y="595.5" height="21" width="57" data-name="wasgo" style="stroke:#33322E;fill:#eee8d5;stroke-dasharray:none;stroke-width:3;"></rect>
  <text x="1154" y="612" style="fill: #33322E;font:bold  12pt Helvetica, Helvetica, sans-serif;text-anchor: middle;" data-name="wasgo">wasgo</text>
  <rect x="1820.5" y="180.5" height="21" width="130" data-name="unidot_importer" style="stroke:#33322E;fill:#eee8d5;stroke-dasharray:none;stroke-width:3;"></rect>
  <text x="1885.5" y="197" style="fill: #33322E;font:bold  12pt Helvetica, Helvetica, sans-serif;text-anchor: middle;" data-name="unidot_importer">unidot_importer</text>
  <rect x="1793.5" y="218.5" height="21" width="185" data-name="mozilla_hubs_importer" style="stroke:#33322E;fill:#eee8d5;stroke-dasharray:none;stroke-width:3;"></rect>
  <text x="1886" y="235" style="fill: #33322E;font:bold  12pt Helvetica, Helvetica, sans-serif;text-anchor: middle;" data-name="mozilla_hubs_importer">mozilla_hubs_importer</text>
  <rect x="1556.5" y="683.5" height="21" width="61" data-name="openxr" style="stroke:#33322E;fill:#eee8d5;stroke-dasharray:none;stroke-width:3;"></rect>
  <text x="1587" y="700" style="fill: #33322E;font:bold  12pt Helvetica, Helvetica, sans-serif;text-anchor: middle;" data-name="openxr">openxr</text>
  <rect x="1556.5" y="716.5" height="21" width="61" data-name="openvr" style="stroke:#33322E;fill:#eee8d5;stroke-dasharray:none;stroke-width:3;"></rect>
  <text x="1587" y="733" style="fill: #33322E;font:bold  12pt Helvetica, Helvetica, sans-serif;text-anchor: middle;" data-name="openvr">openvr</text>
  <rect x="84.5" y="369.5" height="21" width="119" data-name="godot_speech" style="stroke:#33322E;fill:#eee8d5;stroke-dasharray:none;stroke-width:3;"></rect>
  <text x="144" y="386" style="fill: #33322E;font:bold  12pt Helvetica, Helvetica, sans-serif;text-anchor: middle;" data-name="godot_speech">godot_speech</text>
  <rect x="1522.5" y="617.5" height="21" width="129" data-name="curl_integration" style="stroke:#33322E;fill:#eee8d5;stroke-dasharray:none;stroke-width:3;"></rect>
  <text x="1587" y="634" style="fill: #33322E;font:bold  12pt Helvetica, Helvetica, sans-serif;text-anchor: middle;" data-name="curl_integration">curl_integration</text>
  <rect x="1996.5" y="799.5" height="21" width="104" data-name="export_build" style="stroke:#33322E;fill:#eee8d5;stroke-dasharray:none;stroke-width:3;"></rect>
  <text x="2048.5" y="816" style="fill: #33322E;font:bold  12pt Helvetica, Helvetica, sans-serif;text-anchor: middle;" data-name="export_build">export_build</text>
  <rect x="1500.5" y="650.5" height="21" width="172" data-name="classdb_function_list" style="stroke:#33322E;fill:#eee8d5;stroke-dasharray:none;stroke-width:3;"></rect>
  <text x="1586.5" y="667" style="fill: #33322E;font:bold  12pt Helvetica, Helvetica, sans-serif;text-anchor: middle;" data-name="classdb_function_list">classdb_function_list</text>
  <rect x="225.5" y="598.5" height="21" width="80" data-name="personas" style="stroke:#33322E;fill:#eee8d5;stroke-dasharray:none;stroke-width:3;"></rect>
  <text x="265.5" y="615" style="fill: #33322E;font:bold  12pt Helvetica, Helvetica, sans-serif;text-anchor: middle;" data-name="personas">personas</text>
  <rect x="569.5" y="373.5" height="21" width="98" data-name="active_user" style="stroke:#33322E;fill:#eee8d5;stroke-dasharray:none;stroke-width:3;"></rect>
  <text x="618.5" y="390" style="fill: #33322E;font:bold  12pt Helvetica, Helvetica, sans-serif;text-anchor: middle;" data-name="active_user">active_user</text>
  <rect x="590.5" y="406.5" height="21" width="55" data-name="tourist" style="stroke:#33322E;fill:#eee8d5;stroke-dasharray:none;stroke-width:3;"></rect>
  <text x="618" y="423" style="fill: #33322E;font:bold  12pt Helvetica, Helvetica, sans-serif;text-anchor: middle;" data-name="tourist">tourist</text>
  <rect x="559.5" y="451.5" height="21" width="118" data-name="future_creator" style="stroke:#33322E;fill:#eee8d5;stroke-dasharray:none;stroke-width:3;"></rect>
  <text x="618.5" y="468" style="fill: #33322E;font:bold  12pt Helvetica, Helvetica, sans-serif;text-anchor: middle;" data-name="future_creator">future_creator</text>
  <rect x="1403.5" y="767.5" height="21" width="366" data-name="active_user: People who visit worlds regularly" style="stroke:#33322E;fill:#eee8d5;stroke-dasharray:none;stroke-width:3;"></rect>
  <text x="1586.5" y="784" style="fill: #33322E;font:bold  12pt Helvetica, Helvetica, sans-serif;text-anchor: middle;" data-name="active_user: People who visit worlds regularly">active_user: People who visit worlds regularly</text>
  <rect x="1398.5" y="800.5" height="21" width="376" data-name="tourist: casual or new visitors to the ecosystem" style="stroke:#33322E;fill:#eee8d5;stroke-dasharray:none;stroke-width:3;"></rect>
  <text x="1586.5" y="817" style="fill: #33322E;font:bold  12pt Helvetica, Helvetica, sans-serif;text-anchor: middle;" data-name="tourist: casual or new visitors to the ecosystem">tourist: casual or new visitors to the ecosystem</text>
  <rect x="920.5" y="559.5" height="21" width="466" data-name="future_creator: New users interested in becoming creators" style="stroke:#33322E;fill:#eee8d5;stroke-dasharray:none;stroke-width:3;"></rect>
  <text x="1153.5" y="576" style="fill: #33322E;font:bold  12pt Helvetica, Helvetica, sans-serif;text-anchor: middle;" data-name="future_creator: New users interested in becoming creators">future_creator: New users interested in becoming creators</text>
  <rect x="1814.5" y="1007.5" height="21" width="142" data-name="creation_pipeline" style="stroke:#33322E;fill:#eee8d5;stroke-dasharray:none;stroke-width:3;"></rect>
  <text x="1885.5" y="1024" style="fill: #33322E;font:bold  12pt Helvetica, Helvetica, sans-serif;text-anchor: middle;" data-name="creation_pipeline">creation_pipeline</text>
</svg>