<svg version="1.1" baseProfile="full" width="2831" height="719.5" viewbox="0 0 2831 719.5" xmlns="http://www.w3.org/2000/svg" xmlns:xlink="http://www.w3.org/1999/xlink" xmlns:ev="http://www.w3.org/2001/xml-events" style="font:bold  12pt Helvetica, Helvetica, sans-serif;;stroke-linejoin:round;stroke-linecap:round">
  <title >Ship V-Sekai Groups 4</title>
  <desc >#direction: right
#title: Ship V-Sekai Groups 4
#fontSize: 8
#spacing: 12
#padding: 3
#ranker: acyclicer
#zoom: 1
#bendSize: 1
#fontSize: 12

[goals] - [tasks]
[tasks] - [approaches]
[approaches] - [facts] 

[facts] - [server_infrastructure]
[facts] - [godot_ecosystem]
[facts] - [content_pipeline]

[approaches] - [use_webrtc_instead_of_enet|  Combine two clusters of enet and webrtc]
[godot_ecosystem] - [openvr]
[approaches] - [godot_speech]
[godot_ecosystem] - [curl_integration]
[godot_ecosystem] - [multi_8_uvs]
[godot_ecosystem] - [fix_godot_vrm_4]
[content_pipeline] - [fix_godot_vrm_4]
[set_surface_material_pr] - [fix_godot_vrm_4]
[godot_ecosystem] - [godot_gdscript_autoload]
[server_infrastructure] - [server_backups]
[godot_ecosystem] - [glsl_materials]
[godot_ecosystem] - [cloth_proposal]
[godot_ecosystem] -  [fix_gltf_bugs_and_tests]
[godot_gdscript_autoload] - [fix_autoload_ordering]
[approaches] - [wasgo]
[content_pipeline] - [unidot_importer]
[content_pipeline] - [mozilla_hubs_importer]
[fix_autoload_ordering] - [export_build]
[approaches] - [wasgo]
[wasgo] - [classdb_function_list] 
[goals] - [v_sekai_4_0]
[active_user] - [v_sekai_4_0]
[tourist] - [v_sekai_4_0]
[first_timer] - [v_sekai_4_0]
[future_creator] - [v_sekai_4_0]
[environment_creator] - [v_sekai_4_0]
[gameplay_creator] - [v_sekai_4_0]
[character_creator] - [v_sekai_4_0]
[outfit_creator] - [v_sekai_4_0]
[item_asset_artists_and_creators] - [v_sekai_4_0]
[tool_developers] - [v_sekai_4_0]
[platform_host] - [v_sekai_4_0]
[creation_tools] - [v_sekai_4_0]
[shopkeeper] - [v_sekai_4_0]
[first_timer] - [active_user| People who visit worlds regularly]
[first_timer] - [tourist| casual or new visitors to the ecosystem]
[openvr] - [first_timer| First time user experiencers (FTUX)]
[multi_8_uvs] - [future_creator| New users interested in becoming creators]
[active_user] -  [future_creator| New users interested in becoming creators]
[environment_creator| The people who create things such as worlds or characters on platforms] - [active_user]
[gameplay_creator| People who create scripts, often users and environemnts.] - [wasgo]
[character_creator| People who create characters and avatars.] - [active_user]
[outfit_creator| Creators of characters and outfits which fit multiple characters] - [active_user]
[item_asset_artists_and_creators| Creators of items, assets and props] - [active_user]
[tool_developers| Developers within the ecosystem of tools] - [godot_ecosystem]
[server_backups] - [platform_host| The server operator / platform host]
[export_build] - [platform_host| The server operator / platform host]
[use_webrtc_instead_of_enet] - [platform_host| The server operator / platform host] 
[unidot_importer] - [creation_tools | Tool that helps the creators get their job done. ]
[mozilla_hubs_importer] - [creation_tools | Tool that helps the creators get their job done. ]
[shopkeeper: Any person providing a service for the metaverse. (can be free or paid)] - [active_user]</desc>
  <rect x="0" y="0" height="719.5" width="2831" style="stroke:none; fill:transparent;"></rect>
  <path d="M59.2 671.5 L78.5 653.5 L84.5 653.5 L84.5 653.5 " style="stroke:#33322E;fill:none;stroke-dasharray:none;stroke-width:3;"></path>
  <path d="M132.5 653.5 L138.5 653.5 L144.5 653.5 L144.5 653.5 " style="stroke:#33322E;fill:none;stroke-dasharray:none;stroke-width:3;"></path>
  <path d="M201.4 643 L250.5 568.8 L399 568.8 L399 568.8 " style="stroke:#33322E;fill:none;stroke-dasharray:none;stroke-width:3;"></path>
  <path d="M443 565.1 L591.5 540.3 L696.5 540.3 L696.5 540.3 L801.5 540.3 L801.5 540.3 L909 540.3 L909 540.3 L1016.5 540.3 L1016.5 540.3 L1272.5 540.3 L1272.5 540.3 " style="stroke:#33322E;fill:none;stroke-dasharray:none;stroke-width:3;"></path>
  <path d="M443 567.1 L591.5 556 L688.1 435.3 L688.1 435.3 " style="stroke:#33322E;fill:none;stroke-dasharray:none;stroke-width:3;"></path>
  <path d="M443 570.8 L591.5 584.5 L628 584.5 L628 584.5 " style="stroke:#33322E;fill:none;stroke-dasharray:none;stroke-width:3;"></path>
  <path d="M225.9 643 L250.5 634.8 L421 634.8 L421 634.8 L591.5 634.8 L591.5 634.8 L696.5 634.8 L696.5 634.8 L801.5 634.8 L801.5 634.8 L909 634.8 L909 634.8 L1016.5 634.8 L1016.5 634.8 L1358 634.8 L1358 634.8 L1699.5 634.8 L1699.5 634.8 L1705.5 634.8 L1705.5 634.8 " style="stroke:#33322E;fill:none;stroke-dasharray:none;stroke-width:3;"></path>
  <path d="M704.4 414.3 L801.5 286 L878.5 286 L878.5 286 " style="stroke:#33322E;fill:none;stroke-dasharray:none;stroke-width:3;"></path>
  <path d="M244.5 656.8 L250.5 657.3 L361.5 657.3 L361.5 657.3 " style="stroke:#33322E;fill:none;stroke-dasharray:none;stroke-width:3;"></path>
  <path d="M706.9 414.3 L801.5 319 L844.5 319 L844.5 319 " style="stroke:#33322E;fill:none;stroke-dasharray:none;stroke-width:3;"></path>
  <path d="M709.7 414.3 L801.5 341.5 L909 341.5 L909 341.5 L1016.5 341.5 L1016.5 341.5 L1358 341.5 L1358 341.5 L1699.5 341.5 L1699.5 341.5 L1818.5 341.5 L1818.5 341.5 " style="stroke:#33322E;fill:none;stroke-dasharray:none;stroke-width:3;"></path>
  <path d="M713 414.3 L801.5 358 L899.2 463 L899.2 463 " style="stroke:#33322E;fill:none;stroke-dasharray:none;stroke-width:3;"></path>
  <path d="M745.5 574 L801.5 562 L896.2 484 L896.2 484 " style="stroke:#33322E;fill:none;stroke-dasharray:none;stroke-width:3;"></path>
  <path d="M795.5 501.3 L801.5 501.3 L868.3 484 L868.3 484 " style="stroke:#33322E;fill:none;stroke-dasharray:none;stroke-width:3;"></path>
  <path d="M718.4 414.3 L801.5 374.5 L807.5 374.5 L807.5 374.5 " style="stroke:#33322E;fill:none;stroke-dasharray:none;stroke-width:3;"></path>
  <path d="M1443.5 540.3 L1699.5 540.3 L1802.5 540.3 L1802.5 540.3 " style="stroke:#33322E;fill:none;stroke-dasharray:none;stroke-width:3;"></path>
  <path d="M760.4 414.3 L801.5 407.5 L851.5 407.5 L851.5 407.5 " style="stroke:#33322E;fill:none;stroke-dasharray:none;stroke-width:3;"></path>
  <path d="M766.5 435.3 L801.5 440.5 L847.5 440.5 L847.5 440.5 " style="stroke:#33322E;fill:none;stroke-dasharray:none;stroke-width:3;"></path>
  <path d="M716.9 435.3 L801.5 478.8 L868.3 496 L868.3 496 " style="stroke:#33322E;fill:none;stroke-dasharray:none;stroke-width:3;"></path>
  <path d="M1010.5 374.5 L1016.5 374.5 L1268.5 374.5 L1268.5 374.5 " style="stroke:#33322E;fill:none;stroke-dasharray:none;stroke-width:3;"></path>
  <path d="M216.9 664 L250.5 679.8 L421 679.8 L421 679.8 L591.5 679.8 L591.5 679.8 L696.5 679.8 L696.5 679.8 L801.5 679.8 L801.5 679.8 L909 679.8 L909 679.8 L1016.5 679.8 L1016.5 679.8 L1358 679.8 L1358 679.8 L1699.5 679.8 L1699.5 679.8 L1869 679.8 L1869 679.8 L2038.5 679.8 L2038.5 679.8 L2275 679.8 L2275 679.8 L2511.5 679.8 L2511.5 679.8 L2542.5 679.8 L2542.5 679.8 " style="stroke:#33322E;fill:none;stroke-dasharray:none;stroke-width:3;"></path>
  <path d="M765 577.7 L801.5 574 L844 574 L844 574 " style="stroke:#33322E;fill:none;stroke-dasharray:none;stroke-width:3;"></path>
  <path d="M745.5 595 L801.5 607 L816.5 607 L816.5 607 " style="stroke:#33322E;fill:none;stroke-dasharray:none;stroke-width:3;"></path>
  <path d="M1447.5 374.5 L1699.5 374.5 L1817 374.5 L1817 374.5 " style="stroke:#33322E;fill:none;stroke-dasharray:none;stroke-width:3;"></path>
  <path d="M2599.5 679.8 L2630.5 679.8 L2636.5 679.8 L2636.5 679.8 " style="stroke:#33322E;fill:none;stroke-dasharray:none;stroke-width:3;"></path>
  <path d="M69.4 692.5 L78.5 697 L108.5 697 L108.5 697 L138.5 697 L138.5 697 L194.5 697 L194.5 697 L250.5 697 L250.5 697 L421 697 L421 697 L591.5 697 L591.5 697 L696.5 697 L696.5 697 L801.5 697 L801.5 697 L909 697 L909 697 L1016.5 697 L1016.5 697 L1358 697 L1358 697 L1699.5 697 L1699.5 697 L1869 697 L1869 697 L2038.5 697 L2038.5 697 L2275 697 L2275 697 L2511.5 697 L2511.5 697 L2569.8 183.3 L2569.8 183.3 " style="stroke:#33322E;fill:none;stroke-dasharray:none;stroke-width:3;"></path>
  <path d="M2001 230.8 L2038.5 227.5 L2275 227.5 L2275 227.5 L2511.5 227.5 L2511.5 227.5 L2559.6 183.3 L2559.6 183.3 " style="stroke:#33322E;fill:none;stroke-dasharray:none;stroke-width:3;"></path>
  <path d="M2433.5 384.3 L2511.5 384.3 L2568 183.3 L2568 183.3 " style="stroke:#33322E;fill:none;stroke-dasharray:none;stroke-width:3;"></path>
  <path d="M1501 281.6 L1699.5 275.5 L1869 275.5 L1869 275.5 L2038.5 275.5 L2038.5 275.5 L2275 275.5 L2275 275.5 L2511.5 275.5 L2511.5 275.5 L2564.9 183.3 L2564.9 183.3 " style="stroke:#33322E;fill:none;stroke-dasharray:none;stroke-width:3;"></path>
  <path d="M2447 330.3 L2511.5 330.3 L2567 183.3 L2567 183.3 " style="stroke:#33322E;fill:none;stroke-dasharray:none;stroke-width:3;"></path>
  <path d="M1646 47.6 L1699.5 46 L1869 46 L1869 46 L2038.5 46 L2038.5 46 L2275 46 L2275 46 L2511.5 46 L2511.5 46 L2566.1 162.3 L2566.1 162.3 " style="stroke:#33322E;fill:none;stroke-dasharray:none;stroke-width:3;"></path>
  <path d="M2505.5 68.8 L2511.5 68.5 L2565 162.3 L2565 162.3 " style="stroke:#33322E;fill:none;stroke-dasharray:none;stroke-width:3;"></path>
  <path d="M1531 115 L1699.5 112 L1869 112 L1869 112 L2038.5 112 L2038.5 112 L2275 112 L2275 112 L2511.5 112 L2511.5 112 L2560.7 162.3 L2560.7 162.3 " style="stroke:#33322E;fill:none;stroke-dasharray:none;stroke-width:3;"></path>
  <path d="M1605.5 164.4 L1699.5 161.5 L1869 161.5 L1869 161.5 L2038.5 161.5 L2038.5 161.5 L2275 161.5 L2275 161.5 L2511.5 161.5 L2511.5 161.5 L2517.5 162.6 L2517.5 162.6 " style="stroke:#33322E;fill:none;stroke-dasharray:none;stroke-width:3;"></path>
  <path d="M1502 217.1 L1699.5 205 L1869 205 L1869 205 L2038.5 205 L2038.5 205 L2275 205 L2275 205 L2511.5 205 L2511.5 205 L2551.6 183.3 L2551.6 183.3 " style="stroke:#33322E;fill:none;stroke-dasharray:none;stroke-width:3;"></path>
  <path d="M442 172.8 L591.5 23.5 L696.5 23.5 L696.5 23.5 L801.5 23.5 L801.5 23.5 L909 23.5 L909 23.5 L1016.5 23.5 L1016.5 23.5 L1358 23.5 L1358 23.5 L1699.5 23.5 L1699.5 23.5 L1869 23.5 L1869 23.5 L2038.5 23.5 L2038.5 23.5 L2275 23.5 L2275 23.5 L2511.5 23.5 L2511.5 23.5 L2566.8 162.3 L2566.8 162.3 " style="stroke:#33322E;fill:none;stroke-dasharray:none;stroke-width:3;"></path>
  <path d="M2415.5 529 L2511.5 529 L2569.2 183.3 L2569.2 183.3 " style="stroke:#33322E;fill:none;stroke-dasharray:none;stroke-width:3;"></path>
  <path d="M1544 590.5 L1699.5 590.5 L1869 590.5 L1869 590.5 L2038.5 590.5 L2038.5 590.5 L2275 590.5 L2275 590.5 L2511.5 590.5 L2511.5 590.5 L2569.5 183.3 L2569.5 183.3 " style="stroke:#33322E;fill:none;stroke-dasharray:none;stroke-width:3;"></path>
  <path d="M2325 139 L2511.5 139 L2552.5 162.3 L2552.5 162.3 " style="stroke:#33322E;fill:none;stroke-dasharray:none;stroke-width:3;"></path>
  <path d="M1501 290.4 L1699.5 296.5 L1803.1 263.5 L1803.1 263.5 " style="stroke:#33322E;fill:none;stroke-dasharray:none;stroke-width:3;"></path>
  <path d="M1501 295.4 L1699.5 308.5 L1869 308.5 L1869 308.5 L2038.5 308.5 L2038.5 308.5 L2209.4 363.3 L2209.4 363.3 " style="stroke:#33322E;fill:none;stroke-dasharray:none;stroke-width:3;"></path>
  <path d="M939.5 286 L1016.5 286 L1215 286 L1215 286 " style="stroke:#33322E;fill:none;stroke-dasharray:none;stroke-width:3;"></path>
  <path d="M1919.5 341.5 L2038.5 341.5 L2103 338.4 L2103 338.4 " style="stroke:#33322E;fill:none;stroke-dasharray:none;stroke-width:3;"></path>
  <path d="M2001 250.7 L2038.5 253 L2210.7 309.3 L2210.7 309.3 " style="stroke:#33322E;fill:none;stroke-dasharray:none;stroke-width:3;"></path>
  <path d="M1623.6 77.5 L1699.5 83.5 L1846.6 221.5 L1846.6 221.5 " style="stroke:#33322E;fill:none;stroke-dasharray:none;stroke-width:3;"></path>
  <path d="M2505.5 89.2 L2511.5 89.5 L2569.9 669.3 L2569.9 669.3 " style="stroke:#33322E;fill:none;stroke-dasharray:none;stroke-width:3;"></path>
  <path d="M1531 128.6 L1699.5 139 L1834.6 221.5 L1834.6 221.5 " style="stroke:#33322E;fill:none;stroke-dasharray:none;stroke-width:3;"></path>
  <path d="M1605.5 187.2 L1699.5 193 L1797.1 221.5 L1797.1 221.5 " style="stroke:#33322E;fill:none;stroke-dasharray:none;stroke-width:3;"></path>
  <path d="M1502 233 L1699.5 242.5 L1737 242.5 L1737 242.5 " style="stroke:#33322E;fill:none;stroke-dasharray:none;stroke-width:3;"></path>
  <path d="M436.5 214.8 L591.5 424.8 L623.5 424.8 L623.5 424.8 " style="stroke:#33322E;fill:none;stroke-dasharray:none;stroke-width:3;"></path>
  <path d="M1935.5 540.3 L2038.5 540.3 L2134.5 535.7 L2134.5 535.7 " style="stroke:#33322E;fill:none;stroke-dasharray:none;stroke-width:3;"></path>
  <path d="M1921 374.5 L2038.5 374.5 L2242.9 508 L2242.9 508 " style="stroke:#33322E;fill:none;stroke-dasharray:none;stroke-width:3;"></path>
  <path d="M2032.5 634.8 L2038.5 634.8 L2228 550 L2228 550 " style="stroke:#33322E;fill:none;stroke-dasharray:none;stroke-width:3;"></path>
  <path d="M974 574 L1016.5 574 L1172 581.5 L1172 581.5 " style="stroke:#33322E;fill:none;stroke-dasharray:none;stroke-width:3;"></path>
  <path d="M1001.5 607 L1016.5 607 L1172 599.5 L1172 599.5 " style="stroke:#33322E;fill:none;stroke-dasharray:none;stroke-width:3;"></path>
  <path d="M1693.5 451.8 L1699.5 451.8 L1852 263.5 L1852 263.5 " style="stroke:#33322E;fill:none;stroke-dasharray:none;stroke-width:3;"></path>
  <rect x="1705.5" y="613.5" height="42" width="327" data-name="use_webrtc_instead_of_enet" style="stroke:#33322E;fill:#eee8d5;stroke-dasharray:none;stroke-width:3;"></rect>
  <path d="M1705.5 634.5 L2032.5 634.5" data-name="use_webrtc_instead_of_enet" style="stroke:#33322E;fill:none;stroke-dasharray:none;stroke-width:3;"></path>
  <text x="1869" y="630" style="fill: #33322E;font:bold  12pt Helvetica, Helvetica, sans-serif;text-anchor: middle;" data-name="use_webrtc_instead_of_enet">use_webrtc_instead_of_enet</text>
  <text x="1708.5" y="651" style="fill: #33322E;font:normal  12pt Helvetica, Helvetica, sans-serif;" data-name="use_webrtc_instead_of_enet">Combine two clusters of enet and webrtc</text>
  <rect x="1737.5" y="221.5" height="42" width="264" data-name="active_user" style="stroke:#33322E;fill:#eee8d5;stroke-dasharray:none;stroke-width:3;"></rect>
  <path d="M1737.5 242.5 L2001.5 242.5" data-name="active_user" style="stroke:#33322E;fill:none;stroke-dasharray:none;stroke-width:3;"></path>
  <text x="1869.5" y="238" style="fill: #33322E;font:bold  12pt Helvetica, Helvetica, sans-serif;text-anchor: middle;" data-name="active_user">active_user</text>
  <text x="1740.5" y="259" style="fill: #33322E;font:normal  12pt Helvetica, Helvetica, sans-serif;" data-name="active_user">People who visit worlds regularly</text>
  <rect x="2116.5" y="363.5" height="42" width="317" data-name="tourist" style="stroke:#33322E;fill:#eee8d5;stroke-dasharray:none;stroke-width:3;"></rect>
  <path d="M2116.5 384.5 L2433.5 384.5" data-name="tourist" style="stroke:#33322E;fill:none;stroke-dasharray:none;stroke-width:3;"></path>
  <text x="2275" y="380" style="fill: #33322E;font:bold  12pt Helvetica, Helvetica, sans-serif;text-anchor: middle;" data-name="tourist">tourist</text>
  <text x="2119.5" y="401" style="fill: #33322E;font:normal  12pt Helvetica, Helvetica, sans-serif;" data-name="tourist">casual or new visitors to the ecosystem</text>
  <rect x="1215.5" y="265.5" height="42" width="286" data-name="first_timer" style="stroke:#33322E;fill:#eee8d5;stroke-dasharray:none;stroke-width:3;"></rect>
  <path d="M1215.5 286.5 L1501.5 286.5" data-name="first_timer" style="stroke:#33322E;fill:none;stroke-dasharray:none;stroke-width:3;"></path>
  <text x="1358.5" y="282" style="fill: #33322E;font:bold  12pt Helvetica, Helvetica, sans-serif;text-anchor: middle;" data-name="first_timer">first_timer</text>
  <text x="1218.5" y="303" style="fill: #33322E;font:normal  12pt Helvetica, Helvetica, sans-serif;" data-name="first_timer">First time user experiencers (FTUX)</text>
  <rect x="2103.5" y="309.5" height="42" width="344" data-name="future_creator" style="stroke:#33322E;fill:#eee8d5;stroke-dasharray:none;stroke-width:3;"></rect>
  <path d="M2103.5 330.5 L2447.5 330.5" data-name="future_creator" style="stroke:#33322E;fill:none;stroke-dasharray:none;stroke-width:3;"></path>
  <text x="2275.5" y="326" style="fill: #33322E;font:bold  12pt Helvetica, Helvetica, sans-serif;text-anchor: middle;" data-name="future_creator">future_creator</text>
  <text x="2106.5" y="347" style="fill: #33322E;font:normal  12pt Helvetica, Helvetica, sans-serif;" data-name="future_creator">New users interested in becoming creators</text>
  <rect x="1070.5" y="35.5" height="42" width="576" data-name="environment_creator" style="stroke:#33322E;fill:#eee8d5;stroke-dasharray:none;stroke-width:3;"></rect>
  <path d="M1070.5 56.5 L1646.5 56.5" data-name="environment_creator" style="stroke:#33322E;fill:none;stroke-dasharray:none;stroke-width:3;"></path>
  <text x="1358.5" y="52" style="fill: #33322E;font:bold  12pt Helvetica, Helvetica, sans-serif;text-anchor: middle;" data-name="environment_creator">environment_creator</text>
  <text x="1073.5" y="73" style="fill: #33322E;font:normal  12pt Helvetica, Helvetica, sans-serif;" data-name="environment_creator">The people who create things such as worlds or characters on platforms</text>
  <rect x="2044.5" y="58.5" height="42" width="461" data-name="gameplay_creator" style="stroke:#33322E;fill:#eee8d5;stroke-dasharray:none;stroke-width:3;"></rect>
  <path d="M2044.5 79.5 L2505.5 79.5" data-name="gameplay_creator" style="stroke:#33322E;fill:none;stroke-dasharray:none;stroke-width:3;"></path>
  <text x="2275" y="75" style="fill: #33322E;font:bold  12pt Helvetica, Helvetica, sans-serif;text-anchor: middle;" data-name="gameplay_creator">gameplay_creator</text>
  <text x="2047.5" y="96" style="fill: #33322E;font:normal  12pt Helvetica, Helvetica, sans-serif;" data-name="gameplay_creator">People who create scripts, often users and environemnts.</text>
  <rect x="1185.5" y="97.5" height="42" width="346" data-name="character_creator" style="stroke:#33322E;fill:#eee8d5;stroke-dasharray:none;stroke-width:3;"></rect>
  <path d="M1185.5 118.5 L1531.5 118.5" data-name="character_creator" style="stroke:#33322E;fill:none;stroke-dasharray:none;stroke-width:3;"></path>
  <text x="1358.5" y="114" style="fill: #33322E;font:bold  12pt Helvetica, Helvetica, sans-serif;text-anchor: middle;" data-name="character_creator">character_creator</text>
  <text x="1188.5" y="135" style="fill: #33322E;font:normal  12pt Helvetica, Helvetica, sans-serif;" data-name="character_creator">People who create characters and avatars.</text>
  <rect x="1110.5" y="151.5" height="42" width="495" data-name="outfit_creator" style="stroke:#33322E;fill:#eee8d5;stroke-dasharray:none;stroke-width:3;"></rect>
  <path d="M1110.5 172.5 L1605.5 172.5" data-name="outfit_creator" style="stroke:#33322E;fill:none;stroke-dasharray:none;stroke-width:3;"></path>
  <text x="1358" y="168" style="fill: #33322E;font:bold  12pt Helvetica, Helvetica, sans-serif;text-anchor: middle;" data-name="outfit_creator">outfit_creator</text>
  <text x="1113.5" y="189" style="fill: #33322E;font:normal  12pt Helvetica, Helvetica, sans-serif;" data-name="outfit_creator">Creators of characters and outfits which fit multiple characters</text>
  <rect x="1214.5" y="205.5" height="42" width="288" data-name="item_asset_artists_and_creators" style="stroke:#33322E;fill:#eee8d5;stroke-dasharray:none;stroke-width:3;"></rect>
  <path d="M1214.5 226.5 L1502.5 226.5" data-name="item_asset_artists_and_creators" style="stroke:#33322E;fill:none;stroke-dasharray:none;stroke-width:3;"></path>
  <text x="1358.5" y="222" style="fill: #33322E;font:bold  12pt Helvetica, Helvetica, sans-serif;text-anchor: middle;" data-name="item_asset_artists_and_creators">item_asset_artists_and_creators</text>
  <text x="1217.5" y="243" style="fill: #33322E;font:normal  12pt Helvetica, Helvetica, sans-serif;" data-name="item_asset_artists_and_creators">Creators of items, assets and props</text>
  <rect x="256.5" y="172.5" height="42" width="329" data-name="tool_developers" style="stroke:#33322E;fill:#eee8d5;stroke-dasharray:none;stroke-width:3;"></rect>
  <path d="M256.5 193.5 L585.5 193.5" data-name="tool_developers" style="stroke:#33322E;fill:none;stroke-dasharray:none;stroke-width:3;"></path>
  <text x="421" y="189" style="fill: #33322E;font:bold  12pt Helvetica, Helvetica, sans-serif;text-anchor: middle;" data-name="tool_developers">tool_developers</text>
  <text x="259.5" y="210" style="fill: #33322E;font:normal  12pt Helvetica, Helvetica, sans-serif;" data-name="tool_developers">Developers within the ecosystem of tools</text>
  <rect x="2134.5" y="508.5" height="42" width="281" data-name="platform_host" style="stroke:#33322E;fill:#eee8d5;stroke-dasharray:none;stroke-width:3;"></rect>
  <path d="M2134.5 529.5 L2415.5 529.5" data-name="platform_host" style="stroke:#33322E;fill:none;stroke-dasharray:none;stroke-width:3;"></path>
  <text x="2275" y="525" style="fill: #33322E;font:bold  12pt Helvetica, Helvetica, sans-serif;text-anchor: middle;" data-name="platform_host">platform_host</text>
  <text x="2137.5" y="546" style="fill: #33322E;font:normal  12pt Helvetica, Helvetica, sans-serif;" data-name="platform_host">The server operator / platform host</text>
  <rect x="1172.5" y="569.5" height="42" width="372" data-name="creation_tools" style="stroke:#33322E;fill:#eee8d5;stroke-dasharray:none;stroke-width:3;"></rect>
  <path d="M1172.5 590.5 L1544.5 590.5" data-name="creation_tools" style="stroke:#33322E;fill:none;stroke-dasharray:none;stroke-width:3;"></path>
  <text x="1358.5" y="586" style="fill: #33322E;font:bold  12pt Helvetica, Helvetica, sans-serif;text-anchor: middle;" data-name="creation_tools">creation_tools</text>
  <text x="1175.5" y="607" style="fill: #33322E;font:normal  12pt Helvetica, Helvetica, sans-serif;" data-name="creation_tools">Tool that helps the creators get their job done.</text>
  <rect x="23.5" y="671.5" height="21" width="49" data-name="goals" style="stroke:#33322E;fill:#eee8d5;stroke-dasharray:none;stroke-width:3;"></rect>
  <text x="48" y="688" style="fill: #33322E;font:bold  12pt Helvetica, Helvetica, sans-serif;text-anchor: middle;" data-name="goals">goals</text>
  <rect x="84.5" y="643.5" height="21" width="48" data-name="tasks" style="stroke:#33322E;fill:#eee8d5;stroke-dasharray:none;stroke-width:3;"></rect>
  <text x="108.5" y="660" style="fill: #33322E;font:bold  12pt Helvetica, Helvetica, sans-serif;text-anchor: middle;" data-name="tasks">tasks</text>
  <rect x="144.5" y="643.5" height="21" width="100" data-name="approaches" style="stroke:#33322E;fill:#eee8d5;stroke-dasharray:none;stroke-width:3;"></rect>
  <text x="194.5" y="660" style="fill: #33322E;font:bold  12pt Helvetica, Helvetica, sans-serif;text-anchor: middle;" data-name="approaches">approaches</text>
  <rect x="399.5" y="558.5" height="21" width="44" data-name="facts" style="stroke:#33322E;fill:#eee8d5;stroke-dasharray:none;stroke-width:3;"></rect>
  <text x="421.5" y="575" style="fill: #33322E;font:bold  12pt Helvetica, Helvetica, sans-serif;text-anchor: middle;" data-name="facts">facts</text>
  <rect x="1272.5" y="529.5" height="21" width="171" data-name="server_infrastructure" style="stroke:#33322E;fill:#eee8d5;stroke-dasharray:none;stroke-width:3;"></rect>
  <text x="1358" y="546" style="fill: #33322E;font:bold  12pt Helvetica, Helvetica, sans-serif;text-anchor: middle;" data-name="server_infrastructure">server_infrastructure</text>
  <rect x="623.5" y="414.5" height="21" width="146" data-name="godot_ecosystem" style="stroke:#33322E;fill:#eee8d5;stroke-dasharray:none;stroke-width:3;"></rect>
  <text x="696.5" y="431" style="fill: #33322E;font:bold  12pt Helvetica, Helvetica, sans-serif;text-anchor: middle;" data-name="godot_ecosystem">godot_ecosystem</text>
  <rect x="628.5" y="574.5" height="21" width="137" data-name="content_pipeline" style="stroke:#33322E;fill:#eee8d5;stroke-dasharray:none;stroke-width:3;"></rect>
  <text x="697" y="591" style="fill: #33322E;font:bold  12pt Helvetica, Helvetica, sans-serif;text-anchor: middle;" data-name="content_pipeline">content_pipeline</text>
  <rect x="878.5" y="275.5" height="21" width="61" data-name="openvr" style="stroke:#33322E;fill:#eee8d5;stroke-dasharray:none;stroke-width:3;"></rect>
  <text x="909" y="292" style="fill: #33322E;font:bold  12pt Helvetica, Helvetica, sans-serif;text-anchor: middle;" data-name="openvr">openvr</text>
  <rect x="361.5" y="646.5" height="21" width="119" data-name="godot_speech" style="stroke:#33322E;fill:#eee8d5;stroke-dasharray:none;stroke-width:3;"></rect>
  <text x="421" y="663" style="fill: #33322E;font:bold  12pt Helvetica, Helvetica, sans-serif;text-anchor: middle;" data-name="godot_speech">godot_speech</text>
  <rect x="844.5" y="308.5" height="21" width="129" data-name="curl_integration" style="stroke:#33322E;fill:#eee8d5;stroke-dasharray:none;stroke-width:3;"></rect>
  <text x="909" y="325" style="fill: #33322E;font:bold  12pt Helvetica, Helvetica, sans-serif;text-anchor: middle;" data-name="curl_integration">curl_integration</text>
  <rect x="1818.5" y="331.5" height="21" width="101" data-name="multi_8_uvs" style="stroke:#33322E;fill:#eee8d5;stroke-dasharray:none;stroke-width:3;"></rect>
  <text x="1869" y="348" style="fill: #33322E;font:bold  12pt Helvetica, Helvetica, sans-serif;text-anchor: middle;" data-name="multi_8_uvs">multi_8_uvs</text>
  <rect x="840.5" y="463.5" height="21" width="138" data-name="fix_godot_vrm_4" style="stroke:#33322E;fill:#eee8d5;stroke-dasharray:none;stroke-width:3;"></rect>
  <text x="909.5" y="480" style="fill: #33322E;font:bold  12pt Helvetica, Helvetica, sans-serif;text-anchor: middle;" data-name="fix_godot_vrm_4">fix_godot_vrm_4</text>
  <rect x="597.5" y="490.5" height="21" width="198" data-name="set_surface_material_pr" style="stroke:#33322E;fill:#eee8d5;stroke-dasharray:none;stroke-width:3;"></rect>
  <text x="696.5" y="507" style="fill: #33322E;font:bold  12pt Helvetica, Helvetica, sans-serif;text-anchor: middle;" data-name="set_surface_material_pr">set_surface_material_pr</text>
  <rect x="807.5" y="364.5" height="21" width="203" data-name="godot_gdscript_autoload" style="stroke:#33322E;fill:#eee8d5;stroke-dasharray:none;stroke-width:3;"></rect>
  <text x="909" y="381" style="fill: #33322E;font:bold  12pt Helvetica, Helvetica, sans-serif;text-anchor: middle;" data-name="godot_gdscript_autoload">godot_gdscript_autoload</text>
  <rect x="1802.5" y="529.5" height="21" width="133" data-name="server_backups" style="stroke:#33322E;fill:#eee8d5;stroke-dasharray:none;stroke-width:3;"></rect>
  <text x="1869" y="546" style="fill: #33322E;font:bold  12pt Helvetica, Helvetica, sans-serif;text-anchor: middle;" data-name="server_backups">server_backups</text>
  <rect x="851.5" y="397.5" height="21" width="115" data-name="glsl_materials" style="stroke:#33322E;fill:#eee8d5;stroke-dasharray:none;stroke-width:3;"></rect>
  <text x="909" y="414" style="fill: #33322E;font:bold  12pt Helvetica, Helvetica, sans-serif;text-anchor: middle;" data-name="glsl_materials">glsl_materials</text>
  <rect x="847.5" y="430.5" height="21" width="123" data-name="cloth_proposal" style="stroke:#33322E;fill:#eee8d5;stroke-dasharray:none;stroke-width:3;"></rect>
  <text x="909" y="447" style="fill: #33322E;font:bold  12pt Helvetica, Helvetica, sans-serif;text-anchor: middle;" data-name="cloth_proposal">cloth_proposal</text>
  <rect x="811.5" y="496.5" height="21" width="195" data-name="fix_gltf_bugs_and_tests" style="stroke:#33322E;fill:#eee8d5;stroke-dasharray:none;stroke-width:3;"></rect>
  <text x="909" y="513" style="fill: #33322E;font:bold  12pt Helvetica, Helvetica, sans-serif;text-anchor: middle;" data-name="fix_gltf_bugs_and_tests">fix_gltf_bugs_and_tests</text>
  <rect x="1268.5" y="364.5" height="21" width="179" data-name="fix_autoload_ordering" style="stroke:#33322E;fill:#eee8d5;stroke-dasharray:none;stroke-width:3;"></rect>
  <text x="1358" y="381" style="fill: #33322E;font:bold  12pt Helvetica, Helvetica, sans-serif;text-anchor: middle;" data-name="fix_autoload_ordering">fix_autoload_ordering</text>
  <rect x="2542.5" y="669.5" height="21" width="57" data-name="wasgo" style="stroke:#33322E;fill:#eee8d5;stroke-dasharray:none;stroke-width:3;"></rect>
  <text x="2571" y="686" style="fill: #33322E;font:bold  12pt Helvetica, Helvetica, sans-serif;text-anchor: middle;" data-name="wasgo">wasgo</text>
  <rect x="844.5" y="563.5" height="21" width="130" data-name="unidot_importer" style="stroke:#33322E;fill:#eee8d5;stroke-dasharray:none;stroke-width:3;"></rect>
  <text x="909.5" y="580" style="fill: #33322E;font:bold  12pt Helvetica, Helvetica, sans-serif;text-anchor: middle;" data-name="unidot_importer">unidot_importer</text>
  <rect x="816.5" y="596.5" height="21" width="185" data-name="mozilla_hubs_importer" style="stroke:#33322E;fill:#eee8d5;stroke-dasharray:none;stroke-width:3;"></rect>
  <text x="909" y="613" style="fill: #33322E;font:bold  12pt Helvetica, Helvetica, sans-serif;text-anchor: middle;" data-name="mozilla_hubs_importer">mozilla_hubs_importer</text>
  <rect x="1817.5" y="364.5" height="21" width="104" data-name="export_build" style="stroke:#33322E;fill:#eee8d5;stroke-dasharray:none;stroke-width:3;"></rect>
  <text x="1869.5" y="381" style="fill: #33322E;font:bold  12pt Helvetica, Helvetica, sans-serif;text-anchor: middle;" data-name="export_build">export_build</text>
  <rect x="2636.5" y="669.5" height="21" width="172" data-name="classdb_function_list" style="stroke:#33322E;fill:#eee8d5;stroke-dasharray:none;stroke-width:3;"></rect>
  <text x="2722.5" y="686" style="fill: #33322E;font:bold  12pt Helvetica, Helvetica, sans-serif;text-anchor: middle;" data-name="classdb_function_list">classdb_function_list</text>
  <rect x="2517.5" y="162.5" height="21" width="107" data-name="v_sekai_4_0" style="stroke:#33322E;fill:#eee8d5;stroke-dasharray:none;stroke-width:3;"></rect>
  <text x="2571" y="179" style="fill: #33322E;font:bold  12pt Helvetica, Helvetica, sans-serif;text-anchor: middle;" data-name="v_sekai_4_0">v_sekai_4_0</text>
  <rect x="2225.5" y="128.5" height="21" width="100" data-name="shopkeeper" style="stroke:#33322E;fill:#eee8d5;stroke-dasharray:none;stroke-width:3;"></rect>
  <text x="2275.5" y="145" style="fill: #33322E;font:bold  12pt Helvetica, Helvetica, sans-serif;text-anchor: middle;" data-name="shopkeeper">shopkeeper</text>
  <rect x="1022.5" y="441.5" height="21" width="671" data-name="shopkeeper: Any person providing a service for the metaverse. (can be free or paid)" style="stroke:#33322E;fill:#eee8d5;stroke-dasharray:none;stroke-width:3;"></rect>
  <text x="1358" y="458" style="fill: #33322E;font:bold  12pt Helvetica, Helvetica, sans-serif;text-anchor: middle;" data-name="shopkeeper: Any person providing a service for the metaverse. (can be free or paid)">shopkeeper: Any person providing a service for the metaverse. (can be free or paid)</text>
</svg>