<svg version="1.1" baseProfile="full" width="1980" height="730" viewbox="0 0 1980 730" xmlns="http://www.w3.org/2000/svg" xmlns:xlink="http://www.w3.org/1999/xlink" xmlns:ev="http://www.w3.org/2001/xml-events" style="font:bold  8pt Helvetica, Helvetica, sans-serif;;stroke-linejoin:round;stroke-linecap:round">
  <title >Players want to define their own virtual worlds, but they can&amp;apos;t because making their own virtual worlds is hard.</title>
  <desc >#title: Players want to define their own virtual worlds, but they can&amp;apos;t because making their own virtual worlds is hard.
#fontSize: 8
#spacing: 12
#padding: 3
#direction: right

[V-Sekai| Players want to define the virtual worlds. | V-Sekai https://v-sekai.org/ |
Players can&apos;t make their own virtual worlds because it is hard.]
[&lt;table&gt; Become avatars] -&gt; [Godot world live creation]
[Godot world live creation] -&gt;  [Imported physics]
[Godot world live creation] -&gt; [Place prexisting blocks with blockmeshing  ]
[Godot world live creation]-&gt; [&lt;table&gt; Create Godot world creation tools ]
[Godot world live creation]-&gt; [Place scenes ]
[Godot world live creation]-&gt; [Construct layers collaboratively ]
[Godot world live creation]-&gt; [Painting  ]
[Godot world live creation]-&gt; [&lt;table&gt; Create Godot world creation tools]
[&lt;table&gt; Create Godot world creation tools ] -&gt;  [3D models with CASSIE ]
[3D models with CASSIE ]-&gt; [Make cassie commercial remixable]
[&lt;table&gt; Create Godot world creation tools ] -&gt; [Painting with MaterialX ]
[Godot world live creation] -&gt; [Jeana usability]
[Godot world live creation] -&gt; [VFX (Particles, shaders, Sky)]
[&lt;table&gt; Become avatars] -&gt; [Advanced avatar (shader, IK, animations)]
[V-Sekai]-&gt;  [Skeleton modifications ]
[Skeleton modifications ] -&gt; [&lt;table&gt; Become avatars]
[&lt;table&gt; Become avatars] -&gt; [Vocal communicate]
[&lt;table&gt; Become avatars] -&gt; [Motion communicate]
[&lt;table&gt; Become avatars] -&gt; [Dance]

[&lt;table&gt; Become avatars] -&gt; [Godot speech comms system] 
[&lt;table&gt; Become avatars] -&gt; [Virtual reality 6 degree of freedom tracking ]

[&lt;table&gt; Become avatars]-&gt;[&lt;table&gt; Following  ]
[&lt;table&gt; Following] -&gt; [Double-sided friending. ]
[&lt;table&gt; Following] -&gt; [Discover new friends. ]

[&lt;table&gt; Become avatars] -&gt; [Locomotion (flat)]
[&lt;tsable&gt; Become avatars] -&gt; [Virtual reality motion movement]

[Virtual reality motion movement] -&gt; [Pickups]
[Pickups]-&gt; [Wasgo Scripting  ]
[Pickups]-&gt; [In-game menus  ]
[Pickups]-&gt; [Video player ]

[Pickups]-&gt;[Vehicles ]
[Pickups]-&gt;[Buttons]

[Pickups]-&gt;[&lt;table&gt; Avatar switch ]
[Pickups]-&gt;[World portals ]
[Pickups]-&gt;[Server switch ]

[Pickups]-&gt;[&lt;table&gt; Player interactions ]
[&lt;table&gt; Player interactions] -&gt; [Camera ]
[&lt;table&gt; Player interactions] -&gt; [Bow and arrow ]
[&lt;table&gt; Player interactions] -&gt; [Mirror ]

[&lt;table&gt; Become avatars]-&gt;[&lt;table&gt; Platform host Uro Infrastructure]
[&lt;table&gt; Platform host Uro Infrastructure] -&gt; [ Federation list ]
[&lt;table&gt; Platform host Uro Infrastructure] -&gt; [ Delegated Identity ]

[&lt;table&gt; Platform host Uro Infrastructure ]-&gt;[&lt;table&gt; Content]
[&lt;table&gt; Content ]-&gt; [Refuse to attest content because scripting is untrusted ]

[&lt;table&gt; Platform host Uro Infrastructure]-&gt;[&lt;table&gt; Deployment kit ] 

[&lt;table&gt; Create Godot world creation tools ] -&gt; [&lt;table&gt; Upgrade PLY to Godot Engine]

[&lt;table&gt; Platform host Uro Infrastructure]  -&gt; [&lt;table&gt; Launch uro using Elixir Desktop]

[&lt;table&gt; Platform host Uro Infrastructure] -&gt; [&lt;table&gt; Make TrueNas Scale run V-Sekai mirror]

[&lt;table&gt; Become avatars] -&gt; [How do we animate the character? VRM1 rig]
[&lt;table&gt; Become avatars] -&gt; [How do we retarget to the VRM1 rig?]
[&lt;table&gt; Become avatars] -&gt; [How do we mocapture the face rig? Support mapping every single possible standard rig?]
[&lt;table&gt; Become avatars] -&gt; [How do we make the face rig fast? Blend shape baking to skeletals]
[&lt;table&gt; Become avatars] -&gt; [How do we create the standard animation set? Want to be better than the status quo of mixamo animation sets]
[&lt;table&gt; Become avatars] -&gt; [How do we interact with objects? Pickup animation is stored on prop]
[&lt;table&gt; Become avatars] -&gt; [How do we have more diverse characters? Marketplace? Proceduralism? Character generators?]
[&lt;table&gt; Become avatars] -&gt; [How we turn our voice to facial rig keyframes?]

[V-Sekai] - [Last changed datetime|2022-02-11T11:12+00:00]
</desc>
  <rect x="0" y="0" height="730" width="1980" style="stroke:none; fill:transparent;"></rect>
  <path d="M566.4 373.5 L616.5 87.5 L846 87.5 L846 87.5 " style="stroke:#33322E;fill:none;stroke-dasharray:none;stroke-width:3;"></path>
  <path d="M844 89.1 L846 87.5 L844 85.9 L848 87.5 Z" style="stroke:#33322E;fill:#33322E;stroke-dasharray:none;stroke-width:3;"></path>
  <path d="M959.4 79.5 L1216.5 31.5 L1286 31.5 L1286 31.5 " style="stroke:#33322E;fill:none;stroke-dasharray:none;stroke-width:3;"></path>
  <path d="M1284 33.1 L1286 31.5 L1284 29.9 L1288 31.5 Z" style="stroke:#33322E;fill:#33322E;stroke-dasharray:none;stroke-width:3;"></path>
  <path d="M985 81.1 L1216.5 59.5 L1220.5 59.5 L1220.5 59.5 " style="stroke:#33322E;fill:none;stroke-dasharray:none;stroke-width:3;"></path>
  <path d="M1218.5 61.1 L1220.5 59.5 L1218.5 57.9 L1222.5 59.5 Z" style="stroke:#33322E;fill:#33322E;stroke-dasharray:none;stroke-width:3;"></path>
  <path d="M985 87.5 L1216.5 87.5 L1242.5 87.5 L1242.5 87.5 " style="stroke:#33322E;fill:none;stroke-dasharray:none;stroke-width:3;"></path>
  <path d="M1240.5 89.1 L1242.5 87.5 L1240.5 85.9 L1244.5 87.5 Z" style="stroke:#33322E;fill:#33322E;stroke-dasharray:none;stroke-width:3;"></path>
  <path d="M985 93.9 L1216.5 115.5 L1295.5 115.5 L1295.5 115.5 " style="stroke:#33322E;fill:none;stroke-dasharray:none;stroke-width:3;"></path>
  <path d="M1293.5 117.1 L1295.5 115.5 L1293.5 113.9 L1297.5 115.5 Z" style="stroke:#33322E;fill:#33322E;stroke-dasharray:none;stroke-width:3;"></path>
  <path d="M959.4 95.5 L1216.5 143.5 L1248.5 143.5 L1248.5 143.5 " style="stroke:#33322E;fill:none;stroke-dasharray:none;stroke-width:3;"></path>
  <path d="M1246.5 145.1 L1248.5 143.5 L1246.5 141.9 L1250.5 143.5 Z" style="stroke:#33322E;fill:#33322E;stroke-dasharray:none;stroke-width:3;"></path>
  <path d="M945.1 95.5 L1216.5 171.5 L1309.5 171.5 L1309.5 171.5 " style="stroke:#33322E;fill:none;stroke-dasharray:none;stroke-width:3;"></path>
  <path d="M1307.5 173.1 L1309.5 171.5 L1307.5 169.9 L1311.5 171.5 Z" style="stroke:#33322E;fill:#33322E;stroke-dasharray:none;stroke-width:3;"></path>
  <path d="M1370.1 79.5 L1455.5 59.5 L1541.5 59.5 L1541.5 59.5 " style="stroke:#33322E;fill:none;stroke-dasharray:none;stroke-width:3;"></path>
  <path d="M1539.5 61.1 L1541.5 59.5 L1539.5 57.9 L1543.5 59.5 Z" style="stroke:#33322E;fill:#33322E;stroke-dasharray:none;stroke-width:3;"></path>
  <path d="M1673.5 59.5 L1761.5 59.5 L1765.5 59.5 L1765.5 59.5 " style="stroke:#33322E;fill:none;stroke-dasharray:none;stroke-width:3;"></path>
  <path d="M1763.5 61.1 L1765.5 59.5 L1763.5 57.9 L1767.5 59.5 Z" style="stroke:#33322E;fill:#33322E;stroke-dasharray:none;stroke-width:3;"></path>
  <path d="M1427.5 87.5 L1455.5 87.5 L1544 87.5 L1544 87.5 " style="stroke:#33322E;fill:none;stroke-dasharray:none;stroke-width:3;"></path>
  <path d="M1542 89.1 L1544 87.5 L1542 85.9 L1546 87.5 Z" style="stroke:#33322E;fill:#33322E;stroke-dasharray:none;stroke-width:3;"></path>
  <path d="M937.9 95.5 L1216.5 199.5 L1291.5 199.5 L1291.5 199.5 " style="stroke:#33322E;fill:none;stroke-dasharray:none;stroke-width:3;"></path>
  <path d="M1289.5 201.1 L1291.5 199.5 L1289.5 197.9 L1293.5 199.5 Z" style="stroke:#33322E;fill:#33322E;stroke-dasharray:none;stroke-width:3;"></path>
  <path d="M933.6 95.5 L1216.5 227.5 L1254.5 227.5 L1254.5 227.5 " style="stroke:#33322E;fill:none;stroke-dasharray:none;stroke-width:3;"></path>
  <path d="M1252.5 229.1 L1254.5 227.5 L1252.5 225.9 L1256.5 227.5 Z" style="stroke:#33322E;fill:#33322E;stroke-dasharray:none;stroke-width:3;"></path>
  <path d="M566.6 373.5 L616.5 129.5 L802 129.5 L802 129.5 " style="stroke:#33322E;fill:none;stroke-dasharray:none;stroke-width:3;"></path>
  <path d="M800 131.1 L802 129.5 L800 127.9 L804 129.5 Z" style="stroke:#33322E;fill:#33322E;stroke-dasharray:none;stroke-width:3;"></path>
  <path d="M354.5 382.1 L360.5 381.5 L372.5 381.5 L372.5 381.5 " style="stroke:#33322E;fill:none;stroke-dasharray:none;stroke-width:3;"></path>
  <path d="M370.5 383.1 L372.5 381.5 L370.5 379.9 L374.5 381.5 Z" style="stroke:#33322E;fill:#33322E;stroke-dasharray:none;stroke-width:3;"></path>
  <path d="M499.5 381.5 L513.5 381.5 L517.5 381.5 L517.5 381.5 " style="stroke:#33322E;fill:none;stroke-dasharray:none;stroke-width:3;"></path>
  <path d="M515.5 383.1 L517.5 381.5 L515.5 379.9 L519.5 381.5 Z" style="stroke:#33322E;fill:#33322E;stroke-dasharray:none;stroke-width:3;"></path>
  <path d="M566.8 373.5 L616.5 157.5 L860 157.5 L860 157.5 " style="stroke:#33322E;fill:none;stroke-dasharray:none;stroke-width:3;"></path>
  <path d="M858 159.1 L860 157.5 L858 155.9 L862 157.5 Z" style="stroke:#33322E;fill:#33322E;stroke-dasharray:none;stroke-width:3;"></path>
  <path d="M567.1 373.5 L616.5 185.5 L857 185.5 L857 185.5 " style="stroke:#33322E;fill:none;stroke-dasharray:none;stroke-width:3;"></path>
  <path d="M855 187.1 L857 185.5 L855 183.9 L859 185.5 Z" style="stroke:#33322E;fill:#33322E;stroke-dasharray:none;stroke-width:3;"></path>
  <path d="M567.5 373.5 L616.5 213.5 L894.5 213.5 L894.5 213.5 " style="stroke:#33322E;fill:none;stroke-dasharray:none;stroke-width:3;"></path>
  <path d="M892.5 215.1 L894.5 213.5 L892.5 211.9 L896.5 213.5 Z" style="stroke:#33322E;fill:#33322E;stroke-dasharray:none;stroke-width:3;"></path>
  <path d="M567.9 373.5 L616.5 241.5 L834 241.5 L834 241.5 " style="stroke:#33322E;fill:none;stroke-dasharray:none;stroke-width:3;"></path>
  <path d="M832 243.1 L834 241.5 L832 239.9 L836 241.5 Z" style="stroke:#33322E;fill:#33322E;stroke-dasharray:none;stroke-width:3;"></path>
  <path d="M568.7 373.5 L616.5 269.5 L799 269.5 L799 269.5 " style="stroke:#33322E;fill:none;stroke-dasharray:none;stroke-width:3;"></path>
  <path d="M797 271.1 L799 269.5 L797 267.9 L801 269.5 Z" style="stroke:#33322E;fill:#33322E;stroke-dasharray:none;stroke-width:3;"></path>
  <path d="M569.9 373.5 L616.5 297.5 L887 297.5 L887 297.5 " style="stroke:#33322E;fill:none;stroke-dasharray:none;stroke-width:3;"></path>
  <path d="M885 299.1 L887 297.5 L885 295.9 L889 297.5 Z" style="stroke:#33322E;fill:#33322E;stroke-dasharray:none;stroke-width:3;"></path>
  <path d="M944 293.7 L1216.5 255.5 L1269.5 255.5 L1269.5 255.5 " style="stroke:#33322E;fill:none;stroke-dasharray:none;stroke-width:3;"></path>
  <path d="M1267.5 257.1 L1269.5 255.5 L1267.5 253.9 L1271.5 255.5 Z" style="stroke:#33322E;fill:#33322E;stroke-dasharray:none;stroke-width:3;"></path>
  <path d="M944 298.8 L1216.5 311.5 L1274.5 311.5 L1274.5 311.5 " style="stroke:#33322E;fill:none;stroke-dasharray:none;stroke-width:3;"></path>
  <path d="M1272.5 313.1 L1274.5 311.5 L1272.5 309.9 L1276.5 311.5 Z" style="stroke:#33322E;fill:#33322E;stroke-dasharray:none;stroke-width:3;"></path>
  <path d="M572.4 373.5 L616.5 325.5 L867 325.5 L867 325.5 " style="stroke:#33322E;fill:none;stroke-dasharray:none;stroke-width:3;"></path>
  <path d="M865 327.1 L867 325.5 L865 323.9 L869 325.5 Z" style="stroke:#33322E;fill:#33322E;stroke-dasharray:none;stroke-width:3;"></path>
  <path d="M579.7 373.5 L616.5 353.5 L829 353.5 L829 353.5 " style="stroke:#33322E;fill:none;stroke-dasharray:none;stroke-width:3;"></path>
  <path d="M827 355.1 L829 353.5 L827 351.9 L831 353.5 Z" style="stroke:#33322E;fill:#33322E;stroke-dasharray:none;stroke-width:3;"></path>
  <path d="M1002 353.5 L1216.5 353.5 L1310.5 353.5 L1310.5 353.5 " style="stroke:#33322E;fill:none;stroke-dasharray:none;stroke-width:3;"></path>
  <path d="M1308.5 355.1 L1310.5 353.5 L1308.5 351.9 L1312.5 353.5 Z" style="stroke:#33322E;fill:#33322E;stroke-dasharray:none;stroke-width:3;"></path>
  <path d="M1342.2 345.5 L1455.5 199.5 L1560.5 199.5 L1560.5 199.5 " style="stroke:#33322E;fill:none;stroke-dasharray:none;stroke-width:3;"></path>
  <path d="M1558.5 201.1 L1560.5 199.5 L1558.5 197.9 L1562.5 199.5 Z" style="stroke:#33322E;fill:#33322E;stroke-dasharray:none;stroke-width:3;"></path>
  <path d="M1343.6 345.5 L1455.5 227.5 L1562.5 227.5 L1562.5 227.5 " style="stroke:#33322E;fill:none;stroke-dasharray:none;stroke-width:3;"></path>
  <path d="M1560.5 229.1 L1562.5 227.5 L1560.5 225.9 L1564.5 227.5 Z" style="stroke:#33322E;fill:#33322E;stroke-dasharray:none;stroke-width:3;"></path>
  <path d="M1345.8 345.5 L1455.5 255.5 L1570.5 255.5 L1570.5 255.5 " style="stroke:#33322E;fill:none;stroke-dasharray:none;stroke-width:3;"></path>
  <path d="M1568.5 257.1 L1570.5 255.5 L1568.5 253.9 L1572.5 255.5 Z" style="stroke:#33322E;fill:#33322E;stroke-dasharray:none;stroke-width:3;"></path>
  <path d="M1349.7 345.5 L1455.5 283.5 L1581 283.5 L1581 283.5 " style="stroke:#33322E;fill:none;stroke-dasharray:none;stroke-width:3;"></path>
  <path d="M1579 285.1 L1581 283.5 L1579 281.9 L1583 283.5 Z" style="stroke:#33322E;fill:#33322E;stroke-dasharray:none;stroke-width:3;"></path>
  <path d="M1359.5 359 L1455.5 381.5 L1583.5 381.5 L1583.5 381.5 " style="stroke:#33322E;fill:none;stroke-dasharray:none;stroke-width:3;"></path>
  <path d="M1581.5 383.1 L1583.5 381.5 L1581.5 379.9 L1585.5 381.5 Z" style="stroke:#33322E;fill:#33322E;stroke-dasharray:none;stroke-width:3;"></path>
  <path d="M1353.1 361.5 L1455.5 409.5 L1568.5 409.5 L1568.5 409.5 " style="stroke:#33322E;fill:none;stroke-dasharray:none;stroke-width:3;"></path>
  <path d="M1566.5 411.1 L1568.5 409.5 L1566.5 407.9 L1570.5 409.5 Z" style="stroke:#33322E;fill:#33322E;stroke-dasharray:none;stroke-width:3;"></path>
  <path d="M1347.4 361.5 L1455.5 437.5 L1568.5 437.5 L1568.5 437.5 " style="stroke:#33322E;fill:none;stroke-dasharray:none;stroke-width:3;"></path>
  <path d="M1566.5 439.1 L1568.5 437.5 L1566.5 435.9 L1570.5 437.5 Z" style="stroke:#33322E;fill:#33322E;stroke-dasharray:none;stroke-width:3;"></path>
  <path d="M1344.5 361.5 L1455.5 465.5 L1568 465.5 L1568 465.5 " style="stroke:#33322E;fill:none;stroke-dasharray:none;stroke-width:3;"></path>
  <path d="M1566 467.1 L1568 465.5 L1566 463.9 L1570 465.5 Z" style="stroke:#33322E;fill:#33322E;stroke-dasharray:none;stroke-width:3;"></path>
  <path d="M1342.8 361.5 L1455.5 493.5 L1554.5 493.5 L1554.5 493.5 " style="stroke:#33322E;fill:none;stroke-dasharray:none;stroke-width:3;"></path>
  <path d="M1552.5 495.1 L1554.5 493.5 L1552.5 491.9 L1556.5 493.5 Z" style="stroke:#33322E;fill:#33322E;stroke-dasharray:none;stroke-width:3;"></path>
  <path d="M1614 485.5 L1761.5 269.5 L1837 269.5 L1837 269.5 " style="stroke:#33322E;fill:none;stroke-dasharray:none;stroke-width:3;"></path>
  <path d="M1835 271.1 L1837 269.5 L1835 267.9 L1839 269.5 Z" style="stroke:#33322E;fill:#33322E;stroke-dasharray:none;stroke-width:3;"></path>
  <path d="M1660.5 493.5 L1761.5 493.5 L1818.5 493.5 L1818.5 493.5 " style="stroke:#33322E;fill:none;stroke-dasharray:none;stroke-width:3;"></path>
  <path d="M1816.5 495.1 L1818.5 493.5 L1816.5 491.9 L1820.5 493.5 Z" style="stroke:#33322E;fill:#33322E;stroke-dasharray:none;stroke-width:3;"></path>
  <path d="M1652.2 501.5 L1761.5 521.5 L1842 521.5 L1842 521.5 " style="stroke:#33322E;fill:none;stroke-dasharray:none;stroke-width:3;"></path>
  <path d="M1840 523.1 L1842 521.5 L1840 519.9 L1844 521.5 Z" style="stroke:#33322E;fill:#33322E;stroke-dasharray:none;stroke-width:3;"></path>
  <path d="M569.4 389.5 L616.5 475.5 L829 475.5 L829 475.5 " style="stroke:#33322E;fill:none;stroke-dasharray:none;stroke-width:3;"></path>
  <path d="M827 477.1 L829 475.5 L827 473.9 L831 475.5 Z" style="stroke:#33322E;fill:#33322E;stroke-dasharray:none;stroke-width:3;"></path>
  <path d="M942 467.5 L1216.5 381.5 L1293.5 381.5 L1293.5 381.5 " style="stroke:#33322E;fill:none;stroke-dasharray:none;stroke-width:3;"></path>
  <path d="M1291.5 383.1 L1293.5 381.5 L1291.5 379.9 L1295.5 381.5 Z" style="stroke:#33322E;fill:#33322E;stroke-dasharray:none;stroke-width:3;"></path>
  <path d="M1002 472.7 L1216.5 465.5 L1283 465.5 L1283 465.5 " style="stroke:#33322E;fill:none;stroke-dasharray:none;stroke-width:3;"></path>
  <path d="M1281 467.1 L1283 465.5 L1281 463.9 L1285 465.5 Z" style="stroke:#33322E;fill:#33322E;stroke-dasharray:none;stroke-width:3;"></path>
  <path d="M968.7 483.5 L1216.5 521.5 L1310.5 521.5 L1310.5 521.5 " style="stroke:#33322E;fill:none;stroke-dasharray:none;stroke-width:3;"></path>
  <path d="M1308.5 523.1 L1310.5 521.5 L1308.5 519.9 L1312.5 521.5 Z" style="stroke:#33322E;fill:#33322E;stroke-dasharray:none;stroke-width:3;"></path>
  <path d="M1359.5 521.5 L1455.5 521.5 L1459.5 521.5 L1459.5 521.5 " style="stroke:#33322E;fill:none;stroke-dasharray:none;stroke-width:3;"></path>
  <path d="M1457.5 523.1 L1459.5 521.5 L1457.5 519.9 L1461.5 521.5 Z" style="stroke:#33322E;fill:#33322E;stroke-dasharray:none;stroke-width:3;"></path>
  <path d="M948.9 483.5 L1216.5 549.5 L1292 549.5 L1292 549.5 " style="stroke:#33322E;fill:none;stroke-dasharray:none;stroke-width:3;"></path>
  <path d="M1290 551.1 L1292 549.5 L1290 547.9 L1294 549.5 Z" style="stroke:#33322E;fill:#33322E;stroke-dasharray:none;stroke-width:3;"></path>
  <path d="M1347.4 95.5 L1455.5 171.5 L1524 171.5 L1524 171.5 " style="stroke:#33322E;fill:none;stroke-dasharray:none;stroke-width:3;"></path>
  <path d="M1522 173.1 L1524 171.5 L1522 169.9 L1526 171.5 Z" style="stroke:#33322E;fill:#33322E;stroke-dasharray:none;stroke-width:3;"></path>
  <path d="M940 483.5 L1216.5 577.5 L1247.5 577.5 L1247.5 577.5 " style="stroke:#33322E;fill:none;stroke-dasharray:none;stroke-width:3;"></path>
  <path d="M1245.5 579.1 L1247.5 577.5 L1245.5 575.9 L1249.5 577.5 Z" style="stroke:#33322E;fill:#33322E;stroke-dasharray:none;stroke-width:3;"></path>
  <path d="M935 483.5 L1216.5 605.5 L1227 605.5 L1227 605.5 " style="stroke:#33322E;fill:none;stroke-dasharray:none;stroke-width:3;"></path>
  <path d="M1225 607.1 L1227 605.5 L1225 603.9 L1229 605.5 Z" style="stroke:#33322E;fill:#33322E;stroke-dasharray:none;stroke-width:3;"></path>
  <path d="M568.4 389.5 L616.5 503.5 L794.5 503.5 L794.5 503.5 " style="stroke:#33322E;fill:none;stroke-dasharray:none;stroke-width:3;"></path>
  <path d="M792.5 505.1 L794.5 503.5 L792.5 501.9 L796.5 503.5 Z" style="stroke:#33322E;fill:#33322E;stroke-dasharray:none;stroke-width:3;"></path>
  <path d="M567.7 389.5 L616.5 531.5 L815 531.5 L815 531.5 " style="stroke:#33322E;fill:none;stroke-dasharray:none;stroke-width:3;"></path>
  <path d="M813 533.1 L815 531.5 L813 529.9 L817 531.5 Z" style="stroke:#33322E;fill:#33322E;stroke-dasharray:none;stroke-width:3;"></path>
  <path d="M567.3 389.5 L616.5 559.5 L678 559.5 L678 559.5 " style="stroke:#33322E;fill:none;stroke-dasharray:none;stroke-width:3;"></path>
  <path d="M676 561.1 L678 559.5 L676 557.9 L680 559.5 Z" style="stroke:#33322E;fill:#33322E;stroke-dasharray:none;stroke-width:3;"></path>
  <path d="M567 389.5 L616.5 587.5 L735 587.5 L735 587.5 " style="stroke:#33322E;fill:none;stroke-dasharray:none;stroke-width:3;"></path>
  <path d="M733 589.1 L735 587.5 L733 585.9 L737 587.5 Z" style="stroke:#33322E;fill:#33322E;stroke-dasharray:none;stroke-width:3;"></path>
  <path d="M566.8 389.5 L616.5 615.5 L620.5 615.5 L620.5 615.5 " style="stroke:#33322E;fill:none;stroke-dasharray:none;stroke-width:3;"></path>
  <path d="M618.5 617.1 L620.5 615.5 L618.5 613.9 L622.5 615.5 Z" style="stroke:#33322E;fill:#33322E;stroke-dasharray:none;stroke-width:3;"></path>
  <path d="M566.6 389.5 L616.5 643.5 L732.5 643.5 L732.5 643.5 " style="stroke:#33322E;fill:none;stroke-dasharray:none;stroke-width:3;"></path>
  <path d="M730.5 645.1 L732.5 643.5 L730.5 641.9 L734.5 643.5 Z" style="stroke:#33322E;fill:#33322E;stroke-dasharray:none;stroke-width:3;"></path>
  <path d="M566.4 389.5 L616.5 671.5 L658 671.5 L658 671.5 " style="stroke:#33322E;fill:none;stroke-dasharray:none;stroke-width:3;"></path>
  <path d="M656 673.1 L658 671.5 L656 669.9 L660 671.5 Z" style="stroke:#33322E;fill:#33322E;stroke-dasharray:none;stroke-width:3;"></path>
  <path d="M566.3 389.5 L616.5 699.5 L790 699.5 L790 699.5 " style="stroke:#33322E;fill:none;stroke-dasharray:none;stroke-width:3;"></path>
  <path d="M788 701.1 L790 699.5 L788 697.9 L792 699.5 Z" style="stroke:#33322E;fill:#33322E;stroke-dasharray:none;stroke-width:3;"></path>
  <path d="M354.5 416.9 L360.5 417.5 L366.5 417.5 L366.5 417.5 " style="stroke:#33322E;fill:none;stroke-dasharray:none;stroke-width:3;"></path>
  <rect x="23.5" y="367.5" height="64" width="331" data-name="V-Sekai" style="stroke:#33322E;fill:#eee8d5;stroke-dasharray:none;stroke-width:3;"></rect>
  <path d="M23.5 383.5 L354.5 383.5" data-name="V-Sekai" style="stroke:#33322E;fill:none;stroke-dasharray:none;stroke-width:3;"></path>
  <path d="M23.5 399.5 L354.5 399.5" data-name="V-Sekai" style="stroke:#33322E;fill:none;stroke-dasharray:none;stroke-width:3;"></path>
  <path d="M23.5 415.5 L354.5 415.5" data-name="V-Sekai" style="stroke:#33322E;fill:none;stroke-dasharray:none;stroke-width:3;"></path>
  <text x="189" y="379.5" style="fill: #33322E;font:bold  8pt Helvetica, Helvetica, sans-serif;text-anchor: middle;" data-name="V-Sekai">V-Sekai</text>
  <text x="26.5" y="395.5" style="fill: #33322E;font:normal  8pt Helvetica, Helvetica, sans-serif;" data-name="V-Sekai">Players want to define the virtual worlds.</text>
  <text x="26.5" y="411.5" style="fill: #33322E;font:normal  8pt Helvetica, Helvetica, sans-serif;" data-name="V-Sekai">V-Sekai https://v-sekai.org/</text>
  <text x="26.5" y="427.5" style="fill: #33322E;font:normal  8pt Helvetica, Helvetica, sans-serif;" data-name="V-Sekai">Players can&apos;t make their own virtual worlds because it is hard.</text>
  <rect x="366.5" y="401.5" height="32" width="141" data-name="Last changed datetime" style="stroke:#33322E;fill:#eee8d5;stroke-dasharray:none;stroke-width:3;"></rect>
  <path d="M366.5 417.5 L507.5 417.5" data-name="Last changed datetime" style="stroke:#33322E;fill:none;stroke-dasharray:none;stroke-width:3;"></path>
  <text x="437" y="413.5" style="fill: #33322E;font:bold  8pt Helvetica, Helvetica, sans-serif;text-anchor: middle;" data-name="Last changed datetime">Last changed datetime</text>
  <text x="369.5" y="429.5" style="fill: #33322E;font:normal  8pt Helvetica, Helvetica, sans-serif;" data-name="Last changed datetime">2022-02-11T11:12+00:00</text>
  <rect x="519.5" y="373.5" height="16" width="91" data-name="Become avatars" style="stroke:#33322E;fill:#eee8d5;stroke-dasharray:none;stroke-width:3;"></rect>
  <text x="565" y="385.5" style="fill: #33322E;font:bold  8pt Helvetica, Helvetica, sans-serif;text-anchor: middle;" data-name="Become avatars">Become avatars</text>
  <rect x="848.5" y="79.5" height="16" width="137" data-name="Godot world live creation" style="stroke:#33322E;fill:#eee8d5;stroke-dasharray:none;stroke-width:3;"></rect>
  <text x="917" y="91.5" style="fill: #33322E;font:bold  8pt Helvetica, Helvetica, sans-serif;text-anchor: middle;" data-name="Godot world live creation">Godot world live creation</text>
  <rect x="1288.5" y="23.5" height="16" width="96" data-name="Imported physics" style="stroke:#33322E;fill:#eee8d5;stroke-dasharray:none;stroke-width:3;"></rect>
  <text x="1336.5" y="35.5" style="fill: #33322E;font:bold  8pt Helvetica, Helvetica, sans-serif;text-anchor: middle;" data-name="Imported physics">Imported physics</text>
  <rect x="1222.5" y="51.5" height="16" width="227" data-name="Place prexisting blocks with blockmeshing" style="stroke:#33322E;fill:#eee8d5;stroke-dasharray:none;stroke-width:3;"></rect>
  <text x="1336" y="63.5" style="fill: #33322E;font:bold  8pt Helvetica, Helvetica, sans-serif;text-anchor: middle;" data-name="Place prexisting blocks with blockmeshing">Place prexisting blocks with blockmeshing</text>
  <rect x="1244.5" y="79.5" height="16" width="183" data-name="Create Godot world creation tools" style="stroke:#33322E;fill:#eee8d5;stroke-dasharray:none;stroke-width:3;"></rect>
  <text x="1336" y="91.5" style="fill: #33322E;font:bold  8pt Helvetica, Helvetica, sans-serif;text-anchor: middle;" data-name="Create Godot world creation tools">Create Godot world creation tools</text>
  <rect x="1297.5" y="107.5" height="16" width="77" data-name="Place scenes" style="stroke:#33322E;fill:#eee8d5;stroke-dasharray:none;stroke-width:3;"></rect>
  <text x="1336" y="119.5" style="fill: #33322E;font:bold  8pt Helvetica, Helvetica, sans-serif;text-anchor: middle;" data-name="Place scenes">Place scenes</text>
  <rect x="1250.5" y="135.5" height="16" width="171" data-name="Construct layers collaboratively" style="stroke:#33322E;fill:#eee8d5;stroke-dasharray:none;stroke-width:3;"></rect>
  <text x="1336" y="147.5" style="fill: #33322E;font:bold  8pt Helvetica, Helvetica, sans-serif;text-anchor: middle;" data-name="Construct layers collaboratively">Construct layers collaboratively</text>
  <rect x="1311.5" y="163.5" height="16" width="49" data-name="Painting" style="stroke:#33322E;fill:#eee8d5;stroke-dasharray:none;stroke-width:3;"></rect>
  <text x="1336" y="175.5" style="fill: #33322E;font:bold  8pt Helvetica, Helvetica, sans-serif;text-anchor: middle;" data-name="Painting">Painting</text>
  <rect x="1543.5" y="51.5" height="16" width="130" data-name="3D models with CASSIE" style="stroke:#33322E;fill:#eee8d5;stroke-dasharray:none;stroke-width:3;"></rect>
  <text x="1608.5" y="63.5" style="fill: #33322E;font:bold  8pt Helvetica, Helvetica, sans-serif;text-anchor: middle;" data-name="3D models with CASSIE">3D models with CASSIE</text>
  <rect x="1767.5" y="51.5" height="16" width="190" data-name="Make cassie commercial remixable" style="stroke:#33322E;fill:#eee8d5;stroke-dasharray:none;stroke-width:3;"></rect>
  <text x="1862.5" y="63.5" style="fill: #33322E;font:bold  8pt Helvetica, Helvetica, sans-serif;text-anchor: middle;" data-name="Make cassie commercial remixable">Make cassie commercial remixable</text>
  <rect x="1546.5" y="79.5" height="16" width="125" data-name="Painting with MaterialX" style="stroke:#33322E;fill:#eee8d5;stroke-dasharray:none;stroke-width:3;"></rect>
  <text x="1609" y="91.5" style="fill: #33322E;font:bold  8pt Helvetica, Helvetica, sans-serif;text-anchor: middle;" data-name="Painting with MaterialX">Painting with MaterialX</text>
  <rect x="1293.5" y="191.5" height="16" width="85" data-name="Jeana usability" style="stroke:#33322E;fill:#eee8d5;stroke-dasharray:none;stroke-width:3;"></rect>
  <text x="1336" y="203.5" style="fill: #33322E;font:bold  8pt Helvetica, Helvetica, sans-serif;text-anchor: middle;" data-name="Jeana usability">Jeana usability</text>
  <rect x="1256.5" y="219.5" height="16" width="159" data-name="VFX (Particles, shaders, Sky)" style="stroke:#33322E;fill:#eee8d5;stroke-dasharray:none;stroke-width:3;"></rect>
  <text x="1336" y="231.5" style="fill: #33322E;font:bold  8pt Helvetica, Helvetica, sans-serif;text-anchor: middle;" data-name="VFX (Particles, shaders, Sky)">VFX (Particles, shaders, Sky)</text>
  <rect x="804.5" y="121.5" height="16" width="225" data-name="Advanced avatar (shader, IK, animations)" style="stroke:#33322E;fill:#eee8d5;stroke-dasharray:none;stroke-width:3;"></rect>
  <text x="917" y="133.5" style="fill: #33322E;font:bold  8pt Helvetica, Helvetica, sans-serif;text-anchor: middle;" data-name="Advanced avatar (shader, IK, animations)">Advanced avatar (shader, IK, animations)</text>
  <rect x="374.5" y="373.5" height="16" width="125" data-name="Skeleton modifications" style="stroke:#33322E;fill:#eee8d5;stroke-dasharray:none;stroke-width:3;"></rect>
  <text x="437" y="385.5" style="fill: #33322E;font:bold  8pt Helvetica, Helvetica, sans-serif;text-anchor: middle;" data-name="Skeleton modifications">Skeleton modifications</text>
  <rect x="862.5" y="149.5" height="16" width="109" data-name="Vocal communicate" style="stroke:#33322E;fill:#eee8d5;stroke-dasharray:none;stroke-width:3;"></rect>
  <text x="917" y="161.5" style="fill: #33322E;font:bold  8pt Helvetica, Helvetica, sans-serif;text-anchor: middle;" data-name="Vocal communicate">Vocal communicate</text>
  <rect x="859.5" y="177.5" height="16" width="115" data-name="Motion communicate" style="stroke:#33322E;fill:#eee8d5;stroke-dasharray:none;stroke-width:3;"></rect>
  <text x="917" y="189.5" style="fill: #33322E;font:bold  8pt Helvetica, Helvetica, sans-serif;text-anchor: middle;" data-name="Motion communicate">Motion communicate</text>
  <rect x="896.5" y="205.5" height="16" width="40" data-name="Dance" style="stroke:#33322E;fill:#eee8d5;stroke-dasharray:none;stroke-width:3;"></rect>
  <text x="916.5" y="217.5" style="fill: #33322E;font:bold  8pt Helvetica, Helvetica, sans-serif;text-anchor: middle;" data-name="Dance">Dance</text>
  <rect x="836.5" y="233.5" height="16" width="161" data-name="Godot speech comms system" style="stroke:#33322E;fill:#eee8d5;stroke-dasharray:none;stroke-width:3;"></rect>
  <text x="917" y="245.5" style="fill: #33322E;font:bold  8pt Helvetica, Helvetica, sans-serif;text-anchor: middle;" data-name="Godot speech comms system">Godot speech comms system</text>
  <rect x="801.5" y="261.5" height="16" width="231" data-name="Virtual reality 6 degree of freedom tracking" style="stroke:#33322E;fill:#eee8d5;stroke-dasharray:none;stroke-width:3;"></rect>
  <text x="917" y="273.5" style="fill: #33322E;font:bold  8pt Helvetica, Helvetica, sans-serif;text-anchor: middle;" data-name="Virtual reality 6 degree of freedom tracking">Virtual reality 6 degree of freedom tracking</text>
  <rect x="889.5" y="289.5" height="16" width="55" data-name="Following" style="stroke:#33322E;fill:#eee8d5;stroke-dasharray:none;stroke-width:3;"></rect>
  <text x="917" y="301.5" style="fill: #33322E;font:bold  8pt Helvetica, Helvetica, sans-serif;text-anchor: middle;" data-name="Following">Following</text>
  <rect x="1271.5" y="247.5" height="16" width="129" data-name="Double-sided friending." style="stroke:#33322E;fill:#eee8d5;stroke-dasharray:none;stroke-width:3;"></rect>
  <text x="1336" y="259.5" style="fill: #33322E;font:bold  8pt Helvetica, Helvetica, sans-serif;text-anchor: middle;" data-name="Double-sided friending.">Double-sided friending.</text>
  <rect x="1276.5" y="303.5" height="16" width="119" data-name="Discover new friends." style="stroke:#33322E;fill:#eee8d5;stroke-dasharray:none;stroke-width:3;"></rect>
  <text x="1336" y="315.5" style="fill: #33322E;font:bold  8pt Helvetica, Helvetica, sans-serif;text-anchor: middle;" data-name="Discover new friends.">Discover new friends.</text>
  <rect x="869.5" y="317.5" height="16" width="95" data-name="Locomotion (flat)" style="stroke:#33322E;fill:#eee8d5;stroke-dasharray:none;stroke-width:3;"></rect>
  <text x="917" y="329.5" style="fill: #33322E;font:bold  8pt Helvetica, Helvetica, sans-serif;text-anchor: middle;" data-name="Locomotion (flat)">Locomotion (flat)</text>
  <rect x="831.5" y="345.5" height="16" width="171" data-name="Virtual reality motion movement" style="stroke:#33322E;fill:#eee8d5;stroke-dasharray:none;stroke-width:3;"></rect>
  <text x="917" y="357.5" style="fill: #33322E;font:bold  8pt Helvetica, Helvetica, sans-serif;text-anchor: middle;" data-name="Virtual reality motion movement">Virtual reality motion movement</text>
  <rect x="1312.5" y="345.5" height="16" width="47" data-name="Pickups" style="stroke:#33322E;fill:#eee8d5;stroke-dasharray:none;stroke-width:3;"></rect>
  <text x="1336" y="357.5" style="fill: #33322E;font:bold  8pt Helvetica, Helvetica, sans-serif;text-anchor: middle;" data-name="Pickups">Pickups</text>
  <rect x="1562.5" y="191.5" height="16" width="92" data-name="Wasgo Scripting" style="stroke:#33322E;fill:#eee8d5;stroke-dasharray:none;stroke-width:3;"></rect>
  <text x="1608.5" y="203.5" style="fill: #33322E;font:bold  8pt Helvetica, Helvetica, sans-serif;text-anchor: middle;" data-name="Wasgo Scripting">Wasgo Scripting</text>
  <rect x="1564.5" y="219.5" height="16" width="88" data-name="In-game menus" style="stroke:#33322E;fill:#eee8d5;stroke-dasharray:none;stroke-width:3;"></rect>
  <text x="1608.5" y="231.5" style="fill: #33322E;font:bold  8pt Helvetica, Helvetica, sans-serif;text-anchor: middle;" data-name="In-game menus">In-game menus</text>
  <rect x="1572.5" y="247.5" height="16" width="72" data-name="Video player" style="stroke:#33322E;fill:#eee8d5;stroke-dasharray:none;stroke-width:3;"></rect>
  <text x="1608.5" y="259.5" style="fill: #33322E;font:bold  8pt Helvetica, Helvetica, sans-serif;text-anchor: middle;" data-name="Video player">Video player</text>
  <rect x="1583.5" y="275.5" height="16" width="51" data-name="Vehicles" style="stroke:#33322E;fill:#eee8d5;stroke-dasharray:none;stroke-width:3;"></rect>
  <text x="1609" y="287.5" style="fill: #33322E;font:bold  8pt Helvetica, Helvetica, sans-serif;text-anchor: middle;" data-name="Vehicles">Vehicles</text>
  <rect x="1585.5" y="373.5" height="16" width="46" data-name="Buttons" style="stroke:#33322E;fill:#eee8d5;stroke-dasharray:none;stroke-width:3;"></rect>
  <text x="1608.5" y="385.5" style="fill: #33322E;font:bold  8pt Helvetica, Helvetica, sans-serif;text-anchor: middle;" data-name="Buttons">Buttons</text>
  <rect x="1570.5" y="401.5" height="16" width="76" data-name="Avatar switch" style="stroke:#33322E;fill:#eee8d5;stroke-dasharray:none;stroke-width:3;"></rect>
  <text x="1608.5" y="413.5" style="fill: #33322E;font:bold  8pt Helvetica, Helvetica, sans-serif;text-anchor: middle;" data-name="Avatar switch">Avatar switch</text>
  <rect x="1570.5" y="429.5" height="16" width="76" data-name="World portals" style="stroke:#33322E;fill:#eee8d5;stroke-dasharray:none;stroke-width:3;"></rect>
  <text x="1608.5" y="441.5" style="fill: #33322E;font:bold  8pt Helvetica, Helvetica, sans-serif;text-anchor: middle;" data-name="World portals">World portals</text>
  <rect x="1570.5" y="457.5" height="16" width="77" data-name="Server switch" style="stroke:#33322E;fill:#eee8d5;stroke-dasharray:none;stroke-width:3;"></rect>
  <text x="1609" y="469.5" style="fill: #33322E;font:bold  8pt Helvetica, Helvetica, sans-serif;text-anchor: middle;" data-name="Server switch">Server switch</text>
  <rect x="1556.5" y="485.5" height="16" width="104" data-name="Player interactions" style="stroke:#33322E;fill:#eee8d5;stroke-dasharray:none;stroke-width:3;"></rect>
  <text x="1608.5" y="497.5" style="fill: #33322E;font:bold  8pt Helvetica, Helvetica, sans-serif;text-anchor: middle;" data-name="Player interactions">Player interactions</text>
  <rect x="1839.5" y="261.5" height="16" width="47" data-name="Camera" style="stroke:#33322E;fill:#eee8d5;stroke-dasharray:none;stroke-width:3;"></rect>
  <text x="1863" y="273.5" style="fill: #33322E;font:bold  8pt Helvetica, Helvetica, sans-serif;text-anchor: middle;" data-name="Camera">Camera</text>
  <rect x="1820.5" y="485.5" height="16" width="84" data-name="Bow and arrow" style="stroke:#33322E;fill:#eee8d5;stroke-dasharray:none;stroke-width:3;"></rect>
  <text x="1862.5" y="497.5" style="fill: #33322E;font:bold  8pt Helvetica, Helvetica, sans-serif;text-anchor: middle;" data-name="Bow and arrow">Bow and arrow</text>
  <rect x="1844.5" y="513.5" height="16" width="37" data-name="Mirror" style="stroke:#33322E;fill:#eee8d5;stroke-dasharray:none;stroke-width:3;"></rect>
  <text x="1863" y="525.5" style="fill: #33322E;font:bold  8pt Helvetica, Helvetica, sans-serif;text-anchor: middle;" data-name="Mirror">Mirror</text>
  <rect x="831.5" y="467.5" height="16" width="171" data-name="Platform host Uro Infrastructure" style="stroke:#33322E;fill:#eee8d5;stroke-dasharray:none;stroke-width:3;"></rect>
  <text x="917" y="479.5" style="fill: #33322E;font:bold  8pt Helvetica, Helvetica, sans-serif;text-anchor: middle;" data-name="Platform host Uro Infrastructure">Platform host Uro Infrastructure</text>
  <rect x="1295.5" y="373.5" height="16" width="81" data-name="Federation list" style="stroke:#33322E;fill:#eee8d5;stroke-dasharray:none;stroke-width:3;"></rect>
  <text x="1336" y="385.5" style="fill: #33322E;font:bold  8pt Helvetica, Helvetica, sans-serif;text-anchor: middle;" data-name="Federation list">Federation list</text>
  <rect x="1285.5" y="457.5" height="16" width="102" data-name="Delegated Identity" style="stroke:#33322E;fill:#eee8d5;stroke-dasharray:none;stroke-width:3;"></rect>
  <text x="1336.5" y="469.5" style="fill: #33322E;font:bold  8pt Helvetica, Helvetica, sans-serif;text-anchor: middle;" data-name="Delegated Identity">Delegated Identity</text>
  <rect x="1312.5" y="513.5" height="16" width="47" data-name="Content" style="stroke:#33322E;fill:#eee8d5;stroke-dasharray:none;stroke-width:3;"></rect>
  <text x="1336" y="525.5" style="fill: #33322E;font:bold  8pt Helvetica, Helvetica, sans-serif;text-anchor: middle;" data-name="Content">Content</text>
  <rect x="1461.5" y="513.5" height="16" width="294" data-name="Refuse to attest content because scripting is untrusted" style="stroke:#33322E;fill:#eee8d5;stroke-dasharray:none;stroke-width:3;"></rect>
  <text x="1608.5" y="525.5" style="fill: #33322E;font:bold  8pt Helvetica, Helvetica, sans-serif;text-anchor: middle;" data-name="Refuse to attest content because scripting is untrusted">Refuse to attest content because scripting is untrusted</text>
  <rect x="1294.5" y="541.5" height="16" width="84" data-name="Deployment kit" style="stroke:#33322E;fill:#eee8d5;stroke-dasharray:none;stroke-width:3;"></rect>
  <text x="1336.5" y="553.5" style="fill: #33322E;font:bold  8pt Helvetica, Helvetica, sans-serif;text-anchor: middle;" data-name="Deployment kit">Deployment kit</text>
  <rect x="1526.5" y="163.5" height="16" width="165" data-name="Upgrade PLY to Godot Engine" style="stroke:#33322E;fill:#eee8d5;stroke-dasharray:none;stroke-width:3;"></rect>
  <text x="1609" y="175.5" style="fill: #33322E;font:bold  8pt Helvetica, Helvetica, sans-serif;text-anchor: middle;" data-name="Upgrade PLY to Godot Engine">Upgrade PLY to Godot Engine</text>
  <rect x="1249.5" y="569.5" height="16" width="173" data-name="Launch uro using Elixir Desktop" style="stroke:#33322E;fill:#eee8d5;stroke-dasharray:none;stroke-width:3;"></rect>
  <text x="1336" y="581.5" style="fill: #33322E;font:bold  8pt Helvetica, Helvetica, sans-serif;text-anchor: middle;" data-name="Launch uro using Elixir Desktop">Launch uro using Elixir Desktop</text>
  <rect x="1229.5" y="597.5" height="16" width="214" data-name="Make TrueNas Scale run V-Sekai mirror" style="stroke:#33322E;fill:#eee8d5;stroke-dasharray:none;stroke-width:3;"></rect>
  <text x="1336.5" y="609.5" style="fill: #33322E;font:bold  8pt Helvetica, Helvetica, sans-serif;text-anchor: middle;" data-name="Make TrueNas Scale run V-Sekai mirror">Make TrueNas Scale run V-Sekai mirror</text>
  <rect x="796.5" y="495.5" height="16" width="240" data-name="How do we animate the character? VRM1 rig" style="stroke:#33322E;fill:#eee8d5;stroke-dasharray:none;stroke-width:3;"></rect>
  <text x="916.5" y="507.5" style="fill: #33322E;font:bold  8pt Helvetica, Helvetica, sans-serif;text-anchor: middle;" data-name="How do we animate the character? VRM1 rig">How do we animate the character? VRM1 rig</text>
  <rect x="817.5" y="523.5" height="16" width="199" data-name="How do we retarget to the VRM1 rig?" style="stroke:#33322E;fill:#eee8d5;stroke-dasharray:none;stroke-width:3;"></rect>
  <text x="917" y="535.5" style="fill: #33322E;font:bold  8pt Helvetica, Helvetica, sans-serif;text-anchor: middle;" data-name="How do we retarget to the VRM1 rig?">How do we retarget to the VRM1 rig?</text>
  <rect x="680.5" y="551.5" height="16" width="473" data-name="How do we mocapture the face rig? Support mapping every single possible standard rig?" style="stroke:#33322E;fill:#eee8d5;stroke-dasharray:none;stroke-width:3;"></rect>
  <text x="917" y="563.5" style="fill: #33322E;font:bold  8pt Helvetica, Helvetica, sans-serif;text-anchor: middle;" data-name="How do we mocapture the face rig? Support mapping every single possible standard rig?">How do we mocapture the face rig? Support mapping every single possible standard rig?</text>
  <rect x="737.5" y="579.5" height="16" width="359" data-name="How do we make the face rig fast? Blend shape baking to skeletals" style="stroke:#33322E;fill:#eee8d5;stroke-dasharray:none;stroke-width:3;"></rect>
  <text x="917" y="591.5" style="fill: #33322E;font:bold  8pt Helvetica, Helvetica, sans-serif;text-anchor: middle;" data-name="How do we make the face rig fast? Blend shape baking to skeletals">How do we make the face rig fast? Blend shape baking to skeletals</text>
  <rect x="622.5" y="607.5" height="16" width="588" data-name="How do we create the standard animation set? Want to be better than the status quo of mixamo animation sets" style="stroke:#33322E;fill:#eee8d5;stroke-dasharray:none;stroke-width:3;"></rect>
  <text x="916.5" y="619.5" style="fill: #33322E;font:bold  8pt Helvetica, Helvetica, sans-serif;text-anchor: middle;" data-name="How do we create the standard animation set? Want to be better than the status quo of mixamo animation sets">How do we create the standard animation set? Want to be better than the status quo of mixamo animation sets</text>
  <rect x="734.5" y="635.5" height="16" width="364" data-name="How do we interact with objects? Pickup animation is stored on prop" style="stroke:#33322E;fill:#eee8d5;stroke-dasharray:none;stroke-width:3;"></rect>
  <text x="916.5" y="647.5" style="fill: #33322E;font:bold  8pt Helvetica, Helvetica, sans-serif;text-anchor: middle;" data-name="How do we interact with objects? Pickup animation is stored on prop">How do we interact with objects? Pickup animation is stored on prop</text>
  <rect x="660.5" y="663.5" height="16" width="513" data-name="How do we have more diverse characters? Marketplace? Proceduralism? Character generators?" style="stroke:#33322E;fill:#eee8d5;stroke-dasharray:none;stroke-width:3;"></rect>
  <text x="917" y="675.5" style="fill: #33322E;font:bold  8pt Helvetica, Helvetica, sans-serif;text-anchor: middle;" data-name="How do we have more diverse characters? Marketplace? Proceduralism? Character generators?">How do we have more diverse characters? Marketplace? Proceduralism? Character generators?</text>
  <rect x="792.5" y="691.5" height="16" width="249" data-name="How we turn our voice to facial rig keyframes?" style="stroke:#33322E;fill:#eee8d5;stroke-dasharray:none;stroke-width:3;"></rect>
  <text x="917" y="703.5" style="fill: #33322E;font:bold  8pt Helvetica, Helvetica, sans-serif;text-anchor: middle;" data-name="How we turn our voice to facial rig keyframes?">How we turn our voice to facial rig keyframes?</text>
</svg>