<svg version="1.1" baseProfile="full" width="3541" height="952" viewbox="0 0 3541 952" xmlns="http://www.w3.org/2000/svg" xmlns:xlink="http://www.w3.org/1999/xlink" xmlns:ev="http://www.w3.org/2001/xml-events" style="font:bold  12pt Helvetica, Helvetica, sans-serif;;stroke-linejoin:round;stroke-linecap:round">
  <title >Players want to define their own virtual worlds, but they can&amp;apos;t because making their own virtual worlds is hard.</title>
  <desc >#title: Players want to define their own virtual worlds, but they can&amp;apos;t because making their own virtual worlds is hard.
#direction: right
#background: transparent
#fill: #455A64; #37474F
#stroke: #B0BEC5
#ranker: longest-path

[V-Sekai| Players want to define the virtual worlds. | V-Sekai https://v-sekai.org/ |
Players can&apos;t make their own virtual worlds because it is hard. |
Further the development of Godot and open source tech.| 
Build a tech stack and service for interactive multiplayer VR games.
]
[V-Sekai] -&gt; [Godot world live creation]
[Godot world live creation] -&gt; [Imported physics]
[Godot world live creation] -&gt; [Place prexisting blocks with blockmeshing  ]
[Godot world live creation]-&gt; [&lt;table&gt; Create Godot world creation tools ]
[Godot world live creation]-&gt; [Place scenes ]
[Godot world live creation]-&gt; [Construct layers collaboratively ]
[Godot world live creation]-&gt; [Painting  ]
[Godot world live creation]-&gt; [&lt;table&gt; Create Godot world creation tools]
[&lt;table&gt; Create Godot world creation tools | 3D models with CASSIE | Make cassie commercial remixable | Painting with MaterialX ]
[V-Sekai] -&gt; [One gitlab repo with source assets? (sky celebration and sponza). | SDK (set of submodules?) https://github.com/V-Sekai/vsk_sdk. | Being able to enter a vsk map ∀ maps (mvp = 1 map). | Enter a vsk map with an entity in it (upload sky celebration OR upload sponza with one beachball).] 
[V-Sekai] -&gt; [Being able to have our group of people join and communicate. (godot speech).]
[Being able to have our group of people join and communicate. (godot speech).] -&gt; [VR support (openxr).]
[Being able to have our group of people join and communicate. (godot speech).] -&gt; [Interacting with objects in desktop mode is important so that we can test easier.] 
[VR support (openxr).] -&gt; [Interacting with objects in vr.]
[Interacting with objects in vr.] -&gt; [Scripting (wasgo).]
[Scripting (wasgo).] -&gt; [Network server to support 1000.]
[V-Sekai] -&gt;  [SDK (set of submodules?) https://github.com/V-Sekai/vsk_sdk.]
[SDK (set of submodules?) https://github.com/V-Sekai/vsk_sdk.] -&gt; [VSK_map source asset repositories]
[VSK_map source asset repositories] -&gt; [Lyuma will make a new github repo V-Sekai/vrm_submodule - we need a script for updating all submodules to the latest on a given branch.]

[V-Sekai] - [Last changed datetime|2022-03-01T04:00+00:00]
</desc>
  <rect x="0" y="0" height="952" width="3541" style="stroke:none; fill:transparent;"></rect>
  <path d="M362.5 607.5 L596.5 244.8 L935.5 244.8 L935.5 244.8 L1274.5 244.8 L1274.5 244.8 L1385 244.8 L1385 244.8 L1495.5 244.8 L1495.5 244.8 L1770 244.8 L1770 244.8 L2044.5 244.8 L2044.5 244.8 L2100.8 244.8 L2100.8 244.8 " style="stroke:#B0BEC5;fill:none;stroke-dasharray:none;stroke-width:3;"></path>
  <path d="M2094.2 250.1 L2100.8 244.8 L2094.2 239.4 L2107.5 244.8 Z" style="stroke:#B0BEC5;fill:#B0BEC5;stroke-dasharray:none;stroke-width:3;"></path>
  <path d="M2226.5 229.3 L2382.5 44 L2875.8 44 L2875.8 44 " style="stroke:#B0BEC5;fill:none;stroke-dasharray:none;stroke-width:3;"></path>
  <path d="M2869.2 49.3 L2875.8 44 L2869.2 38.7 L2882.5 44 Z" style="stroke:#B0BEC5;fill:#B0BEC5;stroke-dasharray:none;stroke-width:3;"></path>
  <path d="M2233.7 229.3 L2382.5 115 L2777.3 115 L2777.3 115 " style="stroke:#B0BEC5;fill:none;stroke-dasharray:none;stroke-width:3;"></path>
  <path d="M2770.7 120.3 L2777.3 115 L2770.7 109.7 L2784 115 Z" style="stroke:#B0BEC5;fill:#B0BEC5;stroke-dasharray:none;stroke-width:3;"></path>
  <path d="M2274.1 229.3 L2382.5 201.5 L2513.3 201.5 L2513.3 201.5 " style="stroke:#B0BEC5;fill:none;stroke-dasharray:none;stroke-width:3;"></path>
  <path d="M2506.7 206.8 L2513.3 201.5 L2506.7 196.2 L2520 201.5 Z" style="stroke:#B0BEC5;fill:#B0BEC5;stroke-dasharray:none;stroke-width:3;"></path>
  <path d="M2274.1 260.3 L2382.5 288 L2890.3 288 L2890.3 288 " style="stroke:#B0BEC5;fill:none;stroke-dasharray:none;stroke-width:3;"></path>
  <path d="M2883.7 293.3 L2890.3 288 L2883.7 282.7 L2897 288 Z" style="stroke:#B0BEC5;fill:#B0BEC5;stroke-dasharray:none;stroke-width:3;"></path>
  <path d="M2236.4 260.3 L2382.5 359 L2819.3 359 L2819.3 359 " style="stroke:#B0BEC5;fill:none;stroke-dasharray:none;stroke-width:3;"></path>
  <path d="M2812.7 364.3 L2819.3 359 L2812.7 353.7 L2826 359 Z" style="stroke:#B0BEC5;fill:#B0BEC5;stroke-dasharray:none;stroke-width:3;"></path>
  <path d="M2227.6 260.3 L2382.5 430 L2911.3 430 L2911.3 430 " style="stroke:#B0BEC5;fill:none;stroke-dasharray:none;stroke-width:3;"></path>
  <path d="M2904.7 435.3 L2911.3 430 L2904.7 424.7 L2918 430 Z" style="stroke:#B0BEC5;fill:#B0BEC5;stroke-dasharray:none;stroke-width:3;"></path>
  <path d="M481.2 607.5 L596.5 547.5 L935.5 547.5 L935.5 547.5 L1274.5 547.5 L1274.5 547.5 L1385 547.5 L1385 547.5 L1495.5 547.5 L1495.5 547.5 L1770 547.5 L1770 547.5 L2044.5 547.5 L2044.5 547.5 L2213.5 547.5 L2213.5 547.5 L2382.5 547.5 L2382.5 547.5 L2555.3 547.5 L2555.3 547.5 " style="stroke:#B0BEC5;fill:none;stroke-dasharray:none;stroke-width:3;"></path>
  <path d="M2548.7 552.8 L2555.3 547.5 L2548.7 542.2 L2562 547.5 Z" style="stroke:#B0BEC5;fill:#B0BEC5;stroke-dasharray:none;stroke-width:3;"></path>
  <path d="M576.5 700.5 L596.5 700.5 L609.8 700.5 L609.8 700.5 " style="stroke:#B0BEC5;fill:none;stroke-dasharray:none;stroke-width:3;"></path>
  <path d="M603.2 705.8 L609.8 700.5 L603.2 695.2 L616.5 700.5 Z" style="stroke:#B0BEC5;fill:#B0BEC5;stroke-dasharray:none;stroke-width:3;"></path>
  <path d="M1083.5 685 L1274.5 665 L1287.8 665 L1287.8 665 " style="stroke:#B0BEC5;fill:none;stroke-dasharray:none;stroke-width:3;"></path>
  <path d="M1281.2 670.3 L1287.8 665 L1281.2 659.7 L1294.5 665 Z" style="stroke:#B0BEC5;fill:#B0BEC5;stroke-dasharray:none;stroke-width:3;"></path>
  <path d="M1083.5 716 L1274.5 736 L1385 736 L1385 736 L1495.5 736 L1495.5 736 L1770 736 L1770 736 L2044.5 736 L2044.5 736 L2213.5 736 L2213.5 736 L2382.5 736 L2382.5 736 L2629.3 736 L2629.3 736 " style="stroke:#B0BEC5;fill:none;stroke-dasharray:none;stroke-width:3;"></path>
  <path d="M2622.7 741.3 L2629.3 736 L2622.7 730.7 L2636 736 Z" style="stroke:#B0BEC5;fill:#B0BEC5;stroke-dasharray:none;stroke-width:3;"></path>
  <path d="M1475.5 665 L1495.5 665 L1642.3 665 L1642.3 665 " style="stroke:#B0BEC5;fill:none;stroke-dasharray:none;stroke-width:3;"></path>
  <path d="M1635.7 670.3 L1642.3 665 L1635.7 659.7 L1649 665 Z" style="stroke:#B0BEC5;fill:#B0BEC5;stroke-dasharray:none;stroke-width:3;"></path>
  <path d="M1891 665 L2044.5 665 L2127.8 665 L2127.8 665 " style="stroke:#B0BEC5;fill:none;stroke-dasharray:none;stroke-width:3;"></path>
  <path d="M2121.2 670.3 L2127.8 665 L2121.2 659.7 L2134.5 665 Z" style="stroke:#B0BEC5;fill:#B0BEC5;stroke-dasharray:none;stroke-width:3;"></path>
  <path d="M2292.5 665 L2382.5 665 L2816.3 665 L2816.3 665 " style="stroke:#B0BEC5;fill:none;stroke-dasharray:none;stroke-width:3;"></path>
  <path d="M2809.7 670.3 L2816.3 665 L2809.7 659.7 L2823 665 Z" style="stroke:#B0BEC5;fill:#B0BEC5;stroke-dasharray:none;stroke-width:3;"></path>
  <path d="M559.2 793.5 L596.5 807 L935.5 807 L935.5 807 L1274.5 807 L1274.5 807 L1385 807 L1385 807 L1495.5 807 L1495.5 807 L1508.8 807 L1508.8 807 " style="stroke:#B0BEC5;fill:none;stroke-dasharray:none;stroke-width:3;"></path>
  <path d="M1502.2 812.3 L1508.8 807 L1502.2 801.7 L1515.5 807 Z" style="stroke:#B0BEC5;fill:#B0BEC5;stroke-dasharray:none;stroke-width:3;"></path>
  <path d="M2024.5 807 L2044.5 807 L2057.8 807 L2057.8 807 " style="stroke:#B0BEC5;fill:none;stroke-dasharray:none;stroke-width:3;"></path>
  <path d="M2051.2 812.3 L2057.8 807 L2051.2 801.7 L2064.5 807 Z" style="stroke:#B0BEC5;fill:#B0BEC5;stroke-dasharray:none;stroke-width:3;"></path>
  <path d="M2362.5 807 L2382.5 807 L2395.8 807 L2395.8 807 " style="stroke:#B0BEC5;fill:none;stroke-dasharray:none;stroke-width:3;"></path>
  <path d="M2389.2 812.3 L2395.8 807 L2389.2 801.7 L2402.5 807 Z" style="stroke:#B0BEC5;fill:#B0BEC5;stroke-dasharray:none;stroke-width:3;"></path>
  <path d="M444.2 793.5 L596.5 893.5 L935.5 893.5 L935.5 893.5 L1274.5 893.5 L1274.5 893.5 L1385 893.5 L1385 893.5 L1495.5 893.5 L1495.5 893.5 L1770 893.5 L1770 893.5 L2044.5 893.5 L2044.5 893.5 L2213.5 893.5 L2213.5 893.5 L2382.5 893.5 L2382.5 893.5 L2849 893.5 L2849 893.5 " style="stroke:#B0BEC5;fill:none;stroke-dasharray:none;stroke-width:3;"></path>
  <rect x="28.5" y="607.5" height="186" width="548" data-name="V-Sekai" style="stroke:#B0BEC5;fill:#455A64;stroke-dasharray:none;stroke-width:3;"></rect>
  <path d="M28.5 638.5 L576.5 638.5" data-name="V-Sekai" style="stroke:#B0BEC5;fill:none;stroke-dasharray:none;stroke-width:3;"></path>
  <path d="M28.5 669.5 L576.5 669.5" data-name="V-Sekai" style="stroke:#B0BEC5;fill:none;stroke-dasharray:none;stroke-width:3;"></path>
  <path d="M28.5 700.5 L576.5 700.5" data-name="V-Sekai" style="stroke:#B0BEC5;fill:none;stroke-dasharray:none;stroke-width:3;"></path>
  <path d="M28.5 731.5 L576.5 731.5" data-name="V-Sekai" style="stroke:#B0BEC5;fill:none;stroke-dasharray:none;stroke-width:3;"></path>
  <path d="M28.5 762.5 L576.5 762.5" data-name="V-Sekai" style="stroke:#B0BEC5;fill:none;stroke-dasharray:none;stroke-width:3;"></path>
  <text x="302.5" y="629" style="fill: #B0BEC5;font:bold  12pt Helvetica, Helvetica, sans-serif;text-anchor: middle;" data-name="V-Sekai">V-Sekai</text>
  <text x="36.5" y="660" style="fill: #B0BEC5;font:normal  12pt Helvetica, Helvetica, sans-serif;" data-name="V-Sekai">Players want to define the virtual worlds.</text>
  <text x="36.5" y="691" style="fill: #B0BEC5;font:normal  12pt Helvetica, Helvetica, sans-serif;" data-name="V-Sekai">V-Sekai https://v-sekai.org/</text>
  <text x="36.5" y="722" style="fill: #B0BEC5;font:normal  12pt Helvetica, Helvetica, sans-serif;" data-name="V-Sekai">Players can&apos;t make their own virtual worlds because it is hard.</text>
  <text x="36.5" y="753" style="fill: #B0BEC5;font:normal  12pt Helvetica, Helvetica, sans-serif;" data-name="V-Sekai">Further the development of Godot and open source tech.</text>
  <text x="36.5" y="784" style="fill: #B0BEC5;font:normal  12pt Helvetica, Helvetica, sans-serif;" data-name="V-Sekai">Build a tech stack and service for interactive multiplayer VR games.</text>
  <rect x="2520.5" y="170.5" height="62" width="876" data-name="Create Godot world creation tools" style="stroke:#B0BEC5;fill:#455A64;stroke-dasharray:none;stroke-width:3;"></rect>
  <path d="M2520.5 201.5 L2520.5 201.5" data-name="Create Godot world creation tools" style="stroke:#B0BEC5;fill:none;stroke-dasharray:none;stroke-width:3;"></path>
  <path d="M2520.5 201.5 L3396.5 201.5" data-name="Create Godot world creation tools" style="stroke:#B0BEC5;fill:none;stroke-dasharray:none;stroke-width:3;"></path>
  <path d="M2812.5 201.5 L2812.5 232.5" data-name="Create Godot world creation tools" style="stroke:#B0BEC5;fill:none;stroke-dasharray:none;stroke-width:3;"></path>
  <path d="M3104.5 201.5 L3104.5 232.5" data-name="Create Godot world creation tools" style="stroke:#B0BEC5;fill:none;stroke-dasharray:none;stroke-width:3;"></path>
  <path d="M3396.5 201.5 L3396.5 232.5" data-name="Create Godot world creation tools" style="stroke:#B0BEC5;fill:none;stroke-dasharray:none;stroke-width:3;"></path>
  <text x="2958.5" y="192" style="fill: #B0BEC5;font:bold  12pt Helvetica, Helvetica, sans-serif;text-anchor: middle;" data-name="Create Godot world creation tools">Create Godot world creation tools</text>
  <text x="2528.5" y="223" style="fill: #B0BEC5;font:normal  12pt Helvetica, Helvetica, sans-serif;" data-name="Create Godot world creation tools">3D models with CASSIE</text>
  <text x="2820.5" y="223" style="fill: #B0BEC5;font:normal  12pt Helvetica, Helvetica, sans-serif;" data-name="Create Godot world creation tools">Make cassie commercial remixable</text>
  <text x="3112.5" y="223" style="fill: #B0BEC5;font:normal  12pt Helvetica, Helvetica, sans-serif;" data-name="Create Godot world creation tools">Painting with MaterialX</text>
  <rect x="2562.5" y="485.5" height="124" width="792" data-name="One gitlab repo with source assets? (sky celebration and sponza)." style="stroke:#B0BEC5;fill:#455A64;stroke-dasharray:none;stroke-width:3;"></rect>
  <path d="M2562.5 516.5 L3354.5 516.5" data-name="One gitlab repo with source assets? (sky celebration and sponza)." style="stroke:#B0BEC5;fill:none;stroke-dasharray:none;stroke-width:3;"></path>
  <path d="M2562.5 547.5 L3354.5 547.5" data-name="One gitlab repo with source assets? (sky celebration and sponza)." style="stroke:#B0BEC5;fill:none;stroke-dasharray:none;stroke-width:3;"></path>
  <path d="M2562.5 578.5 L3354.5 578.5" data-name="One gitlab repo with source assets? (sky celebration and sponza)." style="stroke:#B0BEC5;fill:none;stroke-dasharray:none;stroke-width:3;"></path>
  <text x="2958.5" y="507" style="fill: #B0BEC5;font:bold  12pt Helvetica, Helvetica, sans-serif;text-anchor: middle;" data-name="One gitlab repo with source assets? (sky celebration and sponza).">One gitlab repo with source assets? (sky celebration and sponza).</text>
  <text x="2570.5" y="538" style="fill: #B0BEC5;font:normal  12pt Helvetica, Helvetica, sans-serif;" data-name="One gitlab repo with source assets? (sky celebration and sponza).">SDK (set of submodules?) https://github.com/V-Sekai/vsk_sdk.</text>
  <text x="2570.5" y="569" style="fill: #B0BEC5;font:normal  12pt Helvetica, Helvetica, sans-serif;" data-name="One gitlab repo with source assets? (sky celebration and sponza).">Being able to enter a vsk map ∀ maps (mvp = 1 map).</text>
  <text x="2570.5" y="600" style="fill: #B0BEC5;font:normal  12pt Helvetica, Helvetica, sans-serif;" data-name="One gitlab repo with source assets? (sky celebration and sponza).">Enter a vsk map with an entity in it (upload sky celebration OR upload sponza with one beachball).</text>
  <rect x="2849.5" y="862.5" height="62" width="218" data-name="Last changed datetime" style="stroke:#B0BEC5;fill:#455A64;stroke-dasharray:none;stroke-width:3;"></rect>
  <path d="M2849.5 893.5 L3067.5 893.5" data-name="Last changed datetime" style="stroke:#B0BEC5;fill:none;stroke-dasharray:none;stroke-width:3;"></path>
  <text x="2958.5" y="884" style="fill: #B0BEC5;font:bold  12pt Helvetica, Helvetica, sans-serif;text-anchor: middle;" data-name="Last changed datetime">Last changed datetime</text>
  <text x="2857.5" y="915" style="fill: #B0BEC5;font:normal  12pt Helvetica, Helvetica, sans-serif;" data-name="Last changed datetime">2022-03-01T04:00+00:00</text>
  <rect x="2107.5" y="229.5" height="31" width="212" data-name="Godot world live creation" style="stroke:#B0BEC5;fill:#455A64;stroke-dasharray:none;stroke-width:3;"></rect>
  <text x="2213.5" y="251" style="fill: #B0BEC5;font:bold  12pt Helvetica, Helvetica, sans-serif;text-anchor: middle;" data-name="Godot world live creation">Godot world live creation</text>
  <rect x="2882.5" y="28.5" height="31" width="151" data-name="Imported physics" style="stroke:#B0BEC5;fill:#455A64;stroke-dasharray:none;stroke-width:3;"></rect>
  <text x="2958" y="50" style="fill: #B0BEC5;font:bold  12pt Helvetica, Helvetica, sans-serif;text-anchor: middle;" data-name="Imported physics">Imported physics</text>
  <rect x="2784.5" y="99.5" height="31" width="348" data-name="Place prexisting blocks with blockmeshing" style="stroke:#B0BEC5;fill:#455A64;stroke-dasharray:none;stroke-width:3;"></rect>
  <text x="2958.5" y="121" style="fill: #B0BEC5;font:bold  12pt Helvetica, Helvetica, sans-serif;text-anchor: middle;" data-name="Place prexisting blocks with blockmeshing">Place prexisting blocks with blockmeshing</text>
  <rect x="2897.5" y="272.5" height="31" width="122" data-name="Place scenes" style="stroke:#B0BEC5;fill:#455A64;stroke-dasharray:none;stroke-width:3;"></rect>
  <text x="2958.5" y="294" style="fill: #B0BEC5;font:bold  12pt Helvetica, Helvetica, sans-serif;text-anchor: middle;" data-name="Place scenes">Place scenes</text>
  <rect x="2826.5" y="343.5" height="31" width="264" data-name="Construct layers collaboratively" style="stroke:#B0BEC5;fill:#455A64;stroke-dasharray:none;stroke-width:3;"></rect>
  <text x="2958.5" y="365" style="fill: #B0BEC5;font:bold  12pt Helvetica, Helvetica, sans-serif;text-anchor: middle;" data-name="Construct layers collaboratively">Construct layers collaboratively</text>
  <rect x="2918.5" y="414.5" height="31" width="80" data-name="Painting" style="stroke:#B0BEC5;fill:#455A64;stroke-dasharray:none;stroke-width:3;"></rect>
  <text x="2958.5" y="436" style="fill: #B0BEC5;font:bold  12pt Helvetica, Helvetica, sans-serif;text-anchor: middle;" data-name="Painting">Painting</text>
  <rect x="616.5" y="685.5" height="31" width="638" data-name="Being able to have our group of people join and communicate. (godot speech)." style="stroke:#B0BEC5;fill:#455A64;stroke-dasharray:none;stroke-width:3;"></rect>
  <text x="935.5" y="707" style="fill: #B0BEC5;font:bold  12pt Helvetica, Helvetica, sans-serif;text-anchor: middle;" data-name="Being able to have our group of people join and communicate. (godot speech).">Being able to have our group of people join and communicate. (godot speech).</text>
  <rect x="1294.5" y="649.5" height="31" width="181" data-name="VR support (openxr)." style="stroke:#B0BEC5;fill:#455A64;stroke-dasharray:none;stroke-width:3;"></rect>
  <text x="1385" y="671" style="fill: #B0BEC5;font:bold  12pt Helvetica, Helvetica, sans-serif;text-anchor: middle;" data-name="VR support (openxr).">VR support (openxr).</text>
  <rect x="2636.5" y="720.5" height="31" width="644" data-name="Interacting with objects in desktop mode is important so that we can test easier." style="stroke:#B0BEC5;fill:#455A64;stroke-dasharray:none;stroke-width:3;"></rect>
  <text x="2958.5" y="742" style="fill: #B0BEC5;font:bold  12pt Helvetica, Helvetica, sans-serif;text-anchor: middle;" data-name="Interacting with objects in desktop mode is important so that we can test easier.">Interacting with objects in desktop mode is important so that we can test easier.</text>
  <rect x="1649.5" y="649.5" height="31" width="242" data-name="Interacting with objects in vr." style="stroke:#B0BEC5;fill:#455A64;stroke-dasharray:none;stroke-width:3;"></rect>
  <text x="1770.5" y="671" style="fill: #B0BEC5;font:bold  12pt Helvetica, Helvetica, sans-serif;text-anchor: middle;" data-name="Interacting with objects in vr.">Interacting with objects in vr.</text>
  <rect x="2134.5" y="649.5" height="31" width="158" data-name="Scripting (wasgo)." style="stroke:#B0BEC5;fill:#455A64;stroke-dasharray:none;stroke-width:3;"></rect>
  <text x="2213.5" y="671" style="fill: #B0BEC5;font:bold  12pt Helvetica, Helvetica, sans-serif;text-anchor: middle;" data-name="Scripting (wasgo).">Scripting (wasgo).</text>
  <rect x="2823.5" y="649.5" height="31" width="270" data-name="Network server to support 1000." style="stroke:#B0BEC5;fill:#455A64;stroke-dasharray:none;stroke-width:3;"></rect>
  <text x="2958.5" y="671" style="fill: #B0BEC5;font:bold  12pt Helvetica, Helvetica, sans-serif;text-anchor: middle;" data-name="Network server to support 1000.">Network server to support 1000.</text>
  <rect x="1515.5" y="791.5" height="31" width="509" data-name="SDK (set of submodules?) https://github.com/V-Sekai/vsk_sdk." style="stroke:#B0BEC5;fill:#455A64;stroke-dasharray:none;stroke-width:3;"></rect>
  <text x="1770" y="813" style="fill: #B0BEC5;font:bold  12pt Helvetica, Helvetica, sans-serif;text-anchor: middle;" data-name="SDK (set of submodules?) https://github.com/V-Sekai/vsk_sdk.">SDK (set of submodules?) https://github.com/V-Sekai/vsk_sdk.</text>
  <rect x="2064.5" y="791.5" height="31" width="298" data-name="VSK_map source asset repositories" style="stroke:#B0BEC5;fill:#455A64;stroke-dasharray:none;stroke-width:3;"></rect>
  <text x="2213.5" y="813" style="fill: #B0BEC5;font:bold  12pt Helvetica, Helvetica, sans-serif;text-anchor: middle;" data-name="VSK_map source asset repositories">VSK_map source asset repositories</text>
  <rect x="2402.5" y="791.5" height="31" width="1111" data-name="Lyuma will make a new github repo V-Sekai/vrm_submodule - we need a script for updating all submodules to the latest on a given branch." style="stroke:#B0BEC5;fill:#455A64;stroke-dasharray:none;stroke-width:3;"></rect>
  <text x="2958" y="813" style="fill: #B0BEC5;font:bold  12pt Helvetica, Helvetica, sans-serif;text-anchor: middle;" data-name="Lyuma will make a new github repo V-Sekai/vrm_submodule - we need a script for updating all submodules to the latest on a given branch.">Lyuma will make a new github repo V-Sekai/vrm_submodule - we need a script for updating all submodules to the latest on a given branch.</text>
</svg>