<svg version="1.1" baseProfile="full" width="1732" height="802" viewbox="0 0 1732 802" xmlns="http://www.w3.org/2000/svg" xmlns:xlink="http://www.w3.org/1999/xlink" xmlns:ev="http://www.w3.org/2001/xml-events" style="font:bold  8pt Helvetica, Helvetica, sans-serif;;stroke-linejoin:round;stroke-linecap:round">
  <title >Players want to define their own virtual worlds, but they can&amp;apos;t because making their own virtual worlds is hard.</title>
  <desc >#title: Players want to define their own virtual worlds, but they can&amp;apos;t because making their own virtual worlds is hard.
#fontSize: 8
#spacing: 12
#padding: 3
#direction: right

[V-Sekai| Players want to define the virtual worlds. | V-Sekai https://v-sekai.org/ |
Players can&apos;t make their own virtual worlds because it is hard.]
[&lt;table&gt; Become avatars] -&gt; [Godot world live creation]
[Godot world live creation] -&gt;  [Imported physics]
[Godot world live creation] -&gt; [Place prexisting blocks with blockmeshing  ]
[Godot world live creation]-&gt; [&lt;table&gt; Create Godot world creation tools ]
[Godot world live creation]-&gt; [Place scenes ]
[Godot world live creation]-&gt; [Construct layers collaboratively ]
[Godot world live creation]-&gt; [Painting  ]
[Godot world live creation]-&gt; [&lt;table&gt; Create Godot world creation tools]
[&lt;table&gt; Create Godot world creation tools ] -&gt;  [3D models with CASSIE ]
[3D models with CASSIE ]-&gt; [Make cassie commercial remixable]
[&lt;table&gt; Create Godot world creation tools ] -&gt; [Painting with MaterialX ]
[Godot world live creation] -&gt; [Jeana usability]
[Godot world live creation] -&gt; [VFX (Particles, shaders, Sky)]
[&lt;table&gt; Become avatars] -&gt; [Advanced avatar (shader, IK, animations)]
[V-Sekai]-&gt;  [Skeleton modifications ]
[Skeleton modifications ] -&gt; [&lt;table&gt; Become avatars]
[&lt;table&gt; Become avatars] -&gt; [Vocal communicate]
[&lt;table&gt; Become avatars] -&gt; [Motion communicate]
[&lt;table&gt; Become avatars] -&gt; [Dance]

[&lt;table&gt; Become avatars] -&gt; [Godot speech comms system] 
[&lt;table&gt; Become avatars] -&gt; [Virtual reality 6 degree of freedom tracking ]

[&lt;table&gt; Become avatars]-&gt;[&lt;table&gt; Following  ]
[&lt;table&gt; Following] -&gt; [Double-sided friending. ]
[&lt;table&gt; Following] -&gt; [Discover new friends. ]

[&lt;table&gt; Become avatars] -&gt; [Locomotion (flat)]
[&lt;tsable&gt; Become avatars] -&gt; [Virtual reality motion movement]

[Virtual reality motion movement] -&gt; [Pickups]
[Pickups]-&gt; [Wasgo Scripting  ]
[Pickups]-&gt; [In-game menus  ]
[Pickups]-&gt; [Video player ]

[Pickups]-&gt;[Vehicles ]
[Pickups]-&gt;[Buttons]

[Pickups]-&gt;[&lt;table&gt; Avatar switch ]
[Pickups]-&gt;[World portals ]
[Pickups]-&gt;[Server switch ]

[Pickups]-&gt;[&lt;table&gt; Player interactions ]
[&lt;table&gt; Player interactions] -&gt; [Camera ]
[&lt;table&gt; Player interactions] -&gt; [Bow and arrow ]
[&lt;table&gt; Player interactions] -&gt; [Mirror ]

[&lt;table&gt; Become avatars]-&gt;[&lt;table&gt; Platform host Uro Infrastructure]
[&lt;table&gt; Platform host Uro Infrastructure] -&gt; [ Federation list ]
[&lt;table&gt; Platform host Uro Infrastructure] -&gt; [ Delegated Identity ]

[&lt;table&gt; Platform host Uro Infrastructure ]-&gt;[&lt;table&gt; Content]
[&lt;table&gt; Content ]-&gt; [Refuse to attest content because scripting is untrusted ]

[&lt;table&gt; Platform host Uro Infrastructure]-&gt;[&lt;table&gt; Deployment kit ] 

[&lt;table&gt; Create Godot world creation tools ] -&gt; [&lt;table&gt; Upgrade PLY to Godot Engine]

[&lt;table&gt; Platform host Uro Infrastructure]  -&gt; [&lt;table&gt; Launch uro using Elixir Desktop]

[&lt;table&gt; Platform host Uro Infrastructure] -&gt; [&lt;table&gt; Make TrueNas Scale run V-Sekai mirror]

[&lt;table&gt; Become avatars] -&gt; [How do we animate the character?| VRM1 rig]
[&lt;table&gt; Become avatars] -&gt; [How do we retarget to the VRM1 rig?]
[&lt;table&gt; Become avatars] -&gt; [How do we mocapture the face rig?| Support mapping every single possible standard rig?]
[&lt;table&gt; Become avatars] -&gt; [How do we make the face rig fast? |Blend shape baking to skeletals]
[&lt;table&gt; Become avatars] -&gt; [How do we create the standard animation set? |Want to be better than the status quo of mixamo animation sets]
[&lt;table&gt; Become avatars] -&gt; [How do we interact with objects? |Pickup animation is stored on prop]
[&lt;table&gt; Become avatars] -&gt; [How do we have more diverse characters? |Marketplace? Proceduralism? Character generators?]
[&lt;table&gt; Become avatars] -&gt; [How we turn our voice to facial rig keyframes?]

[V-Sekai] - [Last changed datetime|2022-02-11T11:16+00:00]
</desc>
  <rect x="0" y="0" height="802" width="1732" style="stroke:none; fill:transparent;"></rect>
  <path d="M566.4 373.5 L616.5 87.5 L722 87.5 L722 87.5 " style="stroke:#33322E;fill:none;stroke-dasharray:none;stroke-width:3;"></path>
  <path d="M720 89.1 L722 87.5 L720 85.9 L724 87.5 Z" style="stroke:#33322E;fill:#33322E;stroke-dasharray:none;stroke-width:3;"></path>
  <path d="M817.6 79.5 L968.5 31.5 L1038 31.5 L1038 31.5 " style="stroke:#33322E;fill:none;stroke-dasharray:none;stroke-width:3;"></path>
  <path d="M1036 33.1 L1038 31.5 L1036 29.9 L1040 31.5 Z" style="stroke:#33322E;fill:#33322E;stroke-dasharray:none;stroke-width:3;"></path>
  <path d="M842.8 79.5 L968.5 59.5 L972.5 59.5 L972.5 59.5 " style="stroke:#33322E;fill:none;stroke-dasharray:none;stroke-width:3;"></path>
  <path d="M970.5 61.1 L972.5 59.5 L970.5 57.9 L974.5 59.5 Z" style="stroke:#33322E;fill:#33322E;stroke-dasharray:none;stroke-width:3;"></path>
  <path d="M861 87.5 L968.5 87.5 L994.5 87.5 L994.5 87.5 " style="stroke:#33322E;fill:none;stroke-dasharray:none;stroke-width:3;"></path>
  <path d="M992.5 89.1 L994.5 87.5 L992.5 85.9 L996.5 87.5 Z" style="stroke:#33322E;fill:#33322E;stroke-dasharray:none;stroke-width:3;"></path>
  <path d="M842.8 95.5 L968.5 115.5 L1047.5 115.5 L1047.5 115.5 " style="stroke:#33322E;fill:none;stroke-dasharray:none;stroke-width:3;"></path>
  <path d="M1045.5 117.1 L1047.5 115.5 L1045.5 113.9 L1049.5 115.5 Z" style="stroke:#33322E;fill:#33322E;stroke-dasharray:none;stroke-width:3;"></path>
  <path d="M817.6 95.5 L968.5 143.5 L1000.5 143.5 L1000.5 143.5 " style="stroke:#33322E;fill:none;stroke-dasharray:none;stroke-width:3;"></path>
  <path d="M998.5 145.1 L1000.5 143.5 L998.5 141.9 L1002.5 143.5 Z" style="stroke:#33322E;fill:#33322E;stroke-dasharray:none;stroke-width:3;"></path>
  <path d="M809.3 95.5 L968.5 171.5 L1061.5 171.5 L1061.5 171.5 " style="stroke:#33322E;fill:none;stroke-dasharray:none;stroke-width:3;"></path>
  <path d="M1059.5 173.1 L1061.5 171.5 L1059.5 169.9 L1063.5 171.5 Z" style="stroke:#33322E;fill:#33322E;stroke-dasharray:none;stroke-width:3;"></path>
  <path d="M1122.1 79.5 L1207.5 59.5 L1293.5 59.5 L1293.5 59.5 " style="stroke:#33322E;fill:none;stroke-dasharray:none;stroke-width:3;"></path>
  <path d="M1291.5 61.1 L1293.5 59.5 L1291.5 57.9 L1295.5 59.5 Z" style="stroke:#33322E;fill:#33322E;stroke-dasharray:none;stroke-width:3;"></path>
  <path d="M1425.5 59.5 L1513.5 59.5 L1517.5 59.5 L1517.5 59.5 " style="stroke:#33322E;fill:none;stroke-dasharray:none;stroke-width:3;"></path>
  <path d="M1515.5 61.1 L1517.5 59.5 L1515.5 57.9 L1519.5 59.5 Z" style="stroke:#33322E;fill:#33322E;stroke-dasharray:none;stroke-width:3;"></path>
  <path d="M1179.5 87.5 L1207.5 87.5 L1296 87.5 L1296 87.5 " style="stroke:#33322E;fill:none;stroke-dasharray:none;stroke-width:3;"></path>
  <path d="M1294 89.1 L1296 87.5 L1294 85.9 L1298 87.5 Z" style="stroke:#33322E;fill:#33322E;stroke-dasharray:none;stroke-width:3;"></path>
  <path d="M805.1 95.5 L968.5 199.5 L1043.5 199.5 L1043.5 199.5 " style="stroke:#33322E;fill:none;stroke-dasharray:none;stroke-width:3;"></path>
  <path d="M1041.5 201.1 L1043.5 199.5 L1041.5 197.9 L1045.5 199.5 Z" style="stroke:#33322E;fill:#33322E;stroke-dasharray:none;stroke-width:3;"></path>
  <path d="M802.6 95.5 L968.5 227.5 L1006.5 227.5 L1006.5 227.5 " style="stroke:#33322E;fill:none;stroke-dasharray:none;stroke-width:3;"></path>
  <path d="M1004.5 229.1 L1006.5 227.5 L1004.5 225.9 L1008.5 227.5 Z" style="stroke:#33322E;fill:#33322E;stroke-dasharray:none;stroke-width:3;"></path>
  <path d="M566.6 373.5 L616.5 129.5 L678 129.5 L678 129.5 " style="stroke:#33322E;fill:none;stroke-dasharray:none;stroke-width:3;"></path>
  <path d="M676 131.1 L678 129.5 L676 127.9 L680 129.5 Z" style="stroke:#33322E;fill:#33322E;stroke-dasharray:none;stroke-width:3;"></path>
  <path d="M354.5 382.1 L360.5 381.5 L372.5 381.5 L372.5 381.5 " style="stroke:#33322E;fill:none;stroke-dasharray:none;stroke-width:3;"></path>
  <path d="M370.5 383.1 L372.5 381.5 L370.5 379.9 L374.5 381.5 Z" style="stroke:#33322E;fill:#33322E;stroke-dasharray:none;stroke-width:3;"></path>
  <path d="M499.5 381.5 L513.5 381.5 L517.5 381.5 L517.5 381.5 " style="stroke:#33322E;fill:none;stroke-dasharray:none;stroke-width:3;"></path>
  <path d="M515.5 383.1 L517.5 381.5 L515.5 379.9 L519.5 381.5 Z" style="stroke:#33322E;fill:#33322E;stroke-dasharray:none;stroke-width:3;"></path>
  <path d="M566.8 373.5 L616.5 157.5 L736 157.5 L736 157.5 " style="stroke:#33322E;fill:none;stroke-dasharray:none;stroke-width:3;"></path>
  <path d="M734 159.1 L736 157.5 L734 155.9 L738 157.5 Z" style="stroke:#33322E;fill:#33322E;stroke-dasharray:none;stroke-width:3;"></path>
  <path d="M567.1 373.5 L616.5 185.5 L733 185.5 L733 185.5 " style="stroke:#33322E;fill:none;stroke-dasharray:none;stroke-width:3;"></path>
  <path d="M731 187.1 L733 185.5 L731 183.9 L735 185.5 Z" style="stroke:#33322E;fill:#33322E;stroke-dasharray:none;stroke-width:3;"></path>
  <path d="M567.5 373.5 L616.5 213.5 L770.5 213.5 L770.5 213.5 " style="stroke:#33322E;fill:none;stroke-dasharray:none;stroke-width:3;"></path>
  <path d="M768.5 215.1 L770.5 213.5 L768.5 211.9 L772.5 213.5 Z" style="stroke:#33322E;fill:#33322E;stroke-dasharray:none;stroke-width:3;"></path>
  <path d="M567.9 373.5 L616.5 241.5 L710 241.5 L710 241.5 " style="stroke:#33322E;fill:none;stroke-dasharray:none;stroke-width:3;"></path>
  <path d="M708 243.1 L710 241.5 L708 239.9 L712 241.5 Z" style="stroke:#33322E;fill:#33322E;stroke-dasharray:none;stroke-width:3;"></path>
  <path d="M568.7 373.5 L616.5 269.5 L675 269.5 L675 269.5 " style="stroke:#33322E;fill:none;stroke-dasharray:none;stroke-width:3;"></path>
  <path d="M673 271.1 L675 269.5 L673 267.9 L677 269.5 Z" style="stroke:#33322E;fill:#33322E;stroke-dasharray:none;stroke-width:3;"></path>
  <path d="M569.9 373.5 L616.5 297.5 L763 297.5 L763 297.5 " style="stroke:#33322E;fill:none;stroke-dasharray:none;stroke-width:3;"></path>
  <path d="M761 299.1 L763 297.5 L761 295.9 L765 297.5 Z" style="stroke:#33322E;fill:#33322E;stroke-dasharray:none;stroke-width:3;"></path>
  <path d="M820 290.9 L968.5 255.5 L1021.5 255.5 L1021.5 255.5 " style="stroke:#33322E;fill:none;stroke-dasharray:none;stroke-width:3;"></path>
  <path d="M1019.5 257.1 L1021.5 255.5 L1019.5 253.9 L1023.5 255.5 Z" style="stroke:#33322E;fill:#33322E;stroke-dasharray:none;stroke-width:3;"></path>
  <path d="M820 299.7 L968.5 311.5 L1026.5 311.5 L1026.5 311.5 " style="stroke:#33322E;fill:none;stroke-dasharray:none;stroke-width:3;"></path>
  <path d="M1024.5 313.1 L1026.5 311.5 L1024.5 309.9 L1028.5 311.5 Z" style="stroke:#33322E;fill:#33322E;stroke-dasharray:none;stroke-width:3;"></path>
  <path d="M572.4 373.5 L616.5 325.5 L743 325.5 L743 325.5 " style="stroke:#33322E;fill:none;stroke-dasharray:none;stroke-width:3;"></path>
  <path d="M741 327.1 L743 325.5 L741 323.9 L745 325.5 Z" style="stroke:#33322E;fill:#33322E;stroke-dasharray:none;stroke-width:3;"></path>
  <path d="M579.7 373.5 L616.5 353.5 L705 353.5 L705 353.5 " style="stroke:#33322E;fill:none;stroke-dasharray:none;stroke-width:3;"></path>
  <path d="M703 355.1 L705 353.5 L703 351.9 L707 353.5 Z" style="stroke:#33322E;fill:#33322E;stroke-dasharray:none;stroke-width:3;"></path>
  <path d="M878 353.5 L968.5 353.5 L1062.5 353.5 L1062.5 353.5 " style="stroke:#33322E;fill:none;stroke-dasharray:none;stroke-width:3;"></path>
  <path d="M1060.5 355.1 L1062.5 353.5 L1060.5 351.9 L1064.5 353.5 Z" style="stroke:#33322E;fill:#33322E;stroke-dasharray:none;stroke-width:3;"></path>
  <path d="M1094.2 345.5 L1207.5 199.5 L1312.5 199.5 L1312.5 199.5 " style="stroke:#33322E;fill:none;stroke-dasharray:none;stroke-width:3;"></path>
  <path d="M1310.5 201.1 L1312.5 199.5 L1310.5 197.9 L1314.5 199.5 Z" style="stroke:#33322E;fill:#33322E;stroke-dasharray:none;stroke-width:3;"></path>
  <path d="M1095.6 345.5 L1207.5 227.5 L1314.5 227.5 L1314.5 227.5 " style="stroke:#33322E;fill:none;stroke-dasharray:none;stroke-width:3;"></path>
  <path d="M1312.5 229.1 L1314.5 227.5 L1312.5 225.9 L1316.5 227.5 Z" style="stroke:#33322E;fill:#33322E;stroke-dasharray:none;stroke-width:3;"></path>
  <path d="M1097.8 345.5 L1207.5 255.5 L1322.5 255.5 L1322.5 255.5 " style="stroke:#33322E;fill:none;stroke-dasharray:none;stroke-width:3;"></path>
  <path d="M1320.5 257.1 L1322.5 255.5 L1320.5 253.9 L1324.5 255.5 Z" style="stroke:#33322E;fill:#33322E;stroke-dasharray:none;stroke-width:3;"></path>
  <path d="M1101.7 345.5 L1207.5 283.5 L1333 283.5 L1333 283.5 " style="stroke:#33322E;fill:none;stroke-dasharray:none;stroke-width:3;"></path>
  <path d="M1331 285.1 L1333 283.5 L1331 281.9 L1335 283.5 Z" style="stroke:#33322E;fill:#33322E;stroke-dasharray:none;stroke-width:3;"></path>
  <path d="M1111.5 359 L1207.5 381.5 L1335.5 381.5 L1335.5 381.5 " style="stroke:#33322E;fill:none;stroke-dasharray:none;stroke-width:3;"></path>
  <path d="M1333.5 383.1 L1335.5 381.5 L1333.5 379.9 L1337.5 381.5 Z" style="stroke:#33322E;fill:#33322E;stroke-dasharray:none;stroke-width:3;"></path>
  <path d="M1105.1 361.5 L1207.5 409.5 L1320.5 409.5 L1320.5 409.5 " style="stroke:#33322E;fill:none;stroke-dasharray:none;stroke-width:3;"></path>
  <path d="M1318.5 411.1 L1320.5 409.5 L1318.5 407.9 L1322.5 409.5 Z" style="stroke:#33322E;fill:#33322E;stroke-dasharray:none;stroke-width:3;"></path>
  <path d="M1099.4 361.5 L1207.5 437.5 L1320.5 437.5 L1320.5 437.5 " style="stroke:#33322E;fill:none;stroke-dasharray:none;stroke-width:3;"></path>
  <path d="M1318.5 439.1 L1320.5 437.5 L1318.5 435.9 L1322.5 437.5 Z" style="stroke:#33322E;fill:#33322E;stroke-dasharray:none;stroke-width:3;"></path>
  <path d="M1096.5 361.5 L1207.5 465.5 L1320 465.5 L1320 465.5 " style="stroke:#33322E;fill:none;stroke-dasharray:none;stroke-width:3;"></path>
  <path d="M1318 467.1 L1320 465.5 L1318 463.9 L1322 465.5 Z" style="stroke:#33322E;fill:#33322E;stroke-dasharray:none;stroke-width:3;"></path>
  <path d="M1094.8 361.5 L1207.5 493.5 L1306.5 493.5 L1306.5 493.5 " style="stroke:#33322E;fill:none;stroke-dasharray:none;stroke-width:3;"></path>
  <path d="M1304.5 495.1 L1306.5 493.5 L1304.5 491.9 L1308.5 493.5 Z" style="stroke:#33322E;fill:#33322E;stroke-dasharray:none;stroke-width:3;"></path>
  <path d="M1366 485.5 L1513.5 269.5 L1589 269.5 L1589 269.5 " style="stroke:#33322E;fill:none;stroke-dasharray:none;stroke-width:3;"></path>
  <path d="M1587 271.1 L1589 269.5 L1587 267.9 L1591 269.5 Z" style="stroke:#33322E;fill:#33322E;stroke-dasharray:none;stroke-width:3;"></path>
  <path d="M1412.5 493.5 L1513.5 493.5 L1570.5 493.5 L1570.5 493.5 " style="stroke:#33322E;fill:none;stroke-dasharray:none;stroke-width:3;"></path>
  <path d="M1568.5 495.1 L1570.5 493.5 L1568.5 491.9 L1572.5 493.5 Z" style="stroke:#33322E;fill:#33322E;stroke-dasharray:none;stroke-width:3;"></path>
  <path d="M1404.2 501.5 L1513.5 521.5 L1594 521.5 L1594 521.5 " style="stroke:#33322E;fill:none;stroke-dasharray:none;stroke-width:3;"></path>
  <path d="M1592 523.1 L1594 521.5 L1592 519.9 L1596 521.5 Z" style="stroke:#33322E;fill:#33322E;stroke-dasharray:none;stroke-width:3;"></path>
  <path d="M570.9 389.5 L616.5 451.5 L705 451.5 L705 451.5 " style="stroke:#33322E;fill:none;stroke-dasharray:none;stroke-width:3;"></path>
  <path d="M703 453.1 L705 451.5 L703 449.9 L707 451.5 Z" style="stroke:#33322E;fill:#33322E;stroke-dasharray:none;stroke-width:3;"></path>
  <path d="M812.6 443.5 L968.5 381.5 L1045.5 381.5 L1045.5 381.5 " style="stroke:#33322E;fill:none;stroke-dasharray:none;stroke-width:3;"></path>
  <path d="M1043.5 383.1 L1045.5 381.5 L1043.5 379.9 L1047.5 381.5 Z" style="stroke:#33322E;fill:#33322E;stroke-dasharray:none;stroke-width:3;"></path>
  <path d="M878 458.3 L968.5 465.5 L1035 465.5 L1035 465.5 " style="stroke:#33322E;fill:none;stroke-dasharray:none;stroke-width:3;"></path>
  <path d="M1033 467.1 L1035 465.5 L1033 463.9 L1037 465.5 Z" style="stroke:#33322E;fill:#33322E;stroke-dasharray:none;stroke-width:3;"></path>
  <path d="M812.6 459.5 L968.5 521.5 L1062.5 521.5 L1062.5 521.5 " style="stroke:#33322E;fill:none;stroke-dasharray:none;stroke-width:3;"></path>
  <path d="M1060.5 523.1 L1062.5 521.5 L1060.5 519.9 L1064.5 521.5 Z" style="stroke:#33322E;fill:#33322E;stroke-dasharray:none;stroke-width:3;"></path>
  <path d="M1111.5 521.5 L1207.5 521.5 L1211.5 521.5 L1211.5 521.5 " style="stroke:#33322E;fill:none;stroke-dasharray:none;stroke-width:3;"></path>
  <path d="M1209.5 523.1 L1211.5 521.5 L1209.5 519.9 L1213.5 521.5 Z" style="stroke:#33322E;fill:#33322E;stroke-dasharray:none;stroke-width:3;"></path>
  <path d="M806.9 459.5 L968.5 549.5 L1044 549.5 L1044 549.5 " style="stroke:#33322E;fill:none;stroke-dasharray:none;stroke-width:3;"></path>
  <path d="M1042 551.1 L1044 549.5 L1042 547.9 L1046 549.5 Z" style="stroke:#33322E;fill:#33322E;stroke-dasharray:none;stroke-width:3;"></path>
  <path d="M1099.4 95.5 L1207.5 171.5 L1276 171.5 L1276 171.5 " style="stroke:#33322E;fill:none;stroke-dasharray:none;stroke-width:3;"></path>
  <path d="M1274 173.1 L1276 171.5 L1274 169.9 L1278 171.5 Z" style="stroke:#33322E;fill:#33322E;stroke-dasharray:none;stroke-width:3;"></path>
  <path d="M803.7 459.5 L968.5 577.5 L999.5 577.5 L999.5 577.5 " style="stroke:#33322E;fill:none;stroke-dasharray:none;stroke-width:3;"></path>
  <path d="M997.5 579.1 L999.5 577.5 L997.5 575.9 L1001.5 577.5 Z" style="stroke:#33322E;fill:#33322E;stroke-dasharray:none;stroke-width:3;"></path>
  <path d="M801.6 459.5 L968.5 605.5 L979 605.5 L979 605.5 " style="stroke:#33322E;fill:none;stroke-dasharray:none;stroke-width:3;"></path>
  <path d="M977 607.1 L979 605.5 L977 603.9 L981 605.5 Z" style="stroke:#33322E;fill:#33322E;stroke-dasharray:none;stroke-width:3;"></path>
  <path d="M568.9 389.5 L616.5 487.5 L696 487.5 L696 487.5 " style="stroke:#33322E;fill:none;stroke-dasharray:none;stroke-width:3;"></path>
  <path d="M694 489.1 L696 487.5 L694 485.9 L698 487.5 Z" style="stroke:#33322E;fill:#33322E;stroke-dasharray:none;stroke-width:3;"></path>
  <path d="M567.9 389.5 L616.5 523.5 L691 523.5 L691 523.5 " style="stroke:#33322E;fill:none;stroke-dasharray:none;stroke-width:3;"></path>
  <path d="M689 525.1 L691 523.5 L689 521.9 L693 523.5 Z" style="stroke:#33322E;fill:#33322E;stroke-dasharray:none;stroke-width:3;"></path>
  <path d="M567.3 389.5 L616.5 559.5 L648.5 559.5 L648.5 559.5 " style="stroke:#33322E;fill:none;stroke-dasharray:none;stroke-width:3;"></path>
  <path d="M646.5 561.1 L648.5 559.5 L646.5 557.9 L650.5 559.5 Z" style="stroke:#33322E;fill:#33322E;stroke-dasharray:none;stroke-width:3;"></path>
  <path d="M566.9 389.5 L616.5 603.5 L697 603.5 L697 603.5 " style="stroke:#33322E;fill:none;stroke-dasharray:none;stroke-width:3;"></path>
  <path d="M695 605.1 L697 603.5 L695 601.9 L699 603.5 Z" style="stroke:#33322E;fill:#33322E;stroke-dasharray:none;stroke-width:3;"></path>
  <path d="M566.5 389.5 L616.5 647.5 L620.5 647.5 L620.5 647.5 " style="stroke:#33322E;fill:none;stroke-dasharray:none;stroke-width:3;"></path>
  <path d="M618.5 649.1 L620.5 647.5 L618.5 645.9 L622.5 647.5 Z" style="stroke:#33322E;fill:#33322E;stroke-dasharray:none;stroke-width:3;"></path>
  <path d="M566.3 389.5 L616.5 691.5 L696 691.5 L696 691.5 " style="stroke:#33322E;fill:none;stroke-dasharray:none;stroke-width:3;"></path>
  <path d="M694 693.1 L696 691.5 L694 689.9 L698 691.5 Z" style="stroke:#33322E;fill:#33322E;stroke-dasharray:none;stroke-width:3;"></path>
  <path d="M566.2 389.5 L616.5 735.5 L648 735.5 L648 735.5 " style="stroke:#33322E;fill:none;stroke-dasharray:none;stroke-width:3;"></path>
  <path d="M646 737.1 L648 735.5 L646 733.9 L650 735.5 Z" style="stroke:#33322E;fill:#33322E;stroke-dasharray:none;stroke-width:3;"></path>
  <path d="M566.1 389.5 L616.5 771.5 L666 771.5 L666 771.5 " style="stroke:#33322E;fill:none;stroke-dasharray:none;stroke-width:3;"></path>
  <path d="M664 773.1 L666 771.5 L664 769.9 L668 771.5 Z" style="stroke:#33322E;fill:#33322E;stroke-dasharray:none;stroke-width:3;"></path>
  <path d="M354.5 416.9 L360.5 417.5 L366.5 417.5 L366.5 417.5 " style="stroke:#33322E;fill:none;stroke-dasharray:none;stroke-width:3;"></path>
  <rect x="23.5" y="367.5" height="64" width="331" data-name="V-Sekai" style="stroke:#33322E;fill:#eee8d5;stroke-dasharray:none;stroke-width:3;"></rect>
  <path d="M23.5 383.5 L354.5 383.5" data-name="V-Sekai" style="stroke:#33322E;fill:none;stroke-dasharray:none;stroke-width:3;"></path>
  <path d="M23.5 399.5 L354.5 399.5" data-name="V-Sekai" style="stroke:#33322E;fill:none;stroke-dasharray:none;stroke-width:3;"></path>
  <path d="M23.5 415.5 L354.5 415.5" data-name="V-Sekai" style="stroke:#33322E;fill:none;stroke-dasharray:none;stroke-width:3;"></path>
  <text x="189" y="379.5" style="fill: #33322E;font:bold  8pt Helvetica, Helvetica, sans-serif;text-anchor: middle;" data-name="V-Sekai">V-Sekai</text>
  <text x="26.5" y="395.5" style="fill: #33322E;font:normal  8pt Helvetica, Helvetica, sans-serif;" data-name="V-Sekai">Players want to define the virtual worlds.</text>
  <text x="26.5" y="411.5" style="fill: #33322E;font:normal  8pt Helvetica, Helvetica, sans-serif;" data-name="V-Sekai">V-Sekai https://v-sekai.org/</text>
  <text x="26.5" y="427.5" style="fill: #33322E;font:normal  8pt Helvetica, Helvetica, sans-serif;" data-name="V-Sekai">Players can&apos;t make their own virtual worlds because it is hard.</text>
  <rect x="698.5" y="471.5" height="32" width="189" data-name="How do we animate the character?" style="stroke:#33322E;fill:#eee8d5;stroke-dasharray:none;stroke-width:3;"></rect>
  <path d="M698.5 487.5 L887.5 487.5" data-name="How do we animate the character?" style="stroke:#33322E;fill:none;stroke-dasharray:none;stroke-width:3;"></path>
  <text x="793" y="483.5" style="fill: #33322E;font:bold  8pt Helvetica, Helvetica, sans-serif;text-anchor: middle;" data-name="How do we animate the character?">How do we animate the character?</text>
  <text x="701.5" y="499.5" style="fill: #33322E;font:normal  8pt Helvetica, Helvetica, sans-serif;" data-name="How do we animate the character?">VRM1 rig</text>
  <rect x="650.5" y="543.5" height="32" width="284" data-name="How do we mocapture the face rig?" style="stroke:#33322E;fill:#eee8d5;stroke-dasharray:none;stroke-width:3;"></rect>
  <path d="M650.5 559.5 L934.5 559.5" data-name="How do we mocapture the face rig?" style="stroke:#33322E;fill:none;stroke-dasharray:none;stroke-width:3;"></path>
  <text x="792.5" y="555.5" style="fill: #33322E;font:bold  8pt Helvetica, Helvetica, sans-serif;text-anchor: middle;" data-name="How do we mocapture the face rig?">How do we mocapture the face rig?</text>
  <text x="653.5" y="571.5" style="fill: #33322E;font:normal  8pt Helvetica, Helvetica, sans-serif;" data-name="How do we mocapture the face rig?">Support mapping every single possible standard rig?</text>
  <rect x="699.5" y="587.5" height="32" width="187" data-name="How do we make the face rig fast?" style="stroke:#33322E;fill:#eee8d5;stroke-dasharray:none;stroke-width:3;"></rect>
  <path d="M699.5 603.5 L886.5 603.5" data-name="How do we make the face rig fast?" style="stroke:#33322E;fill:none;stroke-dasharray:none;stroke-width:3;"></path>
  <text x="793" y="599.5" style="fill: #33322E;font:bold  8pt Helvetica, Helvetica, sans-serif;text-anchor: middle;" data-name="How do we make the face rig fast?">How do we make the face rig fast?</text>
  <text x="702.5" y="615.5" style="fill: #33322E;font:normal  8pt Helvetica, Helvetica, sans-serif;" data-name="How do we make the face rig fast?">Blend shape baking to skeletals</text>
  <rect x="622.5" y="631.5" height="32" width="340" data-name="How do we create the standard animation set?" style="stroke:#33322E;fill:#eee8d5;stroke-dasharray:none;stroke-width:3;"></rect>
  <path d="M622.5 647.5 L962.5 647.5" data-name="How do we create the standard animation set?" style="stroke:#33322E;fill:none;stroke-dasharray:none;stroke-width:3;"></path>
  <text x="792.5" y="643.5" style="fill: #33322E;font:bold  8pt Helvetica, Helvetica, sans-serif;text-anchor: middle;" data-name="How do we create the standard animation set?">How do we create the standard animation set?</text>
  <text x="625.5" y="659.5" style="fill: #33322E;font:normal  8pt Helvetica, Helvetica, sans-serif;" data-name="How do we create the standard animation set?">Want to be better than the status quo of mixamo animation sets</text>
  <rect x="698.5" y="675.5" height="32" width="189" data-name="How do we interact with objects?" style="stroke:#33322E;fill:#eee8d5;stroke-dasharray:none;stroke-width:3;"></rect>
  <path d="M698.5 691.5 L887.5 691.5" data-name="How do we interact with objects?" style="stroke:#33322E;fill:none;stroke-dasharray:none;stroke-width:3;"></path>
  <text x="793" y="687.5" style="fill: #33322E;font:bold  8pt Helvetica, Helvetica, sans-serif;text-anchor: middle;" data-name="How do we interact with objects?">How do we interact with objects?</text>
  <text x="701.5" y="703.5" style="fill: #33322E;font:normal  8pt Helvetica, Helvetica, sans-serif;" data-name="How do we interact with objects?">Pickup animation is stored on prop</text>
  <rect x="650.5" y="719.5" height="32" width="285" data-name="How do we have more diverse characters?" style="stroke:#33322E;fill:#eee8d5;stroke-dasharray:none;stroke-width:3;"></rect>
  <path d="M650.5 735.5 L935.5 735.5" data-name="How do we have more diverse characters?" style="stroke:#33322E;fill:none;stroke-dasharray:none;stroke-width:3;"></path>
  <text x="793" y="731.5" style="fill: #33322E;font:bold  8pt Helvetica, Helvetica, sans-serif;text-anchor: middle;" data-name="How do we have more diverse characters?">How do we have more diverse characters?</text>
  <text x="653.5" y="747.5" style="fill: #33322E;font:normal  8pt Helvetica, Helvetica, sans-serif;" data-name="How do we have more diverse characters?">Marketplace? Proceduralism? Character generators?</text>
  <rect x="366.5" y="401.5" height="32" width="141" data-name="Last changed datetime" style="stroke:#33322E;fill:#eee8d5;stroke-dasharray:none;stroke-width:3;"></rect>
  <path d="M366.5 417.5 L507.5 417.5" data-name="Last changed datetime" style="stroke:#33322E;fill:none;stroke-dasharray:none;stroke-width:3;"></path>
  <text x="437" y="413.5" style="fill: #33322E;font:bold  8pt Helvetica, Helvetica, sans-serif;text-anchor: middle;" data-name="Last changed datetime">Last changed datetime</text>
  <text x="369.5" y="429.5" style="fill: #33322E;font:normal  8pt Helvetica, Helvetica, sans-serif;" data-name="Last changed datetime">2022-02-11T11:16+00:00</text>
  <rect x="519.5" y="373.5" height="16" width="91" data-name="Become avatars" style="stroke:#33322E;fill:#eee8d5;stroke-dasharray:none;stroke-width:3;"></rect>
  <text x="565" y="385.5" style="fill: #33322E;font:bold  8pt Helvetica, Helvetica, sans-serif;text-anchor: middle;" data-name="Become avatars">Become avatars</text>
  <rect x="724.5" y="79.5" height="16" width="137" data-name="Godot world live creation" style="stroke:#33322E;fill:#eee8d5;stroke-dasharray:none;stroke-width:3;"></rect>
  <text x="793" y="91.5" style="fill: #33322E;font:bold  8pt Helvetica, Helvetica, sans-serif;text-anchor: middle;" data-name="Godot world live creation">Godot world live creation</text>
  <rect x="1040.5" y="23.5" height="16" width="96" data-name="Imported physics" style="stroke:#33322E;fill:#eee8d5;stroke-dasharray:none;stroke-width:3;"></rect>
  <text x="1088.5" y="35.5" style="fill: #33322E;font:bold  8pt Helvetica, Helvetica, sans-serif;text-anchor: middle;" data-name="Imported physics">Imported physics</text>
  <rect x="974.5" y="51.5" height="16" width="227" data-name="Place prexisting blocks with blockmeshing" style="stroke:#33322E;fill:#eee8d5;stroke-dasharray:none;stroke-width:3;"></rect>
  <text x="1088" y="63.5" style="fill: #33322E;font:bold  8pt Helvetica, Helvetica, sans-serif;text-anchor: middle;" data-name="Place prexisting blocks with blockmeshing">Place prexisting blocks with blockmeshing</text>
  <rect x="996.5" y="79.5" height="16" width="183" data-name="Create Godot world creation tools" style="stroke:#33322E;fill:#eee8d5;stroke-dasharray:none;stroke-width:3;"></rect>
  <text x="1088" y="91.5" style="fill: #33322E;font:bold  8pt Helvetica, Helvetica, sans-serif;text-anchor: middle;" data-name="Create Godot world creation tools">Create Godot world creation tools</text>
  <rect x="1049.5" y="107.5" height="16" width="77" data-name="Place scenes" style="stroke:#33322E;fill:#eee8d5;stroke-dasharray:none;stroke-width:3;"></rect>
  <text x="1088" y="119.5" style="fill: #33322E;font:bold  8pt Helvetica, Helvetica, sans-serif;text-anchor: middle;" data-name="Place scenes">Place scenes</text>
  <rect x="1002.5" y="135.5" height="16" width="171" data-name="Construct layers collaboratively" style="stroke:#33322E;fill:#eee8d5;stroke-dasharray:none;stroke-width:3;"></rect>
  <text x="1088" y="147.5" style="fill: #33322E;font:bold  8pt Helvetica, Helvetica, sans-serif;text-anchor: middle;" data-name="Construct layers collaboratively">Construct layers collaboratively</text>
  <rect x="1063.5" y="163.5" height="16" width="49" data-name="Painting" style="stroke:#33322E;fill:#eee8d5;stroke-dasharray:none;stroke-width:3;"></rect>
  <text x="1088" y="175.5" style="fill: #33322E;font:bold  8pt Helvetica, Helvetica, sans-serif;text-anchor: middle;" data-name="Painting">Painting</text>
  <rect x="1295.5" y="51.5" height="16" width="130" data-name="3D models with CASSIE" style="stroke:#33322E;fill:#eee8d5;stroke-dasharray:none;stroke-width:3;"></rect>
  <text x="1360.5" y="63.5" style="fill: #33322E;font:bold  8pt Helvetica, Helvetica, sans-serif;text-anchor: middle;" data-name="3D models with CASSIE">3D models with CASSIE</text>
  <rect x="1519.5" y="51.5" height="16" width="190" data-name="Make cassie commercial remixable" style="stroke:#33322E;fill:#eee8d5;stroke-dasharray:none;stroke-width:3;"></rect>
  <text x="1614.5" y="63.5" style="fill: #33322E;font:bold  8pt Helvetica, Helvetica, sans-serif;text-anchor: middle;" data-name="Make cassie commercial remixable">Make cassie commercial remixable</text>
  <rect x="1298.5" y="79.5" height="16" width="125" data-name="Painting with MaterialX" style="stroke:#33322E;fill:#eee8d5;stroke-dasharray:none;stroke-width:3;"></rect>
  <text x="1361" y="91.5" style="fill: #33322E;font:bold  8pt Helvetica, Helvetica, sans-serif;text-anchor: middle;" data-name="Painting with MaterialX">Painting with MaterialX</text>
  <rect x="1045.5" y="191.5" height="16" width="85" data-name="Jeana usability" style="stroke:#33322E;fill:#eee8d5;stroke-dasharray:none;stroke-width:3;"></rect>
  <text x="1088" y="203.5" style="fill: #33322E;font:bold  8pt Helvetica, Helvetica, sans-serif;text-anchor: middle;" data-name="Jeana usability">Jeana usability</text>
  <rect x="1008.5" y="219.5" height="16" width="159" data-name="VFX (Particles, shaders, Sky)" style="stroke:#33322E;fill:#eee8d5;stroke-dasharray:none;stroke-width:3;"></rect>
  <text x="1088" y="231.5" style="fill: #33322E;font:bold  8pt Helvetica, Helvetica, sans-serif;text-anchor: middle;" data-name="VFX (Particles, shaders, Sky)">VFX (Particles, shaders, Sky)</text>
  <rect x="680.5" y="121.5" height="16" width="225" data-name="Advanced avatar (shader, IK, animations)" style="stroke:#33322E;fill:#eee8d5;stroke-dasharray:none;stroke-width:3;"></rect>
  <text x="793" y="133.5" style="fill: #33322E;font:bold  8pt Helvetica, Helvetica, sans-serif;text-anchor: middle;" data-name="Advanced avatar (shader, IK, animations)">Advanced avatar (shader, IK, animations)</text>
  <rect x="374.5" y="373.5" height="16" width="125" data-name="Skeleton modifications" style="stroke:#33322E;fill:#eee8d5;stroke-dasharray:none;stroke-width:3;"></rect>
  <text x="437" y="385.5" style="fill: #33322E;font:bold  8pt Helvetica, Helvetica, sans-serif;text-anchor: middle;" data-name="Skeleton modifications">Skeleton modifications</text>
  <rect x="738.5" y="149.5" height="16" width="109" data-name="Vocal communicate" style="stroke:#33322E;fill:#eee8d5;stroke-dasharray:none;stroke-width:3;"></rect>
  <text x="793" y="161.5" style="fill: #33322E;font:bold  8pt Helvetica, Helvetica, sans-serif;text-anchor: middle;" data-name="Vocal communicate">Vocal communicate</text>
  <rect x="735.5" y="177.5" height="16" width="115" data-name="Motion communicate" style="stroke:#33322E;fill:#eee8d5;stroke-dasharray:none;stroke-width:3;"></rect>
  <text x="793" y="189.5" style="fill: #33322E;font:bold  8pt Helvetica, Helvetica, sans-serif;text-anchor: middle;" data-name="Motion communicate">Motion communicate</text>
  <rect x="772.5" y="205.5" height="16" width="40" data-name="Dance" style="stroke:#33322E;fill:#eee8d5;stroke-dasharray:none;stroke-width:3;"></rect>
  <text x="792.5" y="217.5" style="fill: #33322E;font:bold  8pt Helvetica, Helvetica, sans-serif;text-anchor: middle;" data-name="Dance">Dance</text>
  <rect x="712.5" y="233.5" height="16" width="161" data-name="Godot speech comms system" style="stroke:#33322E;fill:#eee8d5;stroke-dasharray:none;stroke-width:3;"></rect>
  <text x="793" y="245.5" style="fill: #33322E;font:bold  8pt Helvetica, Helvetica, sans-serif;text-anchor: middle;" data-name="Godot speech comms system">Godot speech comms system</text>
  <rect x="677.5" y="261.5" height="16" width="231" data-name="Virtual reality 6 degree of freedom tracking" style="stroke:#33322E;fill:#eee8d5;stroke-dasharray:none;stroke-width:3;"></rect>
  <text x="793" y="273.5" style="fill: #33322E;font:bold  8pt Helvetica, Helvetica, sans-serif;text-anchor: middle;" data-name="Virtual reality 6 degree of freedom tracking">Virtual reality 6 degree of freedom tracking</text>
  <rect x="765.5" y="289.5" height="16" width="55" data-name="Following" style="stroke:#33322E;fill:#eee8d5;stroke-dasharray:none;stroke-width:3;"></rect>
  <text x="793" y="301.5" style="fill: #33322E;font:bold  8pt Helvetica, Helvetica, sans-serif;text-anchor: middle;" data-name="Following">Following</text>
  <rect x="1023.5" y="247.5" height="16" width="129" data-name="Double-sided friending." style="stroke:#33322E;fill:#eee8d5;stroke-dasharray:none;stroke-width:3;"></rect>
  <text x="1088" y="259.5" style="fill: #33322E;font:bold  8pt Helvetica, Helvetica, sans-serif;text-anchor: middle;" data-name="Double-sided friending.">Double-sided friending.</text>
  <rect x="1028.5" y="303.5" height="16" width="119" data-name="Discover new friends." style="stroke:#33322E;fill:#eee8d5;stroke-dasharray:none;stroke-width:3;"></rect>
  <text x="1088" y="315.5" style="fill: #33322E;font:bold  8pt Helvetica, Helvetica, sans-serif;text-anchor: middle;" data-name="Discover new friends.">Discover new friends.</text>
  <rect x="745.5" y="317.5" height="16" width="95" data-name="Locomotion (flat)" style="stroke:#33322E;fill:#eee8d5;stroke-dasharray:none;stroke-width:3;"></rect>
  <text x="793" y="329.5" style="fill: #33322E;font:bold  8pt Helvetica, Helvetica, sans-serif;text-anchor: middle;" data-name="Locomotion (flat)">Locomotion (flat)</text>
  <rect x="707.5" y="345.5" height="16" width="171" data-name="Virtual reality motion movement" style="stroke:#33322E;fill:#eee8d5;stroke-dasharray:none;stroke-width:3;"></rect>
  <text x="793" y="357.5" style="fill: #33322E;font:bold  8pt Helvetica, Helvetica, sans-serif;text-anchor: middle;" data-name="Virtual reality motion movement">Virtual reality motion movement</text>
  <rect x="1064.5" y="345.5" height="16" width="47" data-name="Pickups" style="stroke:#33322E;fill:#eee8d5;stroke-dasharray:none;stroke-width:3;"></rect>
  <text x="1088" y="357.5" style="fill: #33322E;font:bold  8pt Helvetica, Helvetica, sans-serif;text-anchor: middle;" data-name="Pickups">Pickups</text>
  <rect x="1314.5" y="191.5" height="16" width="92" data-name="Wasgo Scripting" style="stroke:#33322E;fill:#eee8d5;stroke-dasharray:none;stroke-width:3;"></rect>
  <text x="1360.5" y="203.5" style="fill: #33322E;font:bold  8pt Helvetica, Helvetica, sans-serif;text-anchor: middle;" data-name="Wasgo Scripting">Wasgo Scripting</text>
  <rect x="1316.5" y="219.5" height="16" width="88" data-name="In-game menus" style="stroke:#33322E;fill:#eee8d5;stroke-dasharray:none;stroke-width:3;"></rect>
  <text x="1360.5" y="231.5" style="fill: #33322E;font:bold  8pt Helvetica, Helvetica, sans-serif;text-anchor: middle;" data-name="In-game menus">In-game menus</text>
  <rect x="1324.5" y="247.5" height="16" width="72" data-name="Video player" style="stroke:#33322E;fill:#eee8d5;stroke-dasharray:none;stroke-width:3;"></rect>
  <text x="1360.5" y="259.5" style="fill: #33322E;font:bold  8pt Helvetica, Helvetica, sans-serif;text-anchor: middle;" data-name="Video player">Video player</text>
  <rect x="1335.5" y="275.5" height="16" width="51" data-name="Vehicles" style="stroke:#33322E;fill:#eee8d5;stroke-dasharray:none;stroke-width:3;"></rect>
  <text x="1361" y="287.5" style="fill: #33322E;font:bold  8pt Helvetica, Helvetica, sans-serif;text-anchor: middle;" data-name="Vehicles">Vehicles</text>
  <rect x="1337.5" y="373.5" height="16" width="46" data-name="Buttons" style="stroke:#33322E;fill:#eee8d5;stroke-dasharray:none;stroke-width:3;"></rect>
  <text x="1360.5" y="385.5" style="fill: #33322E;font:bold  8pt Helvetica, Helvetica, sans-serif;text-anchor: middle;" data-name="Buttons">Buttons</text>
  <rect x="1322.5" y="401.5" height="16" width="76" data-name="Avatar switch" style="stroke:#33322E;fill:#eee8d5;stroke-dasharray:none;stroke-width:3;"></rect>
  <text x="1360.5" y="413.5" style="fill: #33322E;font:bold  8pt Helvetica, Helvetica, sans-serif;text-anchor: middle;" data-name="Avatar switch">Avatar switch</text>
  <rect x="1322.5" y="429.5" height="16" width="76" data-name="World portals" style="stroke:#33322E;fill:#eee8d5;stroke-dasharray:none;stroke-width:3;"></rect>
  <text x="1360.5" y="441.5" style="fill: #33322E;font:bold  8pt Helvetica, Helvetica, sans-serif;text-anchor: middle;" data-name="World portals">World portals</text>
  <rect x="1322.5" y="457.5" height="16" width="77" data-name="Server switch" style="stroke:#33322E;fill:#eee8d5;stroke-dasharray:none;stroke-width:3;"></rect>
  <text x="1361" y="469.5" style="fill: #33322E;font:bold  8pt Helvetica, Helvetica, sans-serif;text-anchor: middle;" data-name="Server switch">Server switch</text>
  <rect x="1308.5" y="485.5" height="16" width="104" data-name="Player interactions" style="stroke:#33322E;fill:#eee8d5;stroke-dasharray:none;stroke-width:3;"></rect>
  <text x="1360.5" y="497.5" style="fill: #33322E;font:bold  8pt Helvetica, Helvetica, sans-serif;text-anchor: middle;" data-name="Player interactions">Player interactions</text>
  <rect x="1591.5" y="261.5" height="16" width="47" data-name="Camera" style="stroke:#33322E;fill:#eee8d5;stroke-dasharray:none;stroke-width:3;"></rect>
  <text x="1615" y="273.5" style="fill: #33322E;font:bold  8pt Helvetica, Helvetica, sans-serif;text-anchor: middle;" data-name="Camera">Camera</text>
  <rect x="1572.5" y="485.5" height="16" width="84" data-name="Bow and arrow" style="stroke:#33322E;fill:#eee8d5;stroke-dasharray:none;stroke-width:3;"></rect>
  <text x="1614.5" y="497.5" style="fill: #33322E;font:bold  8pt Helvetica, Helvetica, sans-serif;text-anchor: middle;" data-name="Bow and arrow">Bow and arrow</text>
  <rect x="1596.5" y="513.5" height="16" width="37" data-name="Mirror" style="stroke:#33322E;fill:#eee8d5;stroke-dasharray:none;stroke-width:3;"></rect>
  <text x="1615" y="525.5" style="fill: #33322E;font:bold  8pt Helvetica, Helvetica, sans-serif;text-anchor: middle;" data-name="Mirror">Mirror</text>
  <rect x="707.5" y="443.5" height="16" width="171" data-name="Platform host Uro Infrastructure" style="stroke:#33322E;fill:#eee8d5;stroke-dasharray:none;stroke-width:3;"></rect>
  <text x="793" y="455.5" style="fill: #33322E;font:bold  8pt Helvetica, Helvetica, sans-serif;text-anchor: middle;" data-name="Platform host Uro Infrastructure">Platform host Uro Infrastructure</text>
  <rect x="1047.5" y="373.5" height="16" width="81" data-name="Federation list" style="stroke:#33322E;fill:#eee8d5;stroke-dasharray:none;stroke-width:3;"></rect>
  <text x="1088" y="385.5" style="fill: #33322E;font:bold  8pt Helvetica, Helvetica, sans-serif;text-anchor: middle;" data-name="Federation list">Federation list</text>
  <rect x="1037.5" y="457.5" height="16" width="102" data-name="Delegated Identity" style="stroke:#33322E;fill:#eee8d5;stroke-dasharray:none;stroke-width:3;"></rect>
  <text x="1088.5" y="469.5" style="fill: #33322E;font:bold  8pt Helvetica, Helvetica, sans-serif;text-anchor: middle;" data-name="Delegated Identity">Delegated Identity</text>
  <rect x="1064.5" y="513.5" height="16" width="47" data-name="Content" style="stroke:#33322E;fill:#eee8d5;stroke-dasharray:none;stroke-width:3;"></rect>
  <text x="1088" y="525.5" style="fill: #33322E;font:bold  8pt Helvetica, Helvetica, sans-serif;text-anchor: middle;" data-name="Content">Content</text>
  <rect x="1213.5" y="513.5" height="16" width="294" data-name="Refuse to attest content because scripting is untrusted" style="stroke:#33322E;fill:#eee8d5;stroke-dasharray:none;stroke-width:3;"></rect>
  <text x="1360.5" y="525.5" style="fill: #33322E;font:bold  8pt Helvetica, Helvetica, sans-serif;text-anchor: middle;" data-name="Refuse to attest content because scripting is untrusted">Refuse to attest content because scripting is untrusted</text>
  <rect x="1046.5" y="541.5" height="16" width="84" data-name="Deployment kit" style="stroke:#33322E;fill:#eee8d5;stroke-dasharray:none;stroke-width:3;"></rect>
  <text x="1088.5" y="553.5" style="fill: #33322E;font:bold  8pt Helvetica, Helvetica, sans-serif;text-anchor: middle;" data-name="Deployment kit">Deployment kit</text>
  <rect x="1278.5" y="163.5" height="16" width="165" data-name="Upgrade PLY to Godot Engine" style="stroke:#33322E;fill:#eee8d5;stroke-dasharray:none;stroke-width:3;"></rect>
  <text x="1361" y="175.5" style="fill: #33322E;font:bold  8pt Helvetica, Helvetica, sans-serif;text-anchor: middle;" data-name="Upgrade PLY to Godot Engine">Upgrade PLY to Godot Engine</text>
  <rect x="1001.5" y="569.5" height="16" width="173" data-name="Launch uro using Elixir Desktop" style="stroke:#33322E;fill:#eee8d5;stroke-dasharray:none;stroke-width:3;"></rect>
  <text x="1088" y="581.5" style="fill: #33322E;font:bold  8pt Helvetica, Helvetica, sans-serif;text-anchor: middle;" data-name="Launch uro using Elixir Desktop">Launch uro using Elixir Desktop</text>
  <rect x="981.5" y="597.5" height="16" width="214" data-name="Make TrueNas Scale run V-Sekai mirror" style="stroke:#33322E;fill:#eee8d5;stroke-dasharray:none;stroke-width:3;"></rect>
  <text x="1088.5" y="609.5" style="fill: #33322E;font:bold  8pt Helvetica, Helvetica, sans-serif;text-anchor: middle;" data-name="Make TrueNas Scale run V-Sekai mirror">Make TrueNas Scale run V-Sekai mirror</text>
  <rect x="693.5" y="515.5" height="16" width="199" data-name="How do we retarget to the VRM1 rig?" style="stroke:#33322E;fill:#eee8d5;stroke-dasharray:none;stroke-width:3;"></rect>
  <text x="793" y="527.5" style="fill: #33322E;font:bold  8pt Helvetica, Helvetica, sans-serif;text-anchor: middle;" data-name="How do we retarget to the VRM1 rig?">How do we retarget to the VRM1 rig?</text>
  <rect x="668.5" y="763.5" height="16" width="249" data-name="How we turn our voice to facial rig keyframes?" style="stroke:#33322E;fill:#eee8d5;stroke-dasharray:none;stroke-width:3;"></rect>
  <text x="793" y="775.5" style="fill: #33322E;font:bold  8pt Helvetica, Helvetica, sans-serif;text-anchor: middle;" data-name="How we turn our voice to facial rig keyframes?">How we turn our voice to facial rig keyframes?</text>
</svg>