<svg version="1.1" baseProfile="full" width="3235" height="2371.5" viewbox="0 0 3235 2371.5" xmlns="http://www.w3.org/2000/svg" xmlns:xlink="http://www.w3.org/1999/xlink" xmlns:ev="http://www.w3.org/2001/xml-events" style="font:bold  12pt Helvetica, Helvetica, sans-serif;;stroke-linejoin:round;stroke-linecap:round">
  <title >Players want to define their own virtual worlds, but they can&amp;apos;t because making their own virtual worlds is hard.</title>
  <desc >#title: Players want to define their own virtual worlds, but they can&amp;apos;t because making their own virtual worlds is hard.
#direction: right

[V-Sekai| Players want to define the virtual worlds. | V-Sekai https://v-sekai.org/ |
Players can&apos;t make their own virtual worlds because it is hard.]
[Avatar posession] -&gt; [Godot world live creation]
[Godot world live creation] -&gt; [Imported physics]
[Godot world live creation] -&gt; [Place prexisting blocks with blockmeshing  ]
[Godot world live creation]-&gt; [&lt;table&gt; Create Godot world creation tools ]
[Godot world live creation]-&gt; [Place scenes ]
[Godot world live creation]-&gt; [Construct layers collaboratively ]
[Godot world live creation]-&gt; [Painting  ]
[Godot world live creation]-&gt; [&lt;table&gt; Create Godot world creation tools]
[&lt;table&gt; Create Godot world creation tools ] -&gt; [3D models with CASSIE | Make cassie commercial remixable]
[&lt;table&gt; Create Godot world creation tools ] -&gt; [Painting with MaterialX ]
[Godot world live creation] -&gt; [Jeana usability]
[Godot world live creation] -&gt; [VFX (Particles, shaders, Sky)]
[Avatar posession] -&gt; [Advanced avatar (shader, IK, animations)]
[Avatar posession] -&gt; [Vocal communicate]
[Avatar posession] -&gt; [Motion communicate]
[Avatar posession] -&gt; [Dance]

[Avatar posession] -&gt; [Godot speech comms system] 
[Avatar posession] -&gt; [Virtual reality 6 degree of freedom tracking ]

[Avatar posession]-&gt;[&lt;table&gt; Following  ]
[&lt;table&gt; Following] -&gt; [Double-sided friending. ]
[&lt;table&gt; Following] -&gt; [Discover new friends. ]

[Avatar posession] -&gt; [Locomotion (flat)| How do we animate the character?| VRM1 rig]
[Avatar posession] -&gt; [Pickups| Wasgo Scripting | In-game menus | Video player |Vehicles | Buttons]

[Pickups]-&gt;[&lt;table&gt; Avatar switch ]
[Pickups]-&gt;[World portals ]
[Pickups]-&gt;[Server switch ]

[Pickups]-&gt;[&lt;table&gt; Player interactions ]
[&lt;table&gt; Player interactions] -&gt; [Camera ]
[&lt;table&gt; Player interactions] -&gt; [Bow and arrow ]
[&lt;table&gt; Player interactions] -&gt; [Mirror ]

[Avatar posession]-&gt;[Platform host Uro Infrastructure]
[Platform host Uro Infrastructure] -&gt; [ Federation list ]
[Platform host Uro Infrastructure] -&gt; [ Delegated Identity ]

[Platform host Uro Infrastructure ]-&gt;[&lt;table&gt; Content]
[&lt;table&gt; Content ]-&gt; [Refuse to attest content because scripting is untrusted ]

[&lt;table&gt; Create Godot world creation tools ] -&gt; [&lt;table&gt; Upgrade PLY to Godot Engine]

[Platform host Uro Infrastructure | Deployment kit | Launch uro using Elixir Desktop | Make TrueNas Scale run V-Sekai mirror]

[Avatar posession] -&gt; [How do we retarget to the VRM1 rig?]
[Avatar posession] -&gt; [How do we mocapture the face rig?| Support mapping every single possible standard rig?]
[Avatar posession] -&gt; [How do we make the face rig fast? |Blend shape baking to skeletals]
[Avatar posession] -&gt; [How do we create the standard animation set? |Want to be better than the status quo of mixamo animation sets]
[Avatar posession] -&gt; [How do we interact with objects? |Pickup animation is stored on prop]
[Avatar posession] -&gt; [How do we have more diverse characters? |Marketplace? Proceduralism? Character generators?]
[Avatar posession] -&gt; [How we turn our voice to facial rig keyframes?]

[V-Sekai] -&gt; [Asset loading]
[Asset loading] -&gt; [Animator (Blending Inverse Kinematics with walk animations) | walk_cycle()]
[Animator (Blending Inverse Kinematics with walk animations)] -&gt; [Avatar posession]
[Avatar posession] -&gt; [Eye targeting | HMD forward vector |
NOT eye tracking |
Eyes looking at random items in it&apos;s field of view 
and changing targets 
to the nearest object | Having small eye saccade jitter movements |
Blink at irregular intervals
]
[Avatar posession] -&gt; [Thing from Steam skeleton]
[Animator (Blending Inverse Kinematics with walk animations)] -&gt; [Voice over IP]
[Voice over IP] -&gt; [Mouth flapping]
[Voice over IP] -&gt; [Voice analyzer for shapekeys]
[Voice over IP] -&gt; [Avatar posession]
[Thing from Steam skeleton]  -&gt; [Avatar posession]
[Avatar posession] -&gt; [Eye targeting | HMD forward vector] 
[Animator (Blending Inverse Kinematics with walk animations)] -&gt; [Avatar posession]
[V-Sekai] - [Last changed datetime|2022-02-18T01:07+00:00]
</desc>
  <rect x="0" y="0" height="2371.5" width="3235" style="stroke:none; fill:transparent;"></rect>
  <path d="M1651.2 1572 L1794.5 235.5 L1960.3 235.5 L1960.3 235.5 " style="stroke:#33322E;fill:none;stroke-dasharray:none;stroke-width:3;"></path>
  <path d="M1953.7 240.8 L1960.3 235.5 L1953.7 230.2 L1967 235.5 Z" style="stroke:#33322E;fill:#33322E;stroke-dasharray:none;stroke-width:3;"></path>
  <path d="M2095.5 220 L2351.5 44 L2463.3 44 L2463.3 44 " style="stroke:#33322E;fill:none;stroke-dasharray:none;stroke-width:3;"></path>
  <path d="M2456.7 49.3 L2463.3 44 L2456.7 38.7 L2470 44 Z" style="stroke:#33322E;fill:#33322E;stroke-dasharray:none;stroke-width:3;"></path>
  <path d="M2108.8 220 L2351.5 115 L2364.8 115 L2364.8 115 " style="stroke:#33322E;fill:none;stroke-dasharray:none;stroke-width:3;"></path>
  <path d="M2358.2 120.3 L2364.8 115 L2358.2 109.7 L2371.5 115 Z" style="stroke:#33322E;fill:#33322E;stroke-dasharray:none;stroke-width:3;"></path>
  <path d="M2160.2 220 L2351.5 186 L2398.3 186 L2398.3 186 " style="stroke:#33322E;fill:none;stroke-dasharray:none;stroke-width:3;"></path>
  <path d="M2391.7 191.3 L2398.3 186 L2391.7 180.7 L2405 186 Z" style="stroke:#33322E;fill:#33322E;stroke-dasharray:none;stroke-width:3;"></path>
  <path d="M2179 243.7 L2351.5 257 L2477.8 257 L2477.8 257 " style="stroke:#33322E;fill:none;stroke-dasharray:none;stroke-width:3;"></path>
  <path d="M2471.2 262.3 L2477.8 257 L2471.2 251.7 L2484.5 257 Z" style="stroke:#33322E;fill:#33322E;stroke-dasharray:none;stroke-width:3;"></path>
  <path d="M2119.7 251 L2351.5 328 L2406.8 328 L2406.8 328 " style="stroke:#33322E;fill:none;stroke-dasharray:none;stroke-width:3;"></path>
  <path d="M2400.2 333.3 L2406.8 328 L2400.2 322.7 L2413.5 328 Z" style="stroke:#33322E;fill:#33322E;stroke-dasharray:none;stroke-width:3;"></path>
  <path d="M2099.4 251 L2351.5 399 L2498.8 399 L2498.8 399 " style="stroke:#33322E;fill:none;stroke-dasharray:none;stroke-width:3;"></path>
  <path d="M2492.2 404.3 L2498.8 399 L2492.2 393.7 L2505.5 399 Z" style="stroke:#33322E;fill:#33322E;stroke-dasharray:none;stroke-width:3;"></path>
  <path d="M2580.3 170.5 L2739.5 99.5 L2830.8 99.5 L2830.8 99.5 " style="stroke:#33322E;fill:none;stroke-dasharray:none;stroke-width:3;"></path>
  <path d="M2824.2 104.8 L2830.8 99.5 L2824.2 94.2 L2837.5 99.5 Z" style="stroke:#33322E;fill:#33322E;stroke-dasharray:none;stroke-width:3;"></path>
  <path d="M2686 186 L2739.5 186 L2879.3 186 L2879.3 186 " style="stroke:#33322E;fill:none;stroke-dasharray:none;stroke-width:3;"></path>
  <path d="M2872.7 191.3 L2879.3 186 L2872.7 180.7 L2886 186 Z" style="stroke:#33322E;fill:#33322E;stroke-dasharray:none;stroke-width:3;"></path>
  <path d="M2091.4 251 L2351.5 470 L2471.3 470 L2471.3 470 " style="stroke:#33322E;fill:none;stroke-dasharray:none;stroke-width:3;"></path>
  <path d="M2464.7 475.3 L2471.3 470 L2464.7 464.7 L2478 470 Z" style="stroke:#33322E;fill:#33322E;stroke-dasharray:none;stroke-width:3;"></path>
  <path d="M2087.1 251 L2351.5 541 L2415.8 541 L2415.8 541 " style="stroke:#33322E;fill:none;stroke-dasharray:none;stroke-width:3;"></path>
  <path d="M2409.2 546.3 L2415.8 541 L2409.2 535.7 L2422.5 541 Z" style="stroke:#33322E;fill:#33322E;stroke-dasharray:none;stroke-width:3;"></path>
  <path d="M1726 1587.5 L1794.5 1587.5 L1894.3 1587.5 L1894.3 1587.5 " style="stroke:#33322E;fill:none;stroke-dasharray:none;stroke-width:3;"></path>
  <path d="M1887.7 1592.8 L1894.3 1587.5 L1887.7 1582.2 L1901 1587.5 Z" style="stroke:#33322E;fill:#33322E;stroke-dasharray:none;stroke-width:3;"></path>
  <path d="M1681.2 1603 L1794.5 1658.5 L1981.3 1658.5 L1981.3 1658.5 " style="stroke:#33322E;fill:none;stroke-dasharray:none;stroke-width:3;"></path>
  <path d="M1974.7 1663.8 L1981.3 1658.5 L1974.7 1653.2 L1988 1658.5 Z" style="stroke:#33322E;fill:#33322E;stroke-dasharray:none;stroke-width:3;"></path>
  <path d="M1665.3 1603 L1794.5 1729.5 L1976.8 1729.5 L1976.8 1729.5 " style="stroke:#33322E;fill:none;stroke-dasharray:none;stroke-width:3;"></path>
  <path d="M1970.2 1734.8 L1976.8 1729.5 L1970.2 1724.2 L1983.5 1729.5 Z" style="stroke:#33322E;fill:#33322E;stroke-dasharray:none;stroke-width:3;"></path>
  <path d="M1660.1 1603 L1794.5 1800.5 L2032.8 1800.5 L2032.8 1800.5 " style="stroke:#33322E;fill:none;stroke-dasharray:none;stroke-width:3;"></path>
  <path d="M2026.2 1805.8 L2032.8 1800.5 L2026.2 1795.2 L2039.5 1800.5 Z" style="stroke:#33322E;fill:#33322E;stroke-dasharray:none;stroke-width:3;"></path>
  <path d="M1657.4 1603 L1794.5 1871.5 L1941.8 1871.5 L1941.8 1871.5 " style="stroke:#33322E;fill:none;stroke-dasharray:none;stroke-width:3;"></path>
  <path d="M1935.2 1876.8 L1941.8 1871.5 L1935.2 1866.2 L1948.5 1871.5 Z" style="stroke:#33322E;fill:#33322E;stroke-dasharray:none;stroke-width:3;"></path>
  <path d="M1655.8 1603 L1794.5 1942.5 L1889.8 1942.5 L1889.8 1942.5 " style="stroke:#33322E;fill:none;stroke-dasharray:none;stroke-width:3;"></path>
  <path d="M1883.2 1947.8 L1889.8 1942.5 L1883.2 1937.2 L1896.5 1942.5 Z" style="stroke:#33322E;fill:#33322E;stroke-dasharray:none;stroke-width:3;"></path>
  <path d="M1651.9 1572 L1794.5 647.5 L2021.3 647.5 L2021.3 647.5 " style="stroke:#33322E;fill:none;stroke-dasharray:none;stroke-width:3;"></path>
  <path d="M2014.7 652.8 L2021.3 647.5 L2014.7 642.2 L2028 647.5 Z" style="stroke:#33322E;fill:#33322E;stroke-dasharray:none;stroke-width:3;"></path>
  <path d="M2118 641.8 L2351.5 612 L2438.8 612 L2438.8 612 " style="stroke:#33322E;fill:none;stroke-dasharray:none;stroke-width:3;"></path>
  <path d="M2432.2 617.3 L2438.8 612 L2432.2 606.7 L2445.5 612 Z" style="stroke:#33322E;fill:#33322E;stroke-dasharray:none;stroke-width:3;"></path>
  <path d="M2086.3 663 L2351.5 972.3 L2445.8 972.3 L2445.8 972.3 " style="stroke:#33322E;fill:none;stroke-dasharray:none;stroke-width:3;"></path>
  <path d="M2439.2 977.6 L2445.8 972.3 L2439.2 966.9 L2452.5 972.3 Z" style="stroke:#33322E;fill:#33322E;stroke-dasharray:none;stroke-width:3;"></path>
  <path d="M1652.2 1572 L1794.5 749.5 L1921.3 749.5 L1921.3 749.5 " style="stroke:#33322E;fill:none;stroke-dasharray:none;stroke-width:3;"></path>
  <path d="M1914.7 754.8 L1921.3 749.5 L1914.7 744.2 L1928 749.5 Z" style="stroke:#33322E;fill:#33322E;stroke-dasharray:none;stroke-width:3;"></path>
  <path d="M1664.6 1572 L1794.5 1439 L1993.8 1439 L1993.8 1439 " style="stroke:#33322E;fill:none;stroke-dasharray:none;stroke-width:3;"></path>
  <path d="M1987.2 1444.3 L1993.8 1439 L1987.2 1433.7 L2000.5 1439 Z" style="stroke:#33322E;fill:#33322E;stroke-dasharray:none;stroke-width:3;"></path>
  <path d="M2138.4 1346 L2351.5 1043.3 L2478.3 1043.3 L2478.3 1043.3 " style="stroke:#33322E;fill:none;stroke-dasharray:none;stroke-width:3;"></path>
  <path d="M2471.7 1048.6 L2478.3 1043.3 L2471.7 1037.9 L2485 1043.3 Z" style="stroke:#33322E;fill:#33322E;stroke-dasharray:none;stroke-width:3;"></path>
  <path d="M2145.5 1354.5 L2351.5 1114.3 L2478.3 1114.3 L2478.3 1114.3 " style="stroke:#33322E;fill:none;stroke-dasharray:none;stroke-width:3;"></path>
  <path d="M2471.7 1119.6 L2478.3 1114.3 L2471.7 1108.9 L2485 1114.3 Z" style="stroke:#33322E;fill:#33322E;stroke-dasharray:none;stroke-width:3;"></path>
  <path d="M2145.5 1492.1 L2351.5 1643 L2477.8 1643 L2477.8 1643 " style="stroke:#33322E;fill:none;stroke-dasharray:none;stroke-width:3;"></path>
  <path d="M2471.2 1648.3 L2477.8 1643 L2471.2 1637.7 L2484.5 1643 Z" style="stroke:#33322E;fill:#33322E;stroke-dasharray:none;stroke-width:3;"></path>
  <path d="M2145.5 1510.6 L2351.5 1714 L2457.3 1714 L2457.3 1714 " style="stroke:#33322E;fill:none;stroke-dasharray:none;stroke-width:3;"></path>
  <path d="M2450.7 1719.3 L2457.3 1714 L2450.7 1708.7 L2464 1714 Z" style="stroke:#33322E;fill:#33322E;stroke-dasharray:none;stroke-width:3;"></path>
  <path d="M2550.2 1698.5 L2739.5 1069.8 L2937.8 1069.8 L2937.8 1069.8 " style="stroke:#33322E;fill:none;stroke-dasharray:none;stroke-width:3;"></path>
  <path d="M2931.2 1075.1 L2937.8 1069.8 L2931.2 1064.4 L2944.5 1069.8 Z" style="stroke:#33322E;fill:#33322E;stroke-dasharray:none;stroke-width:3;"></path>
  <path d="M2627 1714 L2739.5 1714 L2910.3 1714 L2910.3 1714 " style="stroke:#33322E;fill:none;stroke-dasharray:none;stroke-width:3;"></path>
  <path d="M2903.7 1719.3 L2910.3 1714 L2903.7 1708.7 L2917 1714 Z" style="stroke:#33322E;fill:#33322E;stroke-dasharray:none;stroke-width:3;"></path>
  <path d="M2573.7 1729.5 L2739.5 1820.5 L2945.8 1820.5 L2945.8 1820.5 " style="stroke:#33322E;fill:none;stroke-dasharray:none;stroke-width:3;"></path>
  <path d="M2939.2 1825.8 L2945.8 1820.5 L2939.2 1815.2 L2952.5 1820.5 Z" style="stroke:#33322E;fill:#33322E;stroke-dasharray:none;stroke-width:3;"></path>
  <path d="M1654.3 1603 L1794.5 2060 L1902.3 2060 L1902.3 2060 " style="stroke:#33322E;fill:none;stroke-dasharray:none;stroke-width:3;"></path>
  <path d="M1895.7 2065.3 L1902.3 2060 L1895.7 2054.7 L1909 2060 Z" style="stroke:#33322E;fill:#33322E;stroke-dasharray:none;stroke-width:3;"></path>
  <path d="M2135.8 1998 L2351.5 1785 L2474.8 1785 L2474.8 1785 " style="stroke:#33322E;fill:none;stroke-dasharray:none;stroke-width:3;"></path>
  <path d="M2468.2 1790.3 L2474.8 1785 L2468.2 1779.7 L2481.5 1785 Z" style="stroke:#33322E;fill:#33322E;stroke-dasharray:none;stroke-width:3;"></path>
  <path d="M2237 2060 L2351.5 2060 L2458.8 2060 L2458.8 2060 " style="stroke:#33322E;fill:none;stroke-dasharray:none;stroke-width:3;"></path>
  <path d="M2452.2 2065.3 L2458.8 2060 L2452.2 2054.7 L2465.5 2060 Z" style="stroke:#33322E;fill:#33322E;stroke-dasharray:none;stroke-width:3;"></path>
  <path d="M2237 2101.8 L2351.5 2131 L2499.8 2131 L2499.8 2131 " style="stroke:#33322E;fill:none;stroke-dasharray:none;stroke-width:3;"></path>
  <path d="M2493.2 2136.3 L2499.8 2131 L2493.2 2125.7 L2506.5 2131 Z" style="stroke:#33322E;fill:#33322E;stroke-dasharray:none;stroke-width:3;"></path>
  <path d="M2584.5 2131 L2739.5 2131 L2752.8 2131 L2752.8 2131 " style="stroke:#33322E;fill:none;stroke-dasharray:none;stroke-width:3;"></path>
  <path d="M2746.2 2136.3 L2752.8 2131 L2746.2 2125.7 L2759.5 2131 Z" style="stroke:#33322E;fill:#33322E;stroke-dasharray:none;stroke-width:3;"></path>
  <path d="M2549.2 201.5 L2739.5 998.8 L2849.8 998.8 L2849.8 998.8 " style="stroke:#33322E;fill:none;stroke-dasharray:none;stroke-width:3;"></path>
  <path d="M2843.2 1004.1 L2849.8 998.8 L2843.2 993.4 L2856.5 998.8 Z" style="stroke:#33322E;fill:#33322E;stroke-dasharray:none;stroke-width:3;"></path>
  <path d="M1653.3 1603 L1794.5 2177.5 L1913.3 2177.5 L1913.3 2177.5 " style="stroke:#33322E;fill:none;stroke-dasharray:none;stroke-width:3;"></path>
  <path d="M1906.7 2182.8 L1913.3 2177.5 L1906.7 2172.2 L1920 2177.5 Z" style="stroke:#33322E;fill:#33322E;stroke-dasharray:none;stroke-width:3;"></path>
  <path d="M1652.6 1572 L1794.5 867 L1849.8 867 L1849.8 867 " style="stroke:#33322E;fill:none;stroke-dasharray:none;stroke-width:3;"></path>
  <path d="M1843.2 872.3 L1849.8 867 L1843.2 861.7 L1856.5 867 Z" style="stroke:#33322E;fill:#33322E;stroke-dasharray:none;stroke-width:3;"></path>
  <path d="M1653.1 1572 L1794.5 969 L1922.3 969 L1922.3 969 " style="stroke:#33322E;fill:none;stroke-dasharray:none;stroke-width:3;"></path>
  <path d="M1915.7 974.3 L1922.3 969 L1915.7 963.7 L1929 969 Z" style="stroke:#33322E;fill:#33322E;stroke-dasharray:none;stroke-width:3;"></path>
  <path d="M1653.9 1572 L1794.5 1071 L1807.8 1071 L1807.8 1071 " style="stroke:#33322E;fill:none;stroke-dasharray:none;stroke-width:3;"></path>
  <path d="M1801.2 1076.3 L1807.8 1071 L1801.2 1065.7 L1814.5 1071 Z" style="stroke:#33322E;fill:#33322E;stroke-dasharray:none;stroke-width:3;"></path>
  <path d="M1654.9 1572 L1794.5 1173 L1921.3 1173 L1921.3 1173 " style="stroke:#33322E;fill:none;stroke-dasharray:none;stroke-width:3;"></path>
  <path d="M1914.7 1178.3 L1921.3 1173 L1914.7 1167.7 L1928 1173 Z" style="stroke:#33322E;fill:#33322E;stroke-dasharray:none;stroke-width:3;"></path>
  <path d="M1656.7 1572 L1794.5 1275 L1848.8 1275 L1848.8 1275 " style="stroke:#33322E;fill:none;stroke-dasharray:none;stroke-width:3;"></path>
  <path d="M1842.2 1280.3 L1848.8 1275 L1842.2 1269.7 L1855.5 1275 Z" style="stroke:#33322E;fill:#33322E;stroke-dasharray:none;stroke-width:3;"></path>
  <path d="M1652.9 1603 L1794.5 2248.5 L1876.3 2248.5 L1876.3 2248.5 " style="stroke:#33322E;fill:none;stroke-dasharray:none;stroke-width:3;"></path>
  <path d="M1869.7 2253.8 L1876.3 2248.5 L1869.7 2243.2 L1883 2248.5 Z" style="stroke:#33322E;fill:#33322E;stroke-dasharray:none;stroke-width:3;"></path>
  <path d="M531.5 1919.3 L551.5 1922.5 L612.3 1922.5 L612.3 1922.5 " style="stroke:#33322E;fill:none;stroke-dasharray:none;stroke-width:3;"></path>
  <path d="M605.7 1927.8 L612.3 1922.5 L605.7 1917.2 L619 1922.5 Z" style="stroke:#33322E;fill:#33322E;stroke-dasharray:none;stroke-width:3;"></path>
  <path d="M742 1922.5 L809.5 1922.5 L822.8 1922.5 L822.8 1922.5 " style="stroke:#33322E;fill:none;stroke-dasharray:none;stroke-width:3;"></path>
  <path d="M816.2 1927.8 L822.8 1922.5 L816.2 1917.2 L829.5 1922.5 Z" style="stroke:#33322E;fill:#33322E;stroke-dasharray:none;stroke-width:3;"></path>
  <path d="M1099.8 1891.5 L1343.5 1567.5 L1424 1567.5 L1424 1567.5 L1504.5 1567.5 L1504.5 1567.5 L1566.4 1576 L1566.4 1576 " style="stroke:#33322E;fill:none;stroke-dasharray:none;stroke-width:3;"></path>
  <path d="M1559.1 1580.4 L1566.4 1576 L1560.5 1569.8 L1573 1576.9 Z" style="stroke:#33322E;fill:#33322E;stroke-dasharray:none;stroke-width:3;"></path>
  <path d="M1651.5 1572 L1794.5 470 L1869.8 470 L1869.8 470 " style="stroke:#33322E;fill:none;stroke-dasharray:none;stroke-width:3;"></path>
  <path d="M1863.2 475.3 L1869.8 470 L1863.2 464.7 L1876.5 470 Z" style="stroke:#33322E;fill:#33322E;stroke-dasharray:none;stroke-width:3;"></path>
  <path d="M1652.6 1603 L1794.5 2304 L1952.9 2315.4 L1952.9 2315.4 " style="stroke:#33322E;fill:none;stroke-dasharray:none;stroke-width:3;"></path>
  <path d="M1945.8 2320.2 L1952.9 2315.4 L1946.6 2309.6 L1959.5 2315.8 Z" style="stroke:#33322E;fill:#33322E;stroke-dasharray:none;stroke-width:3;"></path>
  <path d="M1283.4 1953.5 L1343.5 1962.5 L1356.8 1962.5 L1356.8 1962.5 " style="stroke:#33322E;fill:none;stroke-dasharray:none;stroke-width:3;"></path>
  <path d="M1350.2 1967.8 L1356.8 1962.5 L1350.2 1957.2 L1363.5 1962.5 Z" style="stroke:#33322E;fill:#33322E;stroke-dasharray:none;stroke-width:3;"></path>
  <path d="M1484.5 1962.5 L1504.5 1962.5 L1576.3 1962.5 L1576.3 1962.5 " style="stroke:#33322E;fill:none;stroke-dasharray:none;stroke-width:3;"></path>
  <path d="M1569.7 1967.8 L1576.3 1962.5 L1569.7 1957.2 L1583 1962.5 Z" style="stroke:#33322E;fill:#33322E;stroke-dasharray:none;stroke-width:3;"></path>
  <path d="M1441.6 1978 L1504.5 2033.5 L1517.8 2033.5 L1517.8 2033.5 " style="stroke:#33322E;fill:none;stroke-dasharray:none;stroke-width:3;"></path>
  <path d="M1511.2 2038.8 L1517.8 2033.5 L1511.2 2028.2 L1524.5 2033.5 Z" style="stroke:#33322E;fill:#33322E;stroke-dasharray:none;stroke-width:3;"></path>
  <path d="M1427.5 1947 L1504.5 1607.5 L1566.4 1599 L1566.4 1599 " style="stroke:#33322E;fill:none;stroke-dasharray:none;stroke-width:3;"></path>
  <path d="M1560.5 1605.2 L1566.4 1599 L1559.1 1594.6 L1573 1598.1 Z" style="stroke:#33322E;fill:#33322E;stroke-dasharray:none;stroke-width:3;"></path>
  <path d="M1959.5 2332.2 L1794.5 2344 L1653.7 1609.5 L1653.7 1609.5 " style="stroke:#33322E;fill:none;stroke-dasharray:none;stroke-width:3;"></path>
  <path d="M1660.2 1615.1 L1653.7 1609.5 L1649.7 1617.1 L1652.5 1603 Z" style="stroke:#33322E;fill:#33322E;stroke-dasharray:none;stroke-width:3;"></path>
  <path d="M531.5 1839.2 L551.5 1836 L571.5 1836 L571.5 1836 " style="stroke:#33322E;fill:none;stroke-dasharray:none;stroke-width:3;"></path>
  <rect x="2000.5" y="1346.5" height="186" width="145" data-name="Pickups" style="stroke:#33322E;fill:#eee8d5;stroke-dasharray:none;stroke-width:3;"></rect>
  <path d="M2000.5 1377.5 L2145.5 1377.5" data-name="Pickups" style="stroke:#33322E;fill:none;stroke-dasharray:none;stroke-width:3;"></path>
  <path d="M2000.5 1408.5 L2145.5 1408.5" data-name="Pickups" style="stroke:#33322E;fill:none;stroke-dasharray:none;stroke-width:3;"></path>
  <path d="M2000.5 1439.5 L2145.5 1439.5" data-name="Pickups" style="stroke:#33322E;fill:none;stroke-dasharray:none;stroke-width:3;"></path>
  <path d="M2000.5 1470.5 L2145.5 1470.5" data-name="Pickups" style="stroke:#33322E;fill:none;stroke-dasharray:none;stroke-width:3;"></path>
  <path d="M2000.5 1501.5 L2145.5 1501.5" data-name="Pickups" style="stroke:#33322E;fill:none;stroke-dasharray:none;stroke-width:3;"></path>
  <text x="2073" y="1368" style="fill: #33322E;font:bold  12pt Helvetica, Helvetica, sans-serif;text-anchor: middle;" data-name="Pickups">Pickups</text>
  <text x="2008.5" y="1399" style="fill: #33322E;font:normal  12pt Helvetica, Helvetica, sans-serif;" data-name="Pickups">Wasgo Scripting</text>
  <text x="2008.5" y="1430" style="fill: #33322E;font:normal  12pt Helvetica, Helvetica, sans-serif;" data-name="Pickups">In-game menus</text>
  <text x="2008.5" y="1461" style="fill: #33322E;font:normal  12pt Helvetica, Helvetica, sans-serif;" data-name="Pickups">Video player</text>
  <text x="2008.5" y="1492" style="fill: #33322E;font:normal  12pt Helvetica, Helvetica, sans-serif;" data-name="Pickups">Vehicles</text>
  <text x="2008.5" y="1523" style="fill: #33322E;font:normal  12pt Helvetica, Helvetica, sans-serif;" data-name="Pickups">Buttons</text>
  <rect x="1876.5" y="362.5" height="216" width="393" data-name="Eye targeting" style="stroke:#33322E;fill:#eee8d5;stroke-dasharray:none;stroke-width:3;"></rect>
  <path d="M1876.5 393.5 L2269.5 393.5" data-name="Eye targeting" style="stroke:#33322E;fill:none;stroke-dasharray:none;stroke-width:3;"></path>
  <path d="M1876.5 424.5 L2269.5 424.5" data-name="Eye targeting" style="stroke:#33322E;fill:none;stroke-dasharray:none;stroke-width:3;"></path>
  <path d="M1876.5 455.5 L2269.5 455.5" data-name="Eye targeting" style="stroke:#33322E;fill:none;stroke-dasharray:none;stroke-width:3;"></path>
  <path d="M1876.5 516.5 L2269.5 516.5" data-name="Eye targeting" style="stroke:#33322E;fill:none;stroke-dasharray:none;stroke-width:3;"></path>
  <path d="M1876.5 547.5 L2269.5 547.5" data-name="Eye targeting" style="stroke:#33322E;fill:none;stroke-dasharray:none;stroke-width:3;"></path>
  <text x="2073" y="384" style="fill: #33322E;font:bold  12pt Helvetica, Helvetica, sans-serif;text-anchor: middle;" data-name="Eye targeting">Eye targeting</text>
  <text x="1884.5" y="415" style="fill: #33322E;font:normal  12pt Helvetica, Helvetica, sans-serif;" data-name="Eye targeting">HMD forward vector</text>
  <text x="1884.5" y="446" style="fill: #33322E;font:normal  12pt Helvetica, Helvetica, sans-serif;" data-name="Eye targeting">NOT eye tracking</text>
  <text x="1884.5" y="477" style="fill: #33322E;font:normal  12pt Helvetica, Helvetica, sans-serif;" data-name="Eye targeting">Eyes looking at random items in it&apos;s field of view</text>
  <text x="1884.5" y="492" style="fill: #33322E;font:normal  12pt Helvetica, Helvetica, sans-serif;" data-name="Eye targeting">and changing targets</text>
  <text x="1884.5" y="507" style="fill: #33322E;font:normal  12pt Helvetica, Helvetica, sans-serif;" data-name="Eye targeting">to the nearest object</text>
  <text x="1884.5" y="538" style="fill: #33322E;font:normal  12pt Helvetica, Helvetica, sans-serif;" data-name="Eye targeting">Having small eye saccade jitter movements</text>
  <text x="1884.5" y="569" style="fill: #33322E;font:normal  12pt Helvetica, Helvetica, sans-serif;" data-name="Eye targeting">Blink at irregular intervals</text>
  <rect x="28.5" y="1817.5" height="124" width="503" data-name="V-Sekai" style="stroke:#33322E;fill:#eee8d5;stroke-dasharray:none;stroke-width:3;"></rect>
  <path d="M28.5 1848.5 L531.5 1848.5" data-name="V-Sekai" style="stroke:#33322E;fill:none;stroke-dasharray:none;stroke-width:3;"></path>
  <path d="M28.5 1879.5 L531.5 1879.5" data-name="V-Sekai" style="stroke:#33322E;fill:none;stroke-dasharray:none;stroke-width:3;"></path>
  <path d="M28.5 1910.5 L531.5 1910.5" data-name="V-Sekai" style="stroke:#33322E;fill:none;stroke-dasharray:none;stroke-width:3;"></path>
  <text x="280" y="1839" style="fill: #33322E;font:bold  12pt Helvetica, Helvetica, sans-serif;text-anchor: middle;" data-name="V-Sekai">V-Sekai</text>
  <text x="36.5" y="1870" style="fill: #33322E;font:normal  12pt Helvetica, Helvetica, sans-serif;" data-name="V-Sekai">Players want to define the virtual worlds.</text>
  <text x="36.5" y="1901" style="fill: #33322E;font:normal  12pt Helvetica, Helvetica, sans-serif;" data-name="V-Sekai">V-Sekai https://v-sekai.org/</text>
  <text x="36.5" y="1932" style="fill: #33322E;font:normal  12pt Helvetica, Helvetica, sans-serif;" data-name="V-Sekai">Players can&apos;t make their own virtual worlds because it is hard.</text>
  <rect x="1909.5" y="1998.5" height="124" width="328" data-name="Platform host Uro Infrastructure" style="stroke:#33322E;fill:#eee8d5;stroke-dasharray:none;stroke-width:3;"></rect>
  <path d="M1909.5 2029.5 L2237.5 2029.5" data-name="Platform host Uro Infrastructure" style="stroke:#33322E;fill:none;stroke-dasharray:none;stroke-width:3;"></path>
  <path d="M1909.5 2060.5 L2237.5 2060.5" data-name="Platform host Uro Infrastructure" style="stroke:#33322E;fill:none;stroke-dasharray:none;stroke-width:3;"></path>
  <path d="M1909.5 2091.5 L2237.5 2091.5" data-name="Platform host Uro Infrastructure" style="stroke:#33322E;fill:none;stroke-dasharray:none;stroke-width:3;"></path>
  <text x="2073.5" y="2020" style="fill: #33322E;font:bold  12pt Helvetica, Helvetica, sans-serif;text-anchor: middle;" data-name="Platform host Uro Infrastructure">Platform host Uro Infrastructure</text>
  <text x="1917.5" y="2051" style="fill: #33322E;font:normal  12pt Helvetica, Helvetica, sans-serif;" data-name="Platform host Uro Infrastructure">Deployment kit</text>
  <text x="1917.5" y="2082" style="fill: #33322E;font:normal  12pt Helvetica, Helvetica, sans-serif;" data-name="Platform host Uro Infrastructure">Launch uro using Elixir Desktop</text>
  <text x="1917.5" y="2113" style="fill: #33322E;font:normal  12pt Helvetica, Helvetica, sans-serif;" data-name="Platform host Uro Infrastructure">Make TrueNas Scale run V-Sekai mirror</text>
  <rect x="1928.5" y="703.5" height="93" width="290" data-name="Locomotion (flat)" style="stroke:#33322E;fill:#eee8d5;stroke-dasharray:none;stroke-width:3;"></rect>
  <path d="M1928.5 734.5 L2218.5 734.5" data-name="Locomotion (flat)" style="stroke:#33322E;fill:none;stroke-dasharray:none;stroke-width:3;"></path>
  <path d="M1928.5 765.5 L2218.5 765.5" data-name="Locomotion (flat)" style="stroke:#33322E;fill:none;stroke-dasharray:none;stroke-width:3;"></path>
  <text x="2073.5" y="725" style="fill: #33322E;font:bold  12pt Helvetica, Helvetica, sans-serif;text-anchor: middle;" data-name="Locomotion (flat)">Locomotion (flat)</text>
  <text x="1936.5" y="756" style="fill: #33322E;font:normal  12pt Helvetica, Helvetica, sans-serif;" data-name="Locomotion (flat)">How do we animate the character?</text>
  <text x="1936.5" y="787" style="fill: #33322E;font:normal  12pt Helvetica, Helvetica, sans-serif;" data-name="Locomotion (flat)">VRM1 rig</text>
  <rect x="2837.5" y="68.5" height="62" width="292" data-name="3D models with CASSIE" style="stroke:#33322E;fill:#eee8d5;stroke-dasharray:none;stroke-width:3;"></rect>
  <path d="M2837.5 99.5 L3129.5 99.5" data-name="3D models with CASSIE" style="stroke:#33322E;fill:none;stroke-dasharray:none;stroke-width:3;"></path>
  <text x="2983.5" y="90" style="fill: #33322E;font:bold  12pt Helvetica, Helvetica, sans-serif;text-anchor: middle;" data-name="3D models with CASSIE">3D models with CASSIE</text>
  <text x="2845.5" y="121" style="fill: #33322E;font:normal  12pt Helvetica, Helvetica, sans-serif;" data-name="3D models with CASSIE">Make cassie commercial remixable</text>
  <rect x="1856.5" y="836.5" height="62" width="433" data-name="How do we mocapture the face rig?" style="stroke:#33322E;fill:#eee8d5;stroke-dasharray:none;stroke-width:3;"></rect>
  <path d="M1856.5 867.5 L2289.5 867.5" data-name="How do we mocapture the face rig?" style="stroke:#33322E;fill:none;stroke-dasharray:none;stroke-width:3;"></path>
  <text x="2073" y="858" style="fill: #33322E;font:bold  12pt Helvetica, Helvetica, sans-serif;text-anchor: middle;" data-name="How do we mocapture the face rig?">How do we mocapture the face rig?</text>
  <text x="1864.5" y="889" style="fill: #33322E;font:normal  12pt Helvetica, Helvetica, sans-serif;" data-name="How do we mocapture the face rig?">Support mapping every single possible standard rig?</text>
  <rect x="1929.5" y="938.5" height="62" width="288" data-name="How do we make the face rig fast?" style="stroke:#33322E;fill:#eee8d5;stroke-dasharray:none;stroke-width:3;"></rect>
  <path d="M1929.5 969.5 L2217.5 969.5" data-name="How do we make the face rig fast?" style="stroke:#33322E;fill:none;stroke-dasharray:none;stroke-width:3;"></path>
  <text x="2073.5" y="960" style="fill: #33322E;font:bold  12pt Helvetica, Helvetica, sans-serif;text-anchor: middle;" data-name="How do we make the face rig fast?">How do we make the face rig fast?</text>
  <text x="1937.5" y="991" style="fill: #33322E;font:normal  12pt Helvetica, Helvetica, sans-serif;" data-name="How do we make the face rig fast?">Blend shape baking to skeletals</text>
  <rect x="1814.5" y="1040.5" height="62" width="517" data-name="How do we create the standard animation set?" style="stroke:#33322E;fill:#eee8d5;stroke-dasharray:none;stroke-width:3;"></rect>
  <path d="M1814.5 1071.5 L2331.5 1071.5" data-name="How do we create the standard animation set?" style="stroke:#33322E;fill:none;stroke-dasharray:none;stroke-width:3;"></path>
  <text x="2073" y="1062" style="fill: #33322E;font:bold  12pt Helvetica, Helvetica, sans-serif;text-anchor: middle;" data-name="How do we create the standard animation set?">How do we create the standard animation set?</text>
  <text x="1822.5" y="1093" style="fill: #33322E;font:normal  12pt Helvetica, Helvetica, sans-serif;" data-name="How do we create the standard animation set?">Want to be better than the status quo of mixamo animation sets</text>
  <rect x="1928.5" y="1142.5" height="62" width="290" data-name="How do we interact with objects?" style="stroke:#33322E;fill:#eee8d5;stroke-dasharray:none;stroke-width:3;"></rect>
  <path d="M1928.5 1173.5 L2218.5 1173.5" data-name="How do we interact with objects?" style="stroke:#33322E;fill:none;stroke-dasharray:none;stroke-width:3;"></path>
  <text x="2073.5" y="1164" style="fill: #33322E;font:bold  12pt Helvetica, Helvetica, sans-serif;text-anchor: middle;" data-name="How do we interact with objects?">How do we interact with objects?</text>
  <text x="1936.5" y="1195" style="fill: #33322E;font:normal  12pt Helvetica, Helvetica, sans-serif;" data-name="How do we interact with objects?">Pickup animation is stored on prop</text>
  <rect x="1855.5" y="1244.5" height="62" width="435" data-name="How do we have more diverse characters?" style="stroke:#33322E;fill:#eee8d5;stroke-dasharray:none;stroke-width:3;"></rect>
  <path d="M1855.5 1275.5 L2290.5 1275.5" data-name="How do we have more diverse characters?" style="stroke:#33322E;fill:none;stroke-dasharray:none;stroke-width:3;"></path>
  <text x="2073" y="1266" style="fill: #33322E;font:bold  12pt Helvetica, Helvetica, sans-serif;text-anchor: middle;" data-name="How do we have more diverse characters?">How do we have more diverse characters?</text>
  <text x="1863.5" y="1297" style="fill: #33322E;font:normal  12pt Helvetica, Helvetica, sans-serif;" data-name="How do we have more diverse characters?">Marketplace? Proceduralism? Character generators?</text>
  <rect x="829.5" y="1891.5" height="62" width="494" data-name="Animator (Blending Inverse Kinematics with walk animations)" style="stroke:#33322E;fill:#eee8d5;stroke-dasharray:none;stroke-width:3;"></rect>
  <path d="M829.5 1922.5 L1323.5 1922.5" data-name="Animator (Blending Inverse Kinematics with walk animations)" style="stroke:#33322E;fill:none;stroke-dasharray:none;stroke-width:3;"></path>
  <text x="1076.5" y="1913" style="fill: #33322E;font:bold  12pt Helvetica, Helvetica, sans-serif;text-anchor: middle;" data-name="Animator (Blending Inverse Kinematics with walk animations)">Animator (Blending Inverse Kinematics with walk animations)</text>
  <text x="837.5" y="1944" style="fill: #33322E;font:normal  12pt Helvetica, Helvetica, sans-serif;" data-name="Animator (Blending Inverse Kinematics with walk animations)">walk_cycle()</text>
  <rect x="571.5" y="1805.5" height="62" width="218" data-name="Last changed datetime" style="stroke:#33322E;fill:#eee8d5;stroke-dasharray:none;stroke-width:3;"></rect>
  <path d="M571.5 1836.5 L789.5 1836.5" data-name="Last changed datetime" style="stroke:#33322E;fill:none;stroke-dasharray:none;stroke-width:3;"></path>
  <text x="680.5" y="1827" style="fill: #33322E;font:bold  12pt Helvetica, Helvetica, sans-serif;text-anchor: middle;" data-name="Last changed datetime">Last changed datetime</text>
  <text x="579.5" y="1858" style="fill: #33322E;font:normal  12pt Helvetica, Helvetica, sans-serif;" data-name="Last changed datetime">2022-02-18T01:07+00:00</text>
  <rect x="1573.5" y="1572.5" height="31" width="153" data-name="Avatar posession" style="stroke:#33322E;fill:#eee8d5;stroke-dasharray:none;stroke-width:3;"></rect>
  <text x="1650" y="1594" style="fill: #33322E;font:bold  12pt Helvetica, Helvetica, sans-serif;text-anchor: middle;" data-name="Avatar posession">Avatar posession</text>
  <rect x="1967.5" y="220.5" height="31" width="212" data-name="Godot world live creation" style="stroke:#33322E;fill:#eee8d5;stroke-dasharray:none;stroke-width:3;"></rect>
  <text x="2073.5" y="242" style="fill: #33322E;font:bold  12pt Helvetica, Helvetica, sans-serif;text-anchor: middle;" data-name="Godot world live creation">Godot world live creation</text>
  <rect x="2470.5" y="28.5" height="31" width="151" data-name="Imported physics" style="stroke:#33322E;fill:#eee8d5;stroke-dasharray:none;stroke-width:3;"></rect>
  <text x="2546" y="50" style="fill: #33322E;font:bold  12pt Helvetica, Helvetica, sans-serif;text-anchor: middle;" data-name="Imported physics">Imported physics</text>
  <rect x="2371.5" y="99.5" height="31" width="348" data-name="Place prexisting blocks with blockmeshing" style="stroke:#33322E;fill:#eee8d5;stroke-dasharray:none;stroke-width:3;"></rect>
  <text x="2545.5" y="121" style="fill: #33322E;font:bold  12pt Helvetica, Helvetica, sans-serif;text-anchor: middle;" data-name="Place prexisting blocks with blockmeshing">Place prexisting blocks with blockmeshing</text>
  <rect x="2405.5" y="170.5" height="31" width="281" data-name="Create Godot world creation tools" style="stroke:#33322E;fill:#eee8d5;stroke-dasharray:none;stroke-width:3;"></rect>
  <text x="2546" y="192" style="fill: #33322E;font:bold  12pt Helvetica, Helvetica, sans-serif;text-anchor: middle;" data-name="Create Godot world creation tools">Create Godot world creation tools</text>
  <rect x="2484.5" y="241.5" height="31" width="122" data-name="Place scenes" style="stroke:#33322E;fill:#eee8d5;stroke-dasharray:none;stroke-width:3;"></rect>
  <text x="2545.5" y="263" style="fill: #33322E;font:bold  12pt Helvetica, Helvetica, sans-serif;text-anchor: middle;" data-name="Place scenes">Place scenes</text>
  <rect x="2413.5" y="312.5" height="31" width="264" data-name="Construct layers collaboratively" style="stroke:#33322E;fill:#eee8d5;stroke-dasharray:none;stroke-width:3;"></rect>
  <text x="2545.5" y="334" style="fill: #33322E;font:bold  12pt Helvetica, Helvetica, sans-serif;text-anchor: middle;" data-name="Construct layers collaboratively">Construct layers collaboratively</text>
  <rect x="2505.5" y="383.5" height="31" width="80" data-name="Painting" style="stroke:#33322E;fill:#eee8d5;stroke-dasharray:none;stroke-width:3;"></rect>
  <text x="2545.5" y="405" style="fill: #33322E;font:bold  12pt Helvetica, Helvetica, sans-serif;text-anchor: middle;" data-name="Painting">Painting</text>
  <rect x="2886.5" y="170.5" height="31" width="195" data-name="Painting with MaterialX" style="stroke:#33322E;fill:#eee8d5;stroke-dasharray:none;stroke-width:3;"></rect>
  <text x="2984" y="192" style="fill: #33322E;font:bold  12pt Helvetica, Helvetica, sans-serif;text-anchor: middle;" data-name="Painting with MaterialX">Painting with MaterialX</text>
  <rect x="2478.5" y="454.5" height="31" width="135" data-name="Jeana usability" style="stroke:#33322E;fill:#eee8d5;stroke-dasharray:none;stroke-width:3;"></rect>
  <text x="2546" y="476" style="fill: #33322E;font:bold  12pt Helvetica, Helvetica, sans-serif;text-anchor: middle;" data-name="Jeana usability">Jeana usability</text>
  <rect x="2422.5" y="525.5" height="31" width="246" data-name="VFX (Particles, shaders, Sky)" style="stroke:#33322E;fill:#eee8d5;stroke-dasharray:none;stroke-width:3;"></rect>
  <text x="2545.5" y="547" style="fill: #33322E;font:bold  12pt Helvetica, Helvetica, sans-serif;text-anchor: middle;" data-name="VFX (Particles, shaders, Sky)">VFX (Particles, shaders, Sky)</text>
  <rect x="1901.5" y="1572.5" height="31" width="344" data-name="Advanced avatar (shader, IK, animations)" style="stroke:#33322E;fill:#eee8d5;stroke-dasharray:none;stroke-width:3;"></rect>
  <text x="2073.5" y="1594" style="fill: #33322E;font:bold  12pt Helvetica, Helvetica, sans-serif;text-anchor: middle;" data-name="Advanced avatar (shader, IK, animations)">Advanced avatar (shader, IK, animations)</text>
  <rect x="1988.5" y="1643.5" height="31" width="170" data-name="Vocal communicate" style="stroke:#33322E;fill:#eee8d5;stroke-dasharray:none;stroke-width:3;"></rect>
  <text x="2073.5" y="1665" style="fill: #33322E;font:bold  12pt Helvetica, Helvetica, sans-serif;text-anchor: middle;" data-name="Vocal communicate">Vocal communicate</text>
  <rect x="1983.5" y="1714.5" height="31" width="179" data-name="Motion communicate" style="stroke:#33322E;fill:#eee8d5;stroke-dasharray:none;stroke-width:3;"></rect>
  <text x="2073" y="1736" style="fill: #33322E;font:bold  12pt Helvetica, Helvetica, sans-serif;text-anchor: middle;" data-name="Motion communicate">Motion communicate</text>
  <rect x="2039.5" y="1785.5" height="31" width="67" data-name="Dance" style="stroke:#33322E;fill:#eee8d5;stroke-dasharray:none;stroke-width:3;"></rect>
  <text x="2073" y="1807" style="fill: #33322E;font:bold  12pt Helvetica, Helvetica, sans-serif;text-anchor: middle;" data-name="Dance">Dance</text>
  <rect x="1948.5" y="1856.5" height="31" width="249" data-name="Godot speech comms system" style="stroke:#33322E;fill:#eee8d5;stroke-dasharray:none;stroke-width:3;"></rect>
  <text x="2073" y="1878" style="fill: #33322E;font:bold  12pt Helvetica, Helvetica, sans-serif;text-anchor: middle;" data-name="Godot speech comms system">Godot speech comms system</text>
  <rect x="1896.5" y="1927.5" height="31" width="353" data-name="Virtual reality 6 degree of freedom tracking" style="stroke:#33322E;fill:#eee8d5;stroke-dasharray:none;stroke-width:3;"></rect>
  <text x="2073" y="1949" style="fill: #33322E;font:bold  12pt Helvetica, Helvetica, sans-serif;text-anchor: middle;" data-name="Virtual reality 6 degree of freedom tracking">Virtual reality 6 degree of freedom tracking</text>
  <rect x="2028.5" y="632.5" height="31" width="90" data-name="Following" style="stroke:#33322E;fill:#eee8d5;stroke-dasharray:none;stroke-width:3;"></rect>
  <text x="2073.5" y="654" style="fill: #33322E;font:bold  12pt Helvetica, Helvetica, sans-serif;text-anchor: middle;" data-name="Following">Following</text>
  <rect x="2445.5" y="596.5" height="31" width="200" data-name="Double-sided friending." style="stroke:#33322E;fill:#eee8d5;stroke-dasharray:none;stroke-width:3;"></rect>
  <text x="2545.5" y="618" style="fill: #33322E;font:bold  12pt Helvetica, Helvetica, sans-serif;text-anchor: middle;" data-name="Double-sided friending.">Double-sided friending.</text>
  <rect x="2452.5" y="956.5" height="31" width="186" data-name="Discover new friends." style="stroke:#33322E;fill:#eee8d5;stroke-dasharray:none;stroke-width:3;"></rect>
  <text x="2545.5" y="978" style="fill: #33322E;font:bold  12pt Helvetica, Helvetica, sans-serif;text-anchor: middle;" data-name="Discover new friends.">Discover new friends.</text>
  <rect x="2485.5" y="1027.5" height="31" width="121" data-name="Avatar switch" style="stroke:#33322E;fill:#eee8d5;stroke-dasharray:none;stroke-width:3;"></rect>
  <text x="2546" y="1049" style="fill: #33322E;font:bold  12pt Helvetica, Helvetica, sans-serif;text-anchor: middle;" data-name="Avatar switch">Avatar switch</text>
  <rect x="2485.5" y="1098.5" height="31" width="121" data-name="World portals" style="stroke:#33322E;fill:#eee8d5;stroke-dasharray:none;stroke-width:3;"></rect>
  <text x="2546" y="1120" style="fill: #33322E;font:bold  12pt Helvetica, Helvetica, sans-serif;text-anchor: middle;" data-name="World portals">World portals</text>
  <rect x="2484.5" y="1627.5" height="31" width="122" data-name="Server switch" style="stroke:#33322E;fill:#eee8d5;stroke-dasharray:none;stroke-width:3;"></rect>
  <text x="2545.5" y="1649" style="fill: #33322E;font:bold  12pt Helvetica, Helvetica, sans-serif;text-anchor: middle;" data-name="Server switch">Server switch</text>
  <rect x="2464.5" y="1698.5" height="31" width="163" data-name="Player interactions" style="stroke:#33322E;fill:#eee8d5;stroke-dasharray:none;stroke-width:3;"></rect>
  <text x="2546" y="1720" style="fill: #33322E;font:bold  12pt Helvetica, Helvetica, sans-serif;text-anchor: middle;" data-name="Player interactions">Player interactions</text>
  <rect x="2944.5" y="1054.5" height="31" width="78" data-name="Camera" style="stroke:#33322E;fill:#eee8d5;stroke-dasharray:none;stroke-width:3;"></rect>
  <text x="2983.5" y="1076" style="fill: #33322E;font:bold  12pt Helvetica, Helvetica, sans-serif;text-anchor: middle;" data-name="Camera">Camera</text>
  <rect x="2917.5" y="1698.5" height="31" width="133" data-name="Bow and arrow" style="stroke:#33322E;fill:#eee8d5;stroke-dasharray:none;stroke-width:3;"></rect>
  <text x="2984" y="1720" style="fill: #33322E;font:bold  12pt Helvetica, Helvetica, sans-serif;text-anchor: middle;" data-name="Bow and arrow">Bow and arrow</text>
  <rect x="2952.5" y="1805.5" height="31" width="62" data-name="Mirror" style="stroke:#33322E;fill:#eee8d5;stroke-dasharray:none;stroke-width:3;"></rect>
  <text x="2983.5" y="1827" style="fill: #33322E;font:bold  12pt Helvetica, Helvetica, sans-serif;text-anchor: middle;" data-name="Mirror">Mirror</text>
  <rect x="2481.5" y="1769.5" height="31" width="128" data-name="Federation list" style="stroke:#33322E;fill:#eee8d5;stroke-dasharray:none;stroke-width:3;"></rect>
  <text x="2545.5" y="1791" style="fill: #33322E;font:bold  12pt Helvetica, Helvetica, sans-serif;text-anchor: middle;" data-name="Federation list">Federation list</text>
  <rect x="2465.5" y="2044.5" height="31" width="160" data-name="Delegated Identity" style="stroke:#33322E;fill:#eee8d5;stroke-dasharray:none;stroke-width:3;"></rect>
  <text x="2545.5" y="2066" style="fill: #33322E;font:bold  12pt Helvetica, Helvetica, sans-serif;text-anchor: middle;" data-name="Delegated Identity">Delegated Identity</text>
  <rect x="2506.5" y="2115.5" height="31" width="78" data-name="Content" style="stroke:#33322E;fill:#eee8d5;stroke-dasharray:none;stroke-width:3;"></rect>
  <text x="2545.5" y="2137" style="fill: #33322E;font:bold  12pt Helvetica, Helvetica, sans-serif;text-anchor: middle;" data-name="Content">Content</text>
  <rect x="2759.5" y="2115.5" height="31" width="448" data-name="Refuse to attest content because scripting is untrusted" style="stroke:#33322E;fill:#eee8d5;stroke-dasharray:none;stroke-width:3;"></rect>
  <text x="2983.5" y="2137" style="fill: #33322E;font:bold  12pt Helvetica, Helvetica, sans-serif;text-anchor: middle;" data-name="Refuse to attest content because scripting is untrusted">Refuse to attest content because scripting is untrusted</text>
  <rect x="2856.5" y="983.5" height="31" width="254" data-name="Upgrade PLY to Godot Engine" style="stroke:#33322E;fill:#eee8d5;stroke-dasharray:none;stroke-width:3;"></rect>
  <text x="2983.5" y="1005" style="fill: #33322E;font:bold  12pt Helvetica, Helvetica, sans-serif;text-anchor: middle;" data-name="Upgrade PLY to Godot Engine">Upgrade PLY to Godot Engine</text>
  <rect x="1920.5" y="2162.5" height="31" width="306" data-name="How do we retarget to the VRM1 rig?" style="stroke:#33322E;fill:#eee8d5;stroke-dasharray:none;stroke-width:3;"></rect>
  <text x="2073.5" y="2184" style="fill: #33322E;font:bold  12pt Helvetica, Helvetica, sans-serif;text-anchor: middle;" data-name="How do we retarget to the VRM1 rig?">How do we retarget to the VRM1 rig?</text>
  <rect x="1883.5" y="2233.5" height="31" width="380" data-name="How we turn our voice to facial rig keyframes?" style="stroke:#33322E;fill:#eee8d5;stroke-dasharray:none;stroke-width:3;"></rect>
  <text x="2073.5" y="2255" style="fill: #33322E;font:bold  12pt Helvetica, Helvetica, sans-serif;text-anchor: middle;" data-name="How we turn our voice to facial rig keyframes?">How we turn our voice to facial rig keyframes?</text>
  <rect x="619.5" y="1907.5" height="31" width="123" data-name="Asset loading" style="stroke:#33322E;fill:#eee8d5;stroke-dasharray:none;stroke-width:3;"></rect>
  <text x="681" y="1929" style="fill: #33322E;font:bold  12pt Helvetica, Helvetica, sans-serif;text-anchor: middle;" data-name="Asset loading">Asset loading</text>
  <rect x="1959.5" y="2308.5" height="31" width="227" data-name="Thing from Steam skeleton" style="stroke:#33322E;fill:#eee8d5;stroke-dasharray:none;stroke-width:3;"></rect>
  <text x="2073" y="2330" style="fill: #33322E;font:bold  12pt Helvetica, Helvetica, sans-serif;text-anchor: middle;" data-name="Thing from Steam skeleton">Thing from Steam skeleton</text>
  <rect x="1363.5" y="1947.5" height="31" width="121" data-name="Voice over IP" style="stroke:#33322E;fill:#eee8d5;stroke-dasharray:none;stroke-width:3;"></rect>
  <text x="1424" y="1969" style="fill: #33322E;font:bold  12pt Helvetica, Helvetica, sans-serif;text-anchor: middle;" data-name="Voice over IP">Voice over IP</text>
  <rect x="1583.5" y="1947.5" height="31" width="133" data-name="Mouth flapping" style="stroke:#33322E;fill:#eee8d5;stroke-dasharray:none;stroke-width:3;"></rect>
  <text x="1650" y="1969" style="fill: #33322E;font:bold  12pt Helvetica, Helvetica, sans-serif;text-anchor: middle;" data-name="Mouth flapping">Mouth flapping</text>
  <rect x="1524.5" y="2018.5" height="31" width="250" data-name="Voice analyzer for shapekeys" style="stroke:#33322E;fill:#eee8d5;stroke-dasharray:none;stroke-width:3;"></rect>
  <text x="1649.5" y="2040" style="fill: #33322E;font:bold  12pt Helvetica, Helvetica, sans-serif;text-anchor: middle;" data-name="Voice analyzer for shapekeys">Voice analyzer for shapekeys</text>
</svg>