<svg version="1.1" baseProfile="full" width="2713" height="2143" viewbox="0 0 2713 2143" xmlns="http://www.w3.org/2000/svg" xmlns:xlink="http://www.w3.org/1999/xlink" xmlns:ev="http://www.w3.org/2001/xml-events" style="font:bold  12pt Helvetica, Helvetica, sans-serif;;stroke-linejoin:round;stroke-linecap:round">
  <title >Players want to define their own virtual worlds, but they can&amp;apos;t because making their own virtual worlds is hard.</title>
  <desc >#title: Players want to define their own virtual worlds, but they can&amp;apos;t because making their own virtual worlds is hard.
#direction: right

[V-Sekai| Players want to define the virtual worlds. | V-Sekai https://v-sekai.org/ |
Players can&apos;t make their own virtual worlds because it is hard.]
[&lt;table&gt; Become avatars] -&gt; [Godot world live creation]
[Godot world live creation] -&gt; [Imported physics]
[Godot world live creation] -&gt; [Place prexisting blocks with blockmeshing  ]
[Godot world live creation]-&gt; [&lt;table&gt; Create Godot world creation tools ]
[Godot world live creation]-&gt; [Place scenes ]
[Godot world live creation]-&gt; [Construct layers collaboratively ]
[Godot world live creation]-&gt; [Painting  ]
[Godot world live creation]-&gt; [&lt;table&gt; Create Godot world creation tools]
[&lt;table&gt; Create Godot world creation tools ] -&gt; [3D models with CASSIE | Make cassie commercial remixable]
[&lt;table&gt; Create Godot world creation tools ] -&gt; [Painting with MaterialX ]
[Godot world live creation] -&gt; [Jeana usability]
[Godot world live creation] -&gt; [VFX (Particles, shaders, Sky)]
[&lt;table&gt; Become avatars] -&gt; [Advanced avatar (shader, IK, animations)]
[V-Sekai]-&gt;  [Skeleton modifications ]
[Skeleton modifications ] -&gt; [&lt;table&gt; Become avatars]
[&lt;table&gt; Become avatars] -&gt; [Vocal communicate]
[&lt;table&gt; Become avatars] -&gt; [Motion communicate]
[&lt;table&gt; Become avatars] -&gt; [Dance]

[&lt;table&gt; Become avatars] -&gt; [Godot speech comms system] 
[&lt;table&gt; Become avatars] -&gt; [Virtual reality 6 degree of freedom tracking ]

[&lt;table&gt; Become avatars]-&gt;[&lt;table&gt; Following  ]
[&lt;table&gt; Following] -&gt; [Double-sided friending. ]
[&lt;table&gt; Following] -&gt; [Discover new friends. ]

[&lt;table&gt; Become avatars] -&gt; [Locomotion (flat)| How do we animate the character?| VRM1 rig]
[&lt;tsable&gt; Become avatars] -&gt; [Virtual reality motion movement]

[Virtual reality motion movement] -&gt; [Pickups| Wasgo Scripting | In-game menus | Video player |Vehicles | Buttons]

[Pickups]-&gt;[&lt;table&gt; Avatar switch ]
[Pickups]-&gt;[World portals ]
[Pickups]-&gt;[Server switch ]

[Pickups]-&gt;[&lt;table&gt; Player interactions ]
[&lt;table&gt; Player interactions] -&gt; [Camera ]
[&lt;table&gt; Player interactions] -&gt; [Bow and arrow ]
[&lt;table&gt; Player interactions] -&gt; [Mirror ]

[&lt;table&gt; Become avatars]-&gt;[Platform host Uro Infrastructure]
[Platform host Uro Infrastructure] -&gt; [ Federation list ]
[Platform host Uro Infrastructure] -&gt; [ Delegated Identity ]

[Platform host Uro Infrastructure ]-&gt;[&lt;table&gt; Content]
[&lt;table&gt; Content ]-&gt; [Refuse to attest content because scripting is untrusted ]

[&lt;table&gt; Create Godot world creation tools ] -&gt; [&lt;table&gt; Upgrade PLY to Godot Engine]

[Platform host Uro Infrastructure | Deployment kit | Launch uro using Elixir Desktop | Make TrueNas Scale run V-Sekai mirror]

[&lt;table&gt; Become avatars] -&gt; [How do we retarget to the VRM1 rig?]
[&lt;table&gt; Become avatars] -&gt; [How do we mocapture the face rig?| Support mapping every single possible standard rig?]
[&lt;table&gt; Become avatars] -&gt; [How do we make the face rig fast? |Blend shape baking to skeletals]
[&lt;table&gt; Become avatars] -&gt; [How do we create the standard animation set? |Want to be better than the status quo of mixamo animation sets]
[&lt;table&gt; Become avatars] -&gt; [How do we interact with objects? |Pickup animation is stored on prop]
[&lt;table&gt; Become avatars] -&gt; [How do we have more diverse characters? |Marketplace? Proceduralism? Character generators?]
[&lt;table&gt; Become avatars] -&gt; [How we turn our voice to facial rig keyframes?]

[V-Sekai] -&gt; [Asset loading]
[Asset loading] -&gt; [Avatar posesssion | taking the tracking points]
[Avatar posesssion | taking the tracking points] -&gt; [IK]
[IK] -&gt; [animator (blending IK with walk anims)]
[Avatar posesssion] -&gt; [Eye targeting]
[Avatar posesssion] -&gt; [Thing from Steam Skeleton]
[Asset loading] -&gt; [Voice analyzer for shapekeys]
[Asset loading] -&gt; [Voice over ip]
[V-Sekai] - [Last changed datetime|2022-02-16T11:29+00:00]
</desc>
  <rect x="0" y="0" height="2143" width="2713" style="stroke:none; fill:transparent;"></rect>
  <path d="M957.4 934.8 L1099.5 186 L1265.3 186 L1265.3 186 " style="stroke:#33322E;fill:none;stroke-dasharray:none;stroke-width:3;"></path>
  <path d="M1258.7 191.3 L1265.3 186 L1258.7 180.7 L1272 186 Z" style="stroke:#33322E;fill:#33322E;stroke-dasharray:none;stroke-width:3;"></path>
  <path d="M1408.4 170.5 L1656.5 44 L1768.3 44 L1768.3 44 " style="stroke:#33322E;fill:none;stroke-dasharray:none;stroke-width:3;"></path>
  <path d="M1761.7 49.3 L1768.3 44 L1761.7 38.7 L1775 44 Z" style="stroke:#33322E;fill:#33322E;stroke-dasharray:none;stroke-width:3;"></path>
  <path d="M1438.8 170.5 L1656.5 115 L1669.8 115 L1669.8 115 " style="stroke:#33322E;fill:none;stroke-dasharray:none;stroke-width:3;"></path>
  <path d="M1663.2 120.3 L1669.8 115 L1663.2 109.7 L1676.5 115 Z" style="stroke:#33322E;fill:#33322E;stroke-dasharray:none;stroke-width:3;"></path>
  <path d="M1484 186 L1656.5 186 L1703.3 186 L1703.3 186 " style="stroke:#33322E;fill:none;stroke-dasharray:none;stroke-width:3;"></path>
  <path d="M1696.7 191.3 L1703.3 186 L1696.7 180.7 L1710 186 Z" style="stroke:#33322E;fill:#33322E;stroke-dasharray:none;stroke-width:3;"></path>
  <path d="M1438.8 201.5 L1656.5 257 L1782.8 257 L1782.8 257 " style="stroke:#33322E;fill:none;stroke-dasharray:none;stroke-width:3;"></path>
  <path d="M1776.2 262.3 L1782.8 257 L1776.2 251.7 L1789.5 257 Z" style="stroke:#33322E;fill:#33322E;stroke-dasharray:none;stroke-width:3;"></path>
  <path d="M1408.4 201.5 L1656.5 328 L1711.8 328 L1711.8 328 " style="stroke:#33322E;fill:none;stroke-dasharray:none;stroke-width:3;"></path>
  <path d="M1705.2 333.3 L1711.8 328 L1705.2 322.7 L1718.5 328 Z" style="stroke:#33322E;fill:#33322E;stroke-dasharray:none;stroke-width:3;"></path>
  <path d="M1398.3 201.5 L1656.5 399 L1803.8 399 L1803.8 399 " style="stroke:#33322E;fill:none;stroke-dasharray:none;stroke-width:3;"></path>
  <path d="M1797.2 404.3 L1803.8 399 L1797.2 393.7 L1810.5 399 Z" style="stroke:#33322E;fill:#33322E;stroke-dasharray:none;stroke-width:3;"></path>
  <path d="M1885.3 170.5 L2044.5 99.5 L2135.8 99.5 L2135.8 99.5 " style="stroke:#33322E;fill:none;stroke-dasharray:none;stroke-width:3;"></path>
  <path d="M2129.2 104.8 L2135.8 99.5 L2129.2 94.2 L2142.5 99.5 Z" style="stroke:#33322E;fill:#33322E;stroke-dasharray:none;stroke-width:3;"></path>
  <path d="M1991 186 L2044.5 186 L2184.3 186 L2184.3 186 " style="stroke:#33322E;fill:none;stroke-dasharray:none;stroke-width:3;"></path>
  <path d="M2177.7 191.3 L2184.3 186 L2177.7 180.7 L2191 186 Z" style="stroke:#33322E;fill:#33322E;stroke-dasharray:none;stroke-width:3;"></path>
  <path d="M1393.2 201.5 L1656.5 470 L1776.3 470 L1776.3 470 " style="stroke:#33322E;fill:none;stroke-dasharray:none;stroke-width:3;"></path>
  <path d="M1769.7 475.3 L1776.3 470 L1769.7 464.7 L1783 470 Z" style="stroke:#33322E;fill:#33322E;stroke-dasharray:none;stroke-width:3;"></path>
  <path d="M1390.2 201.5 L1656.5 541 L1720.8 541 L1720.8 541 " style="stroke:#33322E;fill:none;stroke-dasharray:none;stroke-width:3;"></path>
  <path d="M1714.2 546.3 L1720.8 541 L1714.2 535.7 L1727.5 541 Z" style="stroke:#33322E;fill:#33322E;stroke-dasharray:none;stroke-width:3;"></path>
  <path d="M957.9 934.8 L1099.5 292.5 L1199.3 292.5 L1199.3 292.5 " style="stroke:#33322E;fill:none;stroke-dasharray:none;stroke-width:3;"></path>
  <path d="M1192.7 297.8 L1199.3 292.5 L1192.7 287.2 L1206 292.5 Z" style="stroke:#33322E;fill:#33322E;stroke-dasharray:none;stroke-width:3;"></path>
  <path d="M295.4 1979.3 L551.5 950.3 L576.8 950.3 L576.8 950.3 " style="stroke:#33322E;fill:none;stroke-dasharray:none;stroke-width:3;"></path>
  <path d="M570.2 955.6 L576.8 950.3 L570.2 944.9 L583.5 950.3 Z" style="stroke:#33322E;fill:#33322E;stroke-dasharray:none;stroke-width:3;"></path>
  <path d="M777.5 950.3 L809.5 950.3 L875.8 950.3 L875.8 950.3 " style="stroke:#33322E;fill:none;stroke-dasharray:none;stroke-width:3;"></path>
  <path d="M869.2 955.6 L875.8 950.3 L869.2 944.9 L882.5 950.3 Z" style="stroke:#33322E;fill:#33322E;stroke-dasharray:none;stroke-width:3;"></path>
  <path d="M958.3 934.8 L1099.5 363.5 L1286.3 363.5 L1286.3 363.5 " style="stroke:#33322E;fill:none;stroke-dasharray:none;stroke-width:3;"></path>
  <path d="M1279.7 368.8 L1286.3 363.5 L1279.7 358.2 L1293 363.5 Z" style="stroke:#33322E;fill:#33322E;stroke-dasharray:none;stroke-width:3;"></path>
  <path d="M958.9 934.8 L1099.5 434.5 L1281.8 434.5 L1281.8 434.5 " style="stroke:#33322E;fill:none;stroke-dasharray:none;stroke-width:3;"></path>
  <path d="M1275.2 439.8 L1281.8 434.5 L1275.2 429.2 L1288.5 434.5 Z" style="stroke:#33322E;fill:#33322E;stroke-dasharray:none;stroke-width:3;"></path>
  <path d="M959.6 934.8 L1099.5 505.5 L1337.8 505.5 L1337.8 505.5 " style="stroke:#33322E;fill:none;stroke-dasharray:none;stroke-width:3;"></path>
  <path d="M1331.2 510.8 L1337.8 505.5 L1331.2 500.2 L1344.5 505.5 Z" style="stroke:#33322E;fill:#33322E;stroke-dasharray:none;stroke-width:3;"></path>
  <path d="M960.5 934.8 L1099.5 576.5 L1246.8 576.5 L1246.8 576.5 " style="stroke:#33322E;fill:none;stroke-dasharray:none;stroke-width:3;"></path>
  <path d="M1240.2 581.8 L1246.8 576.5 L1240.2 571.2 L1253.5 576.5 Z" style="stroke:#33322E;fill:#33322E;stroke-dasharray:none;stroke-width:3;"></path>
  <path d="M961.9 934.8 L1099.5 647.5 L1194.8 647.5 L1194.8 647.5 " style="stroke:#33322E;fill:none;stroke-dasharray:none;stroke-width:3;"></path>
  <path d="M1188.2 652.8 L1194.8 647.5 L1188.2 642.2 L1201.5 647.5 Z" style="stroke:#33322E;fill:#33322E;stroke-dasharray:none;stroke-width:3;"></path>
  <path d="M964.2 934.8 L1099.5 718.5 L1326.3 718.5 L1326.3 718.5 " style="stroke:#33322E;fill:none;stroke-dasharray:none;stroke-width:3;"></path>
  <path d="M1319.7 723.8 L1326.3 718.5 L1319.7 713.2 L1333 718.5 Z" style="stroke:#33322E;fill:#33322E;stroke-dasharray:none;stroke-width:3;"></path>
  <path d="M1418.5 703 L1656.5 612 L1743.8 612 L1743.8 612 " style="stroke:#33322E;fill:none;stroke-dasharray:none;stroke-width:3;"></path>
  <path d="M1737.2 617.3 L1743.8 612 L1737.2 606.7 L1750.5 612 Z" style="stroke:#33322E;fill:#33322E;stroke-dasharray:none;stroke-width:3;"></path>
  <path d="M1423 724.2 L1656.5 754 L1750.8 754 L1750.8 754 " style="stroke:#33322E;fill:none;stroke-dasharray:none;stroke-width:3;"></path>
  <path d="M1744.2 759.3 L1750.8 754 L1744.2 748.7 L1757.5 754 Z" style="stroke:#33322E;fill:#33322E;stroke-dasharray:none;stroke-width:3;"></path>
  <path d="M972.9 934.8 L1099.5 828.3 L1226.3 828.3 L1226.3 828.3 " style="stroke:#33322E;fill:none;stroke-dasharray:none;stroke-width:3;"></path>
  <path d="M1219.7 833.6 L1226.3 828.3 L1219.7 822.9 L1233 828.3 Z" style="stroke:#33322E;fill:#33322E;stroke-dasharray:none;stroke-width:3;"></path>
  <path d="M1026.5 940.3 L1099.5 930.3 L1239.3 930.3 L1239.3 930.3 " style="stroke:#33322E;fill:none;stroke-dasharray:none;stroke-width:3;"></path>
  <path d="M1232.7 935.6 L1239.3 930.3 L1232.7 924.9 L1246 930.3 Z" style="stroke:#33322E;fill:#33322E;stroke-dasharray:none;stroke-width:3;"></path>
  <path d="M1510 930.3 L1656.5 930.3 L1771.3 930.3 L1771.3 930.3 " style="stroke:#33322E;fill:none;stroke-dasharray:none;stroke-width:3;"></path>
  <path d="M1764.7 935.6 L1771.3 930.3 L1764.7 924.9 L1778 930.3 Z" style="stroke:#33322E;fill:#33322E;stroke-dasharray:none;stroke-width:3;"></path>
  <path d="M1902 837.3 L2044.5 579.8 L2221.3 579.8 L2221.3 579.8 " style="stroke:#33322E;fill:none;stroke-dasharray:none;stroke-width:3;"></path>
  <path d="M2214.7 585.1 L2221.3 579.8 L2214.7 574.4 L2228 579.8 Z" style="stroke:#33322E;fill:#33322E;stroke-dasharray:none;stroke-width:3;"></path>
  <path d="M1915.1 837.3 L2044.5 650.8 L2221.3 650.8 L2221.3 650.8 " style="stroke:#33322E;fill:none;stroke-dasharray:none;stroke-width:3;"></path>
  <path d="M2214.7 656.1 L2221.3 650.8 L2214.7 645.4 L2228 650.8 Z" style="stroke:#33322E;fill:#33322E;stroke-dasharray:none;stroke-width:3;"></path>
  <path d="M1923 956.8 L2044.5 1001.3 L2220.8 1001.3 L2220.8 1001.3 " style="stroke:#33322E;fill:none;stroke-dasharray:none;stroke-width:3;"></path>
  <path d="M2214.2 1006.6 L2220.8 1001.3 L2214.2 995.9 L2227.5 1001.3 Z" style="stroke:#33322E;fill:#33322E;stroke-dasharray:none;stroke-width:3;"></path>
  <path d="M1905.6 1023.3 L2044.5 1257.5 L2200.3 1257.5 L2200.3 1257.5 " style="stroke:#33322E;fill:none;stroke-dasharray:none;stroke-width:3;"></path>
  <path d="M2193.7 1262.8 L2200.3 1257.5 L2193.7 1252.2 L2207 1257.5 Z" style="stroke:#33322E;fill:#33322E;stroke-dasharray:none;stroke-width:3;"></path>
  <path d="M2370 1245.6 L2532.5 1222 L2573.3 1222 L2573.3 1222 " style="stroke:#33322E;fill:none;stroke-dasharray:none;stroke-width:3;"></path>
  <path d="M2566.7 1227.3 L2573.3 1222 L2566.7 1216.7 L2580 1222 Z" style="stroke:#33322E;fill:#33322E;stroke-dasharray:none;stroke-width:3;"></path>
  <path d="M2370 1269.4 L2532.5 1293 L2545.8 1293 L2545.8 1293 " style="stroke:#33322E;fill:none;stroke-dasharray:none;stroke-width:3;"></path>
  <path d="M2539.2 1298.3 L2545.8 1293 L2539.2 1287.7 L2552.5 1293 Z" style="stroke:#33322E;fill:#33322E;stroke-dasharray:none;stroke-width:3;"></path>
  <path d="M2324 1273 L2532.5 1364 L2581.3 1364 L2581.3 1364 " style="stroke:#33322E;fill:none;stroke-dasharray:none;stroke-width:3;"></path>
  <path d="M2574.7 1369.3 L2581.3 1364 L2574.7 1358.7 L2588 1364 Z" style="stroke:#33322E;fill:#33322E;stroke-dasharray:none;stroke-width:3;"></path>
  <path d="M968.2 965.8 L1099.5 1114.3 L1207.3 1114.3 L1207.3 1114.3 " style="stroke:#33322E;fill:none;stroke-dasharray:none;stroke-width:3;"></path>
  <path d="M1200.7 1119.6 L1207.3 1114.3 L1200.7 1108.9 L1214 1114.3 Z" style="stroke:#33322E;fill:#33322E;stroke-dasharray:none;stroke-width:3;"></path>
  <path d="M1542 1093.3 L1656.5 1078.8 L1779.8 1078.8 L1779.8 1078.8 " style="stroke:#33322E;fill:none;stroke-dasharray:none;stroke-width:3;"></path>
  <path d="M1773.2 1084.1 L1779.8 1078.8 L1773.2 1073.4 L1786.5 1078.8 Z" style="stroke:#33322E;fill:#33322E;stroke-dasharray:none;stroke-width:3;"></path>
  <path d="M1540.1 1176.3 L1656.5 1220.8 L1763.8 1220.8 L1763.8 1220.8 " style="stroke:#33322E;fill:none;stroke-dasharray:none;stroke-width:3;"></path>
  <path d="M1757.2 1226.1 L1763.8 1220.8 L1757.2 1215.4 L1770.5 1220.8 Z" style="stroke:#33322E;fill:#33322E;stroke-dasharray:none;stroke-width:3;"></path>
  <path d="M1402.7 1176.3 L1656.5 1812.8 L1804.8 1812.8 L1804.8 1812.8 " style="stroke:#33322E;fill:none;stroke-dasharray:none;stroke-width:3;"></path>
  <path d="M1798.2 1818.1 L1804.8 1812.8 L1798.2 1807.4 L1811.5 1812.8 Z" style="stroke:#33322E;fill:#33322E;stroke-dasharray:none;stroke-width:3;"></path>
  <path d="M1889.5 1812.8 L2044.5 1812.8 L2057.8 1812.8 L2057.8 1812.8 " style="stroke:#33322E;fill:none;stroke-dasharray:none;stroke-width:3;"></path>
  <path d="M2051.2 1818.1 L2057.8 1812.8 L2051.2 1807.4 L2064.5 1812.8 Z" style="stroke:#33322E;fill:#33322E;stroke-dasharray:none;stroke-width:3;"></path>
  <path d="M1859.8 201.5 L2044.5 508.8 L2154.8 508.8 L2154.8 508.8 " style="stroke:#33322E;fill:none;stroke-dasharray:none;stroke-width:3;"></path>
  <path d="M2148.2 514.1 L2154.8 508.8 L2148.2 503.4 L2161.5 508.8 Z" style="stroke:#33322E;fill:#33322E;stroke-dasharray:none;stroke-width:3;"></path>
  <path d="M962.5 965.8 L1099.5 1231.8 L1218.3 1231.8 L1218.3 1231.8 " style="stroke:#33322E;fill:none;stroke-dasharray:none;stroke-width:3;"></path>
  <path d="M1211.7 1237.1 L1218.3 1231.8 L1211.7 1226.4 L1225 1231.8 Z" style="stroke:#33322E;fill:#33322E;stroke-dasharray:none;stroke-width:3;"></path>
  <path d="M960.6 965.8 L1099.5 1318.3 L1154.8 1318.3 L1154.8 1318.3 " style="stroke:#33322E;fill:none;stroke-dasharray:none;stroke-width:3;"></path>
  <path d="M1148.2 1323.6 L1154.8 1318.3 L1148.2 1312.9 L1161.5 1318.3 Z" style="stroke:#33322E;fill:#33322E;stroke-dasharray:none;stroke-width:3;"></path>
  <path d="M959.3 965.8 L1099.5 1420.3 L1227.3 1420.3 L1227.3 1420.3 " style="stroke:#33322E;fill:none;stroke-dasharray:none;stroke-width:3;"></path>
  <path d="M1220.7 1425.6 L1227.3 1420.3 L1220.7 1414.9 L1234 1420.3 Z" style="stroke:#33322E;fill:#33322E;stroke-dasharray:none;stroke-width:3;"></path>
  <path d="M958.4 965.8 L1099.5 1522.3 L1112.8 1522.3 L1112.8 1522.3 " style="stroke:#33322E;fill:none;stroke-dasharray:none;stroke-width:3;"></path>
  <path d="M1106.2 1527.6 L1112.8 1522.3 L1106.2 1516.9 L1119.5 1522.3 Z" style="stroke:#33322E;fill:#33322E;stroke-dasharray:none;stroke-width:3;"></path>
  <path d="M957.8 965.8 L1099.5 1624.3 L1226.3 1624.3 L1226.3 1624.3 " style="stroke:#33322E;fill:none;stroke-dasharray:none;stroke-width:3;"></path>
  <path d="M1219.7 1629.6 L1226.3 1624.3 L1219.7 1618.9 L1233 1624.3 Z" style="stroke:#33322E;fill:#33322E;stroke-dasharray:none;stroke-width:3;"></path>
  <path d="M957.4 965.8 L1099.5 1726.3 L1153.8 1726.3 L1153.8 1726.3 " style="stroke:#33322E;fill:none;stroke-dasharray:none;stroke-width:3;"></path>
  <path d="M1147.2 1731.6 L1153.8 1726.3 L1147.2 1720.9 L1160.5 1726.3 Z" style="stroke:#33322E;fill:#33322E;stroke-dasharray:none;stroke-width:3;"></path>
  <path d="M957.1 965.8 L1099.5 1812.8 L1181.3 1812.8 L1181.3 1812.8 " style="stroke:#33322E;fill:none;stroke-dasharray:none;stroke-width:3;"></path>
  <path d="M1174.7 1818.1 L1181.3 1812.8 L1174.7 1807.4 L1188 1812.8 Z" style="stroke:#33322E;fill:#33322E;stroke-dasharray:none;stroke-width:3;"></path>
  <path d="M531.5 2001.2 L551.5 1998 L612.3 1998 L612.3 1998 " style="stroke:#33322E;fill:none;stroke-dasharray:none;stroke-width:3;"></path>
  <path d="M605.7 2003.3 L612.3 1998 L605.7 1992.7 L619 1998 Z" style="stroke:#33322E;fill:#33322E;stroke-dasharray:none;stroke-width:3;"></path>
  <path d="M705.9 1982.5 L809.5 1919.3 L840.3 1919.3 L840.3 1919.3 " style="stroke:#33322E;fill:none;stroke-dasharray:none;stroke-width:3;"></path>
  <path d="M833.7 1924.6 L840.3 1919.3 L833.7 1913.9 L847 1919.3 Z" style="stroke:#33322E;fill:#33322E;stroke-dasharray:none;stroke-width:3;"></path>
  <path d="M1062 1892.9 L1099.5 1883.8 L1355.3 1883.8 L1355.3 1883.8 " style="stroke:#33322E;fill:none;stroke-dasharray:none;stroke-width:3;"></path>
  <path d="M1348.7 1889.1 L1355.3 1883.8 L1348.7 1878.4 L1362 1883.8 Z" style="stroke:#33322E;fill:#33322E;stroke-dasharray:none;stroke-width:3;"></path>
  <path d="M1394 1883.8 L1656.5 1883.8 L1684.3 1883.8 L1684.3 1883.8 " style="stroke:#33322E;fill:none;stroke-dasharray:none;stroke-width:3;"></path>
  <path d="M1677.7 1889.1 L1684.3 1883.8 L1677.7 1878.4 L1691 1883.8 Z" style="stroke:#33322E;fill:#33322E;stroke-dasharray:none;stroke-width:3;"></path>
  <path d="M1062 1945.6 L1099.5 1954.8 L1310.8 1954.8 L1310.8 1954.8 " style="stroke:#33322E;fill:none;stroke-dasharray:none;stroke-width:3;"></path>
  <path d="M1304.2 1960.1 L1310.8 1954.8 L1304.2 1949.4 L1317.5 1954.8 Z" style="stroke:#33322E;fill:#33322E;stroke-dasharray:none;stroke-width:3;"></path>
  <path d="M996.7 1950.3 L1099.5 2025.8 L1256.8 2025.8 L1256.8 2025.8 " style="stroke:#33322E;fill:none;stroke-dasharray:none;stroke-width:3;"></path>
  <path d="M1250.2 2031.1 L1256.8 2025.8 L1250.2 2020.4 L1263.5 2025.8 Z" style="stroke:#33322E;fill:#33322E;stroke-dasharray:none;stroke-width:3;"></path>
  <path d="M742 2001.7 L809.5 2005.8 L822.8 2005.8 L822.8 2005.8 " style="stroke:#33322E;fill:none;stroke-dasharray:none;stroke-width:3;"></path>
  <path d="M816.2 2011.1 L822.8 2005.8 L816.2 2000.4 L829.5 2005.8 Z" style="stroke:#33322E;fill:#33322E;stroke-dasharray:none;stroke-width:3;"></path>
  <path d="M705.9 2013.5 L809.5 2076.8 L888.3 2076.8 L888.3 2076.8 " style="stroke:#33322E;fill:none;stroke-dasharray:none;stroke-width:3;"></path>
  <path d="M881.7 2082.1 L888.3 2076.8 L881.7 2071.4 L895 2076.8 Z" style="stroke:#33322E;fill:#33322E;stroke-dasharray:none;stroke-width:3;"></path>
  <path d="M531.5 2081.3 L551.5 2084.5 L571.5 2084.5 L571.5 2084.5 " style="stroke:#33322E;fill:none;stroke-dasharray:none;stroke-width:3;"></path>
  <rect x="1778.5" y="837.5" height="186" width="145" data-name="Pickups" style="stroke:#33322E;fill:#eee8d5;stroke-dasharray:none;stroke-width:3;"></rect>
  <path d="M1778.5 868.5 L1923.5 868.5" data-name="Pickups" style="stroke:#33322E;fill:none;stroke-dasharray:none;stroke-width:3;"></path>
  <path d="M1778.5 899.5 L1923.5 899.5" data-name="Pickups" style="stroke:#33322E;fill:none;stroke-dasharray:none;stroke-width:3;"></path>
  <path d="M1778.5 930.5 L1923.5 930.5" data-name="Pickups" style="stroke:#33322E;fill:none;stroke-dasharray:none;stroke-width:3;"></path>
  <path d="M1778.5 961.5 L1923.5 961.5" data-name="Pickups" style="stroke:#33322E;fill:none;stroke-dasharray:none;stroke-width:3;"></path>
  <path d="M1778.5 992.5 L1923.5 992.5" data-name="Pickups" style="stroke:#33322E;fill:none;stroke-dasharray:none;stroke-width:3;"></path>
  <text x="1851" y="859" style="fill: #33322E;font:bold  12pt Helvetica, Helvetica, sans-serif;text-anchor: middle;" data-name="Pickups">Pickups</text>
  <text x="1786.5" y="890" style="fill: #33322E;font:normal  12pt Helvetica, Helvetica, sans-serif;" data-name="Pickups">Wasgo Scripting</text>
  <text x="1786.5" y="921" style="fill: #33322E;font:normal  12pt Helvetica, Helvetica, sans-serif;" data-name="Pickups">In-game menus</text>
  <text x="1786.5" y="952" style="fill: #33322E;font:normal  12pt Helvetica, Helvetica, sans-serif;" data-name="Pickups">Video player</text>
  <text x="1786.5" y="983" style="fill: #33322E;font:normal  12pt Helvetica, Helvetica, sans-serif;" data-name="Pickups">Vehicles</text>
  <text x="1786.5" y="1014" style="fill: #33322E;font:normal  12pt Helvetica, Helvetica, sans-serif;" data-name="Pickups">Buttons</text>
  <rect x="28.5" y="1979.5" height="124" width="503" data-name="V-Sekai" style="stroke:#33322E;fill:#eee8d5;stroke-dasharray:none;stroke-width:3;"></rect>
  <path d="M28.5 2010.5 L531.5 2010.5" data-name="V-Sekai" style="stroke:#33322E;fill:none;stroke-dasharray:none;stroke-width:3;"></path>
  <path d="M28.5 2041.5 L531.5 2041.5" data-name="V-Sekai" style="stroke:#33322E;fill:none;stroke-dasharray:none;stroke-width:3;"></path>
  <path d="M28.5 2072.5 L531.5 2072.5" data-name="V-Sekai" style="stroke:#33322E;fill:none;stroke-dasharray:none;stroke-width:3;"></path>
  <text x="280" y="2001" style="fill: #33322E;font:bold  12pt Helvetica, Helvetica, sans-serif;text-anchor: middle;" data-name="V-Sekai">V-Sekai</text>
  <text x="36.5" y="2032" style="fill: #33322E;font:normal  12pt Helvetica, Helvetica, sans-serif;" data-name="V-Sekai">Players want to define the virtual worlds.</text>
  <text x="36.5" y="2063" style="fill: #33322E;font:normal  12pt Helvetica, Helvetica, sans-serif;" data-name="V-Sekai">V-Sekai https://v-sekai.org/</text>
  <text x="36.5" y="2094" style="fill: #33322E;font:normal  12pt Helvetica, Helvetica, sans-serif;" data-name="V-Sekai">Players can&apos;t make their own virtual worlds because it is hard.</text>
  <rect x="1214.5" y="1052.5" height="124" width="328" data-name="Platform host Uro Infrastructure" style="stroke:#33322E;fill:#eee8d5;stroke-dasharray:none;stroke-width:3;"></rect>
  <path d="M1214.5 1083.5 L1542.5 1083.5" data-name="Platform host Uro Infrastructure" style="stroke:#33322E;fill:none;stroke-dasharray:none;stroke-width:3;"></path>
  <path d="M1214.5 1114.5 L1542.5 1114.5" data-name="Platform host Uro Infrastructure" style="stroke:#33322E;fill:none;stroke-dasharray:none;stroke-width:3;"></path>
  <path d="M1214.5 1145.5 L1542.5 1145.5" data-name="Platform host Uro Infrastructure" style="stroke:#33322E;fill:none;stroke-dasharray:none;stroke-width:3;"></path>
  <text x="1378.5" y="1074" style="fill: #33322E;font:bold  12pt Helvetica, Helvetica, sans-serif;text-anchor: middle;" data-name="Platform host Uro Infrastructure">Platform host Uro Infrastructure</text>
  <text x="1222.5" y="1105" style="fill: #33322E;font:normal  12pt Helvetica, Helvetica, sans-serif;" data-name="Platform host Uro Infrastructure">Deployment kit</text>
  <text x="1222.5" y="1136" style="fill: #33322E;font:normal  12pt Helvetica, Helvetica, sans-serif;" data-name="Platform host Uro Infrastructure">Launch uro using Elixir Desktop</text>
  <text x="1222.5" y="1167" style="fill: #33322E;font:normal  12pt Helvetica, Helvetica, sans-serif;" data-name="Platform host Uro Infrastructure">Make TrueNas Scale run V-Sekai mirror</text>
  <rect x="1233.5" y="781.5" height="93" width="290" data-name="Locomotion (flat)" style="stroke:#33322E;fill:#eee8d5;stroke-dasharray:none;stroke-width:3;"></rect>
  <path d="M1233.5 812.5 L1523.5 812.5" data-name="Locomotion (flat)" style="stroke:#33322E;fill:none;stroke-dasharray:none;stroke-width:3;"></path>
  <path d="M1233.5 843.5 L1523.5 843.5" data-name="Locomotion (flat)" style="stroke:#33322E;fill:none;stroke-dasharray:none;stroke-width:3;"></path>
  <text x="1378.5" y="803" style="fill: #33322E;font:bold  12pt Helvetica, Helvetica, sans-serif;text-anchor: middle;" data-name="Locomotion (flat)">Locomotion (flat)</text>
  <text x="1241.5" y="834" style="fill: #33322E;font:normal  12pt Helvetica, Helvetica, sans-serif;" data-name="Locomotion (flat)">How do we animate the character?</text>
  <text x="1241.5" y="865" style="fill: #33322E;font:normal  12pt Helvetica, Helvetica, sans-serif;" data-name="Locomotion (flat)">VRM1 rig</text>
  <rect x="2142.5" y="68.5" height="62" width="292" data-name="3D models with CASSIE" style="stroke:#33322E;fill:#eee8d5;stroke-dasharray:none;stroke-width:3;"></rect>
  <path d="M2142.5 99.5 L2434.5 99.5" data-name="3D models with CASSIE" style="stroke:#33322E;fill:none;stroke-dasharray:none;stroke-width:3;"></path>
  <text x="2288.5" y="90" style="fill: #33322E;font:bold  12pt Helvetica, Helvetica, sans-serif;text-anchor: middle;" data-name="3D models with CASSIE">3D models with CASSIE</text>
  <text x="2150.5" y="121" style="fill: #33322E;font:normal  12pt Helvetica, Helvetica, sans-serif;" data-name="3D models with CASSIE">Make cassie commercial remixable</text>
  <rect x="1161.5" y="1287.5" height="62" width="433" data-name="How do we mocapture the face rig?" style="stroke:#33322E;fill:#eee8d5;stroke-dasharray:none;stroke-width:3;"></rect>
  <path d="M1161.5 1318.5 L1594.5 1318.5" data-name="How do we mocapture the face rig?" style="stroke:#33322E;fill:none;stroke-dasharray:none;stroke-width:3;"></path>
  <text x="1378" y="1309" style="fill: #33322E;font:bold  12pt Helvetica, Helvetica, sans-serif;text-anchor: middle;" data-name="How do we mocapture the face rig?">How do we mocapture the face rig?</text>
  <text x="1169.5" y="1340" style="fill: #33322E;font:normal  12pt Helvetica, Helvetica, sans-serif;" data-name="How do we mocapture the face rig?">Support mapping every single possible standard rig?</text>
  <rect x="1234.5" y="1389.5" height="62" width="288" data-name="How do we make the face rig fast?" style="stroke:#33322E;fill:#eee8d5;stroke-dasharray:none;stroke-width:3;"></rect>
  <path d="M1234.5 1420.5 L1522.5 1420.5" data-name="How do we make the face rig fast?" style="stroke:#33322E;fill:none;stroke-dasharray:none;stroke-width:3;"></path>
  <text x="1378.5" y="1411" style="fill: #33322E;font:bold  12pt Helvetica, Helvetica, sans-serif;text-anchor: middle;" data-name="How do we make the face rig fast?">How do we make the face rig fast?</text>
  <text x="1242.5" y="1442" style="fill: #33322E;font:normal  12pt Helvetica, Helvetica, sans-serif;" data-name="How do we make the face rig fast?">Blend shape baking to skeletals</text>
  <rect x="1119.5" y="1491.5" height="62" width="517" data-name="How do we create the standard animation set?" style="stroke:#33322E;fill:#eee8d5;stroke-dasharray:none;stroke-width:3;"></rect>
  <path d="M1119.5 1522.5 L1636.5 1522.5" data-name="How do we create the standard animation set?" style="stroke:#33322E;fill:none;stroke-dasharray:none;stroke-width:3;"></path>
  <text x="1378" y="1513" style="fill: #33322E;font:bold  12pt Helvetica, Helvetica, sans-serif;text-anchor: middle;" data-name="How do we create the standard animation set?">How do we create the standard animation set?</text>
  <text x="1127.5" y="1544" style="fill: #33322E;font:normal  12pt Helvetica, Helvetica, sans-serif;" data-name="How do we create the standard animation set?">Want to be better than the status quo of mixamo animation sets</text>
  <rect x="1233.5" y="1593.5" height="62" width="290" data-name="How do we interact with objects?" style="stroke:#33322E;fill:#eee8d5;stroke-dasharray:none;stroke-width:3;"></rect>
  <path d="M1233.5 1624.5 L1523.5 1624.5" data-name="How do we interact with objects?" style="stroke:#33322E;fill:none;stroke-dasharray:none;stroke-width:3;"></path>
  <text x="1378.5" y="1615" style="fill: #33322E;font:bold  12pt Helvetica, Helvetica, sans-serif;text-anchor: middle;" data-name="How do we interact with objects?">How do we interact with objects?</text>
  <text x="1241.5" y="1646" style="fill: #33322E;font:normal  12pt Helvetica, Helvetica, sans-serif;" data-name="How do we interact with objects?">Pickup animation is stored on prop</text>
  <rect x="1160.5" y="1695.5" height="62" width="435" data-name="How do we have more diverse characters?" style="stroke:#33322E;fill:#eee8d5;stroke-dasharray:none;stroke-width:3;"></rect>
  <path d="M1160.5 1726.5 L1595.5 1726.5" data-name="How do we have more diverse characters?" style="stroke:#33322E;fill:none;stroke-dasharray:none;stroke-width:3;"></path>
  <text x="1378" y="1717" style="fill: #33322E;font:bold  12pt Helvetica, Helvetica, sans-serif;text-anchor: middle;" data-name="How do we have more diverse characters?">How do we have more diverse characters?</text>
  <text x="1168.5" y="1748" style="fill: #33322E;font:normal  12pt Helvetica, Helvetica, sans-serif;" data-name="How do we have more diverse characters?">Marketplace? Proceduralism? Character generators?</text>
  <rect x="847.5" y="1888.5" height="62" width="215" data-name="Avatar posesssion" style="stroke:#33322E;fill:#eee8d5;stroke-dasharray:none;stroke-width:3;"></rect>
  <path d="M847.5 1919.5 L1062.5 1919.5" data-name="Avatar posesssion" style="stroke:#33322E;fill:none;stroke-dasharray:none;stroke-width:3;"></path>
  <text x="955" y="1910" style="fill: #33322E;font:bold  12pt Helvetica, Helvetica, sans-serif;text-anchor: middle;" data-name="Avatar posesssion">Avatar posesssion</text>
  <text x="855.5" y="1941" style="fill: #33322E;font:normal  12pt Helvetica, Helvetica, sans-serif;" data-name="Avatar posesssion">taking the tracking points</text>
  <rect x="571.5" y="2053.5" height="62" width="218" data-name="Last changed datetime" style="stroke:#33322E;fill:#eee8d5;stroke-dasharray:none;stroke-width:3;"></rect>
  <path d="M571.5 2084.5 L789.5 2084.5" data-name="Last changed datetime" style="stroke:#33322E;fill:none;stroke-dasharray:none;stroke-width:3;"></path>
  <text x="680.5" y="2075" style="fill: #33322E;font:bold  12pt Helvetica, Helvetica, sans-serif;text-anchor: middle;" data-name="Last changed datetime">Last changed datetime</text>
  <text x="579.5" y="2106" style="fill: #33322E;font:normal  12pt Helvetica, Helvetica, sans-serif;" data-name="Last changed datetime">2022-02-16T11:29+00:00</text>
  <rect x="882.5" y="934.5" height="31" width="144" data-name="Become avatars" style="stroke:#33322E;fill:#eee8d5;stroke-dasharray:none;stroke-width:3;"></rect>
  <text x="954.5" y="956" style="fill: #33322E;font:bold  12pt Helvetica, Helvetica, sans-serif;text-anchor: middle;" data-name="Become avatars">Become avatars</text>
  <rect x="1272.5" y="170.5" height="31" width="212" data-name="Godot world live creation" style="stroke:#33322E;fill:#eee8d5;stroke-dasharray:none;stroke-width:3;"></rect>
  <text x="1378.5" y="192" style="fill: #33322E;font:bold  12pt Helvetica, Helvetica, sans-serif;text-anchor: middle;" data-name="Godot world live creation">Godot world live creation</text>
  <rect x="1775.5" y="28.5" height="31" width="151" data-name="Imported physics" style="stroke:#33322E;fill:#eee8d5;stroke-dasharray:none;stroke-width:3;"></rect>
  <text x="1851" y="50" style="fill: #33322E;font:bold  12pt Helvetica, Helvetica, sans-serif;text-anchor: middle;" data-name="Imported physics">Imported physics</text>
  <rect x="1676.5" y="99.5" height="31" width="348" data-name="Place prexisting blocks with blockmeshing" style="stroke:#33322E;fill:#eee8d5;stroke-dasharray:none;stroke-width:3;"></rect>
  <text x="1850.5" y="121" style="fill: #33322E;font:bold  12pt Helvetica, Helvetica, sans-serif;text-anchor: middle;" data-name="Place prexisting blocks with blockmeshing">Place prexisting blocks with blockmeshing</text>
  <rect x="1710.5" y="170.5" height="31" width="281" data-name="Create Godot world creation tools" style="stroke:#33322E;fill:#eee8d5;stroke-dasharray:none;stroke-width:3;"></rect>
  <text x="1851" y="192" style="fill: #33322E;font:bold  12pt Helvetica, Helvetica, sans-serif;text-anchor: middle;" data-name="Create Godot world creation tools">Create Godot world creation tools</text>
  <rect x="1789.5" y="241.5" height="31" width="122" data-name="Place scenes" style="stroke:#33322E;fill:#eee8d5;stroke-dasharray:none;stroke-width:3;"></rect>
  <text x="1850.5" y="263" style="fill: #33322E;font:bold  12pt Helvetica, Helvetica, sans-serif;text-anchor: middle;" data-name="Place scenes">Place scenes</text>
  <rect x="1718.5" y="312.5" height="31" width="264" data-name="Construct layers collaboratively" style="stroke:#33322E;fill:#eee8d5;stroke-dasharray:none;stroke-width:3;"></rect>
  <text x="1850.5" y="334" style="fill: #33322E;font:bold  12pt Helvetica, Helvetica, sans-serif;text-anchor: middle;" data-name="Construct layers collaboratively">Construct layers collaboratively</text>
  <rect x="1810.5" y="383.5" height="31" width="80" data-name="Painting" style="stroke:#33322E;fill:#eee8d5;stroke-dasharray:none;stroke-width:3;"></rect>
  <text x="1850.5" y="405" style="fill: #33322E;font:bold  12pt Helvetica, Helvetica, sans-serif;text-anchor: middle;" data-name="Painting">Painting</text>
  <rect x="2191.5" y="170.5" height="31" width="195" data-name="Painting with MaterialX" style="stroke:#33322E;fill:#eee8d5;stroke-dasharray:none;stroke-width:3;"></rect>
  <text x="2289" y="192" style="fill: #33322E;font:bold  12pt Helvetica, Helvetica, sans-serif;text-anchor: middle;" data-name="Painting with MaterialX">Painting with MaterialX</text>
  <rect x="1783.5" y="454.5" height="31" width="135" data-name="Jeana usability" style="stroke:#33322E;fill:#eee8d5;stroke-dasharray:none;stroke-width:3;"></rect>
  <text x="1851" y="476" style="fill: #33322E;font:bold  12pt Helvetica, Helvetica, sans-serif;text-anchor: middle;" data-name="Jeana usability">Jeana usability</text>
  <rect x="1727.5" y="525.5" height="31" width="246" data-name="VFX (Particles, shaders, Sky)" style="stroke:#33322E;fill:#eee8d5;stroke-dasharray:none;stroke-width:3;"></rect>
  <text x="1850.5" y="547" style="fill: #33322E;font:bold  12pt Helvetica, Helvetica, sans-serif;text-anchor: middle;" data-name="VFX (Particles, shaders, Sky)">VFX (Particles, shaders, Sky)</text>
  <rect x="1206.5" y="277.5" height="31" width="344" data-name="Advanced avatar (shader, IK, animations)" style="stroke:#33322E;fill:#eee8d5;stroke-dasharray:none;stroke-width:3;"></rect>
  <text x="1378.5" y="299" style="fill: #33322E;font:bold  12pt Helvetica, Helvetica, sans-serif;text-anchor: middle;" data-name="Advanced avatar (shader, IK, animations)">Advanced avatar (shader, IK, animations)</text>
  <rect x="583.5" y="934.5" height="31" width="194" data-name="Skeleton modifications" style="stroke:#33322E;fill:#eee8d5;stroke-dasharray:none;stroke-width:3;"></rect>
  <text x="680.5" y="956" style="fill: #33322E;font:bold  12pt Helvetica, Helvetica, sans-serif;text-anchor: middle;" data-name="Skeleton modifications">Skeleton modifications</text>
  <rect x="1293.5" y="348.5" height="31" width="170" data-name="Vocal communicate" style="stroke:#33322E;fill:#eee8d5;stroke-dasharray:none;stroke-width:3;"></rect>
  <text x="1378.5" y="370" style="fill: #33322E;font:bold  12pt Helvetica, Helvetica, sans-serif;text-anchor: middle;" data-name="Vocal communicate">Vocal communicate</text>
  <rect x="1288.5" y="419.5" height="31" width="179" data-name="Motion communicate" style="stroke:#33322E;fill:#eee8d5;stroke-dasharray:none;stroke-width:3;"></rect>
  <text x="1378" y="441" style="fill: #33322E;font:bold  12pt Helvetica, Helvetica, sans-serif;text-anchor: middle;" data-name="Motion communicate">Motion communicate</text>
  <rect x="1344.5" y="490.5" height="31" width="67" data-name="Dance" style="stroke:#33322E;fill:#eee8d5;stroke-dasharray:none;stroke-width:3;"></rect>
  <text x="1378" y="512" style="fill: #33322E;font:bold  12pt Helvetica, Helvetica, sans-serif;text-anchor: middle;" data-name="Dance">Dance</text>
  <rect x="1253.5" y="561.5" height="31" width="249" data-name="Godot speech comms system" style="stroke:#33322E;fill:#eee8d5;stroke-dasharray:none;stroke-width:3;"></rect>
  <text x="1378" y="583" style="fill: #33322E;font:bold  12pt Helvetica, Helvetica, sans-serif;text-anchor: middle;" data-name="Godot speech comms system">Godot speech comms system</text>
  <rect x="1201.5" y="632.5" height="31" width="353" data-name="Virtual reality 6 degree of freedom tracking" style="stroke:#33322E;fill:#eee8d5;stroke-dasharray:none;stroke-width:3;"></rect>
  <text x="1378" y="654" style="fill: #33322E;font:bold  12pt Helvetica, Helvetica, sans-serif;text-anchor: middle;" data-name="Virtual reality 6 degree of freedom tracking">Virtual reality 6 degree of freedom tracking</text>
  <rect x="1333.5" y="703.5" height="31" width="90" data-name="Following" style="stroke:#33322E;fill:#eee8d5;stroke-dasharray:none;stroke-width:3;"></rect>
  <text x="1378.5" y="725" style="fill: #33322E;font:bold  12pt Helvetica, Helvetica, sans-serif;text-anchor: middle;" data-name="Following">Following</text>
  <rect x="1750.5" y="596.5" height="31" width="200" data-name="Double-sided friending." style="stroke:#33322E;fill:#eee8d5;stroke-dasharray:none;stroke-width:3;"></rect>
  <text x="1850.5" y="618" style="fill: #33322E;font:bold  12pt Helvetica, Helvetica, sans-serif;text-anchor: middle;" data-name="Double-sided friending.">Double-sided friending.</text>
  <rect x="1757.5" y="738.5" height="31" width="186" data-name="Discover new friends." style="stroke:#33322E;fill:#eee8d5;stroke-dasharray:none;stroke-width:3;"></rect>
  <text x="1850.5" y="760" style="fill: #33322E;font:bold  12pt Helvetica, Helvetica, sans-serif;text-anchor: middle;" data-name="Discover new friends.">Discover new friends.</text>
  <rect x="1246.5" y="914.5" height="31" width="264" data-name="Virtual reality motion movement" style="stroke:#33322E;fill:#eee8d5;stroke-dasharray:none;stroke-width:3;"></rect>
  <text x="1378.5" y="936" style="fill: #33322E;font:bold  12pt Helvetica, Helvetica, sans-serif;text-anchor: middle;" data-name="Virtual reality motion movement">Virtual reality motion movement</text>
  <rect x="2228.5" y="564.5" height="31" width="121" data-name="Avatar switch" style="stroke:#33322E;fill:#eee8d5;stroke-dasharray:none;stroke-width:3;"></rect>
  <text x="2289" y="586" style="fill: #33322E;font:bold  12pt Helvetica, Helvetica, sans-serif;text-anchor: middle;" data-name="Avatar switch">Avatar switch</text>
  <rect x="2228.5" y="635.5" height="31" width="121" data-name="World portals" style="stroke:#33322E;fill:#eee8d5;stroke-dasharray:none;stroke-width:3;"></rect>
  <text x="2289" y="657" style="fill: #33322E;font:bold  12pt Helvetica, Helvetica, sans-serif;text-anchor: middle;" data-name="World portals">World portals</text>
  <rect x="2227.5" y="985.5" height="31" width="122" data-name="Server switch" style="stroke:#33322E;fill:#eee8d5;stroke-dasharray:none;stroke-width:3;"></rect>
  <text x="2288.5" y="1007" style="fill: #33322E;font:bold  12pt Helvetica, Helvetica, sans-serif;text-anchor: middle;" data-name="Server switch">Server switch</text>
  <rect x="2207.5" y="1242.5" height="31" width="163" data-name="Player interactions" style="stroke:#33322E;fill:#eee8d5;stroke-dasharray:none;stroke-width:3;"></rect>
  <text x="2289" y="1264" style="fill: #33322E;font:bold  12pt Helvetica, Helvetica, sans-serif;text-anchor: middle;" data-name="Player interactions">Player interactions</text>
  <rect x="2580.5" y="1206.5" height="31" width="78" data-name="Camera" style="stroke:#33322E;fill:#eee8d5;stroke-dasharray:none;stroke-width:3;"></rect>
  <text x="2619.5" y="1228" style="fill: #33322E;font:bold  12pt Helvetica, Helvetica, sans-serif;text-anchor: middle;" data-name="Camera">Camera</text>
  <rect x="2552.5" y="1277.5" height="31" width="133" data-name="Bow and arrow" style="stroke:#33322E;fill:#eee8d5;stroke-dasharray:none;stroke-width:3;"></rect>
  <text x="2619" y="1299" style="fill: #33322E;font:bold  12pt Helvetica, Helvetica, sans-serif;text-anchor: middle;" data-name="Bow and arrow">Bow and arrow</text>
  <rect x="2588.5" y="1348.5" height="31" width="62" data-name="Mirror" style="stroke:#33322E;fill:#eee8d5;stroke-dasharray:none;stroke-width:3;"></rect>
  <text x="2619.5" y="1370" style="fill: #33322E;font:bold  12pt Helvetica, Helvetica, sans-serif;text-anchor: middle;" data-name="Mirror">Mirror</text>
  <rect x="1786.5" y="1063.5" height="31" width="128" data-name="Federation list" style="stroke:#33322E;fill:#eee8d5;stroke-dasharray:none;stroke-width:3;"></rect>
  <text x="1850.5" y="1085" style="fill: #33322E;font:bold  12pt Helvetica, Helvetica, sans-serif;text-anchor: middle;" data-name="Federation list">Federation list</text>
  <rect x="1770.5" y="1205.5" height="31" width="160" data-name="Delegated Identity" style="stroke:#33322E;fill:#eee8d5;stroke-dasharray:none;stroke-width:3;"></rect>
  <text x="1850.5" y="1227" style="fill: #33322E;font:bold  12pt Helvetica, Helvetica, sans-serif;text-anchor: middle;" data-name="Delegated Identity">Delegated Identity</text>
  <rect x="1811.5" y="1797.5" height="31" width="78" data-name="Content" style="stroke:#33322E;fill:#eee8d5;stroke-dasharray:none;stroke-width:3;"></rect>
  <text x="1850.5" y="1819" style="fill: #33322E;font:bold  12pt Helvetica, Helvetica, sans-serif;text-anchor: middle;" data-name="Content">Content</text>
  <rect x="2064.5" y="1797.5" height="31" width="448" data-name="Refuse to attest content because scripting is untrusted" style="stroke:#33322E;fill:#eee8d5;stroke-dasharray:none;stroke-width:3;"></rect>
  <text x="2288.5" y="1819" style="fill: #33322E;font:bold  12pt Helvetica, Helvetica, sans-serif;text-anchor: middle;" data-name="Refuse to attest content because scripting is untrusted">Refuse to attest content because scripting is untrusted</text>
  <rect x="2161.5" y="493.5" height="31" width="254" data-name="Upgrade PLY to Godot Engine" style="stroke:#33322E;fill:#eee8d5;stroke-dasharray:none;stroke-width:3;"></rect>
  <text x="2288.5" y="515" style="fill: #33322E;font:bold  12pt Helvetica, Helvetica, sans-serif;text-anchor: middle;" data-name="Upgrade PLY to Godot Engine">Upgrade PLY to Godot Engine</text>
  <rect x="1225.5" y="1216.5" height="31" width="306" data-name="How do we retarget to the VRM1 rig?" style="stroke:#33322E;fill:#eee8d5;stroke-dasharray:none;stroke-width:3;"></rect>
  <text x="1378.5" y="1238" style="fill: #33322E;font:bold  12pt Helvetica, Helvetica, sans-serif;text-anchor: middle;" data-name="How do we retarget to the VRM1 rig?">How do we retarget to the VRM1 rig?</text>
  <rect x="1188.5" y="1797.5" height="31" width="380" data-name="How we turn our voice to facial rig keyframes?" style="stroke:#33322E;fill:#eee8d5;stroke-dasharray:none;stroke-width:3;"></rect>
  <text x="1378.5" y="1819" style="fill: #33322E;font:bold  12pt Helvetica, Helvetica, sans-serif;text-anchor: middle;" data-name="How we turn our voice to facial rig keyframes?">How we turn our voice to facial rig keyframes?</text>
  <rect x="619.5" y="1982.5" height="31" width="123" data-name="Asset loading" style="stroke:#33322E;fill:#eee8d5;stroke-dasharray:none;stroke-width:3;"></rect>
  <text x="681" y="2004" style="fill: #33322E;font:bold  12pt Helvetica, Helvetica, sans-serif;text-anchor: middle;" data-name="Asset loading">Asset loading</text>
  <rect x="1362.5" y="1868.5" height="31" width="32" data-name="IK" style="stroke:#33322E;fill:#eee8d5;stroke-dasharray:none;stroke-width:3;"></rect>
  <text x="1378.5" y="1890" style="fill: #33322E;font:bold  12pt Helvetica, Helvetica, sans-serif;text-anchor: middle;" data-name="IK">IK</text>
  <rect x="1691.5" y="1868.5" height="31" width="319" data-name="animator (blending IK with walk anims)" style="stroke:#33322E;fill:#eee8d5;stroke-dasharray:none;stroke-width:3;"></rect>
  <text x="1851" y="1890" style="fill: #33322E;font:bold  12pt Helvetica, Helvetica, sans-serif;text-anchor: middle;" data-name="animator (blending IK with walk anims)">animator (blending IK with walk anims)</text>
  <rect x="1317.5" y="1939.5" height="31" width="121" data-name="Eye targeting" style="stroke:#33322E;fill:#eee8d5;stroke-dasharray:none;stroke-width:3;"></rect>
  <text x="1378" y="1961" style="fill: #33322E;font:bold  12pt Helvetica, Helvetica, sans-serif;text-anchor: middle;" data-name="Eye targeting">Eye targeting</text>
  <rect x="1263.5" y="2010.5" height="31" width="229" data-name="Thing from Steam Skeleton" style="stroke:#33322E;fill:#eee8d5;stroke-dasharray:none;stroke-width:3;"></rect>
  <text x="1378" y="2032" style="fill: #33322E;font:bold  12pt Helvetica, Helvetica, sans-serif;text-anchor: middle;" data-name="Thing from Steam Skeleton">Thing from Steam Skeleton</text>
  <rect x="829.5" y="1990.5" height="31" width="250" data-name="Voice analyzer for shapekeys" style="stroke:#33322E;fill:#eee8d5;stroke-dasharray:none;stroke-width:3;"></rect>
  <text x="954.5" y="2012" style="fill: #33322E;font:bold  12pt Helvetica, Helvetica, sans-serif;text-anchor: middle;" data-name="Voice analyzer for shapekeys">Voice analyzer for shapekeys</text>
  <rect x="895.5" y="2061.5" height="31" width="119" data-name="Voice over ip" style="stroke:#33322E;fill:#eee8d5;stroke-dasharray:none;stroke-width:3;"></rect>
  <text x="955" y="2083" style="fill: #33322E;font:bold  12pt Helvetica, Helvetica, sans-serif;text-anchor: middle;" data-name="Voice over ip">Voice over ip</text>
</svg>