<svg version="1.1" baseProfile="full" width="3841" height="1942.25" viewbox="0 0 3841 1942.25" xmlns="http://www.w3.org/2000/svg" xmlns:xlink="http://www.w3.org/1999/xlink" xmlns:ev="http://www.w3.org/2001/xml-events" style="font:bold  12pt Helvetica, Helvetica, sans-serif;;stroke-linejoin:round;stroke-linecap:round">
  <title >Players want to define their own virtual worlds, but they can&amp;apos;t because making their own virtual worlds is hard.</title>
  <desc >#title: Players want to define their own virtual worlds, but they can&amp;apos;t because making their own virtual worlds is hard.
#direction: right

[V-Sekai| Players want to define the virtual worlds. | V-Sekai https://v-sekai.org/ |
Players can&apos;t make their own virtual worlds because it is hard.]
[&lt;table&gt; Become avatars] -&gt; [Godot world live creation]
[Godot world live creation] -&gt; [Imported physics]
[Godot world live creation] -&gt; [Place prexisting blocks with blockmeshing  ]
[Godot world live creation]-&gt; [&lt;table&gt; Create Godot world creation tools ]
[Godot world live creation]-&gt; [Place scenes ]
[Godot world live creation]-&gt; [Construct layers collaboratively ]
[Godot world live creation]-&gt; [Painting  ]
[Godot world live creation]-&gt; [&lt;table&gt; Create Godot world creation tools]
[&lt;table&gt; Create Godot world creation tools ] -&gt; [3D models with CASSIE | Make cassie commercial remixable]
[&lt;table&gt; Create Godot world creation tools ] -&gt; [Painting with MaterialX ]
[Godot world live creation] -&gt; [Jeana usability]
[Godot world live creation] -&gt; [VFX (Particles, shaders, Sky)]
[&lt;table&gt; Become avatars] -&gt; [Advanced avatar (shader, IK, animations)]
[Skeleton modifications ] -&gt; [&lt;table&gt; Become avatars]
[&lt;table&gt; Become avatars] -&gt; [Vocal communicate]
[&lt;table&gt; Become avatars] -&gt; [Motion communicate]
[&lt;table&gt; Become avatars] -&gt; [Dance]

[&lt;table&gt; Become avatars] -&gt; [Godot speech comms system] 
[&lt;table&gt; Become avatars] -&gt; [Virtual reality 6 degree of freedom tracking ]

[&lt;table&gt; Become avatars]-&gt;[&lt;table&gt; Following  ]
[&lt;table&gt; Following] -&gt; [Double-sided friending. ]
[&lt;table&gt; Following] -&gt; [Discover new friends. ]

[&lt;table&gt; Become avatars] -&gt; [Locomotion (flat)| How do we animate the character?| VRM1 rig]
[&lt;tsable&gt; Become avatars] -&gt; [Virtual reality motion movement]

[Virtual reality motion movement] -&gt; [Pickups| Wasgo Scripting | In-game menus | Video player |Vehicles | Buttons]

[Pickups]-&gt;[&lt;table&gt; Avatar switch ]
[Pickups]-&gt;[World portals ]
[Pickups]-&gt;[Server switch ]

[Pickups]-&gt;[&lt;table&gt; Player interactions ]
[&lt;table&gt; Player interactions] -&gt; [Camera ]
[&lt;table&gt; Player interactions] -&gt; [Bow and arrow ]
[&lt;table&gt; Player interactions] -&gt; [Mirror ]

[&lt;table&gt; Become avatars]-&gt;[Platform host Uro Infrastructure]
[Platform host Uro Infrastructure] -&gt; [ Federation list ]
[Platform host Uro Infrastructure] -&gt; [ Delegated Identity ]

[Platform host Uro Infrastructure ]-&gt;[&lt;table&gt; Content]
[&lt;table&gt; Content ]-&gt; [Refuse to attest content because scripting is untrusted ]

[&lt;table&gt; Create Godot world creation tools ] -&gt; [&lt;table&gt; Upgrade PLY to Godot Engine]

[Platform host Uro Infrastructure | Deployment kit | Launch uro using Elixir Desktop | Make TrueNas Scale run V-Sekai mirror]

[&lt;table&gt; Become avatars] -&gt; [How do we retarget to the VRM1 rig?]
[&lt;table&gt; Become avatars] -&gt; [How do we mocapture the face rig?| Support mapping every single possible standard rig?]
[&lt;table&gt; Become avatars] -&gt; [How do we make the face rig fast? |Blend shape baking to skeletals]
[&lt;table&gt; Become avatars] -&gt; [How do we create the standard animation set? |Want to be better than the status quo of mixamo animation sets]
[&lt;table&gt; Become avatars] -&gt; [How do we interact with objects? |Pickup animation is stored on prop]
[&lt;table&gt; Become avatars] -&gt; [How do we have more diverse characters? |Marketplace? Proceduralism? Character generators?]
[&lt;table&gt; Become avatars] -&gt; [How we turn our voice to facial rig keyframes?]

[V-Sekai] -&gt; [Asset loading]
[Asset loading] -&gt; [Avatar posession | Taking the tracking points]
[Avatar posession | taking the tracking points] -&gt; [Inverse Kinematics]
[Inverse Kinematics] -&gt; [Animator (Blending Inverse Kinematics with walk animations)]
[Avatar posession] -&gt; [Eye targeting | HMD forward vetor]
[Avatar posession] -&gt; [Thing from Steam skeleton]
[Asset loading] -&gt; [Voice analyzer for shapekeys]
[Asset loading] -&gt; [Voice over IP]
 [Voice analyzer for shapekeys] -&gt; [Skeleton modifications]
[Voice over IP] -&gt; [Skeleton modifications]
 [Thing from Steam skeleton]  -&gt; [Skeleton modifications]
[Eye targeting | HMD forward vetor] -&gt; [Skeleton modifications]
[Animator (Blending Inverse Kinematics with walk animations)] -&gt; [Skeleton modifications]
[V-Sekai] - [Last changed datetime|2022-02-16T12:02+00:00]
</desc>
  <rect x="0" y="0" height="1942.25" width="3841" style="stroke:none; fill:transparent;"></rect>
  <path d="M2137.6 927 L2227.5 264.8 L2393.3 264.8 L2393.3 264.8 " style="stroke:#33322E;fill:none;stroke-dasharray:none;stroke-width:3;"></path>
  <path d="M2386.7 270.1 L2393.3 264.8 L2386.7 259.4 L2400 264.8 Z" style="stroke:#33322E;fill:#33322E;stroke-dasharray:none;stroke-width:3;"></path>
  <path d="M2525.6 249.3 L2784.5 44 L2896.3 44 L2896.3 44 " style="stroke:#33322E;fill:none;stroke-dasharray:none;stroke-width:3;"></path>
  <path d="M2889.7 49.3 L2896.3 44 L2889.7 38.7 L2903 44 Z" style="stroke:#33322E;fill:#33322E;stroke-dasharray:none;stroke-width:3;"></path>
  <path d="M2534.8 249.3 L2784.5 115 L2797.8 115 L2797.8 115 " style="stroke:#33322E;fill:none;stroke-dasharray:none;stroke-width:3;"></path>
  <path d="M2791.2 120.3 L2797.8 115 L2791.2 109.7 L2804.5 115 Z" style="stroke:#33322E;fill:#33322E;stroke-dasharray:none;stroke-width:3;"></path>
  <path d="M2560.8 249.3 L2784.5 186 L2831.3 186 L2831.3 186 " style="stroke:#33322E;fill:none;stroke-dasharray:none;stroke-width:3;"></path>
  <path d="M2824.7 191.3 L2831.3 186 L2824.7 180.7 L2838 186 Z" style="stroke:#33322E;fill:#33322E;stroke-dasharray:none;stroke-width:3;"></path>
  <path d="M2612 261.8 L2784.5 257 L2910.8 257 L2910.8 257 " style="stroke:#33322E;fill:none;stroke-dasharray:none;stroke-width:3;"></path>
  <path d="M2904.2 262.3 L2910.8 257 L2904.2 251.7 L2917.5 257 Z" style="stroke:#33322E;fill:#33322E;stroke-dasharray:none;stroke-width:3;"></path>
  <path d="M2538.2 280.3 L2784.5 399 L2839.8 399 L2839.8 399 " style="stroke:#33322E;fill:none;stroke-dasharray:none;stroke-width:3;"></path>
  <path d="M2833.2 404.3 L2839.8 399 L2833.2 393.7 L2846.5 399 Z" style="stroke:#33322E;fill:#33322E;stroke-dasharray:none;stroke-width:3;"></path>
  <path d="M2527 280.3 L2784.5 470 L2931.8 470 L2931.8 470 " style="stroke:#33322E;fill:none;stroke-dasharray:none;stroke-width:3;"></path>
  <path d="M2925.2 475.3 L2931.8 470 L2925.2 464.7 L2938.5 470 Z" style="stroke:#33322E;fill:#33322E;stroke-dasharray:none;stroke-width:3;"></path>
  <path d="M3013.3 170.5 L3172.5 99.5 L3263.8 99.5 L3263.8 99.5 " style="stroke:#33322E;fill:none;stroke-dasharray:none;stroke-width:3;"></path>
  <path d="M3257.2 104.8 L3263.8 99.5 L3257.2 94.2 L3270.5 99.5 Z" style="stroke:#33322E;fill:#33322E;stroke-dasharray:none;stroke-width:3;"></path>
  <path d="M3119 186 L3172.5 186 L3312.3 186 L3312.3 186 " style="stroke:#33322E;fill:none;stroke-dasharray:none;stroke-width:3;"></path>
  <path d="M3305.7 191.3 L3312.3 186 L3305.7 180.7 L3319 186 Z" style="stroke:#33322E;fill:#33322E;stroke-dasharray:none;stroke-width:3;"></path>
  <path d="M2521.6 280.3 L2784.5 541 L2904.3 541 L2904.3 541 " style="stroke:#33322E;fill:none;stroke-dasharray:none;stroke-width:3;"></path>
  <path d="M2897.7 546.3 L2904.3 541 L2897.7 535.7 L2911 541 Z" style="stroke:#33322E;fill:#33322E;stroke-dasharray:none;stroke-width:3;"></path>
  <path d="M2518.4 280.3 L2784.5 612 L2848.8 612 L2848.8 612 " style="stroke:#33322E;fill:none;stroke-dasharray:none;stroke-width:3;"></path>
  <path d="M2842.2 617.3 L2848.8 612 L2842.2 606.7 L2855.5 612 Z" style="stroke:#33322E;fill:#33322E;stroke-dasharray:none;stroke-width:3;"></path>
  <path d="M2138 927 L2227.5 363.5 L2327.3 363.5 L2327.3 363.5 " style="stroke:#33322E;fill:none;stroke-dasharray:none;stroke-width:3;"></path>
  <path d="M2320.7 368.8 L2327.3 363.5 L2320.7 358.2 L2334 363.5 Z" style="stroke:#33322E;fill:#33322E;stroke-dasharray:none;stroke-width:3;"></path>
  <path d="M2023.5 942.5 L2043.5 942.5 L2056.8 942.5 L2056.8 942.5 " style="stroke:#33322E;fill:none;stroke-dasharray:none;stroke-width:3;"></path>
  <path d="M2050.2 947.8 L2056.8 942.5 L2050.2 937.2 L2063.5 942.5 Z" style="stroke:#33322E;fill:#33322E;stroke-dasharray:none;stroke-width:3;"></path>
  <path d="M2138.3 927 L2227.5 434.5 L2414.3 434.5 L2414.3 434.5 " style="stroke:#33322E;fill:none;stroke-dasharray:none;stroke-width:3;"></path>
  <path d="M2407.7 439.8 L2414.3 434.5 L2407.7 429.2 L2421 434.5 Z" style="stroke:#33322E;fill:#33322E;stroke-dasharray:none;stroke-width:3;"></path>
  <path d="M2138.8 927 L2227.5 505.5 L2409.8 505.5 L2409.8 505.5 " style="stroke:#33322E;fill:none;stroke-dasharray:none;stroke-width:3;"></path>
  <path d="M2403.2 510.8 L2409.8 505.5 L2403.2 500.2 L2416.5 505.5 Z" style="stroke:#33322E;fill:#33322E;stroke-dasharray:none;stroke-width:3;"></path>
  <path d="M2139.4 927 L2227.5 576.5 L2465.8 576.5 L2465.8 576.5 " style="stroke:#33322E;fill:none;stroke-dasharray:none;stroke-width:3;"></path>
  <path d="M2459.2 581.8 L2465.8 576.5 L2459.2 571.2 L2472.5 576.5 Z" style="stroke:#33322E;fill:#33322E;stroke-dasharray:none;stroke-width:3;"></path>
  <path d="M2140.3 927 L2227.5 647.5 L2374.8 647.5 L2374.8 647.5 " style="stroke:#33322E;fill:none;stroke-dasharray:none;stroke-width:3;"></path>
  <path d="M2368.2 652.8 L2374.8 647.5 L2368.2 642.2 L2381.5 647.5 Z" style="stroke:#33322E;fill:#33322E;stroke-dasharray:none;stroke-width:3;"></path>
  <path d="M2141.9 927 L2227.5 718.5 L2322.8 718.5 L2322.8 718.5 " style="stroke:#33322E;fill:none;stroke-dasharray:none;stroke-width:3;"></path>
  <path d="M2316.2 723.8 L2322.8 718.5 L2316.2 713.2 L2329.5 718.5 Z" style="stroke:#33322E;fill:#33322E;stroke-dasharray:none;stroke-width:3;"></path>
  <path d="M2144.8 927 L2227.5 789.5 L2454.3 789.5 L2454.3 789.5 " style="stroke:#33322E;fill:none;stroke-dasharray:none;stroke-width:3;"></path>
  <path d="M2447.7 794.8 L2454.3 789.5 L2447.7 784.2 L2461 789.5 Z" style="stroke:#33322E;fill:#33322E;stroke-dasharray:none;stroke-width:3;"></path>
  <path d="M2546.5 774 L2784.5 683 L2871.8 683 L2871.8 683 " style="stroke:#33322E;fill:none;stroke-dasharray:none;stroke-width:3;"></path>
  <path d="M2865.2 688.3 L2871.8 683 L2865.2 677.7 L2878.5 683 Z" style="stroke:#33322E;fill:#33322E;stroke-dasharray:none;stroke-width:3;"></path>
  <path d="M2551 795.2 L2784.5 825 L2878.8 825 L2878.8 825 " style="stroke:#33322E;fill:none;stroke-dasharray:none;stroke-width:3;"></path>
  <path d="M2872.2 830.3 L2878.8 825 L2872.2 819.7 L2885.5 825 Z" style="stroke:#33322E;fill:#33322E;stroke-dasharray:none;stroke-width:3;"></path>
  <path d="M2163.5 927 L2227.5 891.5 L2354.3 891.5 L2354.3 891.5 " style="stroke:#33322E;fill:none;stroke-dasharray:none;stroke-width:3;"></path>
  <path d="M2347.7 896.8 L2354.3 891.5 L2347.7 886.2 L2361 891.5 Z" style="stroke:#33322E;fill:#33322E;stroke-dasharray:none;stroke-width:3;"></path>
  <path d="M2159.8 958 L2227.5 1001.3 L2367.3 1001.3 L2367.3 1001.3 " style="stroke:#33322E;fill:none;stroke-dasharray:none;stroke-width:3;"></path>
  <path d="M2360.7 1006.6 L2367.3 1001.3 L2360.7 995.9 L2374 1001.3 Z" style="stroke:#33322E;fill:#33322E;stroke-dasharray:none;stroke-width:3;"></path>
  <path d="M2638 1001.3 L2784.5 1001.3 L2899.3 1001.3 L2899.3 1001.3 " style="stroke:#33322E;fill:none;stroke-dasharray:none;stroke-width:3;"></path>
  <path d="M2892.7 1006.6 L2899.3 1001.3 L2892.7 995.9 L2906 1001.3 Z" style="stroke:#33322E;fill:#33322E;stroke-dasharray:none;stroke-width:3;"></path>
  <path d="M3025.2 908.3 L3172.5 615.3 L3349.3 615.3 L3349.3 615.3 " style="stroke:#33322E;fill:none;stroke-dasharray:none;stroke-width:3;"></path>
  <path d="M3342.7 620.6 L3349.3 615.3 L3342.7 609.9 L3356 615.3 Z" style="stroke:#33322E;fill:#33322E;stroke-dasharray:none;stroke-width:3;"></path>
  <path d="M3035.8 908.3 L3172.5 686.3 L3349.3 686.3 L3349.3 686.3 " style="stroke:#33322E;fill:none;stroke-dasharray:none;stroke-width:3;"></path>
  <path d="M3342.7 691.6 L3349.3 686.3 L3342.7 680.9 L3356 686.3 Z" style="stroke:#33322E;fill:#33322E;stroke-dasharray:none;stroke-width:3;"></path>
  <path d="M3051 1014.5 L3172.5 1036.8 L3348.8 1036.8 L3348.8 1036.8 " style="stroke:#33322E;fill:none;stroke-dasharray:none;stroke-width:3;"></path>
  <path d="M3342.2 1042.1 L3348.8 1036.8 L3342.2 1031.4 L3355.5 1036.8 Z" style="stroke:#33322E;fill:#33322E;stroke-dasharray:none;stroke-width:3;"></path>
  <path d="M3051 1073.4 L3172.5 1194.3 L3328.3 1194.3 L3328.3 1194.3 " style="stroke:#33322E;fill:none;stroke-dasharray:none;stroke-width:3;"></path>
  <path d="M3321.7 1199.6 L3328.3 1194.3 L3321.7 1188.9 L3335 1194.3 Z" style="stroke:#33322E;fill:#33322E;stroke-dasharray:none;stroke-width:3;"></path>
  <path d="M3498 1182.4 L3660.5 1158.8 L3701.3 1158.8 L3701.3 1158.8 " style="stroke:#33322E;fill:none;stroke-dasharray:none;stroke-width:3;"></path>
  <path d="M3694.7 1164.1 L3701.3 1158.8 L3694.7 1153.4 L3708 1158.8 Z" style="stroke:#33322E;fill:#33322E;stroke-dasharray:none;stroke-width:3;"></path>
  <path d="M3498 1206.1 L3660.5 1229.8 L3673.8 1229.8 L3673.8 1229.8 " style="stroke:#33322E;fill:none;stroke-dasharray:none;stroke-width:3;"></path>
  <path d="M3667.2 1235.1 L3673.8 1229.8 L3667.2 1224.4 L3680.5 1229.8 Z" style="stroke:#33322E;fill:#33322E;stroke-dasharray:none;stroke-width:3;"></path>
  <path d="M3452 1209.8 L3660.5 1300.8 L3709.3 1300.8 L3709.3 1300.8 " style="stroke:#33322E;fill:none;stroke-dasharray:none;stroke-width:3;"></path>
  <path d="M3702.7 1306.1 L3709.3 1300.8 L3702.7 1295.4 L3716 1300.8 Z" style="stroke:#33322E;fill:#33322E;stroke-dasharray:none;stroke-width:3;"></path>
  <path d="M2141 958 L2227.5 1200.8 L2335.3 1200.8 L2335.3 1200.8 " style="stroke:#33322E;fill:none;stroke-dasharray:none;stroke-width:3;"></path>
  <path d="M2328.7 1206.1 L2335.3 1200.8 L2328.7 1195.4 L2342 1200.8 Z" style="stroke:#33322E;fill:#33322E;stroke-dasharray:none;stroke-width:3;"></path>
  <path d="M2670 1170.7 L2784.5 1149.8 L2907.8 1149.8 L2907.8 1149.8 " style="stroke:#33322E;fill:none;stroke-dasharray:none;stroke-width:3;"></path>
  <path d="M2901.2 1155.1 L2907.8 1149.8 L2901.2 1144.4 L2914.5 1149.8 Z" style="stroke:#33322E;fill:#33322E;stroke-dasharray:none;stroke-width:3;"></path>
  <path d="M2670 1212.5 L2784.5 1220.8 L2891.8 1220.8 L2891.8 1220.8 " style="stroke:#33322E;fill:none;stroke-dasharray:none;stroke-width:3;"></path>
  <path d="M2885.2 1226.1 L2891.8 1220.8 L2885.2 1215.4 L2898.5 1220.8 Z" style="stroke:#33322E;fill:#33322E;stroke-dasharray:none;stroke-width:3;"></path>
  <path d="M2668.1 1262.8 L2784.5 1307.3 L2932.8 1307.3 L2932.8 1307.3 " style="stroke:#33322E;fill:none;stroke-dasharray:none;stroke-width:3;"></path>
  <path d="M2926.2 1312.6 L2932.8 1307.3 L2926.2 1301.9 L2939.5 1307.3 Z" style="stroke:#33322E;fill:#33322E;stroke-dasharray:none;stroke-width:3;"></path>
  <path d="M3017.5 1307.3 L3172.5 1307.3 L3185.8 1307.3 L3185.8 1307.3 " style="stroke:#33322E;fill:none;stroke-dasharray:none;stroke-width:3;"></path>
  <path d="M3179.2 1312.6 L3185.8 1307.3 L3179.2 1301.9 L3192.5 1307.3 Z" style="stroke:#33322E;fill:#33322E;stroke-dasharray:none;stroke-width:3;"></path>
  <path d="M2986.9 201.5 L3172.5 544.3 L3282.8 544.3 L3282.8 544.3 " style="stroke:#33322E;fill:none;stroke-dasharray:none;stroke-width:3;"></path>
  <path d="M3276.2 549.6 L3282.8 544.3 L3276.2 538.9 L3289.5 544.3 Z" style="stroke:#33322E;fill:#33322E;stroke-dasharray:none;stroke-width:3;"></path>
  <path d="M2139.3 958 L2227.5 1318.3 L2346.3 1318.3 L2346.3 1318.3 " style="stroke:#33322E;fill:none;stroke-dasharray:none;stroke-width:3;"></path>
  <path d="M2339.7 1323.6 L2346.3 1318.3 L2339.7 1312.9 L2353 1318.3 Z" style="stroke:#33322E;fill:#33322E;stroke-dasharray:none;stroke-width:3;"></path>
  <path d="M2138.6 958 L2227.5 1404.8 L2282.8 1404.8 L2282.8 1404.8 " style="stroke:#33322E;fill:none;stroke-dasharray:none;stroke-width:3;"></path>
  <path d="M2276.2 1410.1 L2282.8 1404.8 L2276.2 1399.4 L2289.5 1404.8 Z" style="stroke:#33322E;fill:#33322E;stroke-dasharray:none;stroke-width:3;"></path>
  <path d="M2138 958 L2227.5 1506.8 L2355.3 1506.8 L2355.3 1506.8 " style="stroke:#33322E;fill:none;stroke-dasharray:none;stroke-width:3;"></path>
  <path d="M2348.7 1512.1 L2355.3 1506.8 L2348.7 1501.4 L2362 1506.8 Z" style="stroke:#33322E;fill:#33322E;stroke-dasharray:none;stroke-width:3;"></path>
  <path d="M2137.6 958 L2227.5 1608.8 L2240.8 1608.8 L2240.8 1608.8 " style="stroke:#33322E;fill:none;stroke-dasharray:none;stroke-width:3;"></path>
  <path d="M2234.2 1614.1 L2240.8 1608.8 L2234.2 1603.4 L2247.5 1608.8 Z" style="stroke:#33322E;fill:#33322E;stroke-dasharray:none;stroke-width:3;"></path>
  <path d="M2137.4 958 L2227.5 1710.8 L2354.3 1710.8 L2354.3 1710.8 " style="stroke:#33322E;fill:none;stroke-dasharray:none;stroke-width:3;"></path>
  <path d="M2347.7 1716.1 L2354.3 1710.8 L2347.7 1705.4 L2361 1710.8 Z" style="stroke:#33322E;fill:#33322E;stroke-dasharray:none;stroke-width:3;"></path>
  <path d="M2137.1 958 L2227.5 1812.8 L2281.8 1812.8 L2281.8 1812.8 " style="stroke:#33322E;fill:none;stroke-dasharray:none;stroke-width:3;"></path>
  <path d="M2275.2 1818.1 L2281.8 1812.8 L2275.2 1807.4 L2288.5 1812.8 Z" style="stroke:#33322E;fill:#33322E;stroke-dasharray:none;stroke-width:3;"></path>
  <path d="M2137 958 L2227.5 1899.3 L2309.3 1899.3 L2309.3 1899.3 " style="stroke:#33322E;fill:none;stroke-dasharray:none;stroke-width:3;"></path>
  <path d="M2302.7 1904.6 L2309.3 1899.3 L2302.7 1893.9 L2316 1899.3 Z" style="stroke:#33322E;fill:#33322E;stroke-dasharray:none;stroke-width:3;"></path>
  <path d="M531.5 1032.2 L551.5 1029 L612.3 1029 L612.3 1029 " style="stroke:#33322E;fill:none;stroke-dasharray:none;stroke-width:3;"></path>
  <path d="M605.7 1034.3 L612.3 1029 L605.7 1023.7 L619 1029 Z" style="stroke:#33322E;fill:#33322E;stroke-dasharray:none;stroke-width:3;"></path>
  <path d="M693.2 1013.5 L809.5 871.5 L822.8 871.5 L822.8 871.5 " style="stroke:#33322E;fill:none;stroke-dasharray:none;stroke-width:3;"></path>
  <path d="M816.2 876.8 L822.8 871.5 L816.2 866.2 L829.5 871.5 Z" style="stroke:#33322E;fill:#33322E;stroke-dasharray:none;stroke-width:3;"></path>
  <path d="M986.1 840.5 L1069.5 785 L1082.8 785 L1082.8 785 " style="stroke:#33322E;fill:none;stroke-dasharray:none;stroke-width:3;"></path>
  <path d="M1076.2 790.3 L1082.8 785 L1076.2 779.7 L1089.5 785 Z" style="stroke:#33322E;fill:#33322E;stroke-dasharray:none;stroke-width:3;"></path>
  <path d="M1255.5 785 L1275.5 785 L1288.8 785 L1288.8 785 " style="stroke:#33322E;fill:none;stroke-dasharray:none;stroke-width:3;"></path>
  <path d="M1282.2 790.3 L1288.8 785 L1282.2 779.7 L1295.5 785 Z" style="stroke:#33322E;fill:#33322E;stroke-dasharray:none;stroke-width:3;"></path>
  <path d="M1049.5 871.5 L1069.5 871.5 L1172.5 871.5 L1172.5 871.5 L1275.5 871.5 L1275.5 871.5 L1454.3 871.5 L1454.3 871.5 " style="stroke:#33322E;fill:none;stroke-dasharray:none;stroke-width:3;"></path>
  <path d="M1447.7 876.8 L1454.3 871.5 L1447.7 866.2 L1461 871.5 Z" style="stroke:#33322E;fill:#33322E;stroke-dasharray:none;stroke-width:3;"></path>
  <path d="M986.1 902.5 L1069.5 958 L1172.5 958 L1172.5 958 L1275.5 958 L1275.5 958 L1422.3 958 L1422.3 958 " style="stroke:#33322E;fill:none;stroke-dasharray:none;stroke-width:3;"></path>
  <path d="M1415.7 963.3 L1422.3 958 L1415.7 952.7 L1429 958 Z" style="stroke:#33322E;fill:#33322E;stroke-dasharray:none;stroke-width:3;"></path>
  <path d="M742 1029 L809.5 1029 L939.5 1029 L939.5 1029 L1069.5 1029 L1069.5 1029 L1172.5 1029 L1172.5 1029 L1275.5 1029 L1275.5 1029 L1410.8 1029 L1410.8 1029 " style="stroke:#33322E;fill:none;stroke-dasharray:none;stroke-width:3;"></path>
  <path d="M1404.2 1034.3 L1410.8 1029 L1404.2 1023.7 L1417.5 1029 Z" style="stroke:#33322E;fill:#33322E;stroke-dasharray:none;stroke-width:3;"></path>
  <path d="M708.7 1044.5 L809.5 1100 L939.5 1100 L939.5 1100 L1069.5 1100 L1069.5 1100 L1172.5 1100 L1172.5 1100 L1275.5 1100 L1275.5 1100 L1475.3 1100 L1475.3 1100 " style="stroke:#33322E;fill:none;stroke-dasharray:none;stroke-width:3;"></path>
  <path d="M1468.7 1105.3 L1475.3 1100 L1468.7 1094.7 L1482 1100 Z" style="stroke:#33322E;fill:#33322E;stroke-dasharray:none;stroke-width:3;"></path>
  <path d="M1667.5 1029 L1809.5 1029 L1900.2 962 L1900.2 962 " style="stroke:#33322E;fill:none;stroke-dasharray:none;stroke-width:3;"></path>
  <path d="M1898 970.2 L1900.2 962 L1891.6 961.6 L1905.5 958 Z" style="stroke:#33322E;fill:#33322E;stroke-dasharray:none;stroke-width:3;"></path>
  <path d="M1603 1100 L1809.5 1100 L1911 963.4 L1911 963.4 " style="stroke:#33322E;fill:none;stroke-dasharray:none;stroke-width:3;"></path>
  <path d="M1911.3 971.9 L1911 963.4 L1902.8 965.5 L1915 958 Z" style="stroke:#33322E;fill:#33322E;stroke-dasharray:none;stroke-width:3;"></path>
  <path d="M1656 958 L1809.5 958 L1822.9 956.2 L1822.9 956.2 " style="stroke:#33322E;fill:none;stroke-dasharray:none;stroke-width:3;"></path>
  <path d="M1817 962.4 L1822.9 956.2 L1815.6 951.8 L1829.5 955.4 Z" style="stroke:#33322E;fill:#33322E;stroke-dasharray:none;stroke-width:3;"></path>
  <path d="M1624 871.5 L1809.5 871.5 L1895.3 923.5 L1895.3 923.5 " style="stroke:#33322E;fill:none;stroke-dasharray:none;stroke-width:3;"></path>
  <path d="M1886.8 924.6 L1895.3 923.5 L1892.3 915.5 L1901 927 Z" style="stroke:#33322E;fill:#33322E;stroke-dasharray:none;stroke-width:3;"></path>
  <path d="M1789.5 785 L1809.5 785 L1911 921.6 L1911 921.6 " style="stroke:#33322E;fill:none;stroke-dasharray:none;stroke-width:3;"></path>
  <path d="M1902.8 919.5 L1911 921.6 L1911.3 913.1 L1915 927 Z" style="stroke:#33322E;fill:#33322E;stroke-dasharray:none;stroke-width:3;"></path>
  <path d="M531.5 1112.3 L551.5 1115.5 L571.5 1115.5 L571.5 1115.5 " style="stroke:#33322E;fill:none;stroke-dasharray:none;stroke-width:3;"></path>
  <rect x="2906.5" y="908.5" height="186" width="145" data-name="Pickups" style="stroke:#33322E;fill:#eee8d5;stroke-dasharray:none;stroke-width:3;"></rect>
  <path d="M2906.5 939.5 L3051.5 939.5" data-name="Pickups" style="stroke:#33322E;fill:none;stroke-dasharray:none;stroke-width:3;"></path>
  <path d="M2906.5 970.5 L3051.5 970.5" data-name="Pickups" style="stroke:#33322E;fill:none;stroke-dasharray:none;stroke-width:3;"></path>
  <path d="M2906.5 1001.5 L3051.5 1001.5" data-name="Pickups" style="stroke:#33322E;fill:none;stroke-dasharray:none;stroke-width:3;"></path>
  <path d="M2906.5 1032.5 L3051.5 1032.5" data-name="Pickups" style="stroke:#33322E;fill:none;stroke-dasharray:none;stroke-width:3;"></path>
  <path d="M2906.5 1063.5 L3051.5 1063.5" data-name="Pickups" style="stroke:#33322E;fill:none;stroke-dasharray:none;stroke-width:3;"></path>
  <text x="2979" y="930" style="fill: #33322E;font:bold  12pt Helvetica, Helvetica, sans-serif;text-anchor: middle;" data-name="Pickups">Pickups</text>
  <text x="2914.5" y="961" style="fill: #33322E;font:normal  12pt Helvetica, Helvetica, sans-serif;" data-name="Pickups">Wasgo Scripting</text>
  <text x="2914.5" y="992" style="fill: #33322E;font:normal  12pt Helvetica, Helvetica, sans-serif;" data-name="Pickups">In-game menus</text>
  <text x="2914.5" y="1023" style="fill: #33322E;font:normal  12pt Helvetica, Helvetica, sans-serif;" data-name="Pickups">Video player</text>
  <text x="2914.5" y="1054" style="fill: #33322E;font:normal  12pt Helvetica, Helvetica, sans-serif;" data-name="Pickups">Vehicles</text>
  <text x="2914.5" y="1085" style="fill: #33322E;font:normal  12pt Helvetica, Helvetica, sans-serif;" data-name="Pickups">Buttons</text>
  <rect x="28.5" y="1010.5" height="124" width="503" data-name="V-Sekai" style="stroke:#33322E;fill:#eee8d5;stroke-dasharray:none;stroke-width:3;"></rect>
  <path d="M28.5 1041.5 L531.5 1041.5" data-name="V-Sekai" style="stroke:#33322E;fill:none;stroke-dasharray:none;stroke-width:3;"></path>
  <path d="M28.5 1072.5 L531.5 1072.5" data-name="V-Sekai" style="stroke:#33322E;fill:none;stroke-dasharray:none;stroke-width:3;"></path>
  <path d="M28.5 1103.5 L531.5 1103.5" data-name="V-Sekai" style="stroke:#33322E;fill:none;stroke-dasharray:none;stroke-width:3;"></path>
  <text x="280" y="1032" style="fill: #33322E;font:bold  12pt Helvetica, Helvetica, sans-serif;text-anchor: middle;" data-name="V-Sekai">V-Sekai</text>
  <text x="36.5" y="1063" style="fill: #33322E;font:normal  12pt Helvetica, Helvetica, sans-serif;" data-name="V-Sekai">Players want to define the virtual worlds.</text>
  <text x="36.5" y="1094" style="fill: #33322E;font:normal  12pt Helvetica, Helvetica, sans-serif;" data-name="V-Sekai">V-Sekai https://v-sekai.org/</text>
  <text x="36.5" y="1125" style="fill: #33322E;font:normal  12pt Helvetica, Helvetica, sans-serif;" data-name="V-Sekai">Players can&apos;t make their own virtual worlds because it is hard.</text>
  <rect x="2342.5" y="1138.5" height="124" width="328" data-name="Platform host Uro Infrastructure" style="stroke:#33322E;fill:#eee8d5;stroke-dasharray:none;stroke-width:3;"></rect>
  <path d="M2342.5 1169.5 L2670.5 1169.5" data-name="Platform host Uro Infrastructure" style="stroke:#33322E;fill:none;stroke-dasharray:none;stroke-width:3;"></path>
  <path d="M2342.5 1200.5 L2670.5 1200.5" data-name="Platform host Uro Infrastructure" style="stroke:#33322E;fill:none;stroke-dasharray:none;stroke-width:3;"></path>
  <path d="M2342.5 1231.5 L2670.5 1231.5" data-name="Platform host Uro Infrastructure" style="stroke:#33322E;fill:none;stroke-dasharray:none;stroke-width:3;"></path>
  <text x="2506.5" y="1160" style="fill: #33322E;font:bold  12pt Helvetica, Helvetica, sans-serif;text-anchor: middle;" data-name="Platform host Uro Infrastructure">Platform host Uro Infrastructure</text>
  <text x="2350.5" y="1191" style="fill: #33322E;font:normal  12pt Helvetica, Helvetica, sans-serif;" data-name="Platform host Uro Infrastructure">Deployment kit</text>
  <text x="2350.5" y="1222" style="fill: #33322E;font:normal  12pt Helvetica, Helvetica, sans-serif;" data-name="Platform host Uro Infrastructure">Launch uro using Elixir Desktop</text>
  <text x="2350.5" y="1253" style="fill: #33322E;font:normal  12pt Helvetica, Helvetica, sans-serif;" data-name="Platform host Uro Infrastructure">Make TrueNas Scale run V-Sekai mirror</text>
  <rect x="2361.5" y="845.5" height="93" width="290" data-name="Locomotion (flat)" style="stroke:#33322E;fill:#eee8d5;stroke-dasharray:none;stroke-width:3;"></rect>
  <path d="M2361.5 876.5 L2651.5 876.5" data-name="Locomotion (flat)" style="stroke:#33322E;fill:none;stroke-dasharray:none;stroke-width:3;"></path>
  <path d="M2361.5 907.5 L2651.5 907.5" data-name="Locomotion (flat)" style="stroke:#33322E;fill:none;stroke-dasharray:none;stroke-width:3;"></path>
  <text x="2506.5" y="867" style="fill: #33322E;font:bold  12pt Helvetica, Helvetica, sans-serif;text-anchor: middle;" data-name="Locomotion (flat)">Locomotion (flat)</text>
  <text x="2369.5" y="898" style="fill: #33322E;font:normal  12pt Helvetica, Helvetica, sans-serif;" data-name="Locomotion (flat)">How do we animate the character?</text>
  <text x="2369.5" y="929" style="fill: #33322E;font:normal  12pt Helvetica, Helvetica, sans-serif;" data-name="Locomotion (flat)">VRM1 rig</text>
  <rect x="3270.5" y="68.5" height="62" width="292" data-name="3D models with CASSIE" style="stroke:#33322E;fill:#eee8d5;stroke-dasharray:none;stroke-width:3;"></rect>
  <path d="M3270.5 99.5 L3562.5 99.5" data-name="3D models with CASSIE" style="stroke:#33322E;fill:none;stroke-dasharray:none;stroke-width:3;"></path>
  <text x="3416.5" y="90" style="fill: #33322E;font:bold  12pt Helvetica, Helvetica, sans-serif;text-anchor: middle;" data-name="3D models with CASSIE">3D models with CASSIE</text>
  <text x="3278.5" y="121" style="fill: #33322E;font:normal  12pt Helvetica, Helvetica, sans-serif;" data-name="3D models with CASSIE">Make cassie commercial remixable</text>
  <rect x="2289.5" y="1373.5" height="62" width="433" data-name="How do we mocapture the face rig?" style="stroke:#33322E;fill:#eee8d5;stroke-dasharray:none;stroke-width:3;"></rect>
  <path d="M2289.5 1404.5 L2722.5 1404.5" data-name="How do we mocapture the face rig?" style="stroke:#33322E;fill:none;stroke-dasharray:none;stroke-width:3;"></path>
  <text x="2506" y="1395" style="fill: #33322E;font:bold  12pt Helvetica, Helvetica, sans-serif;text-anchor: middle;" data-name="How do we mocapture the face rig?">How do we mocapture the face rig?</text>
  <text x="2297.5" y="1426" style="fill: #33322E;font:normal  12pt Helvetica, Helvetica, sans-serif;" data-name="How do we mocapture the face rig?">Support mapping every single possible standard rig?</text>
  <rect x="2362.5" y="1475.5" height="62" width="288" data-name="How do we make the face rig fast?" style="stroke:#33322E;fill:#eee8d5;stroke-dasharray:none;stroke-width:3;"></rect>
  <path d="M2362.5 1506.5 L2650.5 1506.5" data-name="How do we make the face rig fast?" style="stroke:#33322E;fill:none;stroke-dasharray:none;stroke-width:3;"></path>
  <text x="2506.5" y="1497" style="fill: #33322E;font:bold  12pt Helvetica, Helvetica, sans-serif;text-anchor: middle;" data-name="How do we make the face rig fast?">How do we make the face rig fast?</text>
  <text x="2370.5" y="1528" style="fill: #33322E;font:normal  12pt Helvetica, Helvetica, sans-serif;" data-name="How do we make the face rig fast?">Blend shape baking to skeletals</text>
  <rect x="2247.5" y="1577.5" height="62" width="517" data-name="How do we create the standard animation set?" style="stroke:#33322E;fill:#eee8d5;stroke-dasharray:none;stroke-width:3;"></rect>
  <path d="M2247.5 1608.5 L2764.5 1608.5" data-name="How do we create the standard animation set?" style="stroke:#33322E;fill:none;stroke-dasharray:none;stroke-width:3;"></path>
  <text x="2506" y="1599" style="fill: #33322E;font:bold  12pt Helvetica, Helvetica, sans-serif;text-anchor: middle;" data-name="How do we create the standard animation set?">How do we create the standard animation set?</text>
  <text x="2255.5" y="1630" style="fill: #33322E;font:normal  12pt Helvetica, Helvetica, sans-serif;" data-name="How do we create the standard animation set?">Want to be better than the status quo of mixamo animation sets</text>
  <rect x="2361.5" y="1679.5" height="62" width="290" data-name="How do we interact with objects?" style="stroke:#33322E;fill:#eee8d5;stroke-dasharray:none;stroke-width:3;"></rect>
  <path d="M2361.5 1710.5 L2651.5 1710.5" data-name="How do we interact with objects?" style="stroke:#33322E;fill:none;stroke-dasharray:none;stroke-width:3;"></path>
  <text x="2506.5" y="1701" style="fill: #33322E;font:bold  12pt Helvetica, Helvetica, sans-serif;text-anchor: middle;" data-name="How do we interact with objects?">How do we interact with objects?</text>
  <text x="2369.5" y="1732" style="fill: #33322E;font:normal  12pt Helvetica, Helvetica, sans-serif;" data-name="How do we interact with objects?">Pickup animation is stored on prop</text>
  <rect x="2288.5" y="1781.5" height="62" width="435" data-name="How do we have more diverse characters?" style="stroke:#33322E;fill:#eee8d5;stroke-dasharray:none;stroke-width:3;"></rect>
  <path d="M2288.5 1812.5 L2723.5 1812.5" data-name="How do we have more diverse characters?" style="stroke:#33322E;fill:none;stroke-dasharray:none;stroke-width:3;"></path>
  <text x="2506" y="1803" style="fill: #33322E;font:bold  12pt Helvetica, Helvetica, sans-serif;text-anchor: middle;" data-name="How do we have more diverse characters?">How do we have more diverse characters?</text>
  <text x="2296.5" y="1834" style="fill: #33322E;font:normal  12pt Helvetica, Helvetica, sans-serif;" data-name="How do we have more diverse characters?">Marketplace? Proceduralism? Character generators?</text>
  <rect x="829.5" y="840.5" height="62" width="220" data-name="Avatar posession" style="stroke:#33322E;fill:#eee8d5;stroke-dasharray:none;stroke-width:3;"></rect>
  <path d="M829.5 871.5 L1049.5 871.5" data-name="Avatar posession" style="stroke:#33322E;fill:none;stroke-dasharray:none;stroke-width:3;"></path>
  <text x="939.5" y="862" style="fill: #33322E;font:bold  12pt Helvetica, Helvetica, sans-serif;text-anchor: middle;" data-name="Avatar posession">Avatar posession</text>
  <text x="837.5" y="893" style="fill: #33322E;font:normal  12pt Helvetica, Helvetica, sans-serif;" data-name="Avatar posession">Taking the tracking points</text>
  <rect x="1461.5" y="840.5" height="62" width="163" data-name="Eye targeting" style="stroke:#33322E;fill:#eee8d5;stroke-dasharray:none;stroke-width:3;"></rect>
  <path d="M1461.5 871.5 L1624.5 871.5" data-name="Eye targeting" style="stroke:#33322E;fill:none;stroke-dasharray:none;stroke-width:3;"></path>
  <text x="1543" y="862" style="fill: #33322E;font:bold  12pt Helvetica, Helvetica, sans-serif;text-anchor: middle;" data-name="Eye targeting">Eye targeting</text>
  <text x="1469.5" y="893" style="fill: #33322E;font:normal  12pt Helvetica, Helvetica, sans-serif;" data-name="Eye targeting">HMD forward vetor</text>
  <rect x="571.5" y="1084.5" height="62" width="218" data-name="Last changed datetime" style="stroke:#33322E;fill:#eee8d5;stroke-dasharray:none;stroke-width:3;"></rect>
  <path d="M571.5 1115.5 L789.5 1115.5" data-name="Last changed datetime" style="stroke:#33322E;fill:none;stroke-dasharray:none;stroke-width:3;"></path>
  <text x="680.5" y="1106" style="fill: #33322E;font:bold  12pt Helvetica, Helvetica, sans-serif;text-anchor: middle;" data-name="Last changed datetime">Last changed datetime</text>
  <text x="579.5" y="1137" style="fill: #33322E;font:normal  12pt Helvetica, Helvetica, sans-serif;" data-name="Last changed datetime">2022-02-16T12:02+00:00</text>
  <rect x="2063.5" y="927.5" height="31" width="144" data-name="Become avatars" style="stroke:#33322E;fill:#eee8d5;stroke-dasharray:none;stroke-width:3;"></rect>
  <text x="2135.5" y="949" style="fill: #33322E;font:bold  12pt Helvetica, Helvetica, sans-serif;text-anchor: middle;" data-name="Become avatars">Become avatars</text>
  <rect x="2400.5" y="249.5" height="31" width="212" data-name="Godot world live creation" style="stroke:#33322E;fill:#eee8d5;stroke-dasharray:none;stroke-width:3;"></rect>
  <text x="2506.5" y="271" style="fill: #33322E;font:bold  12pt Helvetica, Helvetica, sans-serif;text-anchor: middle;" data-name="Godot world live creation">Godot world live creation</text>
  <rect x="2903.5" y="28.5" height="31" width="151" data-name="Imported physics" style="stroke:#33322E;fill:#eee8d5;stroke-dasharray:none;stroke-width:3;"></rect>
  <text x="2979" y="50" style="fill: #33322E;font:bold  12pt Helvetica, Helvetica, sans-serif;text-anchor: middle;" data-name="Imported physics">Imported physics</text>
  <rect x="2804.5" y="99.5" height="31" width="348" data-name="Place prexisting blocks with blockmeshing" style="stroke:#33322E;fill:#eee8d5;stroke-dasharray:none;stroke-width:3;"></rect>
  <text x="2978.5" y="121" style="fill: #33322E;font:bold  12pt Helvetica, Helvetica, sans-serif;text-anchor: middle;" data-name="Place prexisting blocks with blockmeshing">Place prexisting blocks with blockmeshing</text>
  <rect x="2838.5" y="170.5" height="31" width="281" data-name="Create Godot world creation tools" style="stroke:#33322E;fill:#eee8d5;stroke-dasharray:none;stroke-width:3;"></rect>
  <text x="2979" y="192" style="fill: #33322E;font:bold  12pt Helvetica, Helvetica, sans-serif;text-anchor: middle;" data-name="Create Godot world creation tools">Create Godot world creation tools</text>
  <rect x="2917.5" y="241.5" height="31" width="122" data-name="Place scenes" style="stroke:#33322E;fill:#eee8d5;stroke-dasharray:none;stroke-width:3;"></rect>
  <text x="2978.5" y="263" style="fill: #33322E;font:bold  12pt Helvetica, Helvetica, sans-serif;text-anchor: middle;" data-name="Place scenes">Place scenes</text>
  <rect x="2846.5" y="383.5" height="31" width="264" data-name="Construct layers collaboratively" style="stroke:#33322E;fill:#eee8d5;stroke-dasharray:none;stroke-width:3;"></rect>
  <text x="2978.5" y="405" style="fill: #33322E;font:bold  12pt Helvetica, Helvetica, sans-serif;text-anchor: middle;" data-name="Construct layers collaboratively">Construct layers collaboratively</text>
  <rect x="2938.5" y="454.5" height="31" width="80" data-name="Painting" style="stroke:#33322E;fill:#eee8d5;stroke-dasharray:none;stroke-width:3;"></rect>
  <text x="2978.5" y="476" style="fill: #33322E;font:bold  12pt Helvetica, Helvetica, sans-serif;text-anchor: middle;" data-name="Painting">Painting</text>
  <rect x="3319.5" y="170.5" height="31" width="195" data-name="Painting with MaterialX" style="stroke:#33322E;fill:#eee8d5;stroke-dasharray:none;stroke-width:3;"></rect>
  <text x="3417" y="192" style="fill: #33322E;font:bold  12pt Helvetica, Helvetica, sans-serif;text-anchor: middle;" data-name="Painting with MaterialX">Painting with MaterialX</text>
  <rect x="2911.5" y="525.5" height="31" width="135" data-name="Jeana usability" style="stroke:#33322E;fill:#eee8d5;stroke-dasharray:none;stroke-width:3;"></rect>
  <text x="2979" y="547" style="fill: #33322E;font:bold  12pt Helvetica, Helvetica, sans-serif;text-anchor: middle;" data-name="Jeana usability">Jeana usability</text>
  <rect x="2855.5" y="596.5" height="31" width="246" data-name="VFX (Particles, shaders, Sky)" style="stroke:#33322E;fill:#eee8d5;stroke-dasharray:none;stroke-width:3;"></rect>
  <text x="2978.5" y="618" style="fill: #33322E;font:bold  12pt Helvetica, Helvetica, sans-serif;text-anchor: middle;" data-name="VFX (Particles, shaders, Sky)">VFX (Particles, shaders, Sky)</text>
  <rect x="2334.5" y="348.5" height="31" width="344" data-name="Advanced avatar (shader, IK, animations)" style="stroke:#33322E;fill:#eee8d5;stroke-dasharray:none;stroke-width:3;"></rect>
  <text x="2506.5" y="370" style="fill: #33322E;font:bold  12pt Helvetica, Helvetica, sans-serif;text-anchor: middle;" data-name="Advanced avatar (shader, IK, animations)">Advanced avatar (shader, IK, animations)</text>
  <rect x="1829.5" y="927.5" height="31" width="194" data-name="Skeleton modifications" style="stroke:#33322E;fill:#eee8d5;stroke-dasharray:none;stroke-width:3;"></rect>
  <text x="1926.5" y="949" style="fill: #33322E;font:bold  12pt Helvetica, Helvetica, sans-serif;text-anchor: middle;" data-name="Skeleton modifications">Skeleton modifications</text>
  <rect x="2421.5" y="419.5" height="31" width="170" data-name="Vocal communicate" style="stroke:#33322E;fill:#eee8d5;stroke-dasharray:none;stroke-width:3;"></rect>
  <text x="2506.5" y="441" style="fill: #33322E;font:bold  12pt Helvetica, Helvetica, sans-serif;text-anchor: middle;" data-name="Vocal communicate">Vocal communicate</text>
  <rect x="2416.5" y="490.5" height="31" width="179" data-name="Motion communicate" style="stroke:#33322E;fill:#eee8d5;stroke-dasharray:none;stroke-width:3;"></rect>
  <text x="2506" y="512" style="fill: #33322E;font:bold  12pt Helvetica, Helvetica, sans-serif;text-anchor: middle;" data-name="Motion communicate">Motion communicate</text>
  <rect x="2472.5" y="561.5" height="31" width="67" data-name="Dance" style="stroke:#33322E;fill:#eee8d5;stroke-dasharray:none;stroke-width:3;"></rect>
  <text x="2506" y="583" style="fill: #33322E;font:bold  12pt Helvetica, Helvetica, sans-serif;text-anchor: middle;" data-name="Dance">Dance</text>
  <rect x="2381.5" y="632.5" height="31" width="249" data-name="Godot speech comms system" style="stroke:#33322E;fill:#eee8d5;stroke-dasharray:none;stroke-width:3;"></rect>
  <text x="2506" y="654" style="fill: #33322E;font:bold  12pt Helvetica, Helvetica, sans-serif;text-anchor: middle;" data-name="Godot speech comms system">Godot speech comms system</text>
  <rect x="2329.5" y="703.5" height="31" width="353" data-name="Virtual reality 6 degree of freedom tracking" style="stroke:#33322E;fill:#eee8d5;stroke-dasharray:none;stroke-width:3;"></rect>
  <text x="2506" y="725" style="fill: #33322E;font:bold  12pt Helvetica, Helvetica, sans-serif;text-anchor: middle;" data-name="Virtual reality 6 degree of freedom tracking">Virtual reality 6 degree of freedom tracking</text>
  <rect x="2461.5" y="774.5" height="31" width="90" data-name="Following" style="stroke:#33322E;fill:#eee8d5;stroke-dasharray:none;stroke-width:3;"></rect>
  <text x="2506.5" y="796" style="fill: #33322E;font:bold  12pt Helvetica, Helvetica, sans-serif;text-anchor: middle;" data-name="Following">Following</text>
  <rect x="2878.5" y="667.5" height="31" width="200" data-name="Double-sided friending." style="stroke:#33322E;fill:#eee8d5;stroke-dasharray:none;stroke-width:3;"></rect>
  <text x="2978.5" y="689" style="fill: #33322E;font:bold  12pt Helvetica, Helvetica, sans-serif;text-anchor: middle;" data-name="Double-sided friending.">Double-sided friending.</text>
  <rect x="2885.5" y="809.5" height="31" width="186" data-name="Discover new friends." style="stroke:#33322E;fill:#eee8d5;stroke-dasharray:none;stroke-width:3;"></rect>
  <text x="2978.5" y="831" style="fill: #33322E;font:bold  12pt Helvetica, Helvetica, sans-serif;text-anchor: middle;" data-name="Discover new friends.">Discover new friends.</text>
  <rect x="2374.5" y="985.5" height="31" width="264" data-name="Virtual reality motion movement" style="stroke:#33322E;fill:#eee8d5;stroke-dasharray:none;stroke-width:3;"></rect>
  <text x="2506.5" y="1007" style="fill: #33322E;font:bold  12pt Helvetica, Helvetica, sans-serif;text-anchor: middle;" data-name="Virtual reality motion movement">Virtual reality motion movement</text>
  <rect x="3356.5" y="599.5" height="31" width="121" data-name="Avatar switch" style="stroke:#33322E;fill:#eee8d5;stroke-dasharray:none;stroke-width:3;"></rect>
  <text x="3417" y="621" style="fill: #33322E;font:bold  12pt Helvetica, Helvetica, sans-serif;text-anchor: middle;" data-name="Avatar switch">Avatar switch</text>
  <rect x="3356.5" y="670.5" height="31" width="121" data-name="World portals" style="stroke:#33322E;fill:#eee8d5;stroke-dasharray:none;stroke-width:3;"></rect>
  <text x="3417" y="692" style="fill: #33322E;font:bold  12pt Helvetica, Helvetica, sans-serif;text-anchor: middle;" data-name="World portals">World portals</text>
  <rect x="3355.5" y="1021.5" height="31" width="122" data-name="Server switch" style="stroke:#33322E;fill:#eee8d5;stroke-dasharray:none;stroke-width:3;"></rect>
  <text x="3416.5" y="1043" style="fill: #33322E;font:bold  12pt Helvetica, Helvetica, sans-serif;text-anchor: middle;" data-name="Server switch">Server switch</text>
  <rect x="3335.5" y="1178.5" height="31" width="163" data-name="Player interactions" style="stroke:#33322E;fill:#eee8d5;stroke-dasharray:none;stroke-width:3;"></rect>
  <text x="3417" y="1200" style="fill: #33322E;font:bold  12pt Helvetica, Helvetica, sans-serif;text-anchor: middle;" data-name="Player interactions">Player interactions</text>
  <rect x="3708.5" y="1143.5" height="31" width="78" data-name="Camera" style="stroke:#33322E;fill:#eee8d5;stroke-dasharray:none;stroke-width:3;"></rect>
  <text x="3747.5" y="1165" style="fill: #33322E;font:bold  12pt Helvetica, Helvetica, sans-serif;text-anchor: middle;" data-name="Camera">Camera</text>
  <rect x="3680.5" y="1214.5" height="31" width="133" data-name="Bow and arrow" style="stroke:#33322E;fill:#eee8d5;stroke-dasharray:none;stroke-width:3;"></rect>
  <text x="3747" y="1236" style="fill: #33322E;font:bold  12pt Helvetica, Helvetica, sans-serif;text-anchor: middle;" data-name="Bow and arrow">Bow and arrow</text>
  <rect x="3716.5" y="1285.5" height="31" width="62" data-name="Mirror" style="stroke:#33322E;fill:#eee8d5;stroke-dasharray:none;stroke-width:3;"></rect>
  <text x="3747.5" y="1307" style="fill: #33322E;font:bold  12pt Helvetica, Helvetica, sans-serif;text-anchor: middle;" data-name="Mirror">Mirror</text>
  <rect x="2914.5" y="1134.5" height="31" width="128" data-name="Federation list" style="stroke:#33322E;fill:#eee8d5;stroke-dasharray:none;stroke-width:3;"></rect>
  <text x="2978.5" y="1156" style="fill: #33322E;font:bold  12pt Helvetica, Helvetica, sans-serif;text-anchor: middle;" data-name="Federation list">Federation list</text>
  <rect x="2898.5" y="1205.5" height="31" width="160" data-name="Delegated Identity" style="stroke:#33322E;fill:#eee8d5;stroke-dasharray:none;stroke-width:3;"></rect>
  <text x="2978.5" y="1227" style="fill: #33322E;font:bold  12pt Helvetica, Helvetica, sans-serif;text-anchor: middle;" data-name="Delegated Identity">Delegated Identity</text>
  <rect x="2939.5" y="1291.5" height="31" width="78" data-name="Content" style="stroke:#33322E;fill:#eee8d5;stroke-dasharray:none;stroke-width:3;"></rect>
  <text x="2978.5" y="1313" style="fill: #33322E;font:bold  12pt Helvetica, Helvetica, sans-serif;text-anchor: middle;" data-name="Content">Content</text>
  <rect x="3192.5" y="1291.5" height="31" width="448" data-name="Refuse to attest content because scripting is untrusted" style="stroke:#33322E;fill:#eee8d5;stroke-dasharray:none;stroke-width:3;"></rect>
  <text x="3416.5" y="1313" style="fill: #33322E;font:bold  12pt Helvetica, Helvetica, sans-serif;text-anchor: middle;" data-name="Refuse to attest content because scripting is untrusted">Refuse to attest content because scripting is untrusted</text>
  <rect x="3289.5" y="528.5" height="31" width="254" data-name="Upgrade PLY to Godot Engine" style="stroke:#33322E;fill:#eee8d5;stroke-dasharray:none;stroke-width:3;"></rect>
  <text x="3416.5" y="550" style="fill: #33322E;font:bold  12pt Helvetica, Helvetica, sans-serif;text-anchor: middle;" data-name="Upgrade PLY to Godot Engine">Upgrade PLY to Godot Engine</text>
  <rect x="2353.5" y="1302.5" height="31" width="306" data-name="How do we retarget to the VRM1 rig?" style="stroke:#33322E;fill:#eee8d5;stroke-dasharray:none;stroke-width:3;"></rect>
  <text x="2506.5" y="1324" style="fill: #33322E;font:bold  12pt Helvetica, Helvetica, sans-serif;text-anchor: middle;" data-name="How do we retarget to the VRM1 rig?">How do we retarget to the VRM1 rig?</text>
  <rect x="2316.5" y="1883.5" height="31" width="380" data-name="How we turn our voice to facial rig keyframes?" style="stroke:#33322E;fill:#eee8d5;stroke-dasharray:none;stroke-width:3;"></rect>
  <text x="2506.5" y="1905" style="fill: #33322E;font:bold  12pt Helvetica, Helvetica, sans-serif;text-anchor: middle;" data-name="How we turn our voice to facial rig keyframes?">How we turn our voice to facial rig keyframes?</text>
  <rect x="619.5" y="1013.5" height="31" width="123" data-name="Asset loading" style="stroke:#33322E;fill:#eee8d5;stroke-dasharray:none;stroke-width:3;"></rect>
  <text x="681" y="1035" style="fill: #33322E;font:bold  12pt Helvetica, Helvetica, sans-serif;text-anchor: middle;" data-name="Asset loading">Asset loading</text>
  <rect x="1089.5" y="769.5" height="31" width="166" data-name="Inverse Kinematics" style="stroke:#33322E;fill:#eee8d5;stroke-dasharray:none;stroke-width:3;"></rect>
  <text x="1172.5" y="791" style="fill: #33322E;font:bold  12pt Helvetica, Helvetica, sans-serif;text-anchor: middle;" data-name="Inverse Kinematics">Inverse Kinematics</text>
  <rect x="1295.5" y="769.5" height="31" width="494" data-name="Animator (Blending Inverse Kinematics with walk animations)" style="stroke:#33322E;fill:#eee8d5;stroke-dasharray:none;stroke-width:3;"></rect>
  <text x="1542.5" y="791" style="fill: #33322E;font:bold  12pt Helvetica, Helvetica, sans-serif;text-anchor: middle;" data-name="Animator (Blending Inverse Kinematics with walk animations)">Animator (Blending Inverse Kinematics with walk animations)</text>
  <rect x="1429.5" y="942.5" height="31" width="227" data-name="Thing from Steam skeleton" style="stroke:#33322E;fill:#eee8d5;stroke-dasharray:none;stroke-width:3;"></rect>
  <text x="1543" y="964" style="fill: #33322E;font:bold  12pt Helvetica, Helvetica, sans-serif;text-anchor: middle;" data-name="Thing from Steam skeleton">Thing from Steam skeleton</text>
  <rect x="1417.5" y="1013.5" height="31" width="250" data-name="Voice analyzer for shapekeys" style="stroke:#33322E;fill:#eee8d5;stroke-dasharray:none;stroke-width:3;"></rect>
  <text x="1542.5" y="1035" style="fill: #33322E;font:bold  12pt Helvetica, Helvetica, sans-serif;text-anchor: middle;" data-name="Voice analyzer for shapekeys">Voice analyzer for shapekeys</text>
  <rect x="1482.5" y="1084.5" height="31" width="121" data-name="Voice over IP" style="stroke:#33322E;fill:#eee8d5;stroke-dasharray:none;stroke-width:3;"></rect>
  <text x="1543" y="1106" style="fill: #33322E;font:bold  12pt Helvetica, Helvetica, sans-serif;text-anchor: middle;" data-name="Voice over IP">Voice over IP</text>
</svg>