<svg version="1.1" baseProfile="full" width="3541" height="637" viewbox="0 0 3541 637" xmlns="http://www.w3.org/2000/svg" xmlns:xlink="http://www.w3.org/1999/xlink" xmlns:ev="http://www.w3.org/2001/xml-events" style="font:bold  12pt Helvetica, Helvetica, sans-serif;;stroke-linejoin:round;stroke-linecap:round">
  <title >Players want to define their own virtual worlds, but they can&amp;apos;t because making their own virtual worlds is hard.</title>
  <desc >#title: Players want to define their own virtual worlds, but they can&amp;apos;t because making their own virtual worlds is hard.
#direction: right
#background: transparent
#fill: #455A64; #37474F
#stroke: #B0BEC5
#ranker: longest-path

[V-Sekai| Players want to define the virtual worlds. | V-Sekai https://v-sekai.org/ |
Players can&apos;t make their own virtual worlds because it is hard. |
Further the development of Godot and open source tech.| 
Build a tech stack and service for interactive multiplayer VR games.
]
[V-Sekai] -&gt; [3D models with CASSIE]
[V-Sekai] -&gt; [MaterialX materials]
[V-Sekai] -&gt; [One gitlab repo with source assets? (sky celebration and sponza). | SDK (set of submodules?) https://github.com/V-Sekai/vsk_sdk. | Being able to enter a vsk map ∀ maps (mvp = 1 map). | Enter a vsk map with an entity in it (upload sky celebration OR upload sponza with one beachball).] 
[V-Sekai] -&gt; [Being able to have our group of people join and communicate. (godot speech).]
[Being able to have our group of people join and communicate. (godot speech).] -&gt; [VR support (openxr).]
[Being able to have our group of people join and communicate. (godot speech).] -&gt; [Interacting with objects in desktop mode is important so that we can test easier.] 
[VR support (openxr).] -&gt; [Interacting with objects in vr.]
[Interacting with objects in vr.] -&gt; [Scripting (wasgo).]
[Scripting (wasgo).] -&gt; [Network server to support 1000.]
[V-Sekai] -&gt;  [SDK (set of submodules?) https://github.com/V-Sekai/vsk_sdk.]
[SDK (set of submodules?) https://github.com/V-Sekai/vsk_sdk.] -&gt; [VSK_map source asset repositories]
[VSK_map source asset repositories] -&gt; [Lyuma will make a new github repo V-Sekai/vrm_submodule - we need a script for updating all submodules to the latest on a given branch.]

[V-Sekai] - [Last changed datetime|2022-03-01T04:54+00:00]
</desc>
  <rect x="0" y="0" height="637" width="3541" style="stroke:none; fill:transparent;"></rect>
  <path d="M399.2 233.8 L596.5 44 L935.5 44 L935.5 44 L1274.5 44 L1274.5 44 L1385 44 L1385 44 L1495.5 44 L1495.5 44 L1770 44 L1770 44 L2044.5 44 L2044.5 44 L2213.5 44 L2213.5 44 L2382.5 44 L2382.5 44 L2850.3 44 L2850.3 44 " style="stroke:#B0BEC5;fill:none;stroke-dasharray:none;stroke-width:3;"></path>
  <path d="M2843.7 49.3 L2850.3 44 L2843.7 38.7 L2857 44 Z" style="stroke:#B0BEC5;fill:#B0BEC5;stroke-dasharray:none;stroke-width:3;"></path>
  <path d="M431.6 233.8 L596.5 115 L935.5 115 L935.5 115 L1274.5 115 L1274.5 115 L1385 115 L1385 115 L1495.5 115 L1495.5 115 L1770 115 L1770 115 L2044.5 115 L2044.5 115 L2213.5 115 L2213.5 115 L2382.5 115 L2382.5 115 L2867.8 115 L2867.8 115 " style="stroke:#B0BEC5;fill:none;stroke-dasharray:none;stroke-width:3;"></path>
  <path d="M2861.2 120.3 L2867.8 115 L2861.2 109.7 L2874.5 115 Z" style="stroke:#B0BEC5;fill:#B0BEC5;stroke-dasharray:none;stroke-width:3;"></path>
  <path d="M576.5 238.9 L596.5 232.5 L935.5 232.5 L935.5 232.5 L1274.5 232.5 L1274.5 232.5 L1385 232.5 L1385 232.5 L1495.5 232.5 L1495.5 232.5 L1770 232.5 L1770 232.5 L2044.5 232.5 L2044.5 232.5 L2213.5 232.5 L2213.5 232.5 L2382.5 232.5 L2382.5 232.5 L2555.3 232.5 L2555.3 232.5 " style="stroke:#B0BEC5;fill:none;stroke-dasharray:none;stroke-width:3;"></path>
  <path d="M2548.7 237.8 L2555.3 232.5 L2548.7 227.2 L2562 232.5 Z" style="stroke:#B0BEC5;fill:#B0BEC5;stroke-dasharray:none;stroke-width:3;"></path>
  <path d="M576.5 381.5 L596.5 385.5 L609.8 385.5 L609.8 385.5 " style="stroke:#B0BEC5;fill:none;stroke-dasharray:none;stroke-width:3;"></path>
  <path d="M603.2 390.8 L609.8 385.5 L603.2 380.2 L616.5 385.5 Z" style="stroke:#B0BEC5;fill:#B0BEC5;stroke-dasharray:none;stroke-width:3;"></path>
  <path d="M1083.5 370 L1274.5 350 L1287.8 350 L1287.8 350 " style="stroke:#B0BEC5;fill:none;stroke-dasharray:none;stroke-width:3;"></path>
  <path d="M1281.2 355.3 L1287.8 350 L1281.2 344.7 L1294.5 350 Z" style="stroke:#B0BEC5;fill:#B0BEC5;stroke-dasharray:none;stroke-width:3;"></path>
  <path d="M1083.5 401 L1274.5 421 L1385 421 L1385 421 L1495.5 421 L1495.5 421 L1770 421 L1770 421 L2044.5 421 L2044.5 421 L2213.5 421 L2213.5 421 L2382.5 421 L2382.5 421 L2629.3 421 L2629.3 421 " style="stroke:#B0BEC5;fill:none;stroke-dasharray:none;stroke-width:3;"></path>
  <path d="M2622.7 426.3 L2629.3 421 L2622.7 415.7 L2636 421 Z" style="stroke:#B0BEC5;fill:#B0BEC5;stroke-dasharray:none;stroke-width:3;"></path>
  <path d="M1475.5 350 L1495.5 350 L1642.3 350 L1642.3 350 " style="stroke:#B0BEC5;fill:none;stroke-dasharray:none;stroke-width:3;"></path>
  <path d="M1635.7 355.3 L1642.3 350 L1635.7 344.7 L1649 350 Z" style="stroke:#B0BEC5;fill:#B0BEC5;stroke-dasharray:none;stroke-width:3;"></path>
  <path d="M1891 350 L2044.5 350 L2127.8 350 L2127.8 350 " style="stroke:#B0BEC5;fill:none;stroke-dasharray:none;stroke-width:3;"></path>
  <path d="M2121.2 355.3 L2127.8 350 L2121.2 344.7 L2134.5 350 Z" style="stroke:#B0BEC5;fill:#B0BEC5;stroke-dasharray:none;stroke-width:3;"></path>
  <path d="M2292.5 350 L2382.5 350 L2816.3 350 L2816.3 350 " style="stroke:#B0BEC5;fill:none;stroke-dasharray:none;stroke-width:3;"></path>
  <path d="M2809.7 355.3 L2816.3 350 L2809.7 344.7 L2823 350 Z" style="stroke:#B0BEC5;fill:#B0BEC5;stroke-dasharray:none;stroke-width:3;"></path>
  <path d="M468 419.8 L596.5 492 L935.5 492 L935.5 492 L1274.5 492 L1274.5 492 L1385 492 L1385 492 L1495.5 492 L1495.5 492 L1508.8 492 L1508.8 492 " style="stroke:#B0BEC5;fill:none;stroke-dasharray:none;stroke-width:3;"></path>
  <path d="M1502.2 497.3 L1508.8 492 L1502.2 486.7 L1515.5 492 Z" style="stroke:#B0BEC5;fill:#B0BEC5;stroke-dasharray:none;stroke-width:3;"></path>
  <path d="M2024.5 492 L2044.5 492 L2057.8 492 L2057.8 492 " style="stroke:#B0BEC5;fill:none;stroke-dasharray:none;stroke-width:3;"></path>
  <path d="M2051.2 497.3 L2057.8 492 L2051.2 486.7 L2064.5 492 Z" style="stroke:#B0BEC5;fill:#B0BEC5;stroke-dasharray:none;stroke-width:3;"></path>
  <path d="M2362.5 492 L2382.5 492 L2395.8 492 L2395.8 492 " style="stroke:#B0BEC5;fill:none;stroke-dasharray:none;stroke-width:3;"></path>
  <path d="M2389.2 497.3 L2395.8 492 L2389.2 486.7 L2402.5 492 Z" style="stroke:#B0BEC5;fill:#B0BEC5;stroke-dasharray:none;stroke-width:3;"></path>
  <path d="M411.1 419.8 L596.5 578.5 L935.5 578.5 L935.5 578.5 L1274.5 578.5 L1274.5 578.5 L1385 578.5 L1385 578.5 L1495.5 578.5 L1495.5 578.5 L1770 578.5 L1770 578.5 L2044.5 578.5 L2044.5 578.5 L2213.5 578.5 L2213.5 578.5 L2382.5 578.5 L2382.5 578.5 L2849 578.5 L2849 578.5 " style="stroke:#B0BEC5;fill:none;stroke-dasharray:none;stroke-width:3;"></path>
  <rect x="28.5" y="233.5" height="186" width="548" data-name="V-Sekai" style="stroke:#B0BEC5;fill:#455A64;stroke-dasharray:none;stroke-width:3;"></rect>
  <path d="M28.5 264.5 L576.5 264.5" data-name="V-Sekai" style="stroke:#B0BEC5;fill:none;stroke-dasharray:none;stroke-width:3;"></path>
  <path d="M28.5 295.5 L576.5 295.5" data-name="V-Sekai" style="stroke:#B0BEC5;fill:none;stroke-dasharray:none;stroke-width:3;"></path>
  <path d="M28.5 326.5 L576.5 326.5" data-name="V-Sekai" style="stroke:#B0BEC5;fill:none;stroke-dasharray:none;stroke-width:3;"></path>
  <path d="M28.5 357.5 L576.5 357.5" data-name="V-Sekai" style="stroke:#B0BEC5;fill:none;stroke-dasharray:none;stroke-width:3;"></path>
  <path d="M28.5 388.5 L576.5 388.5" data-name="V-Sekai" style="stroke:#B0BEC5;fill:none;stroke-dasharray:none;stroke-width:3;"></path>
  <text x="302.5" y="255" style="fill: #B0BEC5;font:bold  12pt Helvetica, Helvetica, sans-serif;text-anchor: middle;" data-name="V-Sekai">V-Sekai</text>
  <text x="36.5" y="286" style="fill: #B0BEC5;font:normal  12pt Helvetica, Helvetica, sans-serif;" data-name="V-Sekai">Players want to define the virtual worlds.</text>
  <text x="36.5" y="317" style="fill: #B0BEC5;font:normal  12pt Helvetica, Helvetica, sans-serif;" data-name="V-Sekai">V-Sekai https://v-sekai.org/</text>
  <text x="36.5" y="348" style="fill: #B0BEC5;font:normal  12pt Helvetica, Helvetica, sans-serif;" data-name="V-Sekai">Players can&apos;t make their own virtual worlds because it is hard.</text>
  <text x="36.5" y="379" style="fill: #B0BEC5;font:normal  12pt Helvetica, Helvetica, sans-serif;" data-name="V-Sekai">Further the development of Godot and open source tech.</text>
  <text x="36.5" y="410" style="fill: #B0BEC5;font:normal  12pt Helvetica, Helvetica, sans-serif;" data-name="V-Sekai">Build a tech stack and service for interactive multiplayer VR games.</text>
  <rect x="2562.5" y="170.5" height="124" width="792" data-name="One gitlab repo with source assets? (sky celebration and sponza)." style="stroke:#B0BEC5;fill:#455A64;stroke-dasharray:none;stroke-width:3;"></rect>
  <path d="M2562.5 201.5 L3354.5 201.5" data-name="One gitlab repo with source assets? (sky celebration and sponza)." style="stroke:#B0BEC5;fill:none;stroke-dasharray:none;stroke-width:3;"></path>
  <path d="M2562.5 232.5 L3354.5 232.5" data-name="One gitlab repo with source assets? (sky celebration and sponza)." style="stroke:#B0BEC5;fill:none;stroke-dasharray:none;stroke-width:3;"></path>
  <path d="M2562.5 263.5 L3354.5 263.5" data-name="One gitlab repo with source assets? (sky celebration and sponza)." style="stroke:#B0BEC5;fill:none;stroke-dasharray:none;stroke-width:3;"></path>
  <text x="2958.5" y="192" style="fill: #B0BEC5;font:bold  12pt Helvetica, Helvetica, sans-serif;text-anchor: middle;" data-name="One gitlab repo with source assets? (sky celebration and sponza).">One gitlab repo with source assets? (sky celebration and sponza).</text>
  <text x="2570.5" y="223" style="fill: #B0BEC5;font:normal  12pt Helvetica, Helvetica, sans-serif;" data-name="One gitlab repo with source assets? (sky celebration and sponza).">SDK (set of submodules?) https://github.com/V-Sekai/vsk_sdk.</text>
  <text x="2570.5" y="254" style="fill: #B0BEC5;font:normal  12pt Helvetica, Helvetica, sans-serif;" data-name="One gitlab repo with source assets? (sky celebration and sponza).">Being able to enter a vsk map ∀ maps (mvp = 1 map).</text>
  <text x="2570.5" y="285" style="fill: #B0BEC5;font:normal  12pt Helvetica, Helvetica, sans-serif;" data-name="One gitlab repo with source assets? (sky celebration and sponza).">Enter a vsk map with an entity in it (upload sky celebration OR upload sponza with one beachball).</text>
  <rect x="2849.5" y="547.5" height="62" width="218" data-name="Last changed datetime" style="stroke:#B0BEC5;fill:#455A64;stroke-dasharray:none;stroke-width:3;"></rect>
  <path d="M2849.5 578.5 L3067.5 578.5" data-name="Last changed datetime" style="stroke:#B0BEC5;fill:none;stroke-dasharray:none;stroke-width:3;"></path>
  <text x="2958.5" y="569" style="fill: #B0BEC5;font:bold  12pt Helvetica, Helvetica, sans-serif;text-anchor: middle;" data-name="Last changed datetime">Last changed datetime</text>
  <text x="2857.5" y="600" style="fill: #B0BEC5;font:normal  12pt Helvetica, Helvetica, sans-serif;" data-name="Last changed datetime">2022-03-01T04:54+00:00</text>
  <rect x="2857.5" y="28.5" height="31" width="202" data-name="3D models with CASSIE" style="stroke:#B0BEC5;fill:#455A64;stroke-dasharray:none;stroke-width:3;"></rect>
  <text x="2958.5" y="50" style="fill: #B0BEC5;font:bold  12pt Helvetica, Helvetica, sans-serif;text-anchor: middle;" data-name="3D models with CASSIE">3D models with CASSIE</text>
  <rect x="2874.5" y="99.5" height="31" width="167" data-name="MaterialX materials" style="stroke:#B0BEC5;fill:#455A64;stroke-dasharray:none;stroke-width:3;"></rect>
  <text x="2958" y="121" style="fill: #B0BEC5;font:bold  12pt Helvetica, Helvetica, sans-serif;text-anchor: middle;" data-name="MaterialX materials">MaterialX materials</text>
  <rect x="616.5" y="370.5" height="31" width="638" data-name="Being able to have our group of people join and communicate. (godot speech)." style="stroke:#B0BEC5;fill:#455A64;stroke-dasharray:none;stroke-width:3;"></rect>
  <text x="935.5" y="392" style="fill: #B0BEC5;font:bold  12pt Helvetica, Helvetica, sans-serif;text-anchor: middle;" data-name="Being able to have our group of people join and communicate. (godot speech).">Being able to have our group of people join and communicate. (godot speech).</text>
  <rect x="1294.5" y="334.5" height="31" width="181" data-name="VR support (openxr)." style="stroke:#B0BEC5;fill:#455A64;stroke-dasharray:none;stroke-width:3;"></rect>
  <text x="1385" y="356" style="fill: #B0BEC5;font:bold  12pt Helvetica, Helvetica, sans-serif;text-anchor: middle;" data-name="VR support (openxr).">VR support (openxr).</text>
  <rect x="2636.5" y="405.5" height="31" width="644" data-name="Interacting with objects in desktop mode is important so that we can test easier." style="stroke:#B0BEC5;fill:#455A64;stroke-dasharray:none;stroke-width:3;"></rect>
  <text x="2958.5" y="427" style="fill: #B0BEC5;font:bold  12pt Helvetica, Helvetica, sans-serif;text-anchor: middle;" data-name="Interacting with objects in desktop mode is important so that we can test easier.">Interacting with objects in desktop mode is important so that we can test easier.</text>
  <rect x="1649.5" y="334.5" height="31" width="242" data-name="Interacting with objects in vr." style="stroke:#B0BEC5;fill:#455A64;stroke-dasharray:none;stroke-width:3;"></rect>
  <text x="1770.5" y="356" style="fill: #B0BEC5;font:bold  12pt Helvetica, Helvetica, sans-serif;text-anchor: middle;" data-name="Interacting with objects in vr.">Interacting with objects in vr.</text>
  <rect x="2134.5" y="334.5" height="31" width="158" data-name="Scripting (wasgo)." style="stroke:#B0BEC5;fill:#455A64;stroke-dasharray:none;stroke-width:3;"></rect>
  <text x="2213.5" y="356" style="fill: #B0BEC5;font:bold  12pt Helvetica, Helvetica, sans-serif;text-anchor: middle;" data-name="Scripting (wasgo).">Scripting (wasgo).</text>
  <rect x="2823.5" y="334.5" height="31" width="270" data-name="Network server to support 1000." style="stroke:#B0BEC5;fill:#455A64;stroke-dasharray:none;stroke-width:3;"></rect>
  <text x="2958.5" y="356" style="fill: #B0BEC5;font:bold  12pt Helvetica, Helvetica, sans-serif;text-anchor: middle;" data-name="Network server to support 1000.">Network server to support 1000.</text>
  <rect x="1515.5" y="476.5" height="31" width="509" data-name="SDK (set of submodules?) https://github.com/V-Sekai/vsk_sdk." style="stroke:#B0BEC5;fill:#455A64;stroke-dasharray:none;stroke-width:3;"></rect>
  <text x="1770" y="498" style="fill: #B0BEC5;font:bold  12pt Helvetica, Helvetica, sans-serif;text-anchor: middle;" data-name="SDK (set of submodules?) https://github.com/V-Sekai/vsk_sdk.">SDK (set of submodules?) https://github.com/V-Sekai/vsk_sdk.</text>
  <rect x="2064.5" y="476.5" height="31" width="298" data-name="VSK_map source asset repositories" style="stroke:#B0BEC5;fill:#455A64;stroke-dasharray:none;stroke-width:3;"></rect>
  <text x="2213.5" y="498" style="fill: #B0BEC5;font:bold  12pt Helvetica, Helvetica, sans-serif;text-anchor: middle;" data-name="VSK_map source asset repositories">VSK_map source asset repositories</text>
  <rect x="2402.5" y="476.5" height="31" width="1111" data-name="Lyuma will make a new github repo V-Sekai/vrm_submodule - we need a script for updating all submodules to the latest on a given branch." style="stroke:#B0BEC5;fill:#455A64;stroke-dasharray:none;stroke-width:3;"></rect>
  <text x="2958" y="498" style="fill: #B0BEC5;font:bold  12pt Helvetica, Helvetica, sans-serif;text-anchor: middle;" data-name="Lyuma will make a new github repo V-Sekai/vrm_submodule - we need a script for updating all submodules to the latest on a given branch.">Lyuma will make a new github repo V-Sekai/vrm_submodule - we need a script for updating all submodules to the latest on a given branch.</text>
</svg>