<svg version="1.1" baseProfile="full" width="2054" height="664" viewbox="0 0 2054 664" xmlns="http://www.w3.org/2000/svg" xmlns:xlink="http://www.w3.org/1999/xlink" xmlns:ev="http://www.w3.org/2001/xml-events" style="font:bold  8pt Helvetica, Helvetica, sans-serif;;stroke-linejoin:round;stroke-linecap:round">
  <title >Players want to define their own virtual worlds, but they can&amp;apos;t because making their own virtual worlds is hard.</title>
  <desc >#title: Players want to define their own virtual worlds, but they can&amp;apos;t because making their own virtual worlds is hard.
#fontSize: 8
#spacing: 12
#padding: 3
#direction: right

[V-Sekai| Players want to define the virtual worlds. | V-Sekai https://v-sekai.org/ |
Players can&apos;t make their own virtual worlds because it is hard.]
[&lt;table&gt; Become avatars] -&gt; [Godot world live creation]
[Godot world live creation] -&gt;  [Imported physics]
[Godot world live creation] -&gt; [Place prexisting blocks with blockmeshing  ]
[Godot world live creation]-&gt; [&lt;table&gt; Create Godot world creation tools ]
[Godot world live creation]-&gt; [Place scenes ]
[Godot world live creation]-&gt; [Construct layers collaboratively ]
[Godot world live creation]-&gt; [Painting  ]
[Godot world live creation]-&gt; [&lt;table&gt; Create Godot world creation tools]
[&lt;table&gt; Create Godot world creation tools ] -&gt;  [3D models with CASSIE ]
[3D models with CASSIE ]-&gt; [Make cassie commercial remixable]
[&lt;table&gt; Create Godot world creation tools ] -&gt; [Painting with MaterialX ]
[Godot world live creation] -&gt; [Jeana usability]
[Godot world live creation] -&gt; [VFX (Particles, shaders, Sky)]
[&lt;table&gt; Become avatars] -&gt; [Advanced avatar (shader, IK, animations)]
[V-Sekai]-&gt;  [Skeleton modifications ]
[Skeleton modifications ] -&gt; [&lt;table&gt; Become avatars]
[&lt;table&gt; Become avatars] -&gt; [Vocal communicate]
[&lt;table&gt; Become avatars] -&gt; [Motion communicate]
[&lt;table&gt; Become avatars] -&gt; [Dance]

[&lt;table&gt; Become avatars] -&gt; [Godot speech comms system] 
[&lt;table&gt; Become avatars] -&gt; [Virtual reality 6 degree of freedom tracking ]

[&lt;table&gt; Become avatars]-&gt;[&lt;table&gt; Following  ]
[&lt;table&gt; Following] -&gt; [Double-sided friending. ]
[&lt;table&gt; Following] -&gt; [Discover new friends. ]

[&lt;table&gt; Become avatars] -&gt; [Locomotion (flat)]
[&lt;tsable&gt; Become avatars] -&gt; [Virtual reality motion movement]

[Virtual reality motion movement] -&gt; [Pickups]
[Pickups]-&gt; [Wasgo Scripting  ]
[Pickups]-&gt; [In-game menus  ]
[Pickups]-&gt; [Video player ]

[Pickups]-&gt;[Vehicles ]
[Pickups]-&gt;[Buttons]

[Pickups]-&gt;[&lt;table&gt; Avatar switch ]
[Pickups]-&gt;[World portals ]
[Pickups]-&gt;[Server switch ]

[Pickups]-&gt;[&lt;table&gt; Player interactions ]
[&lt;table&gt; Player interactions] -&gt; [Camera ]
[&lt;table&gt; Player interactions] -&gt; [Bow and arrow ]
[&lt;table&gt; Player interactions] -&gt; [Mirror ]

[&lt;table&gt; Become avatars]-&gt;[&lt;table&gt; Platform host Uro Infrastructure]
[&lt;table&gt; Platform host Uro Infrastructure] -&gt; [ Federation list ]
[&lt;table&gt; Platform host Uro Infrastructure] -&gt; [ Delegated Identity ]

[&lt;table&gt; platform host Uro Infrastructure ]-&gt;[&lt;table&gt; Content]
[&lt;table&gt; Content ]-&gt; [Refuse to attest content because scripting is untrusted ]

[&lt;table&gt; Platform host Uro Infrastructure]-&gt;[&lt;table&gt; Deployment kit ] 

[&lt;table&gt; Create Godot world creation tools ] -&gt; [&lt;table&gt; Upgrade PLY to Godot Engine]

[&lt;table&gt; Platform host Uro Infrastructure]  -&gt; [&lt;table&gt; Launch uro using Elixir Desktop]

[&lt;table&gt; Platform host Uro Infrastructure] -&gt; [&lt;table&gt; Make TrueNas Scale run V-Sekai mirror]

[&lt;table&gt; Become avatars] -&gt; [How do we animate the character? VRM1 rig]
[&lt;table&gt; Become avatars] -&gt; [How do we retarget to the VRM1 rig?]
[&lt;table&gt; Become avatars] -&gt; [How do we mocapture the face rig? Support mapping every single possible standard rig?]
[&lt;table&gt; Become avatars] -&gt; [How do we make the face rig fast? Blend shape baking to skeletals]
[&lt;table&gt; Become avatars] -&gt; [How do we create the standard animation set? Want to be better than the status quo of mixamo animation sets]
[&lt;table&gt; Become avatars] -&gt; [How do we interact with objects? Pickup animation is stored on prop]
[&lt;table&gt; Become avatars] -&gt; [How do we have more diverse characters? Marketplace? Proceduralism? Character generators?]
[&lt;table&gt; Become avatars] -&gt; [How we turn our voice to facial rig keyframes?]

[V-Sekai] - [Last changed datetime|2022-02-11T11:11+00:00]
</desc>
  <rect x="0" y="0" height="664" width="2054" style="stroke:none; fill:transparent;"></rect>
  <path d="M670.7 373.5 L819.5 87.5 L1049 87.5 L1049 87.5 " style="stroke:#33322E;fill:none;stroke-dasharray:none;stroke-width:3;"></path>
  <path d="M1047 89.1 L1049 87.5 L1047 85.9 L1051 87.5 Z" style="stroke:#33322E;fill:#33322E;stroke-dasharray:none;stroke-width:3;"></path>
  <path d="M1162.4 79.5 L1419.5 31.5 L1489 31.5 L1489 31.5 " style="stroke:#33322E;fill:none;stroke-dasharray:none;stroke-width:3;"></path>
  <path d="M1487 33.1 L1489 31.5 L1487 29.9 L1491 31.5 Z" style="stroke:#33322E;fill:#33322E;stroke-dasharray:none;stroke-width:3;"></path>
  <path d="M1188 81.1 L1419.5 59.5 L1423.5 59.5 L1423.5 59.5 " style="stroke:#33322E;fill:none;stroke-dasharray:none;stroke-width:3;"></path>
  <path d="M1421.5 61.1 L1423.5 59.5 L1421.5 57.9 L1425.5 59.5 Z" style="stroke:#33322E;fill:#33322E;stroke-dasharray:none;stroke-width:3;"></path>
  <path d="M1188 87.5 L1419.5 87.5 L1445.5 87.5 L1445.5 87.5 " style="stroke:#33322E;fill:none;stroke-dasharray:none;stroke-width:3;"></path>
  <path d="M1443.5 89.1 L1445.5 87.5 L1443.5 85.9 L1447.5 87.5 Z" style="stroke:#33322E;fill:#33322E;stroke-dasharray:none;stroke-width:3;"></path>
  <path d="M1188 93.9 L1419.5 115.5 L1498.5 115.5 L1498.5 115.5 " style="stroke:#33322E;fill:none;stroke-dasharray:none;stroke-width:3;"></path>
  <path d="M1496.5 117.1 L1498.5 115.5 L1496.5 113.9 L1500.5 115.5 Z" style="stroke:#33322E;fill:#33322E;stroke-dasharray:none;stroke-width:3;"></path>
  <path d="M1162.4 95.5 L1419.5 143.5 L1451.5 143.5 L1451.5 143.5 " style="stroke:#33322E;fill:none;stroke-dasharray:none;stroke-width:3;"></path>
  <path d="M1449.5 145.1 L1451.5 143.5 L1449.5 141.9 L1453.5 143.5 Z" style="stroke:#33322E;fill:#33322E;stroke-dasharray:none;stroke-width:3;"></path>
  <path d="M1148.1 95.5 L1419.5 171.5 L1512.5 171.5 L1512.5 171.5 " style="stroke:#33322E;fill:none;stroke-dasharray:none;stroke-width:3;"></path>
  <path d="M1510.5 173.1 L1512.5 171.5 L1510.5 169.9 L1514.5 171.5 Z" style="stroke:#33322E;fill:#33322E;stroke-dasharray:none;stroke-width:3;"></path>
  <path d="M1573.1 79.5 L1658.5 59.5 L1680 59.5 L1680 59.5 " style="stroke:#33322E;fill:none;stroke-dasharray:none;stroke-width:3;"></path>
  <path d="M1678 61.1 L1680 59.5 L1678 57.9 L1682 59.5 Z" style="stroke:#33322E;fill:#33322E;stroke-dasharray:none;stroke-width:3;"></path>
  <path d="M1812 59.5 L1835.5 59.5 L1839.5 59.5 L1839.5 59.5 " style="stroke:#33322E;fill:none;stroke-dasharray:none;stroke-width:3;"></path>
  <path d="M1837.5 61.1 L1839.5 59.5 L1837.5 57.9 L1841.5 59.5 Z" style="stroke:#33322E;fill:#33322E;stroke-dasharray:none;stroke-width:3;"></path>
  <path d="M1630.5 87.5 L1658.5 87.5 L1682.5 87.5 L1682.5 87.5 " style="stroke:#33322E;fill:none;stroke-dasharray:none;stroke-width:3;"></path>
  <path d="M1680.5 89.1 L1682.5 87.5 L1680.5 85.9 L1684.5 87.5 Z" style="stroke:#33322E;fill:#33322E;stroke-dasharray:none;stroke-width:3;"></path>
  <path d="M1140.9 95.5 L1419.5 199.5 L1494.5 199.5 L1494.5 199.5 " style="stroke:#33322E;fill:none;stroke-dasharray:none;stroke-width:3;"></path>
  <path d="M1492.5 201.1 L1494.5 199.5 L1492.5 197.9 L1496.5 199.5 Z" style="stroke:#33322E;fill:#33322E;stroke-dasharray:none;stroke-width:3;"></path>
  <path d="M1136.6 95.5 L1419.5 227.5 L1457.5 227.5 L1457.5 227.5 " style="stroke:#33322E;fill:none;stroke-dasharray:none;stroke-width:3;"></path>
  <path d="M1455.5 229.1 L1457.5 227.5 L1455.5 225.9 L1459.5 227.5 Z" style="stroke:#33322E;fill:#33322E;stroke-dasharray:none;stroke-width:3;"></path>
  <path d="M671.4 373.5 L819.5 129.5 L1005 129.5 L1005 129.5 " style="stroke:#33322E;fill:none;stroke-dasharray:none;stroke-width:3;"></path>
  <path d="M1003 131.1 L1005 129.5 L1003 127.9 L1007 129.5 Z" style="stroke:#33322E;fill:#33322E;stroke-dasharray:none;stroke-width:3;"></path>
  <path d="M354.5 382.1 L360.5 381.5 L372.5 381.5 L372.5 381.5 " style="stroke:#33322E;fill:none;stroke-dasharray:none;stroke-width:3;"></path>
  <path d="M370.5 383.1 L372.5 381.5 L370.5 379.9 L374.5 381.5 Z" style="stroke:#33322E;fill:#33322E;stroke-dasharray:none;stroke-width:3;"></path>
  <path d="M499.5 381.5 L513.5 381.5 L619 381.5 L619 381.5 " style="stroke:#33322E;fill:none;stroke-dasharray:none;stroke-width:3;"></path>
  <path d="M617 383.1 L619 381.5 L617 379.9 L621 381.5 Z" style="stroke:#33322E;fill:#33322E;stroke-dasharray:none;stroke-width:3;"></path>
  <path d="M672 373.5 L819.5 157.5 L1063 157.5 L1063 157.5 " style="stroke:#33322E;fill:none;stroke-dasharray:none;stroke-width:3;"></path>
  <path d="M1061 159.1 L1063 157.5 L1061 155.9 L1065 157.5 Z" style="stroke:#33322E;fill:#33322E;stroke-dasharray:none;stroke-width:3;"></path>
  <path d="M672.7 373.5 L819.5 185.5 L1060 185.5 L1060 185.5 " style="stroke:#33322E;fill:none;stroke-dasharray:none;stroke-width:3;"></path>
  <path d="M1058 187.1 L1060 185.5 L1058 183.9 L1062 185.5 Z" style="stroke:#33322E;fill:#33322E;stroke-dasharray:none;stroke-width:3;"></path>
  <path d="M673.8 373.5 L819.5 213.5 L1097.5 213.5 L1097.5 213.5 " style="stroke:#33322E;fill:none;stroke-dasharray:none;stroke-width:3;"></path>
  <path d="M1095.5 215.1 L1097.5 213.5 L1095.5 211.9 L1099.5 213.5 Z" style="stroke:#33322E;fill:#33322E;stroke-dasharray:none;stroke-width:3;"></path>
  <path d="M675.2 373.5 L819.5 241.5 L1037 241.5 L1037 241.5 " style="stroke:#33322E;fill:none;stroke-dasharray:none;stroke-width:3;"></path>
  <path d="M1035 243.1 L1037 241.5 L1035 239.9 L1039 241.5 Z" style="stroke:#33322E;fill:#33322E;stroke-dasharray:none;stroke-width:3;"></path>
  <path d="M677.4 373.5 L819.5 269.5 L1002 269.5 L1002 269.5 " style="stroke:#33322E;fill:none;stroke-dasharray:none;stroke-width:3;"></path>
  <path d="M1000 271.1 L1002 269.5 L1000 267.9 L1004 269.5 Z" style="stroke:#33322E;fill:#33322E;stroke-dasharray:none;stroke-width:3;"></path>
  <path d="M681.1 373.5 L819.5 297.5 L1090 297.5 L1090 297.5 " style="stroke:#33322E;fill:none;stroke-dasharray:none;stroke-width:3;"></path>
  <path d="M1088 299.1 L1090 297.5 L1088 295.9 L1092 297.5 Z" style="stroke:#33322E;fill:#33322E;stroke-dasharray:none;stroke-width:3;"></path>
  <path d="M1147 293.7 L1419.5 255.5 L1472.5 255.5 L1472.5 255.5 " style="stroke:#33322E;fill:none;stroke-dasharray:none;stroke-width:3;"></path>
  <path d="M1470.5 257.1 L1472.5 255.5 L1470.5 253.9 L1474.5 255.5 Z" style="stroke:#33322E;fill:#33322E;stroke-dasharray:none;stroke-width:3;"></path>
  <path d="M1147 298.8 L1419.5 311.5 L1477.5 311.5 L1477.5 311.5 " style="stroke:#33322E;fill:none;stroke-dasharray:none;stroke-width:3;"></path>
  <path d="M1475.5 313.1 L1477.5 311.5 L1475.5 309.9 L1479.5 311.5 Z" style="stroke:#33322E;fill:#33322E;stroke-dasharray:none;stroke-width:3;"></path>
  <path d="M688.4 373.5 L819.5 325.5 L1070 325.5 L1070 325.5 " style="stroke:#33322E;fill:none;stroke-dasharray:none;stroke-width:3;"></path>
  <path d="M1068 327.1 L1070 325.5 L1068 323.9 L1072 325.5 Z" style="stroke:#33322E;fill:#33322E;stroke-dasharray:none;stroke-width:3;"></path>
  <path d="M710.2 373.5 L819.5 353.5 L1032 353.5 L1032 353.5 " style="stroke:#33322E;fill:none;stroke-dasharray:none;stroke-width:3;"></path>
  <path d="M1030 355.1 L1032 353.5 L1030 351.9 L1034 353.5 Z" style="stroke:#33322E;fill:#33322E;stroke-dasharray:none;stroke-width:3;"></path>
  <path d="M1205 353.5 L1419.5 353.5 L1513.5 353.5 L1513.5 353.5 " style="stroke:#33322E;fill:none;stroke-dasharray:none;stroke-width:3;"></path>
  <path d="M1511.5 355.1 L1513.5 353.5 L1511.5 351.9 L1515.5 353.5 Z" style="stroke:#33322E;fill:#33322E;stroke-dasharray:none;stroke-width:3;"></path>
  <path d="M1545.2 345.5 L1658.5 199.5 L1699 199.5 L1699 199.5 " style="stroke:#33322E;fill:none;stroke-dasharray:none;stroke-width:3;"></path>
  <path d="M1697 201.1 L1699 199.5 L1697 197.9 L1701 199.5 Z" style="stroke:#33322E;fill:#33322E;stroke-dasharray:none;stroke-width:3;"></path>
  <path d="M1546.6 345.5 L1658.5 227.5 L1701 227.5 L1701 227.5 " style="stroke:#33322E;fill:none;stroke-dasharray:none;stroke-width:3;"></path>
  <path d="M1699 229.1 L1701 227.5 L1699 225.9 L1703 227.5 Z" style="stroke:#33322E;fill:#33322E;stroke-dasharray:none;stroke-width:3;"></path>
  <path d="M1548.8 345.5 L1658.5 255.5 L1709 255.5 L1709 255.5 " style="stroke:#33322E;fill:none;stroke-dasharray:none;stroke-width:3;"></path>
  <path d="M1707 257.1 L1709 255.5 L1707 253.9 L1711 255.5 Z" style="stroke:#33322E;fill:#33322E;stroke-dasharray:none;stroke-width:3;"></path>
  <path d="M1552.7 345.5 L1658.5 283.5 L1719.5 283.5 L1719.5 283.5 " style="stroke:#33322E;fill:none;stroke-dasharray:none;stroke-width:3;"></path>
  <path d="M1717.5 285.1 L1719.5 283.5 L1717.5 281.9 L1721.5 283.5 Z" style="stroke:#33322E;fill:#33322E;stroke-dasharray:none;stroke-width:3;"></path>
  <path d="M1562.5 359 L1658.5 381.5 L1722 381.5 L1722 381.5 " style="stroke:#33322E;fill:none;stroke-dasharray:none;stroke-width:3;"></path>
  <path d="M1720 383.1 L1722 381.5 L1720 379.9 L1724 381.5 Z" style="stroke:#33322E;fill:#33322E;stroke-dasharray:none;stroke-width:3;"></path>
  <path d="M1556.1 361.5 L1658.5 409.5 L1707 409.5 L1707 409.5 " style="stroke:#33322E;fill:none;stroke-dasharray:none;stroke-width:3;"></path>
  <path d="M1705 411.1 L1707 409.5 L1705 407.9 L1709 409.5 Z" style="stroke:#33322E;fill:#33322E;stroke-dasharray:none;stroke-width:3;"></path>
  <path d="M1550.4 361.5 L1658.5 437.5 L1707 437.5 L1707 437.5 " style="stroke:#33322E;fill:none;stroke-dasharray:none;stroke-width:3;"></path>
  <path d="M1705 439.1 L1707 437.5 L1705 435.9 L1709 437.5 Z" style="stroke:#33322E;fill:#33322E;stroke-dasharray:none;stroke-width:3;"></path>
  <path d="M1547.5 361.5 L1658.5 465.5 L1706.5 465.5 L1706.5 465.5 " style="stroke:#33322E;fill:none;stroke-dasharray:none;stroke-width:3;"></path>
  <path d="M1704.5 467.1 L1706.5 465.5 L1704.5 463.9 L1708.5 465.5 Z" style="stroke:#33322E;fill:#33322E;stroke-dasharray:none;stroke-width:3;"></path>
  <path d="M1545.8 361.5 L1658.5 493.5 L1693 493.5 L1693 493.5 " style="stroke:#33322E;fill:none;stroke-dasharray:none;stroke-width:3;"></path>
  <path d="M1691 495.1 L1693 493.5 L1691 491.9 L1695 493.5 Z" style="stroke:#33322E;fill:#33322E;stroke-dasharray:none;stroke-width:3;"></path>
  <path d="M1750.2 485.5 L1835.5 269.5 L1911 269.5 L1911 269.5 " style="stroke:#33322E;fill:none;stroke-dasharray:none;stroke-width:3;"></path>
  <path d="M1909 271.1 L1911 269.5 L1909 267.9 L1913 269.5 Z" style="stroke:#33322E;fill:#33322E;stroke-dasharray:none;stroke-width:3;"></path>
  <path d="M1799 493.5 L1835.5 493.5 L1892.5 493.5 L1892.5 493.5 " style="stroke:#33322E;fill:none;stroke-dasharray:none;stroke-width:3;"></path>
  <path d="M1890.5 495.1 L1892.5 493.5 L1890.5 491.9 L1894.5 493.5 Z" style="stroke:#33322E;fill:#33322E;stroke-dasharray:none;stroke-width:3;"></path>
  <path d="M1772.3 501.5 L1835.5 521.5 L1916 521.5 L1916 521.5 " style="stroke:#33322E;fill:none;stroke-dasharray:none;stroke-width:3;"></path>
  <path d="M1914 523.1 L1916 521.5 L1914 519.9 L1918 521.5 Z" style="stroke:#33322E;fill:#33322E;stroke-dasharray:none;stroke-width:3;"></path>
  <path d="M710.2 389.5 L819.5 409.5 L1032 409.5 L1032 409.5 " style="stroke:#33322E;fill:none;stroke-dasharray:none;stroke-width:3;"></path>
  <path d="M1030 411.1 L1032 409.5 L1030 407.9 L1034 409.5 Z" style="stroke:#33322E;fill:#33322E;stroke-dasharray:none;stroke-width:3;"></path>
  <path d="M1205 401.5 L1419.5 381.5 L1496.5 381.5 L1496.5 381.5 " style="stroke:#33322E;fill:none;stroke-dasharray:none;stroke-width:3;"></path>
  <path d="M1494.5 383.1 L1496.5 381.5 L1494.5 379.9 L1498.5 381.5 Z" style="stroke:#33322E;fill:#33322E;stroke-dasharray:none;stroke-width:3;"></path>
  <path d="M1205 409.5 L1419.5 409.5 L1486 409.5 L1486 409.5 " style="stroke:#33322E;fill:none;stroke-dasharray:none;stroke-width:3;"></path>
  <path d="M1484 411.1 L1486 409.5 L1484 407.9 L1488 409.5 Z" style="stroke:#33322E;fill:#33322E;stroke-dasharray:none;stroke-width:3;"></path>
  <path d="M274.5 461.5 L360.5 461.5 L411.5 461.5 L411.5 461.5 " style="stroke:#33322E;fill:none;stroke-dasharray:none;stroke-width:3;"></path>
  <path d="M409.5 463.1 L411.5 461.5 L409.5 459.9 L413.5 461.5 Z" style="stroke:#33322E;fill:#33322E;stroke-dasharray:none;stroke-width:3;"></path>
  <path d="M460.5 461.5 L513.5 461.5 L517.5 461.5 L517.5 461.5 " style="stroke:#33322E;fill:none;stroke-dasharray:none;stroke-width:3;"></path>
  <path d="M515.5 463.1 L517.5 461.5 L515.5 459.9 L519.5 461.5 Z" style="stroke:#33322E;fill:#33322E;stroke-dasharray:none;stroke-width:3;"></path>
  <path d="M1205 417.5 L1419.5 437.5 L1495 437.5 L1495 437.5 " style="stroke:#33322E;fill:none;stroke-dasharray:none;stroke-width:3;"></path>
  <path d="M1493 439.1 L1495 437.5 L1493 435.9 L1497 437.5 Z" style="stroke:#33322E;fill:#33322E;stroke-dasharray:none;stroke-width:3;"></path>
  <path d="M1550.4 95.5 L1658.5 171.5 L1662.5 171.5 L1662.5 171.5 " style="stroke:#33322E;fill:none;stroke-dasharray:none;stroke-width:3;"></path>
  <path d="M1660.5 173.1 L1662.5 171.5 L1660.5 169.9 L1664.5 171.5 Z" style="stroke:#33322E;fill:#33322E;stroke-dasharray:none;stroke-width:3;"></path>
  <path d="M1162.4 417.5 L1419.5 465.5 L1450.5 465.5 L1450.5 465.5 " style="stroke:#33322E;fill:none;stroke-dasharray:none;stroke-width:3;"></path>
  <path d="M1448.5 467.1 L1450.5 465.5 L1448.5 463.9 L1452.5 465.5 Z" style="stroke:#33322E;fill:#33322E;stroke-dasharray:none;stroke-width:3;"></path>
  <path d="M1148.1 417.5 L1419.5 493.5 L1430 493.5 L1430 493.5 " style="stroke:#33322E;fill:none;stroke-dasharray:none;stroke-width:3;"></path>
  <path d="M1428 495.1 L1430 493.5 L1428 491.9 L1432 493.5 Z" style="stroke:#33322E;fill:#33322E;stroke-dasharray:none;stroke-width:3;"></path>
  <path d="M688.4 389.5 L819.5 437.5 L997.5 437.5 L997.5 437.5 " style="stroke:#33322E;fill:none;stroke-dasharray:none;stroke-width:3;"></path>
  <path d="M995.5 439.1 L997.5 437.5 L995.5 435.9 L999.5 437.5 Z" style="stroke:#33322E;fill:#33322E;stroke-dasharray:none;stroke-width:3;"></path>
  <path d="M681.1 389.5 L819.5 465.5 L1018 465.5 L1018 465.5 " style="stroke:#33322E;fill:none;stroke-dasharray:none;stroke-width:3;"></path>
  <path d="M1016 467.1 L1018 465.5 L1016 463.9 L1020 465.5 Z" style="stroke:#33322E;fill:#33322E;stroke-dasharray:none;stroke-width:3;"></path>
  <path d="M677.4 389.5 L819.5 493.5 L881 493.5 L881 493.5 " style="stroke:#33322E;fill:none;stroke-dasharray:none;stroke-width:3;"></path>
  <path d="M879 495.1 L881 493.5 L879 491.9 L883 493.5 Z" style="stroke:#33322E;fill:#33322E;stroke-dasharray:none;stroke-width:3;"></path>
  <path d="M675.2 389.5 L819.5 521.5 L938 521.5 L938 521.5 " style="stroke:#33322E;fill:none;stroke-dasharray:none;stroke-width:3;"></path>
  <path d="M936 523.1 L938 521.5 L936 519.9 L940 521.5 Z" style="stroke:#33322E;fill:#33322E;stroke-dasharray:none;stroke-width:3;"></path>
  <path d="M673.8 389.5 L819.5 549.5 L823.5 549.5 L823.5 549.5 " style="stroke:#33322E;fill:none;stroke-dasharray:none;stroke-width:3;"></path>
  <path d="M821.5 551.1 L823.5 549.5 L821.5 547.9 L825.5 549.5 Z" style="stroke:#33322E;fill:#33322E;stroke-dasharray:none;stroke-width:3;"></path>
  <path d="M672.7 389.5 L819.5 577.5 L935.5 577.5 L935.5 577.5 " style="stroke:#33322E;fill:none;stroke-dasharray:none;stroke-width:3;"></path>
  <path d="M933.5 579.1 L935.5 577.5 L933.5 575.9 L937.5 577.5 Z" style="stroke:#33322E;fill:#33322E;stroke-dasharray:none;stroke-width:3;"></path>
  <path d="M672 389.5 L819.5 605.5 L861 605.5 L861 605.5 " style="stroke:#33322E;fill:none;stroke-dasharray:none;stroke-width:3;"></path>
  <path d="M859 607.1 L861 605.5 L859 603.9 L863 605.5 Z" style="stroke:#33322E;fill:#33322E;stroke-dasharray:none;stroke-width:3;"></path>
  <path d="M671.4 389.5 L819.5 633.5 L993 633.5 L993 633.5 " style="stroke:#33322E;fill:none;stroke-dasharray:none;stroke-width:3;"></path>
  <path d="M991 635.1 L993 633.5 L991 631.9 L995 633.5 Z" style="stroke:#33322E;fill:#33322E;stroke-dasharray:none;stroke-width:3;"></path>
  <path d="M354.5 416.9 L360.5 417.5 L366.5 417.5 L366.5 417.5 " style="stroke:#33322E;fill:none;stroke-dasharray:none;stroke-width:3;"></path>
  <rect x="23.5" y="367.5" height="64" width="331" data-name="V-Sekai" style="stroke:#33322E;fill:#eee8d5;stroke-dasharray:none;stroke-width:3;"></rect>
  <path d="M23.5 383.5 L354.5 383.5" data-name="V-Sekai" style="stroke:#33322E;fill:none;stroke-dasharray:none;stroke-width:3;"></path>
  <path d="M23.5 399.5 L354.5 399.5" data-name="V-Sekai" style="stroke:#33322E;fill:none;stroke-dasharray:none;stroke-width:3;"></path>
  <path d="M23.5 415.5 L354.5 415.5" data-name="V-Sekai" style="stroke:#33322E;fill:none;stroke-dasharray:none;stroke-width:3;"></path>
  <text x="189" y="379.5" style="fill: #33322E;font:bold  8pt Helvetica, Helvetica, sans-serif;text-anchor: middle;" data-name="V-Sekai">V-Sekai</text>
  <text x="26.5" y="395.5" style="fill: #33322E;font:normal  8pt Helvetica, Helvetica, sans-serif;" data-name="V-Sekai">Players want to define the virtual worlds.</text>
  <text x="26.5" y="411.5" style="fill: #33322E;font:normal  8pt Helvetica, Helvetica, sans-serif;" data-name="V-Sekai">V-Sekai https://v-sekai.org/</text>
  <text x="26.5" y="427.5" style="fill: #33322E;font:normal  8pt Helvetica, Helvetica, sans-serif;" data-name="V-Sekai">Players can&apos;t make their own virtual worlds because it is hard.</text>
  <rect x="366.5" y="401.5" height="32" width="141" data-name="Last changed datetime" style="stroke:#33322E;fill:#eee8d5;stroke-dasharray:none;stroke-width:3;"></rect>
  <path d="M366.5 417.5 L507.5 417.5" data-name="Last changed datetime" style="stroke:#33322E;fill:none;stroke-dasharray:none;stroke-width:3;"></path>
  <text x="437" y="413.5" style="fill: #33322E;font:bold  8pt Helvetica, Helvetica, sans-serif;text-anchor: middle;" data-name="Last changed datetime">Last changed datetime</text>
  <text x="369.5" y="429.5" style="fill: #33322E;font:normal  8pt Helvetica, Helvetica, sans-serif;" data-name="Last changed datetime">2022-02-11T11:11+00:00</text>
  <rect x="621.5" y="373.5" height="16" width="91" data-name="Become avatars" style="stroke:#33322E;fill:#eee8d5;stroke-dasharray:none;stroke-width:3;"></rect>
  <text x="667" y="385.5" style="fill: #33322E;font:bold  8pt Helvetica, Helvetica, sans-serif;text-anchor: middle;" data-name="Become avatars">Become avatars</text>
  <rect x="1051.5" y="79.5" height="16" width="137" data-name="Godot world live creation" style="stroke:#33322E;fill:#eee8d5;stroke-dasharray:none;stroke-width:3;"></rect>
  <text x="1120" y="91.5" style="fill: #33322E;font:bold  8pt Helvetica, Helvetica, sans-serif;text-anchor: middle;" data-name="Godot world live creation">Godot world live creation</text>
  <rect x="1491.5" y="23.5" height="16" width="96" data-name="Imported physics" style="stroke:#33322E;fill:#eee8d5;stroke-dasharray:none;stroke-width:3;"></rect>
  <text x="1539.5" y="35.5" style="fill: #33322E;font:bold  8pt Helvetica, Helvetica, sans-serif;text-anchor: middle;" data-name="Imported physics">Imported physics</text>
  <rect x="1425.5" y="51.5" height="16" width="227" data-name="Place prexisting blocks with blockmeshing" style="stroke:#33322E;fill:#eee8d5;stroke-dasharray:none;stroke-width:3;"></rect>
  <text x="1539" y="63.5" style="fill: #33322E;font:bold  8pt Helvetica, Helvetica, sans-serif;text-anchor: middle;" data-name="Place prexisting blocks with blockmeshing">Place prexisting blocks with blockmeshing</text>
  <rect x="1447.5" y="79.5" height="16" width="183" data-name="Create Godot world creation tools" style="stroke:#33322E;fill:#eee8d5;stroke-dasharray:none;stroke-width:3;"></rect>
  <text x="1539" y="91.5" style="fill: #33322E;font:bold  8pt Helvetica, Helvetica, sans-serif;text-anchor: middle;" data-name="Create Godot world creation tools">Create Godot world creation tools</text>
  <rect x="1500.5" y="107.5" height="16" width="77" data-name="Place scenes" style="stroke:#33322E;fill:#eee8d5;stroke-dasharray:none;stroke-width:3;"></rect>
  <text x="1539" y="119.5" style="fill: #33322E;font:bold  8pt Helvetica, Helvetica, sans-serif;text-anchor: middle;" data-name="Place scenes">Place scenes</text>
  <rect x="1453.5" y="135.5" height="16" width="171" data-name="Construct layers collaboratively" style="stroke:#33322E;fill:#eee8d5;stroke-dasharray:none;stroke-width:3;"></rect>
  <text x="1539" y="147.5" style="fill: #33322E;font:bold  8pt Helvetica, Helvetica, sans-serif;text-anchor: middle;" data-name="Construct layers collaboratively">Construct layers collaboratively</text>
  <rect x="1514.5" y="163.5" height="16" width="49" data-name="Painting" style="stroke:#33322E;fill:#eee8d5;stroke-dasharray:none;stroke-width:3;"></rect>
  <text x="1539" y="175.5" style="fill: #33322E;font:bold  8pt Helvetica, Helvetica, sans-serif;text-anchor: middle;" data-name="Painting">Painting</text>
  <rect x="1682.5" y="51.5" height="16" width="130" data-name="3D models with CASSIE" style="stroke:#33322E;fill:#eee8d5;stroke-dasharray:none;stroke-width:3;"></rect>
  <text x="1747.5" y="63.5" style="fill: #33322E;font:bold  8pt Helvetica, Helvetica, sans-serif;text-anchor: middle;" data-name="3D models with CASSIE">3D models with CASSIE</text>
  <rect x="1841.5" y="51.5" height="16" width="190" data-name="Make cassie commercial remixable" style="stroke:#33322E;fill:#eee8d5;stroke-dasharray:none;stroke-width:3;"></rect>
  <text x="1936.5" y="63.5" style="fill: #33322E;font:bold  8pt Helvetica, Helvetica, sans-serif;text-anchor: middle;" data-name="Make cassie commercial remixable">Make cassie commercial remixable</text>
  <rect x="1684.5" y="79.5" height="16" width="125" data-name="Painting with MaterialX" style="stroke:#33322E;fill:#eee8d5;stroke-dasharray:none;stroke-width:3;"></rect>
  <text x="1747" y="91.5" style="fill: #33322E;font:bold  8pt Helvetica, Helvetica, sans-serif;text-anchor: middle;" data-name="Painting with MaterialX">Painting with MaterialX</text>
  <rect x="1496.5" y="191.5" height="16" width="85" data-name="Jeana usability" style="stroke:#33322E;fill:#eee8d5;stroke-dasharray:none;stroke-width:3;"></rect>
  <text x="1539" y="203.5" style="fill: #33322E;font:bold  8pt Helvetica, Helvetica, sans-serif;text-anchor: middle;" data-name="Jeana usability">Jeana usability</text>
  <rect x="1459.5" y="219.5" height="16" width="159" data-name="VFX (Particles, shaders, Sky)" style="stroke:#33322E;fill:#eee8d5;stroke-dasharray:none;stroke-width:3;"></rect>
  <text x="1539" y="231.5" style="fill: #33322E;font:bold  8pt Helvetica, Helvetica, sans-serif;text-anchor: middle;" data-name="VFX (Particles, shaders, Sky)">VFX (Particles, shaders, Sky)</text>
  <rect x="1007.5" y="121.5" height="16" width="225" data-name="Advanced avatar (shader, IK, animations)" style="stroke:#33322E;fill:#eee8d5;stroke-dasharray:none;stroke-width:3;"></rect>
  <text x="1120" y="133.5" style="fill: #33322E;font:bold  8pt Helvetica, Helvetica, sans-serif;text-anchor: middle;" data-name="Advanced avatar (shader, IK, animations)">Advanced avatar (shader, IK, animations)</text>
  <rect x="374.5" y="373.5" height="16" width="125" data-name="Skeleton modifications" style="stroke:#33322E;fill:#eee8d5;stroke-dasharray:none;stroke-width:3;"></rect>
  <text x="437" y="385.5" style="fill: #33322E;font:bold  8pt Helvetica, Helvetica, sans-serif;text-anchor: middle;" data-name="Skeleton modifications">Skeleton modifications</text>
  <rect x="1065.5" y="149.5" height="16" width="109" data-name="Vocal communicate" style="stroke:#33322E;fill:#eee8d5;stroke-dasharray:none;stroke-width:3;"></rect>
  <text x="1120" y="161.5" style="fill: #33322E;font:bold  8pt Helvetica, Helvetica, sans-serif;text-anchor: middle;" data-name="Vocal communicate">Vocal communicate</text>
  <rect x="1062.5" y="177.5" height="16" width="115" data-name="Motion communicate" style="stroke:#33322E;fill:#eee8d5;stroke-dasharray:none;stroke-width:3;"></rect>
  <text x="1120" y="189.5" style="fill: #33322E;font:bold  8pt Helvetica, Helvetica, sans-serif;text-anchor: middle;" data-name="Motion communicate">Motion communicate</text>
  <rect x="1099.5" y="205.5" height="16" width="40" data-name="Dance" style="stroke:#33322E;fill:#eee8d5;stroke-dasharray:none;stroke-width:3;"></rect>
  <text x="1119.5" y="217.5" style="fill: #33322E;font:bold  8pt Helvetica, Helvetica, sans-serif;text-anchor: middle;" data-name="Dance">Dance</text>
  <rect x="1039.5" y="233.5" height="16" width="161" data-name="Godot speech comms system" style="stroke:#33322E;fill:#eee8d5;stroke-dasharray:none;stroke-width:3;"></rect>
  <text x="1120" y="245.5" style="fill: #33322E;font:bold  8pt Helvetica, Helvetica, sans-serif;text-anchor: middle;" data-name="Godot speech comms system">Godot speech comms system</text>
  <rect x="1004.5" y="261.5" height="16" width="231" data-name="Virtual reality 6 degree of freedom tracking" style="stroke:#33322E;fill:#eee8d5;stroke-dasharray:none;stroke-width:3;"></rect>
  <text x="1120" y="273.5" style="fill: #33322E;font:bold  8pt Helvetica, Helvetica, sans-serif;text-anchor: middle;" data-name="Virtual reality 6 degree of freedom tracking">Virtual reality 6 degree of freedom tracking</text>
  <rect x="1092.5" y="289.5" height="16" width="55" data-name="Following" style="stroke:#33322E;fill:#eee8d5;stroke-dasharray:none;stroke-width:3;"></rect>
  <text x="1120" y="301.5" style="fill: #33322E;font:bold  8pt Helvetica, Helvetica, sans-serif;text-anchor: middle;" data-name="Following">Following</text>
  <rect x="1474.5" y="247.5" height="16" width="129" data-name="Double-sided friending." style="stroke:#33322E;fill:#eee8d5;stroke-dasharray:none;stroke-width:3;"></rect>
  <text x="1539" y="259.5" style="fill: #33322E;font:bold  8pt Helvetica, Helvetica, sans-serif;text-anchor: middle;" data-name="Double-sided friending.">Double-sided friending.</text>
  <rect x="1479.5" y="303.5" height="16" width="119" data-name="Discover new friends." style="stroke:#33322E;fill:#eee8d5;stroke-dasharray:none;stroke-width:3;"></rect>
  <text x="1539" y="315.5" style="fill: #33322E;font:bold  8pt Helvetica, Helvetica, sans-serif;text-anchor: middle;" data-name="Discover new friends.">Discover new friends.</text>
  <rect x="1072.5" y="317.5" height="16" width="95" data-name="Locomotion (flat)" style="stroke:#33322E;fill:#eee8d5;stroke-dasharray:none;stroke-width:3;"></rect>
  <text x="1120" y="329.5" style="fill: #33322E;font:bold  8pt Helvetica, Helvetica, sans-serif;text-anchor: middle;" data-name="Locomotion (flat)">Locomotion (flat)</text>
  <rect x="1034.5" y="345.5" height="16" width="171" data-name="Virtual reality motion movement" style="stroke:#33322E;fill:#eee8d5;stroke-dasharray:none;stroke-width:3;"></rect>
  <text x="1120" y="357.5" style="fill: #33322E;font:bold  8pt Helvetica, Helvetica, sans-serif;text-anchor: middle;" data-name="Virtual reality motion movement">Virtual reality motion movement</text>
  <rect x="1515.5" y="345.5" height="16" width="47" data-name="Pickups" style="stroke:#33322E;fill:#eee8d5;stroke-dasharray:none;stroke-width:3;"></rect>
  <text x="1539" y="357.5" style="fill: #33322E;font:bold  8pt Helvetica, Helvetica, sans-serif;text-anchor: middle;" data-name="Pickups">Pickups</text>
  <rect x="1701.5" y="191.5" height="16" width="92" data-name="Wasgo Scripting" style="stroke:#33322E;fill:#eee8d5;stroke-dasharray:none;stroke-width:3;"></rect>
  <text x="1747.5" y="203.5" style="fill: #33322E;font:bold  8pt Helvetica, Helvetica, sans-serif;text-anchor: middle;" data-name="Wasgo Scripting">Wasgo Scripting</text>
  <rect x="1703.5" y="219.5" height="16" width="88" data-name="In-game menus" style="stroke:#33322E;fill:#eee8d5;stroke-dasharray:none;stroke-width:3;"></rect>
  <text x="1747.5" y="231.5" style="fill: #33322E;font:bold  8pt Helvetica, Helvetica, sans-serif;text-anchor: middle;" data-name="In-game menus">In-game menus</text>
  <rect x="1711.5" y="247.5" height="16" width="72" data-name="Video player" style="stroke:#33322E;fill:#eee8d5;stroke-dasharray:none;stroke-width:3;"></rect>
  <text x="1747.5" y="259.5" style="fill: #33322E;font:bold  8pt Helvetica, Helvetica, sans-serif;text-anchor: middle;" data-name="Video player">Video player</text>
  <rect x="1721.5" y="275.5" height="16" width="51" data-name="Vehicles" style="stroke:#33322E;fill:#eee8d5;stroke-dasharray:none;stroke-width:3;"></rect>
  <text x="1747" y="287.5" style="fill: #33322E;font:bold  8pt Helvetica, Helvetica, sans-serif;text-anchor: middle;" data-name="Vehicles">Vehicles</text>
  <rect x="1724.5" y="373.5" height="16" width="46" data-name="Buttons" style="stroke:#33322E;fill:#eee8d5;stroke-dasharray:none;stroke-width:3;"></rect>
  <text x="1747.5" y="385.5" style="fill: #33322E;font:bold  8pt Helvetica, Helvetica, sans-serif;text-anchor: middle;" data-name="Buttons">Buttons</text>
  <rect x="1709.5" y="401.5" height="16" width="76" data-name="Avatar switch" style="stroke:#33322E;fill:#eee8d5;stroke-dasharray:none;stroke-width:3;"></rect>
  <text x="1747.5" y="413.5" style="fill: #33322E;font:bold  8pt Helvetica, Helvetica, sans-serif;text-anchor: middle;" data-name="Avatar switch">Avatar switch</text>
  <rect x="1709.5" y="429.5" height="16" width="76" data-name="World portals" style="stroke:#33322E;fill:#eee8d5;stroke-dasharray:none;stroke-width:3;"></rect>
  <text x="1747.5" y="441.5" style="fill: #33322E;font:bold  8pt Helvetica, Helvetica, sans-serif;text-anchor: middle;" data-name="World portals">World portals</text>
  <rect x="1708.5" y="457.5" height="16" width="77" data-name="Server switch" style="stroke:#33322E;fill:#eee8d5;stroke-dasharray:none;stroke-width:3;"></rect>
  <text x="1747" y="469.5" style="fill: #33322E;font:bold  8pt Helvetica, Helvetica, sans-serif;text-anchor: middle;" data-name="Server switch">Server switch</text>
  <rect x="1695.5" y="485.5" height="16" width="104" data-name="Player interactions" style="stroke:#33322E;fill:#eee8d5;stroke-dasharray:none;stroke-width:3;"></rect>
  <text x="1747.5" y="497.5" style="fill: #33322E;font:bold  8pt Helvetica, Helvetica, sans-serif;text-anchor: middle;" data-name="Player interactions">Player interactions</text>
  <rect x="1913.5" y="261.5" height="16" width="47" data-name="Camera" style="stroke:#33322E;fill:#eee8d5;stroke-dasharray:none;stroke-width:3;"></rect>
  <text x="1937" y="273.5" style="fill: #33322E;font:bold  8pt Helvetica, Helvetica, sans-serif;text-anchor: middle;" data-name="Camera">Camera</text>
  <rect x="1894.5" y="485.5" height="16" width="84" data-name="Bow and arrow" style="stroke:#33322E;fill:#eee8d5;stroke-dasharray:none;stroke-width:3;"></rect>
  <text x="1936.5" y="497.5" style="fill: #33322E;font:bold  8pt Helvetica, Helvetica, sans-serif;text-anchor: middle;" data-name="Bow and arrow">Bow and arrow</text>
  <rect x="1918.5" y="513.5" height="16" width="37" data-name="Mirror" style="stroke:#33322E;fill:#eee8d5;stroke-dasharray:none;stroke-width:3;"></rect>
  <text x="1937" y="525.5" style="fill: #33322E;font:bold  8pt Helvetica, Helvetica, sans-serif;text-anchor: middle;" data-name="Mirror">Mirror</text>
  <rect x="1034.5" y="401.5" height="16" width="171" data-name="Platform host Uro Infrastructure" style="stroke:#33322E;fill:#eee8d5;stroke-dasharray:none;stroke-width:3;"></rect>
  <text x="1120" y="413.5" style="fill: #33322E;font:bold  8pt Helvetica, Helvetica, sans-serif;text-anchor: middle;" data-name="Platform host Uro Infrastructure">Platform host Uro Infrastructure</text>
  <rect x="1498.5" y="373.5" height="16" width="81" data-name="Federation list" style="stroke:#33322E;fill:#eee8d5;stroke-dasharray:none;stroke-width:3;"></rect>
  <text x="1539" y="385.5" style="fill: #33322E;font:bold  8pt Helvetica, Helvetica, sans-serif;text-anchor: middle;" data-name="Federation list">Federation list</text>
  <rect x="1488.5" y="401.5" height="16" width="102" data-name="Delegated Identity" style="stroke:#33322E;fill:#eee8d5;stroke-dasharray:none;stroke-width:3;"></rect>
  <text x="1539.5" y="413.5" style="fill: #33322E;font:bold  8pt Helvetica, Helvetica, sans-serif;text-anchor: middle;" data-name="Delegated Identity">Delegated Identity</text>
  <rect x="103.5" y="453.5" height="16" width="171" data-name="platform host Uro Infrastructure" style="stroke:#33322E;fill:#eee8d5;stroke-dasharray:none;stroke-width:3;"></rect>
  <text x="189" y="465.5" style="fill: #33322E;font:bold  8pt Helvetica, Helvetica, sans-serif;text-anchor: middle;" data-name="platform host Uro Infrastructure">platform host Uro Infrastructure</text>
  <rect x="413.5" y="453.5" height="16" width="47" data-name="Content" style="stroke:#33322E;fill:#eee8d5;stroke-dasharray:none;stroke-width:3;"></rect>
  <text x="437" y="465.5" style="fill: #33322E;font:bold  8pt Helvetica, Helvetica, sans-serif;text-anchor: middle;" data-name="Content">Content</text>
  <rect x="519.5" y="453.5" height="16" width="294" data-name="Refuse to attest content because scripting is untrusted" style="stroke:#33322E;fill:#eee8d5;stroke-dasharray:none;stroke-width:3;"></rect>
  <text x="666.5" y="465.5" style="fill: #33322E;font:bold  8pt Helvetica, Helvetica, sans-serif;text-anchor: middle;" data-name="Refuse to attest content because scripting is untrusted">Refuse to attest content because scripting is untrusted</text>
  <rect x="1497.5" y="429.5" height="16" width="84" data-name="Deployment kit" style="stroke:#33322E;fill:#eee8d5;stroke-dasharray:none;stroke-width:3;"></rect>
  <text x="1539.5" y="441.5" style="fill: #33322E;font:bold  8pt Helvetica, Helvetica, sans-serif;text-anchor: middle;" data-name="Deployment kit">Deployment kit</text>
  <rect x="1664.5" y="163.5" height="16" width="165" data-name="Upgrade PLY to Godot Engine" style="stroke:#33322E;fill:#eee8d5;stroke-dasharray:none;stroke-width:3;"></rect>
  <text x="1747" y="175.5" style="fill: #33322E;font:bold  8pt Helvetica, Helvetica, sans-serif;text-anchor: middle;" data-name="Upgrade PLY to Godot Engine">Upgrade PLY to Godot Engine</text>
  <rect x="1452.5" y="457.5" height="16" width="173" data-name="Launch uro using Elixir Desktop" style="stroke:#33322E;fill:#eee8d5;stroke-dasharray:none;stroke-width:3;"></rect>
  <text x="1539" y="469.5" style="fill: #33322E;font:bold  8pt Helvetica, Helvetica, sans-serif;text-anchor: middle;" data-name="Launch uro using Elixir Desktop">Launch uro using Elixir Desktop</text>
  <rect x="1432.5" y="485.5" height="16" width="214" data-name="Make TrueNas Scale run V-Sekai mirror" style="stroke:#33322E;fill:#eee8d5;stroke-dasharray:none;stroke-width:3;"></rect>
  <text x="1539.5" y="497.5" style="fill: #33322E;font:bold  8pt Helvetica, Helvetica, sans-serif;text-anchor: middle;" data-name="Make TrueNas Scale run V-Sekai mirror">Make TrueNas Scale run V-Sekai mirror</text>
  <rect x="999.5" y="429.5" height="16" width="240" data-name="How do we animate the character? VRM1 rig" style="stroke:#33322E;fill:#eee8d5;stroke-dasharray:none;stroke-width:3;"></rect>
  <text x="1119.5" y="441.5" style="fill: #33322E;font:bold  8pt Helvetica, Helvetica, sans-serif;text-anchor: middle;" data-name="How do we animate the character? VRM1 rig">How do we animate the character? VRM1 rig</text>
  <rect x="1020.5" y="457.5" height="16" width="199" data-name="How do we retarget to the VRM1 rig?" style="stroke:#33322E;fill:#eee8d5;stroke-dasharray:none;stroke-width:3;"></rect>
  <text x="1120" y="469.5" style="fill: #33322E;font:bold  8pt Helvetica, Helvetica, sans-serif;text-anchor: middle;" data-name="How do we retarget to the VRM1 rig?">How do we retarget to the VRM1 rig?</text>
  <rect x="883.5" y="485.5" height="16" width="473" data-name="How do we mocapture the face rig? Support mapping every single possible standard rig?" style="stroke:#33322E;fill:#eee8d5;stroke-dasharray:none;stroke-width:3;"></rect>
  <text x="1120" y="497.5" style="fill: #33322E;font:bold  8pt Helvetica, Helvetica, sans-serif;text-anchor: middle;" data-name="How do we mocapture the face rig? Support mapping every single possible standard rig?">How do we mocapture the face rig? Support mapping every single possible standard rig?</text>
  <rect x="940.5" y="513.5" height="16" width="359" data-name="How do we make the face rig fast? Blend shape baking to skeletals" style="stroke:#33322E;fill:#eee8d5;stroke-dasharray:none;stroke-width:3;"></rect>
  <text x="1120" y="525.5" style="fill: #33322E;font:bold  8pt Helvetica, Helvetica, sans-serif;text-anchor: middle;" data-name="How do we make the face rig fast? Blend shape baking to skeletals">How do we make the face rig fast? Blend shape baking to skeletals</text>
  <rect x="825.5" y="541.5" height="16" width="588" data-name="How do we create the standard animation set? Want to be better than the status quo of mixamo animation sets" style="stroke:#33322E;fill:#eee8d5;stroke-dasharray:none;stroke-width:3;"></rect>
  <text x="1119.5" y="553.5" style="fill: #33322E;font:bold  8pt Helvetica, Helvetica, sans-serif;text-anchor: middle;" data-name="How do we create the standard animation set? Want to be better than the status quo of mixamo animation sets">How do we create the standard animation set? Want to be better than the status quo of mixamo animation sets</text>
  <rect x="937.5" y="569.5" height="16" width="364" data-name="How do we interact with objects? Pickup animation is stored on prop" style="stroke:#33322E;fill:#eee8d5;stroke-dasharray:none;stroke-width:3;"></rect>
  <text x="1119.5" y="581.5" style="fill: #33322E;font:bold  8pt Helvetica, Helvetica, sans-serif;text-anchor: middle;" data-name="How do we interact with objects? Pickup animation is stored on prop">How do we interact with objects? Pickup animation is stored on prop</text>
  <rect x="863.5" y="597.5" height="16" width="513" data-name="How do we have more diverse characters? Marketplace? Proceduralism? Character generators?" style="stroke:#33322E;fill:#eee8d5;stroke-dasharray:none;stroke-width:3;"></rect>
  <text x="1120" y="609.5" style="fill: #33322E;font:bold  8pt Helvetica, Helvetica, sans-serif;text-anchor: middle;" data-name="How do we have more diverse characters? Marketplace? Proceduralism? Character generators?">How do we have more diverse characters? Marketplace? Proceduralism? Character generators?</text>
  <rect x="995.5" y="625.5" height="16" width="249" data-name="How we turn our voice to facial rig keyframes?" style="stroke:#33322E;fill:#eee8d5;stroke-dasharray:none;stroke-width:3;"></rect>
  <text x="1120" y="637.5" style="fill: #33322E;font:bold  8pt Helvetica, Helvetica, sans-serif;text-anchor: middle;" data-name="How we turn our voice to facial rig keyframes?">How we turn our voice to facial rig keyframes?</text>
</svg>