<svg version="1.1" baseProfile="full" width="2004" height="720" viewbox="0 0 2004 720" xmlns="http://www.w3.org/2000/svg" xmlns:xlink="http://www.w3.org/1999/xlink" xmlns:ev="http://www.w3.org/2001/xml-events" style="font:bold  8pt Helvetica, Helvetica, sans-serif;;stroke-linejoin:round;stroke-linecap:round">
  <title >Players want to define their own virtual worlds, but they can&amp;apos;t because making their own virtual worlds is hard.</title>
  <desc >#title: Players want to define their own virtual worlds, but they can&amp;apos;t because making their own virtual worlds is hard.
#fontSize: 8
#spacing: 12
#padding: 3
#direction: right

[V-Sekai| Players want to define the virtual worlds. | V-Sekai https://v-sekai.org/ |
Players can&apos;t make their own virtual worlds because it is hard.]
[&lt;table&gt; Become avatars] -&gt; [Godot world live creation]
[Godot world live creation] -&gt;  [Imported physics]
[Godot world live creation] -&gt; [Place prexisting blocks with blockmeshing  ]
[Godot world live creation]-&gt; [&lt;table&gt; Create Godot world creation tools ]
[Godot world live creation]-&gt; [Place scenes ]
[Godot world live creation]-&gt; [Construct layers collaboratively ]
[Godot world live creation]-&gt; [Painting  ]
[Godot world live creation]-&gt; [&lt;table&gt; Create Godot world creation tools]
[&lt;table&gt; Create Godot world creation tools ] -&gt;  [3D models with CASSIE ]
[3D models with CASSIE ]-&gt; [make cassie commercial remixable]
[&lt;table&gt; Create Godot world creation tools ] -&gt; [Painting with MaterialX ]
[Godot world live creation] -&gt; [ Jeana usability]
[Godot world live creation] -&gt; [VFX (Particles, shaders, Sky)]
[&lt;table&gt; Become avatars] -&gt; [Advanced avatar (shader, IK, animations)]
[V-Sekai]-&gt;  [Skeleton modifications ]
[Skeleton modifications ] -&gt; [&lt;table&gt; Become avatars]
[&lt;table&gt; Become avatars] -&gt; [Vocal communicate]
[&lt;table&gt; Become avatars] -&gt; [Motion communicate]
[&lt;table&gt; Become avatars] -&gt; [Dance]

[&lt;table&gt; Become avatars] -&gt; [Godot speech comms system] 
[&lt;table&gt; Become avatars] -&gt; [Virtual reality 6 degree of freedom tracking ]

[&lt;table&gt; Become avatars]-&gt;[&lt;table&gt; Following  ]
[&lt;table&gt; Following] -&gt; [Double-sided friending. ]
[&lt;table&gt; Following] -&gt; [Discover new friends. ]

[&lt;table&gt; Become avatars] -&gt; [Locomotion (flat)]
[&lt;tsable&gt; Become avatars] -&gt; [Virtual reality motion movement]

[Virtual reality motion movement] -&gt; [Pickups]
[Pickups]-&gt; [Wasgo Scripting  ]
[Pickups]-&gt; [In-game menus  ]
[Pickups]-&gt; [Video player ]

[Pickups]-&gt;[Vehicles ]
[Pickups]-&gt;[Buttons]

[Pickups]-&gt;[&lt;table&gt; Avatar switch ]
[Pickups]-&gt;[World portals ]
[Pickups]-&gt;[Server switch ]

[Pickups]-&gt;[&lt;table&gt; Player interactions ]
[&lt;table&gt; Player interactions] -&gt; [Camera ]
[&lt;table&gt; Player interactions] -&gt; [Bow and arrow ]
[&lt;table&gt; Player interactions] -&gt; [Mirror ]

[V-Sekai]-&gt;[&lt;table&gt; platform host Uro Infrastructure]
[&lt;table&gt; platform host Uro Infrastructure] -&gt; [ Federation list ]
[&lt;table&gt; platform host Uro Infrastructure] -&gt; [ Delegated Identity ]

[&lt;table&gt; platform host Uro Infrastructure ]-&gt;[&lt;table&gt; Content]
[&lt;table&gt; Content ]-&gt; [Refuse to attest content because scripting is untrusted ]

[&lt;table&gt; platform host Uro Infrastructure]-&gt;[&lt;table&gt; Deployment kit ] 

[&lt;table&gt; Create Godot world creation tools ] -&gt; [&lt;table&gt; Upgrade PLY to Godot Engine]

[&lt;table&gt; platform host Uro Infrastructure]  -&gt; [&lt;table&gt; Launch uro using Elixir Desktop]

[&lt;table&gt; platform host Uro Infrastructure] -&gt; [&lt;table&gt; Make TrueNas Scale run V-Sekai mirror]

[&lt;table&gt; Become avatars] -&gt; [How do we animate the character? VRM1 rig]
[&lt;table&gt; Become avatars] -&gt; [How do we retarget to the VRM1 rig?]
[&lt;table&gt; Become avatars] -&gt; [How do we mocapture the face rig? Support mapping every single possible standard rig?]
[&lt;table&gt; Become avatars] -&gt; [How do we make the face rig fast? Blend shape baking to skeletals]
[&lt;table&gt; Become avatars] -&gt; [How do we create the standard animation set? Want to be better than the status quo of mixamo animation sets]
[&lt;table&gt; Become avatars] -&gt; [How do we interact with objects? Pickup animation is stored on prop]
[&lt;table&gt; Become avatars] -&gt; [How do we have more diverse characters? Marketplace? Proceduralism? Character generators?]
[&lt;table&gt; Become avatars] -&gt; [How we turn our voice to facial rig keyframes?]

[V-Sekai] - [Last changed datetime|2022-02-09T19:47+00:00]
</desc>
  <rect x="0" y="0" height="720" width="2004" style="stroke:none; fill:transparent;"></rect>
  <path d="M659.7 359.5 L769.5 87.5 L999 87.5 L999 87.5 " style="stroke:#33322E;fill:none;stroke-dasharray:none;stroke-width:3;"></path>
  <path d="M997 89.1 L999 87.5 L997 85.9 L1001 87.5 Z" style="stroke:#33322E;fill:#33322E;stroke-dasharray:none;stroke-width:3;"></path>
  <path d="M1112.4 79.5 L1369.5 31.5 L1439 31.5 L1439 31.5 " style="stroke:#33322E;fill:none;stroke-dasharray:none;stroke-width:3;"></path>
  <path d="M1437 33.1 L1439 31.5 L1437 29.9 L1441 31.5 Z" style="stroke:#33322E;fill:#33322E;stroke-dasharray:none;stroke-width:3;"></path>
  <path d="M1138 81.1 L1369.5 59.5 L1373.5 59.5 L1373.5 59.5 " style="stroke:#33322E;fill:none;stroke-dasharray:none;stroke-width:3;"></path>
  <path d="M1371.5 61.1 L1373.5 59.5 L1371.5 57.9 L1375.5 59.5 Z" style="stroke:#33322E;fill:#33322E;stroke-dasharray:none;stroke-width:3;"></path>
  <path d="M1138 87.5 L1369.5 87.5 L1395.5 87.5 L1395.5 87.5 " style="stroke:#33322E;fill:none;stroke-dasharray:none;stroke-width:3;"></path>
  <path d="M1393.5 89.1 L1395.5 87.5 L1393.5 85.9 L1397.5 87.5 Z" style="stroke:#33322E;fill:#33322E;stroke-dasharray:none;stroke-width:3;"></path>
  <path d="M1138 93.9 L1369.5 115.5 L1448.5 115.5 L1448.5 115.5 " style="stroke:#33322E;fill:none;stroke-dasharray:none;stroke-width:3;"></path>
  <path d="M1446.5 117.1 L1448.5 115.5 L1446.5 113.9 L1450.5 115.5 Z" style="stroke:#33322E;fill:#33322E;stroke-dasharray:none;stroke-width:3;"></path>
  <path d="M1112.4 95.5 L1369.5 143.5 L1401.5 143.5 L1401.5 143.5 " style="stroke:#33322E;fill:none;stroke-dasharray:none;stroke-width:3;"></path>
  <path d="M1399.5 145.1 L1401.5 143.5 L1399.5 141.9 L1403.5 143.5 Z" style="stroke:#33322E;fill:#33322E;stroke-dasharray:none;stroke-width:3;"></path>
  <path d="M1098.1 95.5 L1369.5 171.5 L1462.5 171.5 L1462.5 171.5 " style="stroke:#33322E;fill:none;stroke-dasharray:none;stroke-width:3;"></path>
  <path d="M1460.5 173.1 L1462.5 171.5 L1460.5 169.9 L1464.5 171.5 Z" style="stroke:#33322E;fill:#33322E;stroke-dasharray:none;stroke-width:3;"></path>
  <path d="M1523.1 79.5 L1608.5 59.5 L1630 59.5 L1630 59.5 " style="stroke:#33322E;fill:none;stroke-dasharray:none;stroke-width:3;"></path>
  <path d="M1628 61.1 L1630 59.5 L1628 57.9 L1632 59.5 Z" style="stroke:#33322E;fill:#33322E;stroke-dasharray:none;stroke-width:3;"></path>
  <path d="M1762 59.5 L1785.5 59.5 L1789.5 59.5 L1789.5 59.5 " style="stroke:#33322E;fill:none;stroke-dasharray:none;stroke-width:3;"></path>
  <path d="M1787.5 61.1 L1789.5 59.5 L1787.5 57.9 L1791.5 59.5 Z" style="stroke:#33322E;fill:#33322E;stroke-dasharray:none;stroke-width:3;"></path>
  <path d="M1580.5 87.5 L1608.5 87.5 L1632.5 87.5 L1632.5 87.5 " style="stroke:#33322E;fill:none;stroke-dasharray:none;stroke-width:3;"></path>
  <path d="M1630.5 89.1 L1632.5 87.5 L1630.5 85.9 L1634.5 87.5 Z" style="stroke:#33322E;fill:#33322E;stroke-dasharray:none;stroke-width:3;"></path>
  <path d="M1090.9 95.5 L1369.5 199.5 L1444.5 199.5 L1444.5 199.5 " style="stroke:#33322E;fill:none;stroke-dasharray:none;stroke-width:3;"></path>
  <path d="M1442.5 201.1 L1444.5 199.5 L1442.5 197.9 L1446.5 199.5 Z" style="stroke:#33322E;fill:#33322E;stroke-dasharray:none;stroke-width:3;"></path>
  <path d="M1086.6 95.5 L1369.5 227.5 L1407.5 227.5 L1407.5 227.5 " style="stroke:#33322E;fill:none;stroke-dasharray:none;stroke-width:3;"></path>
  <path d="M1405.5 229.1 L1407.5 227.5 L1405.5 225.9 L1409.5 227.5 Z" style="stroke:#33322E;fill:#33322E;stroke-dasharray:none;stroke-width:3;"></path>
  <path d="M660.3 359.5 L769.5 129.5 L955 129.5 L955 129.5 " style="stroke:#33322E;fill:none;stroke-dasharray:none;stroke-width:3;"></path>
  <path d="M953 131.1 L955 129.5 L953 127.9 L957 129.5 Z" style="stroke:#33322E;fill:#33322E;stroke-dasharray:none;stroke-width:3;"></path>
  <path d="M208.6 615.5 L360.5 367.5 L387.5 367.5 L387.5 367.5 " style="stroke:#33322E;fill:none;stroke-dasharray:none;stroke-width:3;"></path>
  <path d="M385.5 369.1 L387.5 367.5 L385.5 365.9 L389.5 367.5 Z" style="stroke:#33322E;fill:#33322E;stroke-dasharray:none;stroke-width:3;"></path>
  <path d="M514.5 367.5 L543.5 367.5 L609 367.5 L609 367.5 " style="stroke:#33322E;fill:none;stroke-dasharray:none;stroke-width:3;"></path>
  <path d="M607 369.1 L609 367.5 L607 365.9 L611 367.5 Z" style="stroke:#33322E;fill:#33322E;stroke-dasharray:none;stroke-width:3;"></path>
  <path d="M660.8 359.5 L769.5 157.5 L1013 157.5 L1013 157.5 " style="stroke:#33322E;fill:none;stroke-dasharray:none;stroke-width:3;"></path>
  <path d="M1011 159.1 L1013 157.5 L1011 155.9 L1015 157.5 Z" style="stroke:#33322E;fill:#33322E;stroke-dasharray:none;stroke-width:3;"></path>
  <path d="M661.5 359.5 L769.5 185.5 L1010 185.5 L1010 185.5 " style="stroke:#33322E;fill:none;stroke-dasharray:none;stroke-width:3;"></path>
  <path d="M1008 187.1 L1010 185.5 L1008 183.9 L1012 185.5 Z" style="stroke:#33322E;fill:#33322E;stroke-dasharray:none;stroke-width:3;"></path>
  <path d="M662.4 359.5 L769.5 213.5 L1047.5 213.5 L1047.5 213.5 " style="stroke:#33322E;fill:none;stroke-dasharray:none;stroke-width:3;"></path>
  <path d="M1045.5 215.1 L1047.5 213.5 L1045.5 211.9 L1049.5 213.5 Z" style="stroke:#33322E;fill:#33322E;stroke-dasharray:none;stroke-width:3;"></path>
  <path d="M663.7 359.5 L769.5 241.5 L987 241.5 L987 241.5 " style="stroke:#33322E;fill:none;stroke-dasharray:none;stroke-width:3;"></path>
  <path d="M985 243.1 L987 241.5 L985 239.9 L989 241.5 Z" style="stroke:#33322E;fill:#33322E;stroke-dasharray:none;stroke-width:3;"></path>
  <path d="M665.7 359.5 L769.5 269.5 L952 269.5 L952 269.5 " style="stroke:#33322E;fill:none;stroke-dasharray:none;stroke-width:3;"></path>
  <path d="M950 271.1 L952 269.5 L950 267.9 L954 269.5 Z" style="stroke:#33322E;fill:#33322E;stroke-dasharray:none;stroke-width:3;"></path>
  <path d="M669.4 359.5 L769.5 297.5 L1040 297.5 L1040 297.5 " style="stroke:#33322E;fill:none;stroke-dasharray:none;stroke-width:3;"></path>
  <path d="M1038 299.1 L1040 297.5 L1038 295.9 L1042 297.5 Z" style="stroke:#33322E;fill:#33322E;stroke-dasharray:none;stroke-width:3;"></path>
  <path d="M1097 293.7 L1369.5 255.5 L1422.5 255.5 L1422.5 255.5 " style="stroke:#33322E;fill:none;stroke-dasharray:none;stroke-width:3;"></path>
  <path d="M1420.5 257.1 L1422.5 255.5 L1420.5 253.9 L1424.5 255.5 Z" style="stroke:#33322E;fill:#33322E;stroke-dasharray:none;stroke-width:3;"></path>
  <path d="M1097 298.8 L1369.5 311.5 L1427.5 311.5 L1427.5 311.5 " style="stroke:#33322E;fill:none;stroke-dasharray:none;stroke-width:3;"></path>
  <path d="M1425.5 313.1 L1427.5 311.5 L1425.5 309.9 L1429.5 311.5 Z" style="stroke:#33322E;fill:#33322E;stroke-dasharray:none;stroke-width:3;"></path>
  <path d="M678 359.5 L769.5 325.5 L1020 325.5 L1020 325.5 " style="stroke:#33322E;fill:none;stroke-dasharray:none;stroke-width:3;"></path>
  <path d="M1018 327.1 L1020 325.5 L1018 323.9 L1022 325.5 Z" style="stroke:#33322E;fill:#33322E;stroke-dasharray:none;stroke-width:3;"></path>
  <path d="M702 361.9 L769.5 353.5 L982 353.5 L982 353.5 " style="stroke:#33322E;fill:none;stroke-dasharray:none;stroke-width:3;"></path>
  <path d="M980 355.1 L982 353.5 L980 351.9 L984 353.5 Z" style="stroke:#33322E;fill:#33322E;stroke-dasharray:none;stroke-width:3;"></path>
  <path d="M1155 353.5 L1369.5 353.5 L1463.5 353.5 L1463.5 353.5 " style="stroke:#33322E;fill:none;stroke-dasharray:none;stroke-width:3;"></path>
  <path d="M1461.5 355.1 L1463.5 353.5 L1461.5 351.9 L1465.5 353.5 Z" style="stroke:#33322E;fill:#33322E;stroke-dasharray:none;stroke-width:3;"></path>
  <path d="M1495.2 345.5 L1608.5 199.5 L1649 199.5 L1649 199.5 " style="stroke:#33322E;fill:none;stroke-dasharray:none;stroke-width:3;"></path>
  <path d="M1647 201.1 L1649 199.5 L1647 197.9 L1651 199.5 Z" style="stroke:#33322E;fill:#33322E;stroke-dasharray:none;stroke-width:3;"></path>
  <path d="M1496.6 345.5 L1608.5 227.5 L1651 227.5 L1651 227.5 " style="stroke:#33322E;fill:none;stroke-dasharray:none;stroke-width:3;"></path>
  <path d="M1649 229.1 L1651 227.5 L1649 225.9 L1653 227.5 Z" style="stroke:#33322E;fill:#33322E;stroke-dasharray:none;stroke-width:3;"></path>
  <path d="M1498.8 345.5 L1608.5 255.5 L1659 255.5 L1659 255.5 " style="stroke:#33322E;fill:none;stroke-dasharray:none;stroke-width:3;"></path>
  <path d="M1657 257.1 L1659 255.5 L1657 253.9 L1661 255.5 Z" style="stroke:#33322E;fill:#33322E;stroke-dasharray:none;stroke-width:3;"></path>
  <path d="M1502.7 345.5 L1608.5 283.5 L1669.5 283.5 L1669.5 283.5 " style="stroke:#33322E;fill:none;stroke-dasharray:none;stroke-width:3;"></path>
  <path d="M1667.5 285.1 L1669.5 283.5 L1667.5 281.9 L1671.5 283.5 Z" style="stroke:#33322E;fill:#33322E;stroke-dasharray:none;stroke-width:3;"></path>
  <path d="M1512.5 359 L1608.5 381.5 L1672 381.5 L1672 381.5 " style="stroke:#33322E;fill:none;stroke-dasharray:none;stroke-width:3;"></path>
  <path d="M1670 383.1 L1672 381.5 L1670 379.9 L1674 381.5 Z" style="stroke:#33322E;fill:#33322E;stroke-dasharray:none;stroke-width:3;"></path>
  <path d="M1506.1 361.5 L1608.5 409.5 L1657 409.5 L1657 409.5 " style="stroke:#33322E;fill:none;stroke-dasharray:none;stroke-width:3;"></path>
  <path d="M1655 411.1 L1657 409.5 L1655 407.9 L1659 409.5 Z" style="stroke:#33322E;fill:#33322E;stroke-dasharray:none;stroke-width:3;"></path>
  <path d="M1500.4 361.5 L1608.5 437.5 L1657 437.5 L1657 437.5 " style="stroke:#33322E;fill:none;stroke-dasharray:none;stroke-width:3;"></path>
  <path d="M1655 439.1 L1657 437.5 L1655 435.9 L1659 437.5 Z" style="stroke:#33322E;fill:#33322E;stroke-dasharray:none;stroke-width:3;"></path>
  <path d="M1497.5 361.5 L1608.5 465.5 L1656.5 465.5 L1656.5 465.5 " style="stroke:#33322E;fill:none;stroke-dasharray:none;stroke-width:3;"></path>
  <path d="M1654.5 467.1 L1656.5 465.5 L1654.5 463.9 L1658.5 465.5 Z" style="stroke:#33322E;fill:#33322E;stroke-dasharray:none;stroke-width:3;"></path>
  <path d="M1495.8 361.5 L1608.5 493.5 L1643 493.5 L1643 493.5 " style="stroke:#33322E;fill:none;stroke-dasharray:none;stroke-width:3;"></path>
  <path d="M1641 495.1 L1643 493.5 L1641 491.9 L1645 493.5 Z" style="stroke:#33322E;fill:#33322E;stroke-dasharray:none;stroke-width:3;"></path>
  <path d="M1700.2 485.5 L1785.5 269.5 L1861 269.5 L1861 269.5 " style="stroke:#33322E;fill:none;stroke-dasharray:none;stroke-width:3;"></path>
  <path d="M1859 271.1 L1861 269.5 L1859 267.9 L1863 269.5 Z" style="stroke:#33322E;fill:#33322E;stroke-dasharray:none;stroke-width:3;"></path>
  <path d="M1749 493.5 L1785.5 493.5 L1842.5 493.5 L1842.5 493.5 " style="stroke:#33322E;fill:none;stroke-dasharray:none;stroke-width:3;"></path>
  <path d="M1840.5 495.1 L1842.5 493.5 L1840.5 491.9 L1844.5 493.5 Z" style="stroke:#33322E;fill:#33322E;stroke-dasharray:none;stroke-width:3;"></path>
  <path d="M1722.3 501.5 L1785.5 521.5 L1866 521.5 L1866 521.5 " style="stroke:#33322E;fill:none;stroke-dasharray:none;stroke-width:3;"></path>
  <path d="M1864 523.1 L1866 521.5 L1864 519.9 L1868 521.5 Z" style="stroke:#33322E;fill:#33322E;stroke-dasharray:none;stroke-width:3;"></path>
  <path d="M354.5 643.6 L360.5 643.5 L364.5 643.5 L364.5 643.5 " style="stroke:#33322E;fill:none;stroke-dasharray:none;stroke-width:3;"></path>
  <path d="M362.5 645.1 L364.5 643.5 L362.5 641.9 L366.5 643.5 Z" style="stroke:#33322E;fill:#33322E;stroke-dasharray:none;stroke-width:3;"></path>
  <path d="M455.7 635.5 L543.5 447.5 L614 447.5 L614 447.5 " style="stroke:#33322E;fill:none;stroke-dasharray:none;stroke-width:3;"></path>
  <path d="M612 449.1 L614 447.5 L612 445.9 L616 447.5 Z" style="stroke:#33322E;fill:#33322E;stroke-dasharray:none;stroke-width:3;"></path>
  <path d="M460.7 635.5 L543.5 559.5 L603.5 559.5 L603.5 559.5 " style="stroke:#33322E;fill:none;stroke-dasharray:none;stroke-width:3;"></path>
  <path d="M601.5 561.1 L603.5 559.5 L601.5 557.9 L605.5 559.5 Z" style="stroke:#33322E;fill:#33322E;stroke-dasharray:none;stroke-width:3;"></path>
  <path d="M471.3 635.5 L543.5 605.5 L631 605.5 L631 605.5 " style="stroke:#33322E;fill:none;stroke-dasharray:none;stroke-width:3;"></path>
  <path d="M629 607.1 L631 605.5 L629 603.9 L633 605.5 Z" style="stroke:#33322E;fill:#33322E;stroke-dasharray:none;stroke-width:3;"></path>
  <path d="M680 605.5 L769.5 605.5 L920.5 605.5 L920.5 605.5 " style="stroke:#33322E;fill:none;stroke-dasharray:none;stroke-width:3;"></path>
  <path d="M918.5 607.1 L920.5 605.5 L918.5 603.9 L922.5 605.5 Z" style="stroke:#33322E;fill:#33322E;stroke-dasharray:none;stroke-width:3;"></path>
  <path d="M525.2 635.5 L543.5 633.5 L612.5 633.5 L612.5 633.5 " style="stroke:#33322E;fill:none;stroke-dasharray:none;stroke-width:3;"></path>
  <path d="M610.5 635.1 L612.5 633.5 L610.5 631.9 L614.5 633.5 Z" style="stroke:#33322E;fill:#33322E;stroke-dasharray:none;stroke-width:3;"></path>
  <path d="M1500.4 95.5 L1608.5 171.5 L1612.5 171.5 L1612.5 171.5 " style="stroke:#33322E;fill:none;stroke-dasharray:none;stroke-width:3;"></path>
  <path d="M1610.5 173.1 L1612.5 171.5 L1610.5 169.9 L1614.5 171.5 Z" style="stroke:#33322E;fill:#33322E;stroke-dasharray:none;stroke-width:3;"></path>
  <path d="M492.7 651.5 L543.5 661.5 L568 661.5 L568 661.5 " style="stroke:#33322E;fill:none;stroke-dasharray:none;stroke-width:3;"></path>
  <path d="M566 663.1 L568 661.5 L566 659.9 L570 661.5 Z" style="stroke:#33322E;fill:#33322E;stroke-dasharray:none;stroke-width:3;"></path>
  <path d="M467.9 651.5 L543.5 689.5 L547.5 689.5 L547.5 689.5 " style="stroke:#33322E;fill:none;stroke-dasharray:none;stroke-width:3;"></path>
  <path d="M545.5 691.1 L547.5 689.5 L545.5 687.9 L549.5 689.5 Z" style="stroke:#33322E;fill:#33322E;stroke-dasharray:none;stroke-width:3;"></path>
  <path d="M702 373.1 L769.5 381.5 L947.5 381.5 L947.5 381.5 " style="stroke:#33322E;fill:none;stroke-dasharray:none;stroke-width:3;"></path>
  <path d="M945.5 383.1 L947.5 381.5 L945.5 379.9 L949.5 381.5 Z" style="stroke:#33322E;fill:#33322E;stroke-dasharray:none;stroke-width:3;"></path>
  <path d="M678 375.5 L769.5 409.5 L968 409.5 L968 409.5 " style="stroke:#33322E;fill:none;stroke-dasharray:none;stroke-width:3;"></path>
  <path d="M966 411.1 L968 409.5 L966 407.9 L970 409.5 Z" style="stroke:#33322E;fill:#33322E;stroke-dasharray:none;stroke-width:3;"></path>
  <path d="M669.4 375.5 L769.5 437.5 L831 437.5 L831 437.5 " style="stroke:#33322E;fill:none;stroke-dasharray:none;stroke-width:3;"></path>
  <path d="M829 439.1 L831 437.5 L829 435.9 L833 437.5 Z" style="stroke:#33322E;fill:#33322E;stroke-dasharray:none;stroke-width:3;"></path>
  <path d="M665.7 375.5 L769.5 465.5 L888 465.5 L888 465.5 " style="stroke:#33322E;fill:none;stroke-dasharray:none;stroke-width:3;"></path>
  <path d="M886 467.1 L888 465.5 L886 463.9 L890 465.5 Z" style="stroke:#33322E;fill:#33322E;stroke-dasharray:none;stroke-width:3;"></path>
  <path d="M663.7 375.5 L769.5 493.5 L773.5 493.5 L773.5 493.5 " style="stroke:#33322E;fill:none;stroke-dasharray:none;stroke-width:3;"></path>
  <path d="M771.5 495.1 L773.5 493.5 L771.5 491.9 L775.5 493.5 Z" style="stroke:#33322E;fill:#33322E;stroke-dasharray:none;stroke-width:3;"></path>
  <path d="M662.4 375.5 L769.5 521.5 L885.5 521.5 L885.5 521.5 " style="stroke:#33322E;fill:none;stroke-dasharray:none;stroke-width:3;"></path>
  <path d="M883.5 523.1 L885.5 521.5 L883.5 519.9 L887.5 521.5 Z" style="stroke:#33322E;fill:#33322E;stroke-dasharray:none;stroke-width:3;"></path>
  <path d="M661.5 375.5 L769.5 549.5 L811 549.5 L811 549.5 " style="stroke:#33322E;fill:none;stroke-dasharray:none;stroke-width:3;"></path>
  <path d="M809 551.1 L811 549.5 L809 547.9 L813 549.5 Z" style="stroke:#33322E;fill:#33322E;stroke-dasharray:none;stroke-width:3;"></path>
  <path d="M660.8 375.5 L769.5 577.5 L943 577.5 L943 577.5 " style="stroke:#33322E;fill:none;stroke-dasharray:none;stroke-width:3;"></path>
  <path d="M941 579.1 L943 577.5 L941 575.9 L945 577.5 Z" style="stroke:#33322E;fill:#33322E;stroke-dasharray:none;stroke-width:3;"></path>
  <path d="M354.5 678.4 L360.5 679.5 L381.5 679.5 L381.5 679.5 " style="stroke:#33322E;fill:none;stroke-dasharray:none;stroke-width:3;"></path>
  <rect x="23.5" y="615.5" height="64" width="331" data-name="V-Sekai" style="stroke:#33322E;fill:#eee8d5;stroke-dasharray:none;stroke-width:3;"></rect>
  <path d="M23.5 631.5 L354.5 631.5" data-name="V-Sekai" style="stroke:#33322E;fill:none;stroke-dasharray:none;stroke-width:3;"></path>
  <path d="M23.5 647.5 L354.5 647.5" data-name="V-Sekai" style="stroke:#33322E;fill:none;stroke-dasharray:none;stroke-width:3;"></path>
  <path d="M23.5 663.5 L354.5 663.5" data-name="V-Sekai" style="stroke:#33322E;fill:none;stroke-dasharray:none;stroke-width:3;"></path>
  <text x="189" y="627.5" style="fill: #33322E;font:bold  8pt Helvetica, Helvetica, sans-serif;text-anchor: middle;" data-name="V-Sekai">V-Sekai</text>
  <text x="26.5" y="643.5" style="fill: #33322E;font:normal  8pt Helvetica, Helvetica, sans-serif;" data-name="V-Sekai">Players want to define the virtual worlds.</text>
  <text x="26.5" y="659.5" style="fill: #33322E;font:normal  8pt Helvetica, Helvetica, sans-serif;" data-name="V-Sekai">V-Sekai https://v-sekai.org/</text>
  <text x="26.5" y="675.5" style="fill: #33322E;font:normal  8pt Helvetica, Helvetica, sans-serif;" data-name="V-Sekai">Players can&apos;t make their own virtual worlds because it is hard.</text>
  <rect x="381.5" y="663.5" height="32" width="141" data-name="Last changed datetime" style="stroke:#33322E;fill:#eee8d5;stroke-dasharray:none;stroke-width:3;"></rect>
  <path d="M381.5 679.5 L522.5 679.5" data-name="Last changed datetime" style="stroke:#33322E;fill:none;stroke-dasharray:none;stroke-width:3;"></path>
  <text x="452" y="675.5" style="fill: #33322E;font:bold  8pt Helvetica, Helvetica, sans-serif;text-anchor: middle;" data-name="Last changed datetime">Last changed datetime</text>
  <text x="384.5" y="691.5" style="fill: #33322E;font:normal  8pt Helvetica, Helvetica, sans-serif;" data-name="Last changed datetime">2022-02-09T19:47+00:00</text>
  <rect x="611.5" y="359.5" height="16" width="91" data-name="Become avatars" style="stroke:#33322E;fill:#eee8d5;stroke-dasharray:none;stroke-width:3;"></rect>
  <text x="657" y="371.5" style="fill: #33322E;font:bold  8pt Helvetica, Helvetica, sans-serif;text-anchor: middle;" data-name="Become avatars">Become avatars</text>
  <rect x="1001.5" y="79.5" height="16" width="137" data-name="Godot world live creation" style="stroke:#33322E;fill:#eee8d5;stroke-dasharray:none;stroke-width:3;"></rect>
  <text x="1070" y="91.5" style="fill: #33322E;font:bold  8pt Helvetica, Helvetica, sans-serif;text-anchor: middle;" data-name="Godot world live creation">Godot world live creation</text>
  <rect x="1441.5" y="23.5" height="16" width="96" data-name="Imported physics" style="stroke:#33322E;fill:#eee8d5;stroke-dasharray:none;stroke-width:3;"></rect>
  <text x="1489.5" y="35.5" style="fill: #33322E;font:bold  8pt Helvetica, Helvetica, sans-serif;text-anchor: middle;" data-name="Imported physics">Imported physics</text>
  <rect x="1375.5" y="51.5" height="16" width="227" data-name="Place prexisting blocks with blockmeshing" style="stroke:#33322E;fill:#eee8d5;stroke-dasharray:none;stroke-width:3;"></rect>
  <text x="1489" y="63.5" style="fill: #33322E;font:bold  8pt Helvetica, Helvetica, sans-serif;text-anchor: middle;" data-name="Place prexisting blocks with blockmeshing">Place prexisting blocks with blockmeshing</text>
  <rect x="1397.5" y="79.5" height="16" width="183" data-name="Create Godot world creation tools" style="stroke:#33322E;fill:#eee8d5;stroke-dasharray:none;stroke-width:3;"></rect>
  <text x="1489" y="91.5" style="fill: #33322E;font:bold  8pt Helvetica, Helvetica, sans-serif;text-anchor: middle;" data-name="Create Godot world creation tools">Create Godot world creation tools</text>
  <rect x="1450.5" y="107.5" height="16" width="77" data-name="Place scenes" style="stroke:#33322E;fill:#eee8d5;stroke-dasharray:none;stroke-width:3;"></rect>
  <text x="1489" y="119.5" style="fill: #33322E;font:bold  8pt Helvetica, Helvetica, sans-serif;text-anchor: middle;" data-name="Place scenes">Place scenes</text>
  <rect x="1403.5" y="135.5" height="16" width="171" data-name="Construct layers collaboratively" style="stroke:#33322E;fill:#eee8d5;stroke-dasharray:none;stroke-width:3;"></rect>
  <text x="1489" y="147.5" style="fill: #33322E;font:bold  8pt Helvetica, Helvetica, sans-serif;text-anchor: middle;" data-name="Construct layers collaboratively">Construct layers collaboratively</text>
  <rect x="1464.5" y="163.5" height="16" width="49" data-name="Painting" style="stroke:#33322E;fill:#eee8d5;stroke-dasharray:none;stroke-width:3;"></rect>
  <text x="1489" y="175.5" style="fill: #33322E;font:bold  8pt Helvetica, Helvetica, sans-serif;text-anchor: middle;" data-name="Painting">Painting</text>
  <rect x="1632.5" y="51.5" height="16" width="130" data-name="3D models with CASSIE" style="stroke:#33322E;fill:#eee8d5;stroke-dasharray:none;stroke-width:3;"></rect>
  <text x="1697.5" y="63.5" style="fill: #33322E;font:bold  8pt Helvetica, Helvetica, sans-serif;text-anchor: middle;" data-name="3D models with CASSIE">3D models with CASSIE</text>
  <rect x="1791.5" y="51.5" height="16" width="190" data-name="make cassie commercial remixable" style="stroke:#33322E;fill:#eee8d5;stroke-dasharray:none;stroke-width:3;"></rect>
  <text x="1886.5" y="63.5" style="fill: #33322E;font:bold  8pt Helvetica, Helvetica, sans-serif;text-anchor: middle;" data-name="make cassie commercial remixable">make cassie commercial remixable</text>
  <rect x="1634.5" y="79.5" height="16" width="125" data-name="Painting with MaterialX" style="stroke:#33322E;fill:#eee8d5;stroke-dasharray:none;stroke-width:3;"></rect>
  <text x="1697" y="91.5" style="fill: #33322E;font:bold  8pt Helvetica, Helvetica, sans-serif;text-anchor: middle;" data-name="Painting with MaterialX">Painting with MaterialX</text>
  <rect x="1446.5" y="191.5" height="16" width="85" data-name="Jeana usability" style="stroke:#33322E;fill:#eee8d5;stroke-dasharray:none;stroke-width:3;"></rect>
  <text x="1489" y="203.5" style="fill: #33322E;font:bold  8pt Helvetica, Helvetica, sans-serif;text-anchor: middle;" data-name="Jeana usability">Jeana usability</text>
  <rect x="1409.5" y="219.5" height="16" width="159" data-name="VFX (Particles, shaders, Sky)" style="stroke:#33322E;fill:#eee8d5;stroke-dasharray:none;stroke-width:3;"></rect>
  <text x="1489" y="231.5" style="fill: #33322E;font:bold  8pt Helvetica, Helvetica, sans-serif;text-anchor: middle;" data-name="VFX (Particles, shaders, Sky)">VFX (Particles, shaders, Sky)</text>
  <rect x="957.5" y="121.5" height="16" width="225" data-name="Advanced avatar (shader, IK, animations)" style="stroke:#33322E;fill:#eee8d5;stroke-dasharray:none;stroke-width:3;"></rect>
  <text x="1070" y="133.5" style="fill: #33322E;font:bold  8pt Helvetica, Helvetica, sans-serif;text-anchor: middle;" data-name="Advanced avatar (shader, IK, animations)">Advanced avatar (shader, IK, animations)</text>
  <rect x="389.5" y="359.5" height="16" width="125" data-name="Skeleton modifications" style="stroke:#33322E;fill:#eee8d5;stroke-dasharray:none;stroke-width:3;"></rect>
  <text x="452" y="371.5" style="fill: #33322E;font:bold  8pt Helvetica, Helvetica, sans-serif;text-anchor: middle;" data-name="Skeleton modifications">Skeleton modifications</text>
  <rect x="1015.5" y="149.5" height="16" width="109" data-name="Vocal communicate" style="stroke:#33322E;fill:#eee8d5;stroke-dasharray:none;stroke-width:3;"></rect>
  <text x="1070" y="161.5" style="fill: #33322E;font:bold  8pt Helvetica, Helvetica, sans-serif;text-anchor: middle;" data-name="Vocal communicate">Vocal communicate</text>
  <rect x="1012.5" y="177.5" height="16" width="115" data-name="Motion communicate" style="stroke:#33322E;fill:#eee8d5;stroke-dasharray:none;stroke-width:3;"></rect>
  <text x="1070" y="189.5" style="fill: #33322E;font:bold  8pt Helvetica, Helvetica, sans-serif;text-anchor: middle;" data-name="Motion communicate">Motion communicate</text>
  <rect x="1049.5" y="205.5" height="16" width="40" data-name="Dance" style="stroke:#33322E;fill:#eee8d5;stroke-dasharray:none;stroke-width:3;"></rect>
  <text x="1069.5" y="217.5" style="fill: #33322E;font:bold  8pt Helvetica, Helvetica, sans-serif;text-anchor: middle;" data-name="Dance">Dance</text>
  <rect x="989.5" y="233.5" height="16" width="161" data-name="Godot speech comms system" style="stroke:#33322E;fill:#eee8d5;stroke-dasharray:none;stroke-width:3;"></rect>
  <text x="1070" y="245.5" style="fill: #33322E;font:bold  8pt Helvetica, Helvetica, sans-serif;text-anchor: middle;" data-name="Godot speech comms system">Godot speech comms system</text>
  <rect x="954.5" y="261.5" height="16" width="231" data-name="Virtual reality 6 degree of freedom tracking" style="stroke:#33322E;fill:#eee8d5;stroke-dasharray:none;stroke-width:3;"></rect>
  <text x="1070" y="273.5" style="fill: #33322E;font:bold  8pt Helvetica, Helvetica, sans-serif;text-anchor: middle;" data-name="Virtual reality 6 degree of freedom tracking">Virtual reality 6 degree of freedom tracking</text>
  <rect x="1042.5" y="289.5" height="16" width="55" data-name="Following" style="stroke:#33322E;fill:#eee8d5;stroke-dasharray:none;stroke-width:3;"></rect>
  <text x="1070" y="301.5" style="fill: #33322E;font:bold  8pt Helvetica, Helvetica, sans-serif;text-anchor: middle;" data-name="Following">Following</text>
  <rect x="1424.5" y="247.5" height="16" width="129" data-name="Double-sided friending." style="stroke:#33322E;fill:#eee8d5;stroke-dasharray:none;stroke-width:3;"></rect>
  <text x="1489" y="259.5" style="fill: #33322E;font:bold  8pt Helvetica, Helvetica, sans-serif;text-anchor: middle;" data-name="Double-sided friending.">Double-sided friending.</text>
  <rect x="1429.5" y="303.5" height="16" width="119" data-name="Discover new friends." style="stroke:#33322E;fill:#eee8d5;stroke-dasharray:none;stroke-width:3;"></rect>
  <text x="1489" y="315.5" style="fill: #33322E;font:bold  8pt Helvetica, Helvetica, sans-serif;text-anchor: middle;" data-name="Discover new friends.">Discover new friends.</text>
  <rect x="1022.5" y="317.5" height="16" width="95" data-name="Locomotion (flat)" style="stroke:#33322E;fill:#eee8d5;stroke-dasharray:none;stroke-width:3;"></rect>
  <text x="1070" y="329.5" style="fill: #33322E;font:bold  8pt Helvetica, Helvetica, sans-serif;text-anchor: middle;" data-name="Locomotion (flat)">Locomotion (flat)</text>
  <rect x="984.5" y="345.5" height="16" width="171" data-name="Virtual reality motion movement" style="stroke:#33322E;fill:#eee8d5;stroke-dasharray:none;stroke-width:3;"></rect>
  <text x="1070" y="357.5" style="fill: #33322E;font:bold  8pt Helvetica, Helvetica, sans-serif;text-anchor: middle;" data-name="Virtual reality motion movement">Virtual reality motion movement</text>
  <rect x="1465.5" y="345.5" height="16" width="47" data-name="Pickups" style="stroke:#33322E;fill:#eee8d5;stroke-dasharray:none;stroke-width:3;"></rect>
  <text x="1489" y="357.5" style="fill: #33322E;font:bold  8pt Helvetica, Helvetica, sans-serif;text-anchor: middle;" data-name="Pickups">Pickups</text>
  <rect x="1651.5" y="191.5" height="16" width="92" data-name="Wasgo Scripting" style="stroke:#33322E;fill:#eee8d5;stroke-dasharray:none;stroke-width:3;"></rect>
  <text x="1697.5" y="203.5" style="fill: #33322E;font:bold  8pt Helvetica, Helvetica, sans-serif;text-anchor: middle;" data-name="Wasgo Scripting">Wasgo Scripting</text>
  <rect x="1653.5" y="219.5" height="16" width="88" data-name="In-game menus" style="stroke:#33322E;fill:#eee8d5;stroke-dasharray:none;stroke-width:3;"></rect>
  <text x="1697.5" y="231.5" style="fill: #33322E;font:bold  8pt Helvetica, Helvetica, sans-serif;text-anchor: middle;" data-name="In-game menus">In-game menus</text>
  <rect x="1661.5" y="247.5" height="16" width="72" data-name="Video player" style="stroke:#33322E;fill:#eee8d5;stroke-dasharray:none;stroke-width:3;"></rect>
  <text x="1697.5" y="259.5" style="fill: #33322E;font:bold  8pt Helvetica, Helvetica, sans-serif;text-anchor: middle;" data-name="Video player">Video player</text>
  <rect x="1671.5" y="275.5" height="16" width="51" data-name="Vehicles" style="stroke:#33322E;fill:#eee8d5;stroke-dasharray:none;stroke-width:3;"></rect>
  <text x="1697" y="287.5" style="fill: #33322E;font:bold  8pt Helvetica, Helvetica, sans-serif;text-anchor: middle;" data-name="Vehicles">Vehicles</text>
  <rect x="1674.5" y="373.5" height="16" width="46" data-name="Buttons" style="stroke:#33322E;fill:#eee8d5;stroke-dasharray:none;stroke-width:3;"></rect>
  <text x="1697.5" y="385.5" style="fill: #33322E;font:bold  8pt Helvetica, Helvetica, sans-serif;text-anchor: middle;" data-name="Buttons">Buttons</text>
  <rect x="1659.5" y="401.5" height="16" width="76" data-name="Avatar switch" style="stroke:#33322E;fill:#eee8d5;stroke-dasharray:none;stroke-width:3;"></rect>
  <text x="1697.5" y="413.5" style="fill: #33322E;font:bold  8pt Helvetica, Helvetica, sans-serif;text-anchor: middle;" data-name="Avatar switch">Avatar switch</text>
  <rect x="1659.5" y="429.5" height="16" width="76" data-name="World portals" style="stroke:#33322E;fill:#eee8d5;stroke-dasharray:none;stroke-width:3;"></rect>
  <text x="1697.5" y="441.5" style="fill: #33322E;font:bold  8pt Helvetica, Helvetica, sans-serif;text-anchor: middle;" data-name="World portals">World portals</text>
  <rect x="1658.5" y="457.5" height="16" width="77" data-name="Server switch" style="stroke:#33322E;fill:#eee8d5;stroke-dasharray:none;stroke-width:3;"></rect>
  <text x="1697" y="469.5" style="fill: #33322E;font:bold  8pt Helvetica, Helvetica, sans-serif;text-anchor: middle;" data-name="Server switch">Server switch</text>
  <rect x="1645.5" y="485.5" height="16" width="104" data-name="Player interactions" style="stroke:#33322E;fill:#eee8d5;stroke-dasharray:none;stroke-width:3;"></rect>
  <text x="1697.5" y="497.5" style="fill: #33322E;font:bold  8pt Helvetica, Helvetica, sans-serif;text-anchor: middle;" data-name="Player interactions">Player interactions</text>
  <rect x="1863.5" y="261.5" height="16" width="47" data-name="Camera" style="stroke:#33322E;fill:#eee8d5;stroke-dasharray:none;stroke-width:3;"></rect>
  <text x="1887" y="273.5" style="fill: #33322E;font:bold  8pt Helvetica, Helvetica, sans-serif;text-anchor: middle;" data-name="Camera">Camera</text>
  <rect x="1844.5" y="485.5" height="16" width="84" data-name="Bow and arrow" style="stroke:#33322E;fill:#eee8d5;stroke-dasharray:none;stroke-width:3;"></rect>
  <text x="1886.5" y="497.5" style="fill: #33322E;font:bold  8pt Helvetica, Helvetica, sans-serif;text-anchor: middle;" data-name="Bow and arrow">Bow and arrow</text>
  <rect x="1868.5" y="513.5" height="16" width="37" data-name="Mirror" style="stroke:#33322E;fill:#eee8d5;stroke-dasharray:none;stroke-width:3;"></rect>
  <text x="1887" y="525.5" style="fill: #33322E;font:bold  8pt Helvetica, Helvetica, sans-serif;text-anchor: middle;" data-name="Mirror">Mirror</text>
  <rect x="366.5" y="635.5" height="16" width="171" data-name="platform host Uro Infrastructure" style="stroke:#33322E;fill:#eee8d5;stroke-dasharray:none;stroke-width:3;"></rect>
  <text x="452" y="647.5" style="fill: #33322E;font:bold  8pt Helvetica, Helvetica, sans-serif;text-anchor: middle;" data-name="platform host Uro Infrastructure">platform host Uro Infrastructure</text>
  <rect x="616.5" y="439.5" height="16" width="81" data-name="Federation list" style="stroke:#33322E;fill:#eee8d5;stroke-dasharray:none;stroke-width:3;"></rect>
  <text x="657" y="451.5" style="fill: #33322E;font:bold  8pt Helvetica, Helvetica, sans-serif;text-anchor: middle;" data-name="Federation list">Federation list</text>
  <rect x="605.5" y="551.5" height="16" width="102" data-name="Delegated Identity" style="stroke:#33322E;fill:#eee8d5;stroke-dasharray:none;stroke-width:3;"></rect>
  <text x="656.5" y="563.5" style="fill: #33322E;font:bold  8pt Helvetica, Helvetica, sans-serif;text-anchor: middle;" data-name="Delegated Identity">Delegated Identity</text>
  <rect x="633.5" y="597.5" height="16" width="47" data-name="Content" style="stroke:#33322E;fill:#eee8d5;stroke-dasharray:none;stroke-width:3;"></rect>
  <text x="657" y="609.5" style="fill: #33322E;font:bold  8pt Helvetica, Helvetica, sans-serif;text-anchor: middle;" data-name="Content">Content</text>
  <rect x="922.5" y="597.5" height="16" width="294" data-name="Refuse to attest content because scripting is untrusted" style="stroke:#33322E;fill:#eee8d5;stroke-dasharray:none;stroke-width:3;"></rect>
  <text x="1069.5" y="609.5" style="fill: #33322E;font:bold  8pt Helvetica, Helvetica, sans-serif;text-anchor: middle;" data-name="Refuse to attest content because scripting is untrusted">Refuse to attest content because scripting is untrusted</text>
  <rect x="614.5" y="625.5" height="16" width="84" data-name="Deployment kit" style="stroke:#33322E;fill:#eee8d5;stroke-dasharray:none;stroke-width:3;"></rect>
  <text x="656.5" y="637.5" style="fill: #33322E;font:bold  8pt Helvetica, Helvetica, sans-serif;text-anchor: middle;" data-name="Deployment kit">Deployment kit</text>
  <rect x="1614.5" y="163.5" height="16" width="165" data-name="Upgrade PLY to Godot Engine" style="stroke:#33322E;fill:#eee8d5;stroke-dasharray:none;stroke-width:3;"></rect>
  <text x="1697" y="175.5" style="fill: #33322E;font:bold  8pt Helvetica, Helvetica, sans-serif;text-anchor: middle;" data-name="Upgrade PLY to Godot Engine">Upgrade PLY to Godot Engine</text>
  <rect x="570.5" y="653.5" height="16" width="173" data-name="Launch uro using Elixir Desktop" style="stroke:#33322E;fill:#eee8d5;stroke-dasharray:none;stroke-width:3;"></rect>
  <text x="657" y="665.5" style="fill: #33322E;font:bold  8pt Helvetica, Helvetica, sans-serif;text-anchor: middle;" data-name="Launch uro using Elixir Desktop">Launch uro using Elixir Desktop</text>
  <rect x="549.5" y="681.5" height="16" width="214" data-name="Make TrueNas Scale run V-Sekai mirror" style="stroke:#33322E;fill:#eee8d5;stroke-dasharray:none;stroke-width:3;"></rect>
  <text x="656.5" y="693.5" style="fill: #33322E;font:bold  8pt Helvetica, Helvetica, sans-serif;text-anchor: middle;" data-name="Make TrueNas Scale run V-Sekai mirror">Make TrueNas Scale run V-Sekai mirror</text>
  <rect x="949.5" y="373.5" height="16" width="240" data-name="How do we animate the character? VRM1 rig" style="stroke:#33322E;fill:#eee8d5;stroke-dasharray:none;stroke-width:3;"></rect>
  <text x="1069.5" y="385.5" style="fill: #33322E;font:bold  8pt Helvetica, Helvetica, sans-serif;text-anchor: middle;" data-name="How do we animate the character? VRM1 rig">How do we animate the character? VRM1 rig</text>
  <rect x="970.5" y="401.5" height="16" width="199" data-name="How do we retarget to the VRM1 rig?" style="stroke:#33322E;fill:#eee8d5;stroke-dasharray:none;stroke-width:3;"></rect>
  <text x="1070" y="413.5" style="fill: #33322E;font:bold  8pt Helvetica, Helvetica, sans-serif;text-anchor: middle;" data-name="How do we retarget to the VRM1 rig?">How do we retarget to the VRM1 rig?</text>
  <rect x="833.5" y="429.5" height="16" width="473" data-name="How do we mocapture the face rig? Support mapping every single possible standard rig?" style="stroke:#33322E;fill:#eee8d5;stroke-dasharray:none;stroke-width:3;"></rect>
  <text x="1070" y="441.5" style="fill: #33322E;font:bold  8pt Helvetica, Helvetica, sans-serif;text-anchor: middle;" data-name="How do we mocapture the face rig? Support mapping every single possible standard rig?">How do we mocapture the face rig? Support mapping every single possible standard rig?</text>
  <rect x="890.5" y="457.5" height="16" width="359" data-name="How do we make the face rig fast? Blend shape baking to skeletals" style="stroke:#33322E;fill:#eee8d5;stroke-dasharray:none;stroke-width:3;"></rect>
  <text x="1070" y="469.5" style="fill: #33322E;font:bold  8pt Helvetica, Helvetica, sans-serif;text-anchor: middle;" data-name="How do we make the face rig fast? Blend shape baking to skeletals">How do we make the face rig fast? Blend shape baking to skeletals</text>
  <rect x="775.5" y="485.5" height="16" width="588" data-name="How do we create the standard animation set? Want to be better than the status quo of mixamo animation sets" style="stroke:#33322E;fill:#eee8d5;stroke-dasharray:none;stroke-width:3;"></rect>
  <text x="1069.5" y="497.5" style="fill: #33322E;font:bold  8pt Helvetica, Helvetica, sans-serif;text-anchor: middle;" data-name="How do we create the standard animation set? Want to be better than the status quo of mixamo animation sets">How do we create the standard animation set? Want to be better than the status quo of mixamo animation sets</text>
  <rect x="887.5" y="513.5" height="16" width="364" data-name="How do we interact with objects? Pickup animation is stored on prop" style="stroke:#33322E;fill:#eee8d5;stroke-dasharray:none;stroke-width:3;"></rect>
  <text x="1069.5" y="525.5" style="fill: #33322E;font:bold  8pt Helvetica, Helvetica, sans-serif;text-anchor: middle;" data-name="How do we interact with objects? Pickup animation is stored on prop">How do we interact with objects? Pickup animation is stored on prop</text>
  <rect x="813.5" y="541.5" height="16" width="513" data-name="How do we have more diverse characters? Marketplace? Proceduralism? Character generators?" style="stroke:#33322E;fill:#eee8d5;stroke-dasharray:none;stroke-width:3;"></rect>
  <text x="1070" y="553.5" style="fill: #33322E;font:bold  8pt Helvetica, Helvetica, sans-serif;text-anchor: middle;" data-name="How do we have more diverse characters? Marketplace? Proceduralism? Character generators?">How do we have more diverse characters? Marketplace? Proceduralism? Character generators?</text>
  <rect x="945.5" y="569.5" height="16" width="249" data-name="How we turn our voice to facial rig keyframes?" style="stroke:#33322E;fill:#eee8d5;stroke-dasharray:none;stroke-width:3;"></rect>
  <text x="1070" y="581.5" style="fill: #33322E;font:bold  8pt Helvetica, Helvetica, sans-serif;text-anchor: middle;" data-name="How we turn our voice to facial rig keyframes?">How we turn our voice to facial rig keyframes?</text>
</svg>