<svg version="1.1" baseProfile="full" width="2006" height="716" viewbox="0 0 2006 716" xmlns="http://www.w3.org/2000/svg" xmlns:xlink="http://www.w3.org/1999/xlink" xmlns:ev="http://www.w3.org/2001/xml-events" style="font:bold  8pt Helvetica, Helvetica, sans-serif;;stroke-linejoin:round;stroke-linecap:round">
  <title >Players want to define their own virtual worlds, but they can&amp;apos;t because making their own virtual worlds is hard.</title>
  <desc >#title: Players want to define their own virtual worlds, but they can&amp;apos;t because making their own virtual worlds is hard.
#fontSize: 8
#spacing: 12
#padding: 3
#direction: right

[V-Sekai| Players want to define the virtual worlds. | V-Sekai https://v-sekai.org/ |
Players can&apos;t make their own virtual worlds because it is hard.]

[&lt;table&gt; Become avatars] -&gt; [&lt;table&gt; Collaborate and create| 
Estimate | ?W]
[Collaborate and create] -&gt; [Godot world live creation ]
[Collaborate and create] -&gt; [Place prexisting blocks with blockmeshing  ]
[&lt;table&gt; Collaborate and create ]-&gt; [&lt;table&gt; Create Godot world creation tools ]
[&lt;table&gt; Collaborate and create ]-&gt; [Place scenes ]
[&lt;table&gt; Collaborate and create ]-&gt; [Construct layers collaboratively ]
[&lt;table&gt; Collaborate and create ]-&gt; [Painting  ]
[&lt;table&gt; Collaborate and create ]-&gt; [&lt;table&gt; Create Godot world creation tools]
[&lt;table&gt; Create Godot world creation tools ] -&gt;  [3D models with CASSIE ]

[3D models with CASSIE ]-&gt; [make cassie commercial remixable]

[&lt;table&gt; Create Godot world creation tools ] -&gt; [Painting with MaterialX ]

[V-Sekai] -&gt;[ Engine usability]
[V-Sekai] -&gt; [&lt;table&gt; Good graphics]
[&lt;table&gt; Good graphics ] -&gt; [Good lighting  ]
[&lt;table&gt; Good graphics ] -&gt; [VFX (Particles, shaders, Sky)]
[&lt;table&gt; Become avatars] -&gt; [Advanced avatar (shader, IK, animations)]
[V-Sekai]-&gt;  [Imported physics  ]
[V-Sekai]-&gt;  [Skeleton modifications ]
[Skeleton modifications ] -&gt; [&lt;table&gt; Become avatars]
[&lt;table&gt; Become avatars] -&gt; [Vocal communicate]
[&lt;table&gt; Become avatars] -&gt; [Motion communicate]
[&lt;table&gt; Become avatars] -&gt; [Dance]

[&lt;table&gt; Become avatars] -&gt; [Godot speech comms system] 
[&lt;table&gt; Become avatars] -&gt; [Virtual reality 6 degree of freedom tracking ]

[&lt;table&gt; Become avatars]-&gt;[&lt;table&gt; Following  ]
[&lt;table&gt; Following] -&gt; [Double-sided friending. ]
[&lt;table&gt; Following] -&gt; [Discover new friends. ]

[&lt;table&gt; Become avatars] -&gt; [Locomotion (flat)]
[&lt;tsable&gt; Become avatars] -&gt; [Virtual reality motion movement]

[Virtual reality motion movement] -&gt; [Pickups]
[Pickups]-&gt; [Wasgo Scripting  ]
[Pickups]-&gt; [In-game menus  ]
[Pickups]-&gt; [Video player ]

[Pickups]-&gt;[Vehicles ]
[Pickups]-&gt;[Buttons]

[Pickups]-&gt;[&lt;table&gt; Avatar switch ]
[Pickups]-&gt;[World portals ]
[Pickups]-&gt;[Server switch ]

[Pickups]-&gt;[&lt;table&gt; Player interactions ]
[&lt;table&gt; Player interactions] -&gt; [Camera ]
[&lt;table&gt; Player interactions] -&gt; [Bow and arrow ]
[&lt;table&gt; Player interactions] -&gt; [Mirror ]

[V-Sekai]-&gt;[&lt;table&gt; platform host Uro Infrastructure]
[&lt;table&gt; platform host Uro Infrastructure] -&gt; [ Federation list ]
[&lt;table&gt; platform host Uro Infrastructure] -&gt; [ Delegated Identity ]

[&lt;table&gt; platform host Uro Infrastructure ]-&gt;[&lt;table&gt; Content]
[&lt;table&gt; Content ]-&gt; [Refuse to attest content because scripting is untrusted ]

[&lt;table&gt; platform host Uro Infrastructure]-&gt;[&lt;table&gt; Deployment kit ] 

[&lt;table&gt; Create Godot world creation tools ] -&gt; [&lt;table&gt; Upgrade PLY to Godot Engine]

[V-Sekai] -&gt; [&lt;table&gt; Launch uro using Elixir Desktop]

[&lt;table&gt; platform host Uro Infrastructure] -&gt; [&lt;table&gt; Make TrueNas Scale run V-Sekai mirror]

[&lt;table&gt; Become avatars] -&gt; [How do we animate the character? VRM1 rig]
[&lt;table&gt; Become avatars] -&gt; [How do we retarget to the VRM1 rig?]
[&lt;table&gt; Become avatars] -&gt; [How do we mocapture the face rig? Support mapping every single possible standard rig?]
[&lt;table&gt; Become avatars] -&gt; [How do we make the face rig fast? Blend shape baking to skeletals]
[&lt;table&gt; Become avatars] -&gt; [How do we create the standard animation set? Want to be better than the status quo of mixamo animation sets]
[&lt;table&gt; Become avatars] -&gt; [How do we interact with objects? Pickup animation is stored on prop]
[&lt;table&gt; Become avatars] -&gt; [How do we have more diverse characters? Marketplace? Proceduralism? Character generators?]
[&lt;table&gt; Become avatars] -&gt; [How we turn our voice to facial rig keyframes?]

[V-Sekai] - [Last changed datetime|2022-02-09T19:36+00:00]
</desc>
  <rect x="0" y="0" height="716" width="2006" style="stroke:none; fill:transparent;"></rect>
  <path d="M662.2 339.5 L771.5 101.5 L1006 101.5 L1006 101.5 " style="stroke:#33322E;fill:none;stroke-dasharray:none;stroke-width:3;"></path>
  <path d="M1004 103.1 L1006 101.5 L1004 99.9 L1008 101.5 Z" style="stroke:#33322E;fill:#33322E;stroke-dasharray:none;stroke-width:3;"></path>
  <path d="M1135 86.7 L1371.5 31.5 L1420.5 31.5 L1420.5 31.5 " style="stroke:#33322E;fill:none;stroke-dasharray:none;stroke-width:3;"></path>
  <path d="M1418.5 33.1 L1420.5 31.5 L1418.5 29.9 L1422.5 31.5 Z" style="stroke:#33322E;fill:#33322E;stroke-dasharray:none;stroke-width:3;"></path>
  <path d="M1135 92.6 L1371.5 59.5 L1375.5 59.5 L1375.5 59.5 " style="stroke:#33322E;fill:none;stroke-dasharray:none;stroke-width:3;"></path>
  <path d="M1373.5 61.1 L1375.5 59.5 L1373.5 57.9 L1377.5 59.5 Z" style="stroke:#33322E;fill:#33322E;stroke-dasharray:none;stroke-width:3;"></path>
  <path d="M1135 98.5 L1371.5 87.5 L1397.5 87.5 L1397.5 87.5 " style="stroke:#33322E;fill:none;stroke-dasharray:none;stroke-width:3;"></path>
  <path d="M1395.5 89.1 L1397.5 87.5 L1395.5 85.9 L1399.5 87.5 Z" style="stroke:#33322E;fill:#33322E;stroke-dasharray:none;stroke-width:3;"></path>
  <path d="M1135 114.2 L1371.5 161.5 L1450.5 161.5 L1450.5 161.5 " style="stroke:#33322E;fill:none;stroke-dasharray:none;stroke-width:3;"></path>
  <path d="M1448.5 163.1 L1450.5 161.5 L1448.5 159.9 L1452.5 161.5 Z" style="stroke:#33322E;fill:#33322E;stroke-dasharray:none;stroke-width:3;"></path>
  <path d="M1126 117.5 L1371.5 189.5 L1403.5 189.5 L1403.5 189.5 " style="stroke:#33322E;fill:none;stroke-dasharray:none;stroke-width:3;"></path>
  <path d="M1401.5 191.1 L1403.5 189.5 L1401.5 187.9 L1405.5 189.5 Z" style="stroke:#33322E;fill:#33322E;stroke-dasharray:none;stroke-width:3;"></path>
  <path d="M1112.9 117.5 L1371.5 217.5 L1464.5 217.5 L1464.5 217.5 " style="stroke:#33322E;fill:none;stroke-dasharray:none;stroke-width:3;"></path>
  <path d="M1462.5 219.1 L1464.5 217.5 L1462.5 215.9 L1466.5 217.5 Z" style="stroke:#33322E;fill:#33322E;stroke-dasharray:none;stroke-width:3;"></path>
  <path d="M1525.1 79.5 L1610.5 59.5 L1632 59.5 L1632 59.5 " style="stroke:#33322E;fill:none;stroke-dasharray:none;stroke-width:3;"></path>
  <path d="M1630 61.1 L1632 59.5 L1630 57.9 L1634 59.5 Z" style="stroke:#33322E;fill:#33322E;stroke-dasharray:none;stroke-width:3;"></path>
  <path d="M1764 59.5 L1787.5 59.5 L1791.5 59.5 L1791.5 59.5 " style="stroke:#33322E;fill:none;stroke-dasharray:none;stroke-width:3;"></path>
  <path d="M1789.5 61.1 L1791.5 59.5 L1789.5 57.9 L1793.5 59.5 Z" style="stroke:#33322E;fill:#33322E;stroke-dasharray:none;stroke-width:3;"></path>
  <path d="M1582.5 87.5 L1610.5 87.5 L1634.5 87.5 L1634.5 87.5 " style="stroke:#33322E;fill:none;stroke-dasharray:none;stroke-width:3;"></path>
  <path d="M1632.5 89.1 L1634.5 87.5 L1632.5 85.9 L1636.5 87.5 Z" style="stroke:#33322E;fill:#33322E;stroke-dasharray:none;stroke-width:3;"></path>
  <path d="M254.3 315.5 L360.5 263.5 L406.5 263.5 L406.5 263.5 " style="stroke:#33322E;fill:none;stroke-dasharray:none;stroke-width:3;"></path>
  <path d="M404.5 265.1 L406.5 263.5 L404.5 261.9 L408.5 263.5 Z" style="stroke:#33322E;fill:#33322E;stroke-dasharray:none;stroke-width:3;"></path>
  <path d="M287 315.5 L360.5 291.5 L409.5 291.5 L409.5 291.5 " style="stroke:#33322E;fill:none;stroke-dasharray:none;stroke-width:3;"></path>
  <path d="M407.5 293.1 L409.5 291.5 L407.5 289.9 L411.5 291.5 Z" style="stroke:#33322E;fill:#33322E;stroke-dasharray:none;stroke-width:3;"></path>
  <path d="M494.5 285.2 L545.5 277.5 L618.5 277.5 L618.5 277.5 " style="stroke:#33322E;fill:none;stroke-dasharray:none;stroke-width:3;"></path>
  <path d="M616.5 279.1 L618.5 277.5 L616.5 275.9 L620.5 277.5 Z" style="stroke:#33322E;fill:#33322E;stroke-dasharray:none;stroke-width:3;"></path>
  <path d="M494.5 297.8 L545.5 305.5 L577 305.5 L577 305.5 " style="stroke:#33322E;fill:none;stroke-dasharray:none;stroke-width:3;"></path>
  <path d="M575 307.1 L577 305.5 L575 303.9 L579 305.5 Z" style="stroke:#33322E;fill:#33322E;stroke-dasharray:none;stroke-width:3;"></path>
  <path d="M662.8 339.5 L771.5 137.5 L957 137.5 L957 137.5 " style="stroke:#33322E;fill:none;stroke-dasharray:none;stroke-width:3;"></path>
  <path d="M955 139.1 L957 137.5 L955 135.9 L959 137.5 Z" style="stroke:#33322E;fill:#33322E;stroke-dasharray:none;stroke-width:3;"></path>
  <path d="M354.5 320.5 L360.5 319.5 L403 319.5 L403 319.5 " style="stroke:#33322E;fill:none;stroke-dasharray:none;stroke-width:3;"></path>
  <path d="M401 321.1 L403 319.5 L401 317.9 L405 319.5 Z" style="stroke:#33322E;fill:#33322E;stroke-dasharray:none;stroke-width:3;"></path>
  <path d="M354.5 347.5 L360.5 347.5 L388.5 347.5 L388.5 347.5 " style="stroke:#33322E;fill:none;stroke-dasharray:none;stroke-width:3;"></path>
  <path d="M386.5 349.1 L388.5 347.5 L386.5 345.9 L390.5 347.5 Z" style="stroke:#33322E;fill:#33322E;stroke-dasharray:none;stroke-width:3;"></path>
  <path d="M515.5 347.5 L545.5 347.5 L611 347.5 L611 347.5 " style="stroke:#33322E;fill:none;stroke-dasharray:none;stroke-width:3;"></path>
  <path d="M609 349.1 L611 347.5 L609 345.9 L613 347.5 Z" style="stroke:#33322E;fill:#33322E;stroke-dasharray:none;stroke-width:3;"></path>
  <path d="M663.5 339.5 L771.5 165.5 L1015 165.5 L1015 165.5 " style="stroke:#33322E;fill:none;stroke-dasharray:none;stroke-width:3;"></path>
  <path d="M1013 167.1 L1015 165.5 L1013 163.9 L1017 165.5 Z" style="stroke:#33322E;fill:#33322E;stroke-dasharray:none;stroke-width:3;"></path>
  <path d="M664.4 339.5 L771.5 193.5 L1012 193.5 L1012 193.5 " style="stroke:#33322E;fill:none;stroke-dasharray:none;stroke-width:3;"></path>
  <path d="M1010 195.1 L1012 193.5 L1010 191.9 L1014 193.5 Z" style="stroke:#33322E;fill:#33322E;stroke-dasharray:none;stroke-width:3;"></path>
  <path d="M665.7 339.5 L771.5 221.5 L1049.5 221.5 L1049.5 221.5 " style="stroke:#33322E;fill:none;stroke-dasharray:none;stroke-width:3;"></path>
  <path d="M1047.5 223.1 L1049.5 221.5 L1047.5 219.9 L1051.5 221.5 Z" style="stroke:#33322E;fill:#33322E;stroke-dasharray:none;stroke-width:3;"></path>
  <path d="M667.7 339.5 L771.5 249.5 L989 249.5 L989 249.5 " style="stroke:#33322E;fill:none;stroke-dasharray:none;stroke-width:3;"></path>
  <path d="M987 251.1 L989 249.5 L987 247.9 L991 249.5 Z" style="stroke:#33322E;fill:#33322E;stroke-dasharray:none;stroke-width:3;"></path>
  <path d="M671.4 339.5 L771.5 277.5 L954 277.5 L954 277.5 " style="stroke:#33322E;fill:none;stroke-dasharray:none;stroke-width:3;"></path>
  <path d="M952 279.1 L954 277.5 L952 275.9 L956 277.5 Z" style="stroke:#33322E;fill:#33322E;stroke-dasharray:none;stroke-width:3;"></path>
  <path d="M680 339.5 L771.5 305.5 L1042 305.5 L1042 305.5 " style="stroke:#33322E;fill:none;stroke-dasharray:none;stroke-width:3;"></path>
  <path d="M1040 307.1 L1042 305.5 L1040 303.9 L1044 305.5 Z" style="stroke:#33322E;fill:#33322E;stroke-dasharray:none;stroke-width:3;"></path>
  <path d="M1099 300 L1371.5 245.5 L1424.5 245.5 L1424.5 245.5 " style="stroke:#33322E;fill:none;stroke-dasharray:none;stroke-width:3;"></path>
  <path d="M1422.5 247.1 L1424.5 245.5 L1422.5 243.9 L1426.5 245.5 Z" style="stroke:#33322E;fill:#33322E;stroke-dasharray:none;stroke-width:3;"></path>
  <path d="M1099 306.8 L1371.5 319.5 L1429.5 319.5 L1429.5 319.5 " style="stroke:#33322E;fill:none;stroke-dasharray:none;stroke-width:3;"></path>
  <path d="M1427.5 321.1 L1429.5 319.5 L1427.5 317.9 L1431.5 319.5 Z" style="stroke:#33322E;fill:#33322E;stroke-dasharray:none;stroke-width:3;"></path>
  <path d="M704 341.9 L771.5 333.5 L1022 333.5 L1022 333.5 " style="stroke:#33322E;fill:none;stroke-dasharray:none;stroke-width:3;"></path>
  <path d="M1020 335.1 L1022 333.5 L1020 331.9 L1024 333.5 Z" style="stroke:#33322E;fill:#33322E;stroke-dasharray:none;stroke-width:3;"></path>
  <path d="M704 353.1 L771.5 361.5 L984 361.5 L984 361.5 " style="stroke:#33322E;fill:none;stroke-dasharray:none;stroke-width:3;"></path>
  <path d="M982 363.1 L984 361.5 L982 359.9 L986 361.5 Z" style="stroke:#33322E;fill:#33322E;stroke-dasharray:none;stroke-width:3;"></path>
  <path d="M1157 361.5 L1371.5 361.5 L1465.5 361.5 L1465.5 361.5 " style="stroke:#33322E;fill:none;stroke-dasharray:none;stroke-width:3;"></path>
  <path d="M1463.5 363.1 L1465.5 361.5 L1463.5 359.9 L1467.5 361.5 Z" style="stroke:#33322E;fill:#33322E;stroke-dasharray:none;stroke-width:3;"></path>
  <path d="M1496.6 353.5 L1610.5 189.5 L1651 189.5 L1651 189.5 " style="stroke:#33322E;fill:none;stroke-dasharray:none;stroke-width:3;"></path>
  <path d="M1649 191.1 L1651 189.5 L1649 187.9 L1653 189.5 Z" style="stroke:#33322E;fill:#33322E;stroke-dasharray:none;stroke-width:3;"></path>
  <path d="M1497.6 353.5 L1610.5 217.5 L1653 217.5 L1653 217.5 " style="stroke:#33322E;fill:none;stroke-dasharray:none;stroke-width:3;"></path>
  <path d="M1651 219.1 L1653 217.5 L1651 215.9 L1655 217.5 Z" style="stroke:#33322E;fill:#33322E;stroke-dasharray:none;stroke-width:3;"></path>
  <path d="M1499.2 353.5 L1610.5 245.5 L1661 245.5 L1661 245.5 " style="stroke:#33322E;fill:none;stroke-dasharray:none;stroke-width:3;"></path>
  <path d="M1659 247.1 L1661 245.5 L1659 243.9 L1663 245.5 Z" style="stroke:#33322E;fill:#33322E;stroke-dasharray:none;stroke-width:3;"></path>
  <path d="M1501.9 353.5 L1610.5 273.5 L1671.5 273.5 L1671.5 273.5 " style="stroke:#33322E;fill:none;stroke-dasharray:none;stroke-width:3;"></path>
  <path d="M1669.5 275.1 L1671.5 273.5 L1669.5 271.9 L1673.5 273.5 Z" style="stroke:#33322E;fill:#33322E;stroke-dasharray:none;stroke-width:3;"></path>
  <path d="M1514.5 361.5 L1610.5 361.5 L1674 361.5 L1674 361.5 " style="stroke:#33322E;fill:none;stroke-dasharray:none;stroke-width:3;"></path>
  <path d="M1672 363.1 L1674 361.5 L1672 359.9 L1676 361.5 Z" style="stroke:#33322E;fill:#33322E;stroke-dasharray:none;stroke-width:3;"></path>
  <path d="M1514.5 367 L1610.5 389.5 L1659 389.5 L1659 389.5 " style="stroke:#33322E;fill:none;stroke-dasharray:none;stroke-width:3;"></path>
  <path d="M1657 391.1 L1659 389.5 L1657 387.9 L1661 389.5 Z" style="stroke:#33322E;fill:#33322E;stroke-dasharray:none;stroke-width:3;"></path>
  <path d="M1508.1 369.5 L1610.5 417.5 L1659 417.5 L1659 417.5 " style="stroke:#33322E;fill:none;stroke-dasharray:none;stroke-width:3;"></path>
  <path d="M1657 419.1 L1659 417.5 L1657 415.9 L1661 417.5 Z" style="stroke:#33322E;fill:#33322E;stroke-dasharray:none;stroke-width:3;"></path>
  <path d="M1502.4 369.5 L1610.5 445.5 L1658.5 445.5 L1658.5 445.5 " style="stroke:#33322E;fill:none;stroke-dasharray:none;stroke-width:3;"></path>
  <path d="M1656.5 447.1 L1658.5 445.5 L1656.5 443.9 L1660.5 445.5 Z" style="stroke:#33322E;fill:#33322E;stroke-dasharray:none;stroke-width:3;"></path>
  <path d="M1499.5 369.5 L1610.5 473.5 L1645 473.5 L1645 473.5 " style="stroke:#33322E;fill:none;stroke-dasharray:none;stroke-width:3;"></path>
  <path d="M1643 475.1 L1645 473.5 L1643 471.9 L1647 473.5 Z" style="stroke:#33322E;fill:#33322E;stroke-dasharray:none;stroke-width:3;"></path>
  <path d="M1702.3 465.5 L1787.5 259.5 L1863 259.5 L1863 259.5 " style="stroke:#33322E;fill:none;stroke-dasharray:none;stroke-width:3;"></path>
  <path d="M1861 261.1 L1863 259.5 L1861 257.9 L1865 259.5 Z" style="stroke:#33322E;fill:#33322E;stroke-dasharray:none;stroke-width:3;"></path>
  <path d="M1751 473.5 L1787.5 473.5 L1844.5 473.5 L1844.5 473.5 " style="stroke:#33322E;fill:none;stroke-dasharray:none;stroke-width:3;"></path>
  <path d="M1842.5 475.1 L1844.5 473.5 L1842.5 471.9 L1846.5 473.5 Z" style="stroke:#33322E;fill:#33322E;stroke-dasharray:none;stroke-width:3;"></path>
  <path d="M1724.3 481.5 L1787.5 501.5 L1868 501.5 L1868 501.5 " style="stroke:#33322E;fill:none;stroke-dasharray:none;stroke-width:3;"></path>
  <path d="M1866 503.1 L1868 501.5 L1866 499.9 L1870 501.5 Z" style="stroke:#33322E;fill:#33322E;stroke-dasharray:none;stroke-width:3;"></path>
  <path d="M209.6 379.5 L360.5 613.5 L365.5 613.5 L365.5 613.5 " style="stroke:#33322E;fill:none;stroke-dasharray:none;stroke-width:3;"></path>
  <path d="M363.5 615.1 L365.5 613.5 L363.5 611.9 L367.5 613.5 Z" style="stroke:#33322E;fill:#33322E;stroke-dasharray:none;stroke-width:3;"></path>
  <path d="M457.4 605.5 L545.5 445.5 L616 445.5 L616 445.5 " style="stroke:#33322E;fill:none;stroke-dasharray:none;stroke-width:3;"></path>
  <path d="M614 447.1 L616 445.5 L614 443.9 L618 445.5 Z" style="stroke:#33322E;fill:#33322E;stroke-dasharray:none;stroke-width:3;"></path>
  <path d="M466.2 605.5 L545.5 557.5 L605.5 557.5 L605.5 557.5 " style="stroke:#33322E;fill:none;stroke-dasharray:none;stroke-width:3;"></path>
  <path d="M603.5 559.1 L605.5 557.5 L603.5 555.9 L607.5 557.5 Z" style="stroke:#33322E;fill:#33322E;stroke-dasharray:none;stroke-width:3;"></path>
  <path d="M538.5 613.5 L545.5 613.5 L633 613.5 L633 613.5 " style="stroke:#33322E;fill:none;stroke-dasharray:none;stroke-width:3;"></path>
  <path d="M631 615.1 L633 613.5 L631 611.9 L635 613.5 Z" style="stroke:#33322E;fill:#33322E;stroke-dasharray:none;stroke-width:3;"></path>
  <path d="M682 613.5 L771.5 613.5 L922.5 613.5 L922.5 613.5 " style="stroke:#33322E;fill:none;stroke-dasharray:none;stroke-width:3;"></path>
  <path d="M920.5 615.1 L922.5 613.5 L920.5 611.9 L924.5 613.5 Z" style="stroke:#33322E;fill:#33322E;stroke-dasharray:none;stroke-width:3;"></path>
  <path d="M479.4 621.5 L545.5 641.5 L614.5 641.5 L614.5 641.5 " style="stroke:#33322E;fill:none;stroke-dasharray:none;stroke-width:3;"></path>
  <path d="M612.5 643.1 L614.5 641.5 L612.5 639.9 L616.5 641.5 Z" style="stroke:#33322E;fill:#33322E;stroke-dasharray:none;stroke-width:3;"></path>
  <path d="M1503.9 95.5 L1610.5 161.5 L1614.5 161.5 L1614.5 161.5 " style="stroke:#33322E;fill:none;stroke-dasharray:none;stroke-width:3;"></path>
  <path d="M1612.5 163.1 L1614.5 161.5 L1612.5 159.9 L1616.5 161.5 Z" style="stroke:#33322E;fill:#33322E;stroke-dasharray:none;stroke-width:3;"></path>
  <path d="M207.7 379.5 L360.5 641.5 L364.5 641.5 L364.5 641.5 " style="stroke:#33322E;fill:none;stroke-dasharray:none;stroke-width:3;"></path>
  <path d="M362.5 643.1 L364.5 641.5 L362.5 639.9 L366.5 641.5 Z" style="stroke:#33322E;fill:#33322E;stroke-dasharray:none;stroke-width:3;"></path>
  <path d="M466.2 621.5 L545.5 669.5 L549.5 669.5 L549.5 669.5 " style="stroke:#33322E;fill:none;stroke-dasharray:none;stroke-width:3;"></path>
  <path d="M547.5 671.1 L549.5 669.5 L547.5 667.9 L551.5 669.5 Z" style="stroke:#33322E;fill:#33322E;stroke-dasharray:none;stroke-width:3;"></path>
  <path d="M680 355.5 L771.5 389.5 L949.5 389.5 L949.5 389.5 " style="stroke:#33322E;fill:none;stroke-dasharray:none;stroke-width:3;"></path>
  <path d="M947.5 391.1 L949.5 389.5 L947.5 387.9 L951.5 389.5 Z" style="stroke:#33322E;fill:#33322E;stroke-dasharray:none;stroke-width:3;"></path>
  <path d="M671.4 355.5 L771.5 417.5 L970 417.5 L970 417.5 " style="stroke:#33322E;fill:none;stroke-dasharray:none;stroke-width:3;"></path>
  <path d="M968 419.1 L970 417.5 L968 415.9 L972 417.5 Z" style="stroke:#33322E;fill:#33322E;stroke-dasharray:none;stroke-width:3;"></path>
  <path d="M667.7 355.5 L771.5 445.5 L833 445.5 L833 445.5 " style="stroke:#33322E;fill:none;stroke-dasharray:none;stroke-width:3;"></path>
  <path d="M831 447.1 L833 445.5 L831 443.9 L835 445.5 Z" style="stroke:#33322E;fill:#33322E;stroke-dasharray:none;stroke-width:3;"></path>
  <path d="M665.7 355.5 L771.5 473.5 L890 473.5 L890 473.5 " style="stroke:#33322E;fill:none;stroke-dasharray:none;stroke-width:3;"></path>
  <path d="M888 475.1 L890 473.5 L888 471.9 L892 473.5 Z" style="stroke:#33322E;fill:#33322E;stroke-dasharray:none;stroke-width:3;"></path>
  <path d="M664.4 355.5 L771.5 501.5 L775.5 501.5 L775.5 501.5 " style="stroke:#33322E;fill:none;stroke-dasharray:none;stroke-width:3;"></path>
  <path d="M773.5 503.1 L775.5 501.5 L773.5 499.9 L777.5 501.5 Z" style="stroke:#33322E;fill:#33322E;stroke-dasharray:none;stroke-width:3;"></path>
  <path d="M663.5 355.5 L771.5 529.5 L887.5 529.5 L887.5 529.5 " style="stroke:#33322E;fill:none;stroke-dasharray:none;stroke-width:3;"></path>
  <path d="M885.5 531.1 L887.5 529.5 L885.5 527.9 L889.5 529.5 Z" style="stroke:#33322E;fill:#33322E;stroke-dasharray:none;stroke-width:3;"></path>
  <path d="M662.8 355.5 L771.5 557.5 L813 557.5 L813 557.5 " style="stroke:#33322E;fill:none;stroke-dasharray:none;stroke-width:3;"></path>
  <path d="M811 559.1 L813 557.5 L811 555.9 L815 557.5 Z" style="stroke:#33322E;fill:#33322E;stroke-dasharray:none;stroke-width:3;"></path>
  <path d="M662.3 355.5 L771.5 585.5 L945 585.5 L945 585.5 " style="stroke:#33322E;fill:none;stroke-dasharray:none;stroke-width:3;"></path>
  <path d="M943 587.1 L945 585.5 L943 583.9 L947 585.5 Z" style="stroke:#33322E;fill:#33322E;stroke-dasharray:none;stroke-width:3;"></path>
  <path d="M205.6 379.5 L360.5 677.5 L382.5 677.5 L382.5 677.5 " style="stroke:#33322E;fill:none;stroke-dasharray:none;stroke-width:3;"></path>
  <rect x="23.5" y="315.5" height="64" width="331" data-name="V-Sekai" style="stroke:#33322E;fill:#eee8d5;stroke-dasharray:none;stroke-width:3;"></rect>
  <path d="M23.5 331.5 L354.5 331.5" data-name="V-Sekai" style="stroke:#33322E;fill:none;stroke-dasharray:none;stroke-width:3;"></path>
  <path d="M23.5 347.5 L354.5 347.5" data-name="V-Sekai" style="stroke:#33322E;fill:none;stroke-dasharray:none;stroke-width:3;"></path>
  <path d="M23.5 363.5 L354.5 363.5" data-name="V-Sekai" style="stroke:#33322E;fill:none;stroke-dasharray:none;stroke-width:3;"></path>
  <text x="189" y="327.5" style="fill: #33322E;font:bold  8pt Helvetica, Helvetica, sans-serif;text-anchor: middle;" data-name="V-Sekai">V-Sekai</text>
  <text x="26.5" y="343.5" style="fill: #33322E;font:normal  8pt Helvetica, Helvetica, sans-serif;" data-name="V-Sekai">Players want to define the virtual worlds.</text>
  <text x="26.5" y="359.5" style="fill: #33322E;font:normal  8pt Helvetica, Helvetica, sans-serif;" data-name="V-Sekai">V-Sekai https://v-sekai.org/</text>
  <text x="26.5" y="375.5" style="fill: #33322E;font:normal  8pt Helvetica, Helvetica, sans-serif;" data-name="V-Sekai">Players can&apos;t make their own virtual worlds because it is hard.</text>
  <rect x="1008.5" y="85.5" height="32" width="127" data-name="Collaborate and create" style="stroke:#33322E;fill:#eee8d5;stroke-dasharray:none;stroke-width:3;"></rect>
  <path d="M1008.5 101.5 L1008.5 101.5" data-name="Collaborate and create" style="stroke:#33322E;fill:none;stroke-dasharray:none;stroke-width:3;"></path>
  <path d="M1008.5 101.5 L1135.5 101.5" data-name="Collaborate and create" style="stroke:#33322E;fill:none;stroke-dasharray:none;stroke-width:3;"></path>
  <path d="M1072 101.5 L1072 117.5" data-name="Collaborate and create" style="stroke:#33322E;fill:none;stroke-dasharray:none;stroke-width:3;"></path>
  <path d="M1135.5 101.5 L1135.5 117.5" data-name="Collaborate and create" style="stroke:#33322E;fill:none;stroke-dasharray:none;stroke-width:3;"></path>
  <text x="1072" y="97.5" style="fill: #33322E;font:bold  8pt Helvetica, Helvetica, sans-serif;text-anchor: middle;" data-name="Collaborate and create">Collaborate and create</text>
  <text x="1011.5" y="113.5" style="fill: #33322E;font:normal  8pt Helvetica, Helvetica, sans-serif;" data-name="Collaborate and create">Estimate</text>
  <text x="1075" y="113.5" style="fill: #33322E;font:normal  8pt Helvetica, Helvetica, sans-serif;" data-name="Collaborate and create">?W</text>
  <rect x="382.5" y="661.5" height="32" width="141" data-name="Last changed datetime" style="stroke:#33322E;fill:#eee8d5;stroke-dasharray:none;stroke-width:3;"></rect>
  <path d="M382.5 677.5 L523.5 677.5" data-name="Last changed datetime" style="stroke:#33322E;fill:none;stroke-dasharray:none;stroke-width:3;"></path>
  <text x="453" y="673.5" style="fill: #33322E;font:bold  8pt Helvetica, Helvetica, sans-serif;text-anchor: middle;" data-name="Last changed datetime">Last changed datetime</text>
  <text x="385.5" y="689.5" style="fill: #33322E;font:normal  8pt Helvetica, Helvetica, sans-serif;" data-name="Last changed datetime">2022-02-09T19:36+00:00</text>
  <rect x="613.5" y="339.5" height="16" width="91" data-name="Become avatars" style="stroke:#33322E;fill:#eee8d5;stroke-dasharray:none;stroke-width:3;"></rect>
  <text x="659" y="351.5" style="fill: #33322E;font:bold  8pt Helvetica, Helvetica, sans-serif;text-anchor: middle;" data-name="Become avatars">Become avatars</text>
  <rect x="1422.5" y="23.5" height="16" width="137" data-name="Godot world live creation" style="stroke:#33322E;fill:#eee8d5;stroke-dasharray:none;stroke-width:3;"></rect>
  <text x="1491" y="35.5" style="fill: #33322E;font:bold  8pt Helvetica, Helvetica, sans-serif;text-anchor: middle;" data-name="Godot world live creation">Godot world live creation</text>
  <rect x="1377.5" y="51.5" height="16" width="227" data-name="Place prexisting blocks with blockmeshing" style="stroke:#33322E;fill:#eee8d5;stroke-dasharray:none;stroke-width:3;"></rect>
  <text x="1491" y="63.5" style="fill: #33322E;font:bold  8pt Helvetica, Helvetica, sans-serif;text-anchor: middle;" data-name="Place prexisting blocks with blockmeshing">Place prexisting blocks with blockmeshing</text>
  <rect x="1399.5" y="79.5" height="16" width="183" data-name="Create Godot world creation tools" style="stroke:#33322E;fill:#eee8d5;stroke-dasharray:none;stroke-width:3;"></rect>
  <text x="1491" y="91.5" style="fill: #33322E;font:bold  8pt Helvetica, Helvetica, sans-serif;text-anchor: middle;" data-name="Create Godot world creation tools">Create Godot world creation tools</text>
  <rect x="1452.5" y="153.5" height="16" width="77" data-name="Place scenes" style="stroke:#33322E;fill:#eee8d5;stroke-dasharray:none;stroke-width:3;"></rect>
  <text x="1491" y="165.5" style="fill: #33322E;font:bold  8pt Helvetica, Helvetica, sans-serif;text-anchor: middle;" data-name="Place scenes">Place scenes</text>
  <rect x="1405.5" y="181.5" height="16" width="171" data-name="Construct layers collaboratively" style="stroke:#33322E;fill:#eee8d5;stroke-dasharray:none;stroke-width:3;"></rect>
  <text x="1491" y="193.5" style="fill: #33322E;font:bold  8pt Helvetica, Helvetica, sans-serif;text-anchor: middle;" data-name="Construct layers collaboratively">Construct layers collaboratively</text>
  <rect x="1466.5" y="209.5" height="16" width="49" data-name="Painting" style="stroke:#33322E;fill:#eee8d5;stroke-dasharray:none;stroke-width:3;"></rect>
  <text x="1491" y="221.5" style="fill: #33322E;font:bold  8pt Helvetica, Helvetica, sans-serif;text-anchor: middle;" data-name="Painting">Painting</text>
  <rect x="1634.5" y="51.5" height="16" width="130" data-name="3D models with CASSIE" style="stroke:#33322E;fill:#eee8d5;stroke-dasharray:none;stroke-width:3;"></rect>
  <text x="1699.5" y="63.5" style="fill: #33322E;font:bold  8pt Helvetica, Helvetica, sans-serif;text-anchor: middle;" data-name="3D models with CASSIE">3D models with CASSIE</text>
  <rect x="1793.5" y="51.5" height="16" width="190" data-name="make cassie commercial remixable" style="stroke:#33322E;fill:#eee8d5;stroke-dasharray:none;stroke-width:3;"></rect>
  <text x="1888.5" y="63.5" style="fill: #33322E;font:bold  8pt Helvetica, Helvetica, sans-serif;text-anchor: middle;" data-name="make cassie commercial remixable">make cassie commercial remixable</text>
  <rect x="1636.5" y="79.5" height="16" width="125" data-name="Painting with MaterialX" style="stroke:#33322E;fill:#eee8d5;stroke-dasharray:none;stroke-width:3;"></rect>
  <text x="1699" y="91.5" style="fill: #33322E;font:bold  8pt Helvetica, Helvetica, sans-serif;text-anchor: middle;" data-name="Painting with MaterialX">Painting with MaterialX</text>
  <rect x="408.5" y="255.5" height="16" width="89" data-name="Engine usability" style="stroke:#33322E;fill:#eee8d5;stroke-dasharray:none;stroke-width:3;"></rect>
  <text x="453" y="267.5" style="fill: #33322E;font:bold  8pt Helvetica, Helvetica, sans-serif;text-anchor: middle;" data-name="Engine usability">Engine usability</text>
  <rect x="411.5" y="283.5" height="16" width="83" data-name="Good graphics" style="stroke:#33322E;fill:#eee8d5;stroke-dasharray:none;stroke-width:3;"></rect>
  <text x="453" y="295.5" style="fill: #33322E;font:bold  8pt Helvetica, Helvetica, sans-serif;text-anchor: middle;" data-name="Good graphics">Good graphics</text>
  <rect x="620.5" y="269.5" height="16" width="76" data-name="Good lighting" style="stroke:#33322E;fill:#eee8d5;stroke-dasharray:none;stroke-width:3;"></rect>
  <text x="658.5" y="281.5" style="fill: #33322E;font:bold  8pt Helvetica, Helvetica, sans-serif;text-anchor: middle;" data-name="Good lighting">Good lighting</text>
  <rect x="579.5" y="297.5" height="16" width="159" data-name="VFX (Particles, shaders, Sky)" style="stroke:#33322E;fill:#eee8d5;stroke-dasharray:none;stroke-width:3;"></rect>
  <text x="659" y="309.5" style="fill: #33322E;font:bold  8pt Helvetica, Helvetica, sans-serif;text-anchor: middle;" data-name="VFX (Particles, shaders, Sky)">VFX (Particles, shaders, Sky)</text>
  <rect x="959.5" y="129.5" height="16" width="225" data-name="Advanced avatar (shader, IK, animations)" style="stroke:#33322E;fill:#eee8d5;stroke-dasharray:none;stroke-width:3;"></rect>
  <text x="1072" y="141.5" style="fill: #33322E;font:bold  8pt Helvetica, Helvetica, sans-serif;text-anchor: middle;" data-name="Advanced avatar (shader, IK, animations)">Advanced avatar (shader, IK, animations)</text>
  <rect x="405.5" y="311.5" height="16" width="96" data-name="Imported physics" style="stroke:#33322E;fill:#eee8d5;stroke-dasharray:none;stroke-width:3;"></rect>
  <text x="453.5" y="323.5" style="fill: #33322E;font:bold  8pt Helvetica, Helvetica, sans-serif;text-anchor: middle;" data-name="Imported physics">Imported physics</text>
  <rect x="390.5" y="339.5" height="16" width="125" data-name="Skeleton modifications" style="stroke:#33322E;fill:#eee8d5;stroke-dasharray:none;stroke-width:3;"></rect>
  <text x="453" y="351.5" style="fill: #33322E;font:bold  8pt Helvetica, Helvetica, sans-serif;text-anchor: middle;" data-name="Skeleton modifications">Skeleton modifications</text>
  <rect x="1017.5" y="157.5" height="16" width="109" data-name="Vocal communicate" style="stroke:#33322E;fill:#eee8d5;stroke-dasharray:none;stroke-width:3;"></rect>
  <text x="1072" y="169.5" style="fill: #33322E;font:bold  8pt Helvetica, Helvetica, sans-serif;text-anchor: middle;" data-name="Vocal communicate">Vocal communicate</text>
  <rect x="1014.5" y="185.5" height="16" width="115" data-name="Motion communicate" style="stroke:#33322E;fill:#eee8d5;stroke-dasharray:none;stroke-width:3;"></rect>
  <text x="1072" y="197.5" style="fill: #33322E;font:bold  8pt Helvetica, Helvetica, sans-serif;text-anchor: middle;" data-name="Motion communicate">Motion communicate</text>
  <rect x="1051.5" y="213.5" height="16" width="40" data-name="Dance" style="stroke:#33322E;fill:#eee8d5;stroke-dasharray:none;stroke-width:3;"></rect>
  <text x="1071.5" y="225.5" style="fill: #33322E;font:bold  8pt Helvetica, Helvetica, sans-serif;text-anchor: middle;" data-name="Dance">Dance</text>
  <rect x="991.5" y="241.5" height="16" width="161" data-name="Godot speech comms system" style="stroke:#33322E;fill:#eee8d5;stroke-dasharray:none;stroke-width:3;"></rect>
  <text x="1072" y="253.5" style="fill: #33322E;font:bold  8pt Helvetica, Helvetica, sans-serif;text-anchor: middle;" data-name="Godot speech comms system">Godot speech comms system</text>
  <rect x="956.5" y="269.5" height="16" width="231" data-name="Virtual reality 6 degree of freedom tracking" style="stroke:#33322E;fill:#eee8d5;stroke-dasharray:none;stroke-width:3;"></rect>
  <text x="1072" y="281.5" style="fill: #33322E;font:bold  8pt Helvetica, Helvetica, sans-serif;text-anchor: middle;" data-name="Virtual reality 6 degree of freedom tracking">Virtual reality 6 degree of freedom tracking</text>
  <rect x="1044.5" y="297.5" height="16" width="55" data-name="Following" style="stroke:#33322E;fill:#eee8d5;stroke-dasharray:none;stroke-width:3;"></rect>
  <text x="1072" y="309.5" style="fill: #33322E;font:bold  8pt Helvetica, Helvetica, sans-serif;text-anchor: middle;" data-name="Following">Following</text>
  <rect x="1426.5" y="237.5" height="16" width="129" data-name="Double-sided friending." style="stroke:#33322E;fill:#eee8d5;stroke-dasharray:none;stroke-width:3;"></rect>
  <text x="1491" y="249.5" style="fill: #33322E;font:bold  8pt Helvetica, Helvetica, sans-serif;text-anchor: middle;" data-name="Double-sided friending.">Double-sided friending.</text>
  <rect x="1431.5" y="311.5" height="16" width="119" data-name="Discover new friends." style="stroke:#33322E;fill:#eee8d5;stroke-dasharray:none;stroke-width:3;"></rect>
  <text x="1491" y="323.5" style="fill: #33322E;font:bold  8pt Helvetica, Helvetica, sans-serif;text-anchor: middle;" data-name="Discover new friends.">Discover new friends.</text>
  <rect x="1024.5" y="325.5" height="16" width="95" data-name="Locomotion (flat)" style="stroke:#33322E;fill:#eee8d5;stroke-dasharray:none;stroke-width:3;"></rect>
  <text x="1072" y="337.5" style="fill: #33322E;font:bold  8pt Helvetica, Helvetica, sans-serif;text-anchor: middle;" data-name="Locomotion (flat)">Locomotion (flat)</text>
  <rect x="986.5" y="353.5" height="16" width="171" data-name="Virtual reality motion movement" style="stroke:#33322E;fill:#eee8d5;stroke-dasharray:none;stroke-width:3;"></rect>
  <text x="1072" y="365.5" style="fill: #33322E;font:bold  8pt Helvetica, Helvetica, sans-serif;text-anchor: middle;" data-name="Virtual reality motion movement">Virtual reality motion movement</text>
  <rect x="1467.5" y="353.5" height="16" width="47" data-name="Pickups" style="stroke:#33322E;fill:#eee8d5;stroke-dasharray:none;stroke-width:3;"></rect>
  <text x="1491" y="365.5" style="fill: #33322E;font:bold  8pt Helvetica, Helvetica, sans-serif;text-anchor: middle;" data-name="Pickups">Pickups</text>
  <rect x="1653.5" y="181.5" height="16" width="92" data-name="Wasgo Scripting" style="stroke:#33322E;fill:#eee8d5;stroke-dasharray:none;stroke-width:3;"></rect>
  <text x="1699.5" y="193.5" style="fill: #33322E;font:bold  8pt Helvetica, Helvetica, sans-serif;text-anchor: middle;" data-name="Wasgo Scripting">Wasgo Scripting</text>
  <rect x="1655.5" y="209.5" height="16" width="88" data-name="In-game menus" style="stroke:#33322E;fill:#eee8d5;stroke-dasharray:none;stroke-width:3;"></rect>
  <text x="1699.5" y="221.5" style="fill: #33322E;font:bold  8pt Helvetica, Helvetica, sans-serif;text-anchor: middle;" data-name="In-game menus">In-game menus</text>
  <rect x="1663.5" y="237.5" height="16" width="72" data-name="Video player" style="stroke:#33322E;fill:#eee8d5;stroke-dasharray:none;stroke-width:3;"></rect>
  <text x="1699.5" y="249.5" style="fill: #33322E;font:bold  8pt Helvetica, Helvetica, sans-serif;text-anchor: middle;" data-name="Video player">Video player</text>
  <rect x="1673.5" y="265.5" height="16" width="51" data-name="Vehicles" style="stroke:#33322E;fill:#eee8d5;stroke-dasharray:none;stroke-width:3;"></rect>
  <text x="1699" y="277.5" style="fill: #33322E;font:bold  8pt Helvetica, Helvetica, sans-serif;text-anchor: middle;" data-name="Vehicles">Vehicles</text>
  <rect x="1676.5" y="353.5" height="16" width="46" data-name="Buttons" style="stroke:#33322E;fill:#eee8d5;stroke-dasharray:none;stroke-width:3;"></rect>
  <text x="1699.5" y="365.5" style="fill: #33322E;font:bold  8pt Helvetica, Helvetica, sans-serif;text-anchor: middle;" data-name="Buttons">Buttons</text>
  <rect x="1661.5" y="381.5" height="16" width="76" data-name="Avatar switch" style="stroke:#33322E;fill:#eee8d5;stroke-dasharray:none;stroke-width:3;"></rect>
  <text x="1699.5" y="393.5" style="fill: #33322E;font:bold  8pt Helvetica, Helvetica, sans-serif;text-anchor: middle;" data-name="Avatar switch">Avatar switch</text>
  <rect x="1661.5" y="409.5" height="16" width="76" data-name="World portals" style="stroke:#33322E;fill:#eee8d5;stroke-dasharray:none;stroke-width:3;"></rect>
  <text x="1699.5" y="421.5" style="fill: #33322E;font:bold  8pt Helvetica, Helvetica, sans-serif;text-anchor: middle;" data-name="World portals">World portals</text>
  <rect x="1660.5" y="437.5" height="16" width="77" data-name="Server switch" style="stroke:#33322E;fill:#eee8d5;stroke-dasharray:none;stroke-width:3;"></rect>
  <text x="1699" y="449.5" style="fill: #33322E;font:bold  8pt Helvetica, Helvetica, sans-serif;text-anchor: middle;" data-name="Server switch">Server switch</text>
  <rect x="1647.5" y="465.5" height="16" width="104" data-name="Player interactions" style="stroke:#33322E;fill:#eee8d5;stroke-dasharray:none;stroke-width:3;"></rect>
  <text x="1699.5" y="477.5" style="fill: #33322E;font:bold  8pt Helvetica, Helvetica, sans-serif;text-anchor: middle;" data-name="Player interactions">Player interactions</text>
  <rect x="1865.5" y="251.5" height="16" width="47" data-name="Camera" style="stroke:#33322E;fill:#eee8d5;stroke-dasharray:none;stroke-width:3;"></rect>
  <text x="1889" y="263.5" style="fill: #33322E;font:bold  8pt Helvetica, Helvetica, sans-serif;text-anchor: middle;" data-name="Camera">Camera</text>
  <rect x="1846.5" y="465.5" height="16" width="84" data-name="Bow and arrow" style="stroke:#33322E;fill:#eee8d5;stroke-dasharray:none;stroke-width:3;"></rect>
  <text x="1888.5" y="477.5" style="fill: #33322E;font:bold  8pt Helvetica, Helvetica, sans-serif;text-anchor: middle;" data-name="Bow and arrow">Bow and arrow</text>
  <rect x="1870.5" y="493.5" height="16" width="37" data-name="Mirror" style="stroke:#33322E;fill:#eee8d5;stroke-dasharray:none;stroke-width:3;"></rect>
  <text x="1889" y="505.5" style="fill: #33322E;font:bold  8pt Helvetica, Helvetica, sans-serif;text-anchor: middle;" data-name="Mirror">Mirror</text>
  <rect x="367.5" y="605.5" height="16" width="171" data-name="platform host Uro Infrastructure" style="stroke:#33322E;fill:#eee8d5;stroke-dasharray:none;stroke-width:3;"></rect>
  <text x="453" y="617.5" style="fill: #33322E;font:bold  8pt Helvetica, Helvetica, sans-serif;text-anchor: middle;" data-name="platform host Uro Infrastructure">platform host Uro Infrastructure</text>
  <rect x="618.5" y="437.5" height="16" width="81" data-name="Federation list" style="stroke:#33322E;fill:#eee8d5;stroke-dasharray:none;stroke-width:3;"></rect>
  <text x="659" y="449.5" style="fill: #33322E;font:bold  8pt Helvetica, Helvetica, sans-serif;text-anchor: middle;" data-name="Federation list">Federation list</text>
  <rect x="607.5" y="549.5" height="16" width="102" data-name="Delegated Identity" style="stroke:#33322E;fill:#eee8d5;stroke-dasharray:none;stroke-width:3;"></rect>
  <text x="658.5" y="561.5" style="fill: #33322E;font:bold  8pt Helvetica, Helvetica, sans-serif;text-anchor: middle;" data-name="Delegated Identity">Delegated Identity</text>
  <rect x="635.5" y="605.5" height="16" width="47" data-name="Content" style="stroke:#33322E;fill:#eee8d5;stroke-dasharray:none;stroke-width:3;"></rect>
  <text x="659" y="617.5" style="fill: #33322E;font:bold  8pt Helvetica, Helvetica, sans-serif;text-anchor: middle;" data-name="Content">Content</text>
  <rect x="924.5" y="605.5" height="16" width="294" data-name="Refuse to attest content because scripting is untrusted" style="stroke:#33322E;fill:#eee8d5;stroke-dasharray:none;stroke-width:3;"></rect>
  <text x="1071.5" y="617.5" style="fill: #33322E;font:bold  8pt Helvetica, Helvetica, sans-serif;text-anchor: middle;" data-name="Refuse to attest content because scripting is untrusted">Refuse to attest content because scripting is untrusted</text>
  <rect x="616.5" y="633.5" height="16" width="84" data-name="Deployment kit" style="stroke:#33322E;fill:#eee8d5;stroke-dasharray:none;stroke-width:3;"></rect>
  <text x="658.5" y="645.5" style="fill: #33322E;font:bold  8pt Helvetica, Helvetica, sans-serif;text-anchor: middle;" data-name="Deployment kit">Deployment kit</text>
  <rect x="1616.5" y="153.5" height="16" width="165" data-name="Upgrade PLY to Godot Engine" style="stroke:#33322E;fill:#eee8d5;stroke-dasharray:none;stroke-width:3;"></rect>
  <text x="1699" y="165.5" style="fill: #33322E;font:bold  8pt Helvetica, Helvetica, sans-serif;text-anchor: middle;" data-name="Upgrade PLY to Godot Engine">Upgrade PLY to Godot Engine</text>
  <rect x="366.5" y="633.5" height="16" width="173" data-name="Launch uro using Elixir Desktop" style="stroke:#33322E;fill:#eee8d5;stroke-dasharray:none;stroke-width:3;"></rect>
  <text x="453" y="645.5" style="fill: #33322E;font:bold  8pt Helvetica, Helvetica, sans-serif;text-anchor: middle;" data-name="Launch uro using Elixir Desktop">Launch uro using Elixir Desktop</text>
  <rect x="551.5" y="661.5" height="16" width="214" data-name="Make TrueNas Scale run V-Sekai mirror" style="stroke:#33322E;fill:#eee8d5;stroke-dasharray:none;stroke-width:3;"></rect>
  <text x="658.5" y="673.5" style="fill: #33322E;font:bold  8pt Helvetica, Helvetica, sans-serif;text-anchor: middle;" data-name="Make TrueNas Scale run V-Sekai mirror">Make TrueNas Scale run V-Sekai mirror</text>
  <rect x="951.5" y="381.5" height="16" width="240" data-name="How do we animate the character? VRM1 rig" style="stroke:#33322E;fill:#eee8d5;stroke-dasharray:none;stroke-width:3;"></rect>
  <text x="1071.5" y="393.5" style="fill: #33322E;font:bold  8pt Helvetica, Helvetica, sans-serif;text-anchor: middle;" data-name="How do we animate the character? VRM1 rig">How do we animate the character? VRM1 rig</text>
  <rect x="972.5" y="409.5" height="16" width="199" data-name="How do we retarget to the VRM1 rig?" style="stroke:#33322E;fill:#eee8d5;stroke-dasharray:none;stroke-width:3;"></rect>
  <text x="1072" y="421.5" style="fill: #33322E;font:bold  8pt Helvetica, Helvetica, sans-serif;text-anchor: middle;" data-name="How do we retarget to the VRM1 rig?">How do we retarget to the VRM1 rig?</text>
  <rect x="835.5" y="437.5" height="16" width="473" data-name="How do we mocapture the face rig? Support mapping every single possible standard rig?" style="stroke:#33322E;fill:#eee8d5;stroke-dasharray:none;stroke-width:3;"></rect>
  <text x="1072" y="449.5" style="fill: #33322E;font:bold  8pt Helvetica, Helvetica, sans-serif;text-anchor: middle;" data-name="How do we mocapture the face rig? Support mapping every single possible standard rig?">How do we mocapture the face rig? Support mapping every single possible standard rig?</text>
  <rect x="892.5" y="465.5" height="16" width="359" data-name="How do we make the face rig fast? Blend shape baking to skeletals" style="stroke:#33322E;fill:#eee8d5;stroke-dasharray:none;stroke-width:3;"></rect>
  <text x="1072" y="477.5" style="fill: #33322E;font:bold  8pt Helvetica, Helvetica, sans-serif;text-anchor: middle;" data-name="How do we make the face rig fast? Blend shape baking to skeletals">How do we make the face rig fast? Blend shape baking to skeletals</text>
  <rect x="777.5" y="493.5" height="16" width="588" data-name="How do we create the standard animation set? Want to be better than the status quo of mixamo animation sets" style="stroke:#33322E;fill:#eee8d5;stroke-dasharray:none;stroke-width:3;"></rect>
  <text x="1071.5" y="505.5" style="fill: #33322E;font:bold  8pt Helvetica, Helvetica, sans-serif;text-anchor: middle;" data-name="How do we create the standard animation set? Want to be better than the status quo of mixamo animation sets">How do we create the standard animation set? Want to be better than the status quo of mixamo animation sets</text>
  <rect x="889.5" y="521.5" height="16" width="364" data-name="How do we interact with objects? Pickup animation is stored on prop" style="stroke:#33322E;fill:#eee8d5;stroke-dasharray:none;stroke-width:3;"></rect>
  <text x="1071.5" y="533.5" style="fill: #33322E;font:bold  8pt Helvetica, Helvetica, sans-serif;text-anchor: middle;" data-name="How do we interact with objects? Pickup animation is stored on prop">How do we interact with objects? Pickup animation is stored on prop</text>
  <rect x="815.5" y="549.5" height="16" width="513" data-name="How do we have more diverse characters? Marketplace? Proceduralism? Character generators?" style="stroke:#33322E;fill:#eee8d5;stroke-dasharray:none;stroke-width:3;"></rect>
  <text x="1072" y="561.5" style="fill: #33322E;font:bold  8pt Helvetica, Helvetica, sans-serif;text-anchor: middle;" data-name="How do we have more diverse characters? Marketplace? Proceduralism? Character generators?">How do we have more diverse characters? Marketplace? Proceduralism? Character generators?</text>
  <rect x="947.5" y="577.5" height="16" width="249" data-name="How we turn our voice to facial rig keyframes?" style="stroke:#33322E;fill:#eee8d5;stroke-dasharray:none;stroke-width:3;"></rect>
  <text x="1072" y="589.5" style="fill: #33322E;font:bold  8pt Helvetica, Helvetica, sans-serif;text-anchor: middle;" data-name="How we turn our voice to facial rig keyframes?">How we turn our voice to facial rig keyframes?</text>
</svg>