<svg version="1.1" baseProfile="full" width="3044" height="2371.5" viewbox="0 0 3044 2371.5" xmlns="http://www.w3.org/2000/svg" xmlns:xlink="http://www.w3.org/1999/xlink" xmlns:ev="http://www.w3.org/2001/xml-events" style="font:bold  12pt Helvetica, Helvetica, sans-serif;;stroke-linejoin:round;stroke-linecap:round">
  <title >Players want to define their own virtual worlds, but they can&amp;apos;t because making their own virtual worlds is hard.</title>
  <desc >#title: Players want to define their own virtual worlds, but they can&amp;apos;t because making their own virtual worlds is hard.
#direction: right

[V-Sekai| Players want to define the virtual worlds. | V-Sekai https://v-sekai.org/ |
Players can&apos;t make their own virtual worlds because it is hard.]
[Avatar posession] -&gt; [Godot world live creation]
[Godot world live creation] -&gt; [Imported physics]
[Godot world live creation] -&gt; [Place prexisting blocks with blockmeshing  ]
[Godot world live creation]-&gt; [&lt;table&gt; Create Godot world creation tools ]
[Godot world live creation]-&gt; [Place scenes ]
[Godot world live creation]-&gt; [Construct layers collaboratively ]
[Godot world live creation]-&gt; [Painting  ]
[Godot world live creation]-&gt; [&lt;table&gt; Create Godot world creation tools]
[&lt;table&gt; Create Godot world creation tools ] -&gt; [3D models with CASSIE | Make cassie commercial remixable]
[&lt;table&gt; Create Godot world creation tools ] -&gt; [Painting with MaterialX ]
[Godot world live creation] -&gt; [Jeana usability]
[Godot world live creation] -&gt; [VFX (Particles, shaders, Sky)]
[Avatar posession] -&gt; [Advanced avatar (shader, IK, animations)]
[Skeleton modifications ] -&gt; [Avatar posession]
[Avatar posession] -&gt; [Vocal communicate]
[Avatar posession] -&gt; [Motion communicate]
[Avatar posession] -&gt; [Dance]

[Avatar posession] -&gt; [Godot speech comms system] 
[Avatar posession] -&gt; [Virtual reality 6 degree of freedom tracking ]

[Avatar posession]-&gt;[&lt;table&gt; Following  ]
[&lt;table&gt; Following] -&gt; [Double-sided friending. ]
[&lt;table&gt; Following] -&gt; [Discover new friends. ]

[Avatar posession] -&gt; [Locomotion (flat)| How do we animate the character?| VRM1 rig]
[&lt;tsable&gt; Become avatars] -&gt; [Avatar posession]

[Avatar posession] -&gt; [Pickups| Wasgo Scripting | In-game menus | Video player |Vehicles | Buttons]

[Pickups]-&gt;[&lt;table&gt; Avatar switch ]
[Pickups]-&gt;[World portals ]
[Pickups]-&gt;[Server switch ]

[Pickups]-&gt;[&lt;table&gt; Player interactions ]
[&lt;table&gt; Player interactions] -&gt; [Camera ]
[&lt;table&gt; Player interactions] -&gt; [Bow and arrow ]
[&lt;table&gt; Player interactions] -&gt; [Mirror ]

[Avatar posession]-&gt;[Platform host Uro Infrastructure]
[Platform host Uro Infrastructure] -&gt; [ Federation list ]
[Platform host Uro Infrastructure] -&gt; [ Delegated Identity ]

[Platform host Uro Infrastructure ]-&gt;[&lt;table&gt; Content]
[&lt;table&gt; Content ]-&gt; [Refuse to attest content because scripting is untrusted ]

[&lt;table&gt; Create Godot world creation tools ] -&gt; [&lt;table&gt; Upgrade PLY to Godot Engine]

[Platform host Uro Infrastructure | Deployment kit | Launch uro using Elixir Desktop | Make TrueNas Scale run V-Sekai mirror]

[Avatar posession] -&gt; [How do we retarget to the VRM1 rig?]
[Avatar posession] -&gt; [How do we mocapture the face rig?| Support mapping every single possible standard rig?]
[Avatar posession] -&gt; [How do we make the face rig fast? |Blend shape baking to skeletals]
[Avatar posession] -&gt; [How do we create the standard animation set? |Want to be better than the status quo of mixamo animation sets]
[Avatar posession] -&gt; [How do we interact with objects? |Pickup animation is stored on prop]
[Avatar posession] -&gt; [How do we have more diverse characters? |Marketplace? Proceduralism? Character generators?]
[Avatar posession] -&gt; [How we turn our voice to facial rig keyframes?]

[V-Sekai] -&gt; [Asset loading]
[Asset loading] -&gt; [Avatar posession | Taking the tracking points]
[Asset loading] -&gt; [Animator (Blending Inverse Kinematics with walk animations)]
[Animator (Blending Inverse Kinematics with walk animations)] -&gt; [Avatar posession]
[Avatar posession] -&gt; [Eye targeting | HMD forward vector |
NOT eye tracking |
Eyes looking at random items in it&apos;s field of view 
and changing targets 
to the nearest object | Having small eye saccade jitter movements |
Blink at irregular intervals
]
[Avatar posession] -&gt; [Thing from Steam skeleton]
[Asset loading] -&gt; [Voice analyzer for shapekeys]
[Asset loading] -&gt; [Voice over IP]
[Voice over IP] -&gt; [Mouth flapping]
[Voice analyzer for shapekeys] -&gt; [Avatar posession]
[Voice over IP] -&gt; [Avatar posession]
[Thing from Steam skeleton]  -&gt; [Avatar posession]
[Avatar posession] -&gt; [Eye targeting | HMD forward vector] 
[Animator (Blending Inverse Kinematics with walk animations)] -&gt; [Avatar posession]
[V-Sekai] - [Last changed datetime|2022-02-17T22:23+00:00]
</desc>
  <rect x="0" y="0" height="2371.5" width="3044" style="stroke:none; fill:transparent;"></rect>
  <path d="M1476.5 1556.5 L1603.5 233.8 L1769.3 233.8 L1769.3 233.8 " style="stroke:#33322E;fill:none;stroke-dasharray:none;stroke-width:3;"></path>
  <path d="M1762.7 239.1 L1769.3 233.8 L1762.7 228.4 L1776 233.8 Z" style="stroke:#33322E;fill:#33322E;stroke-dasharray:none;stroke-width:3;"></path>
  <path d="M1904.7 218.3 L2160.5 44 L2272.3 44 L2272.3 44 " style="stroke:#33322E;fill:none;stroke-dasharray:none;stroke-width:3;"></path>
  <path d="M2265.7 49.3 L2272.3 44 L2265.7 38.7 L2279 44 Z" style="stroke:#33322E;fill:#33322E;stroke-dasharray:none;stroke-width:3;"></path>
  <path d="M1918.4 218.3 L2160.5 115 L2173.8 115 L2173.8 115 " style="stroke:#33322E;fill:none;stroke-dasharray:none;stroke-width:3;"></path>
  <path d="M2167.2 120.3 L2173.8 115 L2167.2 109.7 L2180.5 115 Z" style="stroke:#33322E;fill:#33322E;stroke-dasharray:none;stroke-width:3;"></path>
  <path d="M1972.4 218.3 L2160.5 186 L2207.3 186 L2207.3 186 " style="stroke:#33322E;fill:none;stroke-dasharray:none;stroke-width:3;"></path>
  <path d="M2200.7 191.3 L2207.3 186 L2200.7 180.7 L2214 186 Z" style="stroke:#33322E;fill:#33322E;stroke-dasharray:none;stroke-width:3;"></path>
  <path d="M1988 242.6 L2160.5 257 L2286.8 257 L2286.8 257 " style="stroke:#33322E;fill:none;stroke-dasharray:none;stroke-width:3;"></path>
  <path d="M2280.2 262.3 L2286.8 257 L2280.2 251.7 L2293.5 257 Z" style="stroke:#33322E;fill:#33322E;stroke-dasharray:none;stroke-width:3;"></path>
  <path d="M1927.8 249.3 L2160.5 328 L2215.8 328 L2215.8 328 " style="stroke:#33322E;fill:none;stroke-dasharray:none;stroke-width:3;"></path>
  <path d="M2209.2 333.3 L2215.8 328 L2209.2 322.7 L2222.5 328 Z" style="stroke:#33322E;fill:#33322E;stroke-dasharray:none;stroke-width:3;"></path>
  <path d="M1908.1 249.3 L2160.5 399 L2307.8 399 L2307.8 399 " style="stroke:#33322E;fill:none;stroke-dasharray:none;stroke-width:3;"></path>
  <path d="M2301.2 404.3 L2307.8 399 L2301.2 393.7 L2314.5 399 Z" style="stroke:#33322E;fill:#33322E;stroke-dasharray:none;stroke-width:3;"></path>
  <path d="M2389.3 170.5 L2548.5 99.5 L2639.8 99.5 L2639.8 99.5 " style="stroke:#33322E;fill:none;stroke-dasharray:none;stroke-width:3;"></path>
  <path d="M2633.2 104.8 L2639.8 99.5 L2633.2 94.2 L2646.5 99.5 Z" style="stroke:#33322E;fill:#33322E;stroke-dasharray:none;stroke-width:3;"></path>
  <path d="M2495 186 L2548.5 186 L2688.3 186 L2688.3 186 " style="stroke:#33322E;fill:none;stroke-dasharray:none;stroke-width:3;"></path>
  <path d="M2681.7 191.3 L2688.3 186 L2681.7 180.7 L2695 186 Z" style="stroke:#33322E;fill:#33322E;stroke-dasharray:none;stroke-width:3;"></path>
  <path d="M1900.3 249.3 L2160.5 470 L2280.3 470 L2280.3 470 " style="stroke:#33322E;fill:none;stroke-dasharray:none;stroke-width:3;"></path>
  <path d="M2273.7 475.3 L2280.3 470 L2273.7 464.7 L2287 470 Z" style="stroke:#33322E;fill:#33322E;stroke-dasharray:none;stroke-width:3;"></path>
  <path d="M1896 249.3 L2160.5 541 L2224.8 541 L2224.8 541 " style="stroke:#33322E;fill:none;stroke-dasharray:none;stroke-width:3;"></path>
  <path d="M2218.2 546.3 L2224.8 541 L2218.2 535.7 L2231.5 541 Z" style="stroke:#33322E;fill:#33322E;stroke-dasharray:none;stroke-width:3;"></path>
  <path d="M1583.5 1587.5 L1603.5 1587.5 L1703.3 1587.5 L1703.3 1587.5 " style="stroke:#33322E;fill:none;stroke-dasharray:none;stroke-width:3;"></path>
  <path d="M1696.7 1592.8 L1703.3 1587.5 L1696.7 1582.2 L1710 1587.5 Z" style="stroke:#33322E;fill:#33322E;stroke-dasharray:none;stroke-width:3;"></path>
  <path d="M1173.5 1441 L1343.5 1441 L1441.6 1551.5 L1441.6 1551.5 " style="stroke:#33322E;fill:none;stroke-dasharray:none;stroke-width:3;"></path>
  <path d="M1433.2 1550.1 L1441.6 1551.5 L1441.1 1543 L1446 1556.5 Z" style="stroke:#33322E;fill:#33322E;stroke-dasharray:none;stroke-width:3;"></path>
  <path d="M1530.3 1618.5 L1603.5 1658.5 L1790.3 1658.5 L1790.3 1658.5 " style="stroke:#33322E;fill:none;stroke-dasharray:none;stroke-width:3;"></path>
  <path d="M1783.7 1663.8 L1790.3 1658.5 L1783.7 1653.2 L1797 1658.5 Z" style="stroke:#33322E;fill:#33322E;stroke-dasharray:none;stroke-width:3;"></path>
  <path d="M1501.9 1618.5 L1603.5 1729.5 L1785.8 1729.5 L1785.8 1729.5 " style="stroke:#33322E;fill:none;stroke-dasharray:none;stroke-width:3;"></path>
  <path d="M1779.2 1734.8 L1785.8 1729.5 L1779.2 1724.2 L1792.5 1729.5 Z" style="stroke:#33322E;fill:#33322E;stroke-dasharray:none;stroke-width:3;"></path>
  <path d="M1492.4 1618.5 L1603.5 1800.5 L1841.8 1800.5 L1841.8 1800.5 " style="stroke:#33322E;fill:none;stroke-dasharray:none;stroke-width:3;"></path>
  <path d="M1835.2 1805.8 L1841.8 1800.5 L1835.2 1795.2 L1848.5 1800.5 Z" style="stroke:#33322E;fill:#33322E;stroke-dasharray:none;stroke-width:3;"></path>
  <path d="M1487.7 1618.5 L1603.5 1871.5 L1750.8 1871.5 L1750.8 1871.5 " style="stroke:#33322E;fill:none;stroke-dasharray:none;stroke-width:3;"></path>
  <path d="M1744.2 1876.8 L1750.8 1871.5 L1744.2 1866.2 L1757.5 1871.5 Z" style="stroke:#33322E;fill:#33322E;stroke-dasharray:none;stroke-width:3;"></path>
  <path d="M1484.9 1618.5 L1603.5 1942.5 L1698.8 1942.5 L1698.8 1942.5 " style="stroke:#33322E;fill:none;stroke-dasharray:none;stroke-width:3;"></path>
  <path d="M1692.2 1947.8 L1698.8 1942.5 L1692.2 1937.2 L1705.5 1942.5 Z" style="stroke:#33322E;fill:#33322E;stroke-dasharray:none;stroke-width:3;"></path>
  <path d="M1477.8 1556.5 L1603.5 647.5 L1830.3 647.5 L1830.3 647.5 " style="stroke:#33322E;fill:none;stroke-dasharray:none;stroke-width:3;"></path>
  <path d="M1823.7 652.8 L1830.3 647.5 L1823.7 642.2 L1837 647.5 Z" style="stroke:#33322E;fill:#33322E;stroke-dasharray:none;stroke-width:3;"></path>
  <path d="M1927 641.8 L2160.5 612 L2247.8 612 L2247.8 612 " style="stroke:#33322E;fill:none;stroke-dasharray:none;stroke-width:3;"></path>
  <path d="M2241.2 617.3 L2247.8 612 L2241.2 606.7 L2254.5 612 Z" style="stroke:#33322E;fill:#33322E;stroke-dasharray:none;stroke-width:3;"></path>
  <path d="M1895.3 663 L2160.5 972.3 L2254.8 972.3 L2254.8 972.3 " style="stroke:#33322E;fill:none;stroke-dasharray:none;stroke-width:3;"></path>
  <path d="M2248.2 977.6 L2254.8 972.3 L2248.2 966.9 L2261.5 972.3 Z" style="stroke:#33322E;fill:#33322E;stroke-dasharray:none;stroke-width:3;"></path>
  <path d="M1478.3 1556.5 L1603.5 749.5 L1730.3 749.5 L1730.3 749.5 " style="stroke:#33322E;fill:none;stroke-dasharray:none;stroke-width:3;"></path>
  <path d="M1723.7 754.8 L1730.3 749.5 L1723.7 744.2 L1737 749.5 Z" style="stroke:#33322E;fill:#33322E;stroke-dasharray:none;stroke-width:3;"></path>
  <path d="M1148.5 1512 L1343.5 1512 L1414.4 1553.2 L1414.4 1553.2 " style="stroke:#33322E;fill:none;stroke-dasharray:none;stroke-width:3;"></path>
  <path d="M1405.9 1554.4 L1414.4 1553.2 L1411.3 1545.2 L1420.1 1556.5 Z" style="stroke:#33322E;fill:#33322E;stroke-dasharray:none;stroke-width:3;"></path>
  <path d="M1500.6 1556.5 L1603.5 1439 L1802.8 1439 L1802.8 1439 " style="stroke:#33322E;fill:none;stroke-dasharray:none;stroke-width:3;"></path>
  <path d="M1796.2 1444.3 L1802.8 1439 L1796.2 1433.7 L1809.5 1439 Z" style="stroke:#33322E;fill:#33322E;stroke-dasharray:none;stroke-width:3;"></path>
  <path d="M1947.4 1346 L2160.5 1043.3 L2287.3 1043.3 L2287.3 1043.3 " style="stroke:#33322E;fill:none;stroke-dasharray:none;stroke-width:3;"></path>
  <path d="M2280.7 1048.6 L2287.3 1043.3 L2280.7 1037.9 L2294 1043.3 Z" style="stroke:#33322E;fill:#33322E;stroke-dasharray:none;stroke-width:3;"></path>
  <path d="M1954.5 1354.5 L2160.5 1114.3 L2287.3 1114.3 L2287.3 1114.3 " style="stroke:#33322E;fill:none;stroke-dasharray:none;stroke-width:3;"></path>
  <path d="M2280.7 1119.6 L2287.3 1114.3 L2280.7 1108.9 L2294 1114.3 Z" style="stroke:#33322E;fill:#33322E;stroke-dasharray:none;stroke-width:3;"></path>
  <path d="M1954.5 1492.1 L2160.5 1643 L2286.8 1643 L2286.8 1643 " style="stroke:#33322E;fill:none;stroke-dasharray:none;stroke-width:3;"></path>
  <path d="M2280.2 1648.3 L2286.8 1643 L2280.2 1637.7 L2293.5 1643 Z" style="stroke:#33322E;fill:#33322E;stroke-dasharray:none;stroke-width:3;"></path>
  <path d="M1954.5 1510.6 L2160.5 1714 L2266.3 1714 L2266.3 1714 " style="stroke:#33322E;fill:none;stroke-dasharray:none;stroke-width:3;"></path>
  <path d="M2259.7 1719.3 L2266.3 1714 L2259.7 1708.7 L2273 1714 Z" style="stroke:#33322E;fill:#33322E;stroke-dasharray:none;stroke-width:3;"></path>
  <path d="M2359.2 1698.5 L2548.5 1069.8 L2746.8 1069.8 L2746.8 1069.8 " style="stroke:#33322E;fill:none;stroke-dasharray:none;stroke-width:3;"></path>
  <path d="M2740.2 1075.1 L2746.8 1069.8 L2740.2 1064.4 L2753.5 1069.8 Z" style="stroke:#33322E;fill:#33322E;stroke-dasharray:none;stroke-width:3;"></path>
  <path d="M2436 1714 L2548.5 1714 L2719.3 1714 L2719.3 1714 " style="stroke:#33322E;fill:none;stroke-dasharray:none;stroke-width:3;"></path>
  <path d="M2712.7 1719.3 L2719.3 1714 L2712.7 1708.7 L2726 1714 Z" style="stroke:#33322E;fill:#33322E;stroke-dasharray:none;stroke-width:3;"></path>
  <path d="M2382.7 1729.5 L2548.5 1820.5 L2754.8 1820.5 L2754.8 1820.5 " style="stroke:#33322E;fill:none;stroke-dasharray:none;stroke-width:3;"></path>
  <path d="M2748.2 1825.8 L2754.8 1820.5 L2748.2 1815.2 L2761.5 1820.5 Z" style="stroke:#33322E;fill:#33322E;stroke-dasharray:none;stroke-width:3;"></path>
  <path d="M1482 1618.5 L1603.5 2060 L1711.3 2060 L1711.3 2060 " style="stroke:#33322E;fill:none;stroke-dasharray:none;stroke-width:3;"></path>
  <path d="M1704.7 2065.3 L1711.3 2060 L1704.7 2054.7 L1718 2060 Z" style="stroke:#33322E;fill:#33322E;stroke-dasharray:none;stroke-width:3;"></path>
  <path d="M1944.8 1998 L2160.5 1785 L2283.8 1785 L2283.8 1785 " style="stroke:#33322E;fill:none;stroke-dasharray:none;stroke-width:3;"></path>
  <path d="M2277.2 1790.3 L2283.8 1785 L2277.2 1779.7 L2290.5 1785 Z" style="stroke:#33322E;fill:#33322E;stroke-dasharray:none;stroke-width:3;"></path>
  <path d="M2046 2060 L2160.5 2060 L2267.8 2060 L2267.8 2060 " style="stroke:#33322E;fill:none;stroke-dasharray:none;stroke-width:3;"></path>
  <path d="M2261.2 2065.3 L2267.8 2060 L2261.2 2054.7 L2274.5 2060 Z" style="stroke:#33322E;fill:#33322E;stroke-dasharray:none;stroke-width:3;"></path>
  <path d="M2046 2101.8 L2160.5 2131 L2308.8 2131 L2308.8 2131 " style="stroke:#33322E;fill:none;stroke-dasharray:none;stroke-width:3;"></path>
  <path d="M2302.2 2136.3 L2308.8 2131 L2302.2 2125.7 L2315.5 2131 Z" style="stroke:#33322E;fill:#33322E;stroke-dasharray:none;stroke-width:3;"></path>
  <path d="M2393.5 2131 L2548.5 2131 L2561.8 2131 L2561.8 2131 " style="stroke:#33322E;fill:none;stroke-dasharray:none;stroke-width:3;"></path>
  <path d="M2555.2 2136.3 L2561.8 2131 L2555.2 2125.7 L2568.5 2131 Z" style="stroke:#33322E;fill:#33322E;stroke-dasharray:none;stroke-width:3;"></path>
  <path d="M2358.2 201.5 L2548.5 998.8 L2658.8 998.8 L2658.8 998.8 " style="stroke:#33322E;fill:none;stroke-dasharray:none;stroke-width:3;"></path>
  <path d="M2652.2 1004.1 L2658.8 998.8 L2652.2 993.4 L2665.5 998.8 Z" style="stroke:#33322E;fill:#33322E;stroke-dasharray:none;stroke-width:3;"></path>
  <path d="M1480.3 1618.5 L1603.5 2177.5 L1722.3 2177.5 L1722.3 2177.5 " style="stroke:#33322E;fill:none;stroke-dasharray:none;stroke-width:3;"></path>
  <path d="M1715.7 2182.8 L1722.3 2177.5 L1715.7 2172.2 L1729 2177.5 Z" style="stroke:#33322E;fill:#33322E;stroke-dasharray:none;stroke-width:3;"></path>
  <path d="M1479.1 1556.5 L1603.5 867 L1658.8 867 L1658.8 867 " style="stroke:#33322E;fill:none;stroke-dasharray:none;stroke-width:3;"></path>
  <path d="M1652.2 872.3 L1658.8 867 L1652.2 861.7 L1665.5 867 Z" style="stroke:#33322E;fill:#33322E;stroke-dasharray:none;stroke-width:3;"></path>
  <path d="M1480 1556.5 L1603.5 969 L1731.3 969 L1731.3 969 " style="stroke:#33322E;fill:none;stroke-dasharray:none;stroke-width:3;"></path>
  <path d="M1724.7 974.3 L1731.3 969 L1724.7 963.7 L1738 969 Z" style="stroke:#33322E;fill:#33322E;stroke-dasharray:none;stroke-width:3;"></path>
  <path d="M1481.3 1556.5 L1603.5 1071 L1616.8 1071 L1616.8 1071 " style="stroke:#33322E;fill:none;stroke-dasharray:none;stroke-width:3;"></path>
  <path d="M1610.2 1076.3 L1616.8 1071 L1610.2 1065.7 L1623.5 1071 Z" style="stroke:#33322E;fill:#33322E;stroke-dasharray:none;stroke-width:3;"></path>
  <path d="M1483.2 1556.5 L1603.5 1173 L1730.3 1173 L1730.3 1173 " style="stroke:#33322E;fill:none;stroke-dasharray:none;stroke-width:3;"></path>
  <path d="M1723.7 1178.3 L1730.3 1173 L1723.7 1167.7 L1737 1173 Z" style="stroke:#33322E;fill:#33322E;stroke-dasharray:none;stroke-width:3;"></path>
  <path d="M1486.4 1556.5 L1603.5 1275 L1657.8 1275 L1657.8 1275 " style="stroke:#33322E;fill:none;stroke-dasharray:none;stroke-width:3;"></path>
  <path d="M1651.2 1280.3 L1657.8 1275 L1651.2 1269.7 L1664.5 1275 Z" style="stroke:#33322E;fill:#33322E;stroke-dasharray:none;stroke-width:3;"></path>
  <path d="M1479.6 1618.5 L1603.5 2248.5 L1685.3 2248.5 L1685.3 2248.5 " style="stroke:#33322E;fill:none;stroke-dasharray:none;stroke-width:3;"></path>
  <path d="M1678.7 2253.8 L1685.3 2248.5 L1678.7 2243.2 L1692 2248.5 Z" style="stroke:#33322E;fill:#33322E;stroke-dasharray:none;stroke-width:3;"></path>
  <path d="M531.5 1655.3 L551.5 1658.5 L612.3 1658.5 L612.3 1658.5 " style="stroke:#33322E;fill:none;stroke-dasharray:none;stroke-width:3;"></path>
  <path d="M605.7 1663.8 L612.3 1658.5 L605.7 1653.2 L619 1658.5 Z" style="stroke:#33322E;fill:#33322E;stroke-dasharray:none;stroke-width:3;"></path>
  <path d="M702.5 1643 L809.5 1567.5 L1076.5 1567.5 L1076.5 1567.5 L1343.5 1567.5 L1343.5 1567.5 L1356.9 1569.6 L1356.9 1569.6 " style="stroke:#33322E;fill:none;stroke-dasharray:none;stroke-width:3;"></path>
  <path d="M1349.5 1573.8 L1356.9 1569.6 L1351.1 1563.3 L1363.5 1570.6 Z" style="stroke:#33322E;fill:#33322E;stroke-dasharray:none;stroke-width:3;"></path>
  <path d="M736.8 1643 L809.5 1623 L822.8 1623 L822.8 1623 " style="stroke:#33322E;fill:none;stroke-dasharray:none;stroke-width:3;"></path>
  <path d="M816.2 1628.3 L822.8 1623 L816.2 1617.7 L829.5 1623 Z" style="stroke:#33322E;fill:#33322E;stroke-dasharray:none;stroke-width:3;"></path>
  <path d="M1323.5 1623 L1343.5 1623 L1357.1 1619.3 L1357.1 1619.3 " style="stroke:#33322E;fill:none;stroke-dasharray:none;stroke-width:3;"></path>
  <path d="M1352 1626.2 L1357.1 1619.3 L1349.2 1615.9 L1363.5 1617.5 Z" style="stroke:#33322E;fill:#33322E;stroke-dasharray:none;stroke-width:3;"></path>
  <path d="M1477.1 1556.5 L1603.5 470 L1678.8 470 L1678.8 470 " style="stroke:#33322E;fill:none;stroke-dasharray:none;stroke-width:3;"></path>
  <path d="M1672.2 475.3 L1678.8 470 L1672.2 464.7 L1685.5 470 Z" style="stroke:#33322E;fill:#33322E;stroke-dasharray:none;stroke-width:3;"></path>
  <path d="M1479.1 1618.5 L1603.5 2304 L1761.9 2315.4 L1761.9 2315.4 " style="stroke:#33322E;fill:none;stroke-dasharray:none;stroke-width:3;"></path>
  <path d="M1754.8 2320.2 L1761.9 2315.4 L1755.6 2309.6 L1768.5 2315.8 Z" style="stroke:#33322E;fill:#33322E;stroke-dasharray:none;stroke-width:3;"></path>
  <path d="M736.8 1674 L809.5 1694 L944.8 1694 L944.8 1694 " style="stroke:#33322E;fill:none;stroke-dasharray:none;stroke-width:3;"></path>
  <path d="M938.2 1699.3 L944.8 1694 L938.2 1688.7 L951.5 1694 Z" style="stroke:#33322E;fill:#33322E;stroke-dasharray:none;stroke-width:3;"></path>
  <path d="M695.4 1674 L809.5 1792.8 L1009.3 1792.8 L1009.3 1792.8 " style="stroke:#33322E;fill:none;stroke-dasharray:none;stroke-width:3;"></path>
  <path d="M1002.7 1798.1 L1009.3 1792.8 L1002.7 1787.4 L1016 1792.8 Z" style="stroke:#33322E;fill:#33322E;stroke-dasharray:none;stroke-width:3;"></path>
  <path d="M1137 1797.3 L1343.5 1812.8 L1400.3 1812.8 L1400.3 1812.8 " style="stroke:#33322E;fill:none;stroke-dasharray:none;stroke-width:3;"></path>
  <path d="M1393.7 1818.1 L1400.3 1812.8 L1393.7 1807.4 L1407 1812.8 Z" style="stroke:#33322E;fill:#33322E;stroke-dasharray:none;stroke-width:3;"></path>
  <path d="M1201.5 1694 L1343.5 1694 L1430.5 1622.7 L1430.5 1622.7 " style="stroke:#33322E;fill:none;stroke-dasharray:none;stroke-width:3;"></path>
  <path d="M1428.7 1631.1 L1430.5 1622.7 L1422 1622.8 L1435.7 1618.5 Z" style="stroke:#33322E;fill:#33322E;stroke-dasharray:none;stroke-width:3;"></path>
  <path d="M1137 1782.9 L1343.5 1749.5 L1444.5 1623.7 L1444.5 1623.7 " style="stroke:#33322E;fill:none;stroke-dasharray:none;stroke-width:3;"></path>
  <path d="M1444.4 1632.2 L1444.5 1623.7 L1436.1 1625.6 L1448.6 1618.5 Z" style="stroke:#33322E;fill:#33322E;stroke-dasharray:none;stroke-width:3;"></path>
  <path d="M1768.5 2332.2 L1603.5 2344 L1480 1625.1 L1480 1625.1 " style="stroke:#33322E;fill:none;stroke-dasharray:none;stroke-width:3;"></path>
  <path d="M1486.3 1630.7 L1480 1625.1 L1475.8 1632.5 L1478.8 1618.5 Z" style="stroke:#33322E;fill:#33322E;stroke-dasharray:none;stroke-width:3;"></path>
  <path d="M531.5 1575.2 L551.5 1572 L571.5 1572 L571.5 1572 " style="stroke:#33322E;fill:none;stroke-dasharray:none;stroke-width:3;"></path>
  <rect x="1809.5" y="1346.5" height="186" width="145" data-name="Pickups" style="stroke:#33322E;fill:#eee8d5;stroke-dasharray:none;stroke-width:3;"></rect>
  <path d="M1809.5 1377.5 L1954.5 1377.5" data-name="Pickups" style="stroke:#33322E;fill:none;stroke-dasharray:none;stroke-width:3;"></path>
  <path d="M1809.5 1408.5 L1954.5 1408.5" data-name="Pickups" style="stroke:#33322E;fill:none;stroke-dasharray:none;stroke-width:3;"></path>
  <path d="M1809.5 1439.5 L1954.5 1439.5" data-name="Pickups" style="stroke:#33322E;fill:none;stroke-dasharray:none;stroke-width:3;"></path>
  <path d="M1809.5 1470.5 L1954.5 1470.5" data-name="Pickups" style="stroke:#33322E;fill:none;stroke-dasharray:none;stroke-width:3;"></path>
  <path d="M1809.5 1501.5 L1954.5 1501.5" data-name="Pickups" style="stroke:#33322E;fill:none;stroke-dasharray:none;stroke-width:3;"></path>
  <text x="1882" y="1368" style="fill: #33322E;font:bold  12pt Helvetica, Helvetica, sans-serif;text-anchor: middle;" data-name="Pickups">Pickups</text>
  <text x="1817.5" y="1399" style="fill: #33322E;font:normal  12pt Helvetica, Helvetica, sans-serif;" data-name="Pickups">Wasgo Scripting</text>
  <text x="1817.5" y="1430" style="fill: #33322E;font:normal  12pt Helvetica, Helvetica, sans-serif;" data-name="Pickups">In-game menus</text>
  <text x="1817.5" y="1461" style="fill: #33322E;font:normal  12pt Helvetica, Helvetica, sans-serif;" data-name="Pickups">Video player</text>
  <text x="1817.5" y="1492" style="fill: #33322E;font:normal  12pt Helvetica, Helvetica, sans-serif;" data-name="Pickups">Vehicles</text>
  <text x="1817.5" y="1523" style="fill: #33322E;font:normal  12pt Helvetica, Helvetica, sans-serif;" data-name="Pickups">Buttons</text>
  <rect x="1685.5" y="362.5" height="216" width="393" data-name="Eye targeting" style="stroke:#33322E;fill:#eee8d5;stroke-dasharray:none;stroke-width:3;"></rect>
  <path d="M1685.5 393.5 L2078.5 393.5" data-name="Eye targeting" style="stroke:#33322E;fill:none;stroke-dasharray:none;stroke-width:3;"></path>
  <path d="M1685.5 424.5 L2078.5 424.5" data-name="Eye targeting" style="stroke:#33322E;fill:none;stroke-dasharray:none;stroke-width:3;"></path>
  <path d="M1685.5 455.5 L2078.5 455.5" data-name="Eye targeting" style="stroke:#33322E;fill:none;stroke-dasharray:none;stroke-width:3;"></path>
  <path d="M1685.5 516.5 L2078.5 516.5" data-name="Eye targeting" style="stroke:#33322E;fill:none;stroke-dasharray:none;stroke-width:3;"></path>
  <path d="M1685.5 547.5 L2078.5 547.5" data-name="Eye targeting" style="stroke:#33322E;fill:none;stroke-dasharray:none;stroke-width:3;"></path>
  <text x="1882" y="384" style="fill: #33322E;font:bold  12pt Helvetica, Helvetica, sans-serif;text-anchor: middle;" data-name="Eye targeting">Eye targeting</text>
  <text x="1693.5" y="415" style="fill: #33322E;font:normal  12pt Helvetica, Helvetica, sans-serif;" data-name="Eye targeting">HMD forward vector</text>
  <text x="1693.5" y="446" style="fill: #33322E;font:normal  12pt Helvetica, Helvetica, sans-serif;" data-name="Eye targeting">NOT eye tracking</text>
  <text x="1693.5" y="477" style="fill: #33322E;font:normal  12pt Helvetica, Helvetica, sans-serif;" data-name="Eye targeting">Eyes looking at random items in it&apos;s field of view</text>
  <text x="1693.5" y="492" style="fill: #33322E;font:normal  12pt Helvetica, Helvetica, sans-serif;" data-name="Eye targeting">and changing targets</text>
  <text x="1693.5" y="507" style="fill: #33322E;font:normal  12pt Helvetica, Helvetica, sans-serif;" data-name="Eye targeting">to the nearest object</text>
  <text x="1693.5" y="538" style="fill: #33322E;font:normal  12pt Helvetica, Helvetica, sans-serif;" data-name="Eye targeting">Having small eye saccade jitter movements</text>
  <text x="1693.5" y="569" style="fill: #33322E;font:normal  12pt Helvetica, Helvetica, sans-serif;" data-name="Eye targeting">Blink at irregular intervals</text>
  <rect x="28.5" y="1553.5" height="124" width="503" data-name="V-Sekai" style="stroke:#33322E;fill:#eee8d5;stroke-dasharray:none;stroke-width:3;"></rect>
  <path d="M28.5 1584.5 L531.5 1584.5" data-name="V-Sekai" style="stroke:#33322E;fill:none;stroke-dasharray:none;stroke-width:3;"></path>
  <path d="M28.5 1615.5 L531.5 1615.5" data-name="V-Sekai" style="stroke:#33322E;fill:none;stroke-dasharray:none;stroke-width:3;"></path>
  <path d="M28.5 1646.5 L531.5 1646.5" data-name="V-Sekai" style="stroke:#33322E;fill:none;stroke-dasharray:none;stroke-width:3;"></path>
  <text x="280" y="1575" style="fill: #33322E;font:bold  12pt Helvetica, Helvetica, sans-serif;text-anchor: middle;" data-name="V-Sekai">V-Sekai</text>
  <text x="36.5" y="1606" style="fill: #33322E;font:normal  12pt Helvetica, Helvetica, sans-serif;" data-name="V-Sekai">Players want to define the virtual worlds.</text>
  <text x="36.5" y="1637" style="fill: #33322E;font:normal  12pt Helvetica, Helvetica, sans-serif;" data-name="V-Sekai">V-Sekai https://v-sekai.org/</text>
  <text x="36.5" y="1668" style="fill: #33322E;font:normal  12pt Helvetica, Helvetica, sans-serif;" data-name="V-Sekai">Players can&apos;t make their own virtual worlds because it is hard.</text>
  <rect x="1718.5" y="1998.5" height="124" width="328" data-name="Platform host Uro Infrastructure" style="stroke:#33322E;fill:#eee8d5;stroke-dasharray:none;stroke-width:3;"></rect>
  <path d="M1718.5 2029.5 L2046.5 2029.5" data-name="Platform host Uro Infrastructure" style="stroke:#33322E;fill:none;stroke-dasharray:none;stroke-width:3;"></path>
  <path d="M1718.5 2060.5 L2046.5 2060.5" data-name="Platform host Uro Infrastructure" style="stroke:#33322E;fill:none;stroke-dasharray:none;stroke-width:3;"></path>
  <path d="M1718.5 2091.5 L2046.5 2091.5" data-name="Platform host Uro Infrastructure" style="stroke:#33322E;fill:none;stroke-dasharray:none;stroke-width:3;"></path>
  <text x="1882.5" y="2020" style="fill: #33322E;font:bold  12pt Helvetica, Helvetica, sans-serif;text-anchor: middle;" data-name="Platform host Uro Infrastructure">Platform host Uro Infrastructure</text>
  <text x="1726.5" y="2051" style="fill: #33322E;font:normal  12pt Helvetica, Helvetica, sans-serif;" data-name="Platform host Uro Infrastructure">Deployment kit</text>
  <text x="1726.5" y="2082" style="fill: #33322E;font:normal  12pt Helvetica, Helvetica, sans-serif;" data-name="Platform host Uro Infrastructure">Launch uro using Elixir Desktop</text>
  <text x="1726.5" y="2113" style="fill: #33322E;font:normal  12pt Helvetica, Helvetica, sans-serif;" data-name="Platform host Uro Infrastructure">Make TrueNas Scale run V-Sekai mirror</text>
  <rect x="1737.5" y="703.5" height="93" width="290" data-name="Locomotion (flat)" style="stroke:#33322E;fill:#eee8d5;stroke-dasharray:none;stroke-width:3;"></rect>
  <path d="M1737.5 734.5 L2027.5 734.5" data-name="Locomotion (flat)" style="stroke:#33322E;fill:none;stroke-dasharray:none;stroke-width:3;"></path>
  <path d="M1737.5 765.5 L2027.5 765.5" data-name="Locomotion (flat)" style="stroke:#33322E;fill:none;stroke-dasharray:none;stroke-width:3;"></path>
  <text x="1882.5" y="725" style="fill: #33322E;font:bold  12pt Helvetica, Helvetica, sans-serif;text-anchor: middle;" data-name="Locomotion (flat)">Locomotion (flat)</text>
  <text x="1745.5" y="756" style="fill: #33322E;font:normal  12pt Helvetica, Helvetica, sans-serif;" data-name="Locomotion (flat)">How do we animate the character?</text>
  <text x="1745.5" y="787" style="fill: #33322E;font:normal  12pt Helvetica, Helvetica, sans-serif;" data-name="Locomotion (flat)">VRM1 rig</text>
  <rect x="2646.5" y="68.5" height="62" width="292" data-name="3D models with CASSIE" style="stroke:#33322E;fill:#eee8d5;stroke-dasharray:none;stroke-width:3;"></rect>
  <path d="M2646.5 99.5 L2938.5 99.5" data-name="3D models with CASSIE" style="stroke:#33322E;fill:none;stroke-dasharray:none;stroke-width:3;"></path>
  <text x="2792.5" y="90" style="fill: #33322E;font:bold  12pt Helvetica, Helvetica, sans-serif;text-anchor: middle;" data-name="3D models with CASSIE">3D models with CASSIE</text>
  <text x="2654.5" y="121" style="fill: #33322E;font:normal  12pt Helvetica, Helvetica, sans-serif;" data-name="3D models with CASSIE">Make cassie commercial remixable</text>
  <rect x="1665.5" y="836.5" height="62" width="433" data-name="How do we mocapture the face rig?" style="stroke:#33322E;fill:#eee8d5;stroke-dasharray:none;stroke-width:3;"></rect>
  <path d="M1665.5 867.5 L2098.5 867.5" data-name="How do we mocapture the face rig?" style="stroke:#33322E;fill:none;stroke-dasharray:none;stroke-width:3;"></path>
  <text x="1882" y="858" style="fill: #33322E;font:bold  12pt Helvetica, Helvetica, sans-serif;text-anchor: middle;" data-name="How do we mocapture the face rig?">How do we mocapture the face rig?</text>
  <text x="1673.5" y="889" style="fill: #33322E;font:normal  12pt Helvetica, Helvetica, sans-serif;" data-name="How do we mocapture the face rig?">Support mapping every single possible standard rig?</text>
  <rect x="1738.5" y="938.5" height="62" width="288" data-name="How do we make the face rig fast?" style="stroke:#33322E;fill:#eee8d5;stroke-dasharray:none;stroke-width:3;"></rect>
  <path d="M1738.5 969.5 L2026.5 969.5" data-name="How do we make the face rig fast?" style="stroke:#33322E;fill:none;stroke-dasharray:none;stroke-width:3;"></path>
  <text x="1882.5" y="960" style="fill: #33322E;font:bold  12pt Helvetica, Helvetica, sans-serif;text-anchor: middle;" data-name="How do we make the face rig fast?">How do we make the face rig fast?</text>
  <text x="1746.5" y="991" style="fill: #33322E;font:normal  12pt Helvetica, Helvetica, sans-serif;" data-name="How do we make the face rig fast?">Blend shape baking to skeletals</text>
  <rect x="1623.5" y="1040.5" height="62" width="517" data-name="How do we create the standard animation set?" style="stroke:#33322E;fill:#eee8d5;stroke-dasharray:none;stroke-width:3;"></rect>
  <path d="M1623.5 1071.5 L2140.5 1071.5" data-name="How do we create the standard animation set?" style="stroke:#33322E;fill:none;stroke-dasharray:none;stroke-width:3;"></path>
  <text x="1882" y="1062" style="fill: #33322E;font:bold  12pt Helvetica, Helvetica, sans-serif;text-anchor: middle;" data-name="How do we create the standard animation set?">How do we create the standard animation set?</text>
  <text x="1631.5" y="1093" style="fill: #33322E;font:normal  12pt Helvetica, Helvetica, sans-serif;" data-name="How do we create the standard animation set?">Want to be better than the status quo of mixamo animation sets</text>
  <rect x="1737.5" y="1142.5" height="62" width="290" data-name="How do we interact with objects?" style="stroke:#33322E;fill:#eee8d5;stroke-dasharray:none;stroke-width:3;"></rect>
  <path d="M1737.5 1173.5 L2027.5 1173.5" data-name="How do we interact with objects?" style="stroke:#33322E;fill:none;stroke-dasharray:none;stroke-width:3;"></path>
  <text x="1882.5" y="1164" style="fill: #33322E;font:bold  12pt Helvetica, Helvetica, sans-serif;text-anchor: middle;" data-name="How do we interact with objects?">How do we interact with objects?</text>
  <text x="1745.5" y="1195" style="fill: #33322E;font:normal  12pt Helvetica, Helvetica, sans-serif;" data-name="How do we interact with objects?">Pickup animation is stored on prop</text>
  <rect x="1664.5" y="1244.5" height="62" width="435" data-name="How do we have more diverse characters?" style="stroke:#33322E;fill:#eee8d5;stroke-dasharray:none;stroke-width:3;"></rect>
  <path d="M1664.5 1275.5 L2099.5 1275.5" data-name="How do we have more diverse characters?" style="stroke:#33322E;fill:none;stroke-dasharray:none;stroke-width:3;"></path>
  <text x="1882" y="1266" style="fill: #33322E;font:bold  12pt Helvetica, Helvetica, sans-serif;text-anchor: middle;" data-name="How do we have more diverse characters?">How do we have more diverse characters?</text>
  <text x="1672.5" y="1297" style="fill: #33322E;font:normal  12pt Helvetica, Helvetica, sans-serif;" data-name="How do we have more diverse characters?">Marketplace? Proceduralism? Character generators?</text>
  <rect x="1363.5" y="1556.5" height="62" width="220" data-name="Avatar posession" style="stroke:#33322E;fill:#eee8d5;stroke-dasharray:none;stroke-width:3;"></rect>
  <path d="M1363.5 1587.5 L1583.5 1587.5" data-name="Avatar posession" style="stroke:#33322E;fill:none;stroke-dasharray:none;stroke-width:3;"></path>
  <text x="1473.5" y="1578" style="fill: #33322E;font:bold  12pt Helvetica, Helvetica, sans-serif;text-anchor: middle;" data-name="Avatar posession">Avatar posession</text>
  <text x="1371.5" y="1609" style="fill: #33322E;font:normal  12pt Helvetica, Helvetica, sans-serif;" data-name="Avatar posession">Taking the tracking points</text>
  <rect x="571.5" y="1541.5" height="62" width="218" data-name="Last changed datetime" style="stroke:#33322E;fill:#eee8d5;stroke-dasharray:none;stroke-width:3;"></rect>
  <path d="M571.5 1572.5 L789.5 1572.5" data-name="Last changed datetime" style="stroke:#33322E;fill:none;stroke-dasharray:none;stroke-width:3;"></path>
  <text x="680.5" y="1563" style="fill: #33322E;font:bold  12pt Helvetica, Helvetica, sans-serif;text-anchor: middle;" data-name="Last changed datetime">Last changed datetime</text>
  <text x="579.5" y="1594" style="fill: #33322E;font:normal  12pt Helvetica, Helvetica, sans-serif;" data-name="Last changed datetime">2022-02-17T22:23+00:00</text>
  <rect x="1776.5" y="218.5" height="31" width="212" data-name="Godot world live creation" style="stroke:#33322E;fill:#eee8d5;stroke-dasharray:none;stroke-width:3;"></rect>
  <text x="1882.5" y="240" style="fill: #33322E;font:bold  12pt Helvetica, Helvetica, sans-serif;text-anchor: middle;" data-name="Godot world live creation">Godot world live creation</text>
  <rect x="2279.5" y="28.5" height="31" width="151" data-name="Imported physics" style="stroke:#33322E;fill:#eee8d5;stroke-dasharray:none;stroke-width:3;"></rect>
  <text x="2355" y="50" style="fill: #33322E;font:bold  12pt Helvetica, Helvetica, sans-serif;text-anchor: middle;" data-name="Imported physics">Imported physics</text>
  <rect x="2180.5" y="99.5" height="31" width="348" data-name="Place prexisting blocks with blockmeshing" style="stroke:#33322E;fill:#eee8d5;stroke-dasharray:none;stroke-width:3;"></rect>
  <text x="2354.5" y="121" style="fill: #33322E;font:bold  12pt Helvetica, Helvetica, sans-serif;text-anchor: middle;" data-name="Place prexisting blocks with blockmeshing">Place prexisting blocks with blockmeshing</text>
  <rect x="2214.5" y="170.5" height="31" width="281" data-name="Create Godot world creation tools" style="stroke:#33322E;fill:#eee8d5;stroke-dasharray:none;stroke-width:3;"></rect>
  <text x="2355" y="192" style="fill: #33322E;font:bold  12pt Helvetica, Helvetica, sans-serif;text-anchor: middle;" data-name="Create Godot world creation tools">Create Godot world creation tools</text>
  <rect x="2293.5" y="241.5" height="31" width="122" data-name="Place scenes" style="stroke:#33322E;fill:#eee8d5;stroke-dasharray:none;stroke-width:3;"></rect>
  <text x="2354.5" y="263" style="fill: #33322E;font:bold  12pt Helvetica, Helvetica, sans-serif;text-anchor: middle;" data-name="Place scenes">Place scenes</text>
  <rect x="2222.5" y="312.5" height="31" width="264" data-name="Construct layers collaboratively" style="stroke:#33322E;fill:#eee8d5;stroke-dasharray:none;stroke-width:3;"></rect>
  <text x="2354.5" y="334" style="fill: #33322E;font:bold  12pt Helvetica, Helvetica, sans-serif;text-anchor: middle;" data-name="Construct layers collaboratively">Construct layers collaboratively</text>
  <rect x="2314.5" y="383.5" height="31" width="80" data-name="Painting" style="stroke:#33322E;fill:#eee8d5;stroke-dasharray:none;stroke-width:3;"></rect>
  <text x="2354.5" y="405" style="fill: #33322E;font:bold  12pt Helvetica, Helvetica, sans-serif;text-anchor: middle;" data-name="Painting">Painting</text>
  <rect x="2695.5" y="170.5" height="31" width="195" data-name="Painting with MaterialX" style="stroke:#33322E;fill:#eee8d5;stroke-dasharray:none;stroke-width:3;"></rect>
  <text x="2793" y="192" style="fill: #33322E;font:bold  12pt Helvetica, Helvetica, sans-serif;text-anchor: middle;" data-name="Painting with MaterialX">Painting with MaterialX</text>
  <rect x="2287.5" y="454.5" height="31" width="135" data-name="Jeana usability" style="stroke:#33322E;fill:#eee8d5;stroke-dasharray:none;stroke-width:3;"></rect>
  <text x="2355" y="476" style="fill: #33322E;font:bold  12pt Helvetica, Helvetica, sans-serif;text-anchor: middle;" data-name="Jeana usability">Jeana usability</text>
  <rect x="2231.5" y="525.5" height="31" width="246" data-name="VFX (Particles, shaders, Sky)" style="stroke:#33322E;fill:#eee8d5;stroke-dasharray:none;stroke-width:3;"></rect>
  <text x="2354.5" y="547" style="fill: #33322E;font:bold  12pt Helvetica, Helvetica, sans-serif;text-anchor: middle;" data-name="VFX (Particles, shaders, Sky)">VFX (Particles, shaders, Sky)</text>
  <rect x="1710.5" y="1572.5" height="31" width="344" data-name="Advanced avatar (shader, IK, animations)" style="stroke:#33322E;fill:#eee8d5;stroke-dasharray:none;stroke-width:3;"></rect>
  <text x="1882.5" y="1594" style="fill: #33322E;font:bold  12pt Helvetica, Helvetica, sans-serif;text-anchor: middle;" data-name="Advanced avatar (shader, IK, animations)">Advanced avatar (shader, IK, animations)</text>
  <rect x="979.5" y="1425.5" height="31" width="194" data-name="Skeleton modifications" style="stroke:#33322E;fill:#eee8d5;stroke-dasharray:none;stroke-width:3;"></rect>
  <text x="1076.5" y="1447" style="fill: #33322E;font:bold  12pt Helvetica, Helvetica, sans-serif;text-anchor: middle;" data-name="Skeleton modifications">Skeleton modifications</text>
  <rect x="1797.5" y="1643.5" height="31" width="170" data-name="Vocal communicate" style="stroke:#33322E;fill:#eee8d5;stroke-dasharray:none;stroke-width:3;"></rect>
  <text x="1882.5" y="1665" style="fill: #33322E;font:bold  12pt Helvetica, Helvetica, sans-serif;text-anchor: middle;" data-name="Vocal communicate">Vocal communicate</text>
  <rect x="1792.5" y="1714.5" height="31" width="179" data-name="Motion communicate" style="stroke:#33322E;fill:#eee8d5;stroke-dasharray:none;stroke-width:3;"></rect>
  <text x="1882" y="1736" style="fill: #33322E;font:bold  12pt Helvetica, Helvetica, sans-serif;text-anchor: middle;" data-name="Motion communicate">Motion communicate</text>
  <rect x="1848.5" y="1785.5" height="31" width="67" data-name="Dance" style="stroke:#33322E;fill:#eee8d5;stroke-dasharray:none;stroke-width:3;"></rect>
  <text x="1882" y="1807" style="fill: #33322E;font:bold  12pt Helvetica, Helvetica, sans-serif;text-anchor: middle;" data-name="Dance">Dance</text>
  <rect x="1757.5" y="1856.5" height="31" width="249" data-name="Godot speech comms system" style="stroke:#33322E;fill:#eee8d5;stroke-dasharray:none;stroke-width:3;"></rect>
  <text x="1882" y="1878" style="fill: #33322E;font:bold  12pt Helvetica, Helvetica, sans-serif;text-anchor: middle;" data-name="Godot speech comms system">Godot speech comms system</text>
  <rect x="1705.5" y="1927.5" height="31" width="353" data-name="Virtual reality 6 degree of freedom tracking" style="stroke:#33322E;fill:#eee8d5;stroke-dasharray:none;stroke-width:3;"></rect>
  <text x="1882" y="1949" style="fill: #33322E;font:bold  12pt Helvetica, Helvetica, sans-serif;text-anchor: middle;" data-name="Virtual reality 6 degree of freedom tracking">Virtual reality 6 degree of freedom tracking</text>
  <rect x="1837.5" y="632.5" height="31" width="90" data-name="Following" style="stroke:#33322E;fill:#eee8d5;stroke-dasharray:none;stroke-width:3;"></rect>
  <text x="1882.5" y="654" style="fill: #33322E;font:bold  12pt Helvetica, Helvetica, sans-serif;text-anchor: middle;" data-name="Following">Following</text>
  <rect x="2254.5" y="596.5" height="31" width="200" data-name="Double-sided friending." style="stroke:#33322E;fill:#eee8d5;stroke-dasharray:none;stroke-width:3;"></rect>
  <text x="2354.5" y="618" style="fill: #33322E;font:bold  12pt Helvetica, Helvetica, sans-serif;text-anchor: middle;" data-name="Double-sided friending.">Double-sided friending.</text>
  <rect x="2261.5" y="956.5" height="31" width="186" data-name="Discover new friends." style="stroke:#33322E;fill:#eee8d5;stroke-dasharray:none;stroke-width:3;"></rect>
  <text x="2354.5" y="978" style="fill: #33322E;font:bold  12pt Helvetica, Helvetica, sans-serif;text-anchor: middle;" data-name="Discover new friends.">Discover new friends.</text>
  <rect x="1004.5" y="1496.5" height="31" width="144" data-name="Become avatars" style="stroke:#33322E;fill:#eee8d5;stroke-dasharray:none;stroke-width:3;"></rect>
  <text x="1076.5" y="1518" style="fill: #33322E;font:bold  12pt Helvetica, Helvetica, sans-serif;text-anchor: middle;" data-name="Become avatars">Become avatars</text>
  <rect x="2294.5" y="1027.5" height="31" width="121" data-name="Avatar switch" style="stroke:#33322E;fill:#eee8d5;stroke-dasharray:none;stroke-width:3;"></rect>
  <text x="2355" y="1049" style="fill: #33322E;font:bold  12pt Helvetica, Helvetica, sans-serif;text-anchor: middle;" data-name="Avatar switch">Avatar switch</text>
  <rect x="2294.5" y="1098.5" height="31" width="121" data-name="World portals" style="stroke:#33322E;fill:#eee8d5;stroke-dasharray:none;stroke-width:3;"></rect>
  <text x="2355" y="1120" style="fill: #33322E;font:bold  12pt Helvetica, Helvetica, sans-serif;text-anchor: middle;" data-name="World portals">World portals</text>
  <rect x="2293.5" y="1627.5" height="31" width="122" data-name="Server switch" style="stroke:#33322E;fill:#eee8d5;stroke-dasharray:none;stroke-width:3;"></rect>
  <text x="2354.5" y="1649" style="fill: #33322E;font:bold  12pt Helvetica, Helvetica, sans-serif;text-anchor: middle;" data-name="Server switch">Server switch</text>
  <rect x="2273.5" y="1698.5" height="31" width="163" data-name="Player interactions" style="stroke:#33322E;fill:#eee8d5;stroke-dasharray:none;stroke-width:3;"></rect>
  <text x="2355" y="1720" style="fill: #33322E;font:bold  12pt Helvetica, Helvetica, sans-serif;text-anchor: middle;" data-name="Player interactions">Player interactions</text>
  <rect x="2753.5" y="1054.5" height="31" width="78" data-name="Camera" style="stroke:#33322E;fill:#eee8d5;stroke-dasharray:none;stroke-width:3;"></rect>
  <text x="2792.5" y="1076" style="fill: #33322E;font:bold  12pt Helvetica, Helvetica, sans-serif;text-anchor: middle;" data-name="Camera">Camera</text>
  <rect x="2726.5" y="1698.5" height="31" width="133" data-name="Bow and arrow" style="stroke:#33322E;fill:#eee8d5;stroke-dasharray:none;stroke-width:3;"></rect>
  <text x="2793" y="1720" style="fill: #33322E;font:bold  12pt Helvetica, Helvetica, sans-serif;text-anchor: middle;" data-name="Bow and arrow">Bow and arrow</text>
  <rect x="2761.5" y="1805.5" height="31" width="62" data-name="Mirror" style="stroke:#33322E;fill:#eee8d5;stroke-dasharray:none;stroke-width:3;"></rect>
  <text x="2792.5" y="1827" style="fill: #33322E;font:bold  12pt Helvetica, Helvetica, sans-serif;text-anchor: middle;" data-name="Mirror">Mirror</text>
  <rect x="2290.5" y="1769.5" height="31" width="128" data-name="Federation list" style="stroke:#33322E;fill:#eee8d5;stroke-dasharray:none;stroke-width:3;"></rect>
  <text x="2354.5" y="1791" style="fill: #33322E;font:bold  12pt Helvetica, Helvetica, sans-serif;text-anchor: middle;" data-name="Federation list">Federation list</text>
  <rect x="2274.5" y="2044.5" height="31" width="160" data-name="Delegated Identity" style="stroke:#33322E;fill:#eee8d5;stroke-dasharray:none;stroke-width:3;"></rect>
  <text x="2354.5" y="2066" style="fill: #33322E;font:bold  12pt Helvetica, Helvetica, sans-serif;text-anchor: middle;" data-name="Delegated Identity">Delegated Identity</text>
  <rect x="2315.5" y="2115.5" height="31" width="78" data-name="Content" style="stroke:#33322E;fill:#eee8d5;stroke-dasharray:none;stroke-width:3;"></rect>
  <text x="2354.5" y="2137" style="fill: #33322E;font:bold  12pt Helvetica, Helvetica, sans-serif;text-anchor: middle;" data-name="Content">Content</text>
  <rect x="2568.5" y="2115.5" height="31" width="448" data-name="Refuse to attest content because scripting is untrusted" style="stroke:#33322E;fill:#eee8d5;stroke-dasharray:none;stroke-width:3;"></rect>
  <text x="2792.5" y="2137" style="fill: #33322E;font:bold  12pt Helvetica, Helvetica, sans-serif;text-anchor: middle;" data-name="Refuse to attest content because scripting is untrusted">Refuse to attest content because scripting is untrusted</text>
  <rect x="2665.5" y="983.5" height="31" width="254" data-name="Upgrade PLY to Godot Engine" style="stroke:#33322E;fill:#eee8d5;stroke-dasharray:none;stroke-width:3;"></rect>
  <text x="2792.5" y="1005" style="fill: #33322E;font:bold  12pt Helvetica, Helvetica, sans-serif;text-anchor: middle;" data-name="Upgrade PLY to Godot Engine">Upgrade PLY to Godot Engine</text>
  <rect x="1729.5" y="2162.5" height="31" width="306" data-name="How do we retarget to the VRM1 rig?" style="stroke:#33322E;fill:#eee8d5;stroke-dasharray:none;stroke-width:3;"></rect>
  <text x="1882.5" y="2184" style="fill: #33322E;font:bold  12pt Helvetica, Helvetica, sans-serif;text-anchor: middle;" data-name="How do we retarget to the VRM1 rig?">How do we retarget to the VRM1 rig?</text>
  <rect x="1692.5" y="2233.5" height="31" width="380" data-name="How we turn our voice to facial rig keyframes?" style="stroke:#33322E;fill:#eee8d5;stroke-dasharray:none;stroke-width:3;"></rect>
  <text x="1882.5" y="2255" style="fill: #33322E;font:bold  12pt Helvetica, Helvetica, sans-serif;text-anchor: middle;" data-name="How we turn our voice to facial rig keyframes?">How we turn our voice to facial rig keyframes?</text>
  <rect x="619.5" y="1643.5" height="31" width="123" data-name="Asset loading" style="stroke:#33322E;fill:#eee8d5;stroke-dasharray:none;stroke-width:3;"></rect>
  <text x="681" y="1665" style="fill: #33322E;font:bold  12pt Helvetica, Helvetica, sans-serif;text-anchor: middle;" data-name="Asset loading">Asset loading</text>
  <rect x="829.5" y="1607.5" height="31" width="494" data-name="Animator (Blending Inverse Kinematics with walk animations)" style="stroke:#33322E;fill:#eee8d5;stroke-dasharray:none;stroke-width:3;"></rect>
  <text x="1076.5" y="1629" style="fill: #33322E;font:bold  12pt Helvetica, Helvetica, sans-serif;text-anchor: middle;" data-name="Animator (Blending Inverse Kinematics with walk animations)">Animator (Blending Inverse Kinematics with walk animations)</text>
  <rect x="1768.5" y="2308.5" height="31" width="227" data-name="Thing from Steam skeleton" style="stroke:#33322E;fill:#eee8d5;stroke-dasharray:none;stroke-width:3;"></rect>
  <text x="1882" y="2330" style="fill: #33322E;font:bold  12pt Helvetica, Helvetica, sans-serif;text-anchor: middle;" data-name="Thing from Steam skeleton">Thing from Steam skeleton</text>
  <rect x="951.5" y="1678.5" height="31" width="250" data-name="Voice analyzer for shapekeys" style="stroke:#33322E;fill:#eee8d5;stroke-dasharray:none;stroke-width:3;"></rect>
  <text x="1076.5" y="1700" style="fill: #33322E;font:bold  12pt Helvetica, Helvetica, sans-serif;text-anchor: middle;" data-name="Voice analyzer for shapekeys">Voice analyzer for shapekeys</text>
  <rect x="1016.5" y="1777.5" height="31" width="121" data-name="Voice over IP" style="stroke:#33322E;fill:#eee8d5;stroke-dasharray:none;stroke-width:3;"></rect>
  <text x="1077" y="1799" style="fill: #33322E;font:bold  12pt Helvetica, Helvetica, sans-serif;text-anchor: middle;" data-name="Voice over IP">Voice over IP</text>
  <rect x="1407.5" y="1797.5" height="31" width="133" data-name="Mouth flapping" style="stroke:#33322E;fill:#eee8d5;stroke-dasharray:none;stroke-width:3;"></rect>
  <text x="1474" y="1819" style="fill: #33322E;font:bold  12pt Helvetica, Helvetica, sans-serif;text-anchor: middle;" data-name="Mouth flapping">Mouth flapping</text>
</svg>