<svg version="1.1" baseProfile="full" width="3541" height="597" viewbox="0 0 3541 597" xmlns="http://www.w3.org/2000/svg" xmlns:xlink="http://www.w3.org/1999/xlink" xmlns:ev="http://www.w3.org/2001/xml-events" style="font:bold  12pt Helvetica, Helvetica, sans-serif;;stroke-linejoin:round;stroke-linecap:round">
  <title >Players want to define their own virtual worlds, but they can&amp;apos;t because making their own virtual worlds is hard.</title>
  <desc >#title: Players want to define their own virtual worlds, but they can&amp;apos;t because making their own virtual worlds is hard.
#direction: right
#background: transparent
#fill: #455A64; #37474F
#stroke: #B0BEC5
#ranker: longest-path

[V-Sekai| Players want to define the virtual worlds. | V-Sekai https://v-sekai.org/ |
Players can&apos;t make their own virtual worlds because it is hard. |
Further the development of Godot and open source tech.| 
Build a tech stack and service for interactive multiplayer VR games.
]
[V-Sekai] -&gt; [Godot world live creation]
[Godot world live creation]-&gt; [ 3D models with CASSIE | Painting with MaterialX ]
[V-Sekai] -&gt; [One gitlab repo with source assets? (sky celebration and sponza). | SDK (set of submodules?) https://github.com/V-Sekai/vsk_sdk. | Being able to enter a vsk map ∀ maps (mvp = 1 map). | Enter a vsk map with an entity in it (upload sky celebration OR upload sponza with one beachball).] 
[V-Sekai] -&gt; [Being able to have our group of people join and communicate. (godot speech).]
[Being able to have our group of people join and communicate. (godot speech).] -&gt; [VR support (openxr).]
[Being able to have our group of people join and communicate. (godot speech).] -&gt; [Interacting with objects in desktop mode is important so that we can test easier.] 
[VR support (openxr).] -&gt; [Interacting with objects in vr.]
[Interacting with objects in vr.] -&gt; [Scripting (wasgo).]
[Scripting (wasgo).] -&gt; [Network server to support 1000.]
[V-Sekai] -&gt;  [SDK (set of submodules?) https://github.com/V-Sekai/vsk_sdk.]
[SDK (set of submodules?) https://github.com/V-Sekai/vsk_sdk.] -&gt; [VSK_map source asset repositories]
[VSK_map source asset repositories] -&gt; [Lyuma will make a new github repo V-Sekai/vrm_submodule - we need a script for updating all submodules to the latest on a given branch.]

[V-Sekai] - [Last changed datetime|2022-03-01T04:49+00:00]
</desc>
  <rect x="0" y="0" height="597" width="3541" style="stroke:none; fill:transparent;"></rect>
  <path d="M398.1 252.5 L596.5 59.5 L935.5 59.5 L935.5 59.5 L1274.5 59.5 L1274.5 59.5 L1385 59.5 L1385 59.5 L1495.5 59.5 L1495.5 59.5 L1770 59.5 L1770 59.5 L2044.5 59.5 L2044.5 59.5 L2100.8 59.5 L2100.8 59.5 " style="stroke:#B0BEC5;fill:none;stroke-dasharray:none;stroke-width:3;"></path>
  <path d="M2094.2 64.8 L2100.8 59.5 L2094.2 54.2 L2107.5 59.5 Z" style="stroke:#B0BEC5;fill:#B0BEC5;stroke-dasharray:none;stroke-width:3;"></path>
  <path d="M2319.5 59.5 L2382.5 59.5 L2850.3 59.5 L2850.3 59.5 " style="stroke:#B0BEC5;fill:none;stroke-dasharray:none;stroke-width:3;"></path>
  <path d="M2843.7 64.8 L2850.3 59.5 L2843.7 54.2 L2857 59.5 Z" style="stroke:#B0BEC5;fill:#B0BEC5;stroke-dasharray:none;stroke-width:3;"></path>
  <path d="M481.2 252.5 L596.5 192.5 L935.5 192.5 L935.5 192.5 L1274.5 192.5 L1274.5 192.5 L1385 192.5 L1385 192.5 L1495.5 192.5 L1495.5 192.5 L1770 192.5 L1770 192.5 L2044.5 192.5 L2044.5 192.5 L2213.5 192.5 L2213.5 192.5 L2382.5 192.5 L2382.5 192.5 L2555.3 192.5 L2555.3 192.5 " style="stroke:#B0BEC5;fill:none;stroke-dasharray:none;stroke-width:3;"></path>
  <path d="M2548.7 197.8 L2555.3 192.5 L2548.7 187.2 L2562 192.5 Z" style="stroke:#B0BEC5;fill:#B0BEC5;stroke-dasharray:none;stroke-width:3;"></path>
  <path d="M576.5 345.5 L596.5 345.5 L609.8 345.5 L609.8 345.5 " style="stroke:#B0BEC5;fill:none;stroke-dasharray:none;stroke-width:3;"></path>
  <path d="M603.2 350.8 L609.8 345.5 L603.2 340.2 L616.5 345.5 Z" style="stroke:#B0BEC5;fill:#B0BEC5;stroke-dasharray:none;stroke-width:3;"></path>
  <path d="M1083.5 330 L1274.5 310 L1287.8 310 L1287.8 310 " style="stroke:#B0BEC5;fill:none;stroke-dasharray:none;stroke-width:3;"></path>
  <path d="M1281.2 315.3 L1287.8 310 L1281.2 304.7 L1294.5 310 Z" style="stroke:#B0BEC5;fill:#B0BEC5;stroke-dasharray:none;stroke-width:3;"></path>
  <path d="M1083.5 361 L1274.5 381 L1385 381 L1385 381 L1495.5 381 L1495.5 381 L1770 381 L1770 381 L2044.5 381 L2044.5 381 L2213.5 381 L2213.5 381 L2382.5 381 L2382.5 381 L2629.3 381 L2629.3 381 " style="stroke:#B0BEC5;fill:none;stroke-dasharray:none;stroke-width:3;"></path>
  <path d="M2622.7 386.3 L2629.3 381 L2622.7 375.7 L2636 381 Z" style="stroke:#B0BEC5;fill:#B0BEC5;stroke-dasharray:none;stroke-width:3;"></path>
  <path d="M1475.5 310 L1495.5 310 L1642.3 310 L1642.3 310 " style="stroke:#B0BEC5;fill:none;stroke-dasharray:none;stroke-width:3;"></path>
  <path d="M1635.7 315.3 L1642.3 310 L1635.7 304.7 L1649 310 Z" style="stroke:#B0BEC5;fill:#B0BEC5;stroke-dasharray:none;stroke-width:3;"></path>
  <path d="M1891 310 L2044.5 310 L2127.8 310 L2127.8 310 " style="stroke:#B0BEC5;fill:none;stroke-dasharray:none;stroke-width:3;"></path>
  <path d="M2121.2 315.3 L2127.8 310 L2121.2 304.7 L2134.5 310 Z" style="stroke:#B0BEC5;fill:#B0BEC5;stroke-dasharray:none;stroke-width:3;"></path>
  <path d="M2292.5 310 L2382.5 310 L2816.3 310 L2816.3 310 " style="stroke:#B0BEC5;fill:none;stroke-dasharray:none;stroke-width:3;"></path>
  <path d="M2809.7 315.3 L2816.3 310 L2809.7 304.7 L2823 310 Z" style="stroke:#B0BEC5;fill:#B0BEC5;stroke-dasharray:none;stroke-width:3;"></path>
  <path d="M559.2 438.5 L596.5 452 L935.5 452 L935.5 452 L1274.5 452 L1274.5 452 L1385 452 L1385 452 L1495.5 452 L1495.5 452 L1508.8 452 L1508.8 452 " style="stroke:#B0BEC5;fill:none;stroke-dasharray:none;stroke-width:3;"></path>
  <path d="M1502.2 457.3 L1508.8 452 L1502.2 446.7 L1515.5 452 Z" style="stroke:#B0BEC5;fill:#B0BEC5;stroke-dasharray:none;stroke-width:3;"></path>
  <path d="M2024.5 452 L2044.5 452 L2057.8 452 L2057.8 452 " style="stroke:#B0BEC5;fill:none;stroke-dasharray:none;stroke-width:3;"></path>
  <path d="M2051.2 457.3 L2057.8 452 L2051.2 446.7 L2064.5 452 Z" style="stroke:#B0BEC5;fill:#B0BEC5;stroke-dasharray:none;stroke-width:3;"></path>
  <path d="M2362.5 452 L2382.5 452 L2395.8 452 L2395.8 452 " style="stroke:#B0BEC5;fill:none;stroke-dasharray:none;stroke-width:3;"></path>
  <path d="M2389.2 457.3 L2395.8 452 L2389.2 446.7 L2402.5 452 Z" style="stroke:#B0BEC5;fill:#B0BEC5;stroke-dasharray:none;stroke-width:3;"></path>
  <path d="M444.2 438.5 L596.5 538.5 L935.5 538.5 L935.5 538.5 L1274.5 538.5 L1274.5 538.5 L1385 538.5 L1385 538.5 L1495.5 538.5 L1495.5 538.5 L1770 538.5 L1770 538.5 L2044.5 538.5 L2044.5 538.5 L2213.5 538.5 L2213.5 538.5 L2382.5 538.5 L2382.5 538.5 L2849 538.5 L2849 538.5 " style="stroke:#B0BEC5;fill:none;stroke-dasharray:none;stroke-width:3;"></path>
  <rect x="28.5" y="252.5" height="186" width="548" data-name="V-Sekai" style="stroke:#B0BEC5;fill:#455A64;stroke-dasharray:none;stroke-width:3;"></rect>
  <path d="M28.5 283.5 L576.5 283.5" data-name="V-Sekai" style="stroke:#B0BEC5;fill:none;stroke-dasharray:none;stroke-width:3;"></path>
  <path d="M28.5 314.5 L576.5 314.5" data-name="V-Sekai" style="stroke:#B0BEC5;fill:none;stroke-dasharray:none;stroke-width:3;"></path>
  <path d="M28.5 345.5 L576.5 345.5" data-name="V-Sekai" style="stroke:#B0BEC5;fill:none;stroke-dasharray:none;stroke-width:3;"></path>
  <path d="M28.5 376.5 L576.5 376.5" data-name="V-Sekai" style="stroke:#B0BEC5;fill:none;stroke-dasharray:none;stroke-width:3;"></path>
  <path d="M28.5 407.5 L576.5 407.5" data-name="V-Sekai" style="stroke:#B0BEC5;fill:none;stroke-dasharray:none;stroke-width:3;"></path>
  <text x="302.5" y="274" style="fill: #B0BEC5;font:bold  12pt Helvetica, Helvetica, sans-serif;text-anchor: middle;" data-name="V-Sekai">V-Sekai</text>
  <text x="36.5" y="305" style="fill: #B0BEC5;font:normal  12pt Helvetica, Helvetica, sans-serif;" data-name="V-Sekai">Players want to define the virtual worlds.</text>
  <text x="36.5" y="336" style="fill: #B0BEC5;font:normal  12pt Helvetica, Helvetica, sans-serif;" data-name="V-Sekai">V-Sekai https://v-sekai.org/</text>
  <text x="36.5" y="367" style="fill: #B0BEC5;font:normal  12pt Helvetica, Helvetica, sans-serif;" data-name="V-Sekai">Players can&apos;t make their own virtual worlds because it is hard.</text>
  <text x="36.5" y="398" style="fill: #B0BEC5;font:normal  12pt Helvetica, Helvetica, sans-serif;" data-name="V-Sekai">Further the development of Godot and open source tech.</text>
  <text x="36.5" y="429" style="fill: #B0BEC5;font:normal  12pt Helvetica, Helvetica, sans-serif;" data-name="V-Sekai">Build a tech stack and service for interactive multiplayer VR games.</text>
  <rect x="2562.5" y="130.5" height="124" width="792" data-name="One gitlab repo with source assets? (sky celebration and sponza)." style="stroke:#B0BEC5;fill:#455A64;stroke-dasharray:none;stroke-width:3;"></rect>
  <path d="M2562.5 161.5 L3354.5 161.5" data-name="One gitlab repo with source assets? (sky celebration and sponza)." style="stroke:#B0BEC5;fill:none;stroke-dasharray:none;stroke-width:3;"></path>
  <path d="M2562.5 192.5 L3354.5 192.5" data-name="One gitlab repo with source assets? (sky celebration and sponza)." style="stroke:#B0BEC5;fill:none;stroke-dasharray:none;stroke-width:3;"></path>
  <path d="M2562.5 223.5 L3354.5 223.5" data-name="One gitlab repo with source assets? (sky celebration and sponza)." style="stroke:#B0BEC5;fill:none;stroke-dasharray:none;stroke-width:3;"></path>
  <text x="2958.5" y="152" style="fill: #B0BEC5;font:bold  12pt Helvetica, Helvetica, sans-serif;text-anchor: middle;" data-name="One gitlab repo with source assets? (sky celebration and sponza).">One gitlab repo with source assets? (sky celebration and sponza).</text>
  <text x="2570.5" y="183" style="fill: #B0BEC5;font:normal  12pt Helvetica, Helvetica, sans-serif;" data-name="One gitlab repo with source assets? (sky celebration and sponza).">SDK (set of submodules?) https://github.com/V-Sekai/vsk_sdk.</text>
  <text x="2570.5" y="214" style="fill: #B0BEC5;font:normal  12pt Helvetica, Helvetica, sans-serif;" data-name="One gitlab repo with source assets? (sky celebration and sponza).">Being able to enter a vsk map ∀ maps (mvp = 1 map).</text>
  <text x="2570.5" y="245" style="fill: #B0BEC5;font:normal  12pt Helvetica, Helvetica, sans-serif;" data-name="One gitlab repo with source assets? (sky celebration and sponza).">Enter a vsk map with an entity in it (upload sky celebration OR upload sponza with one beachball).</text>
  <rect x="2857.5" y="28.5" height="62" width="202" data-name="3D models with CASSIE" style="stroke:#B0BEC5;fill:#455A64;stroke-dasharray:none;stroke-width:3;"></rect>
  <path d="M2857.5 59.5 L3059.5 59.5" data-name="3D models with CASSIE" style="stroke:#B0BEC5;fill:none;stroke-dasharray:none;stroke-width:3;"></path>
  <text x="2958.5" y="50" style="fill: #B0BEC5;font:bold  12pt Helvetica, Helvetica, sans-serif;text-anchor: middle;" data-name="3D models with CASSIE">3D models with CASSIE</text>
  <text x="2865.5" y="81" style="fill: #B0BEC5;font:normal  12pt Helvetica, Helvetica, sans-serif;" data-name="3D models with CASSIE">Painting with MaterialX</text>
  <rect x="2849.5" y="507.5" height="62" width="218" data-name="Last changed datetime" style="stroke:#B0BEC5;fill:#455A64;stroke-dasharray:none;stroke-width:3;"></rect>
  <path d="M2849.5 538.5 L3067.5 538.5" data-name="Last changed datetime" style="stroke:#B0BEC5;fill:none;stroke-dasharray:none;stroke-width:3;"></path>
  <text x="2958.5" y="529" style="fill: #B0BEC5;font:bold  12pt Helvetica, Helvetica, sans-serif;text-anchor: middle;" data-name="Last changed datetime">Last changed datetime</text>
  <text x="2857.5" y="560" style="fill: #B0BEC5;font:normal  12pt Helvetica, Helvetica, sans-serif;" data-name="Last changed datetime">2022-03-01T04:49+00:00</text>
  <rect x="2107.5" y="44.5" height="31" width="212" data-name="Godot world live creation" style="stroke:#B0BEC5;fill:#455A64;stroke-dasharray:none;stroke-width:3;"></rect>
  <text x="2213.5" y="66" style="fill: #B0BEC5;font:bold  12pt Helvetica, Helvetica, sans-serif;text-anchor: middle;" data-name="Godot world live creation">Godot world live creation</text>
  <rect x="616.5" y="330.5" height="31" width="638" data-name="Being able to have our group of people join and communicate. (godot speech)." style="stroke:#B0BEC5;fill:#455A64;stroke-dasharray:none;stroke-width:3;"></rect>
  <text x="935.5" y="352" style="fill: #B0BEC5;font:bold  12pt Helvetica, Helvetica, sans-serif;text-anchor: middle;" data-name="Being able to have our group of people join and communicate. (godot speech).">Being able to have our group of people join and communicate. (godot speech).</text>
  <rect x="1294.5" y="294.5" height="31" width="181" data-name="VR support (openxr)." style="stroke:#B0BEC5;fill:#455A64;stroke-dasharray:none;stroke-width:3;"></rect>
  <text x="1385" y="316" style="fill: #B0BEC5;font:bold  12pt Helvetica, Helvetica, sans-serif;text-anchor: middle;" data-name="VR support (openxr).">VR support (openxr).</text>
  <rect x="2636.5" y="365.5" height="31" width="644" data-name="Interacting with objects in desktop mode is important so that we can test easier." style="stroke:#B0BEC5;fill:#455A64;stroke-dasharray:none;stroke-width:3;"></rect>
  <text x="2958.5" y="387" style="fill: #B0BEC5;font:bold  12pt Helvetica, Helvetica, sans-serif;text-anchor: middle;" data-name="Interacting with objects in desktop mode is important so that we can test easier.">Interacting with objects in desktop mode is important so that we can test easier.</text>
  <rect x="1649.5" y="294.5" height="31" width="242" data-name="Interacting with objects in vr." style="stroke:#B0BEC5;fill:#455A64;stroke-dasharray:none;stroke-width:3;"></rect>
  <text x="1770.5" y="316" style="fill: #B0BEC5;font:bold  12pt Helvetica, Helvetica, sans-serif;text-anchor: middle;" data-name="Interacting with objects in vr.">Interacting with objects in vr.</text>
  <rect x="2134.5" y="294.5" height="31" width="158" data-name="Scripting (wasgo)." style="stroke:#B0BEC5;fill:#455A64;stroke-dasharray:none;stroke-width:3;"></rect>
  <text x="2213.5" y="316" style="fill: #B0BEC5;font:bold  12pt Helvetica, Helvetica, sans-serif;text-anchor: middle;" data-name="Scripting (wasgo).">Scripting (wasgo).</text>
  <rect x="2823.5" y="294.5" height="31" width="270" data-name="Network server to support 1000." style="stroke:#B0BEC5;fill:#455A64;stroke-dasharray:none;stroke-width:3;"></rect>
  <text x="2958.5" y="316" style="fill: #B0BEC5;font:bold  12pt Helvetica, Helvetica, sans-serif;text-anchor: middle;" data-name="Network server to support 1000.">Network server to support 1000.</text>
  <rect x="1515.5" y="436.5" height="31" width="509" data-name="SDK (set of submodules?) https://github.com/V-Sekai/vsk_sdk." style="stroke:#B0BEC5;fill:#455A64;stroke-dasharray:none;stroke-width:3;"></rect>
  <text x="1770" y="458" style="fill: #B0BEC5;font:bold  12pt Helvetica, Helvetica, sans-serif;text-anchor: middle;" data-name="SDK (set of submodules?) https://github.com/V-Sekai/vsk_sdk.">SDK (set of submodules?) https://github.com/V-Sekai/vsk_sdk.</text>
  <rect x="2064.5" y="436.5" height="31" width="298" data-name="VSK_map source asset repositories" style="stroke:#B0BEC5;fill:#455A64;stroke-dasharray:none;stroke-width:3;"></rect>
  <text x="2213.5" y="458" style="fill: #B0BEC5;font:bold  12pt Helvetica, Helvetica, sans-serif;text-anchor: middle;" data-name="VSK_map source asset repositories">VSK_map source asset repositories</text>
  <rect x="2402.5" y="436.5" height="31" width="1111" data-name="Lyuma will make a new github repo V-Sekai/vrm_submodule - we need a script for updating all submodules to the latest on a given branch." style="stroke:#B0BEC5;fill:#455A64;stroke-dasharray:none;stroke-width:3;"></rect>
  <text x="2958" y="458" style="fill: #B0BEC5;font:bold  12pt Helvetica, Helvetica, sans-serif;text-anchor: middle;" data-name="Lyuma will make a new github repo V-Sekai/vrm_submodule - we need a script for updating all submodules to the latest on a given branch.">Lyuma will make a new github repo V-Sekai/vrm_submodule - we need a script for updating all submodules to the latest on a given branch.</text>
</svg>