<svg version="1.1" baseProfile="full" width="2766" height="1855.75" viewbox="0 0 2766 1855.75" xmlns="http://www.w3.org/2000/svg" xmlns:xlink="http://www.w3.org/1999/xlink" xmlns:ev="http://www.w3.org/2001/xml-events" style="font:bold  12pt Helvetica, Helvetica, sans-serif;;stroke-linejoin:round;stroke-linecap:round">
  <title >Players want to define their own virtual worlds, but they can&amp;apos;t because making their own virtual worlds is hard.</title>
  <desc >#title: Players want to define their own virtual worlds, but they can&amp;apos;t because making their own virtual worlds is hard.
#direction: right

[V-Sekai| Players want to define the virtual worlds. | V-Sekai https://v-sekai.org/ |
Players can&apos;t make their own virtual worlds because it is hard.]
[&lt;table&gt; Become avatars] -&gt; [Godot world live creation]
[Godot world live creation] -&gt;  [Imported physics]
[Godot world live creation] -&gt; [Place prexisting blocks with blockmeshing  ]
[Godot world live creation]-&gt; [&lt;table&gt; Create Godot world creation tools ]
[Godot world live creation]-&gt; [Place scenes ]
[Godot world live creation]-&gt; [Construct layers collaboratively ]
[Godot world live creation]-&gt; [Painting  ]
[Godot world live creation]-&gt; [&lt;table&gt; Create Godot world creation tools]
[&lt;table&gt; Create Godot world creation tools ] -&gt;  [3D models with CASSIE ]
[3D models with CASSIE ]-&gt; [Make cassie commercial remixable]
[&lt;table&gt; Create Godot world creation tools ] -&gt; [Painting with MaterialX ]
[Godot world live creation] -&gt; [Jeana usability]
[Godot world live creation] -&gt; [VFX (Particles, shaders, Sky)]
[&lt;table&gt; Become avatars] -&gt; [Advanced avatar (shader, IK, animations)]
[V-Sekai]-&gt;  [Skeleton modifications ]
[Skeleton modifications ] -&gt; [&lt;table&gt; Become avatars]
[&lt;table&gt; Become avatars] -&gt; [Vocal communicate]
[&lt;table&gt; Become avatars] -&gt; [Motion communicate]
[&lt;table&gt; Become avatars] -&gt; [Dance]

[&lt;table&gt; Become avatars] -&gt; [Godot speech comms system] 
[&lt;table&gt; Become avatars] -&gt; [Virtual reality 6 degree of freedom tracking ]

[&lt;table&gt; Become avatars]-&gt;[&lt;table&gt; Following  ]
[&lt;table&gt; Following] -&gt; [Double-sided friending. ]
[&lt;table&gt; Following] -&gt; [Discover new friends. ]

[&lt;table&gt; Become avatars] -&gt; [Locomotion (flat)| How do we animate the character?| VRM1 rig]
[&lt;tsable&gt; Become avatars] -&gt; [Virtual reality motion movement]

[Virtual reality motion movement] -&gt; [Pickups| Wasgo Scripting | In-game menus | Video player |Vehicles | Buttons]

[Pickups]-&gt;[&lt;table&gt; Avatar switch ]
[Pickups]-&gt;[World portals ]
[Pickups]-&gt;[Server switch ]

[Pickups]-&gt;[&lt;table&gt; Player interactions ]
[&lt;table&gt; Player interactions] -&gt; [Camera ]
[&lt;table&gt; Player interactions] -&gt; [Bow and arrow ]
[&lt;table&gt; Player interactions] -&gt; [Mirror ]

[&lt;table&gt; Become avatars]-&gt;[Platform host Uro Infrastructure]
[Platform host Uro Infrastructure] -&gt; [ Federation list ]
[Platform host Uro Infrastructure] -&gt; [ Delegated Identity ]

[Platform host Uro Infrastructure ]-&gt;[&lt;table&gt; Content]
[&lt;table&gt; Content ]-&gt; [Refuse to attest content because scripting is untrusted ]

[&lt;table&gt; Create Godot world creation tools ] -&gt; [&lt;table&gt; Upgrade PLY to Godot Engine]

[Platform host Uro Infrastructure | Deployment kit | Launch uro using Elixir Desktop | Make TrueNas Scale run V-Sekai mirror]

[&lt;table&gt; Become avatars] -&gt; [How do we retarget to the VRM1 rig?]
[&lt;table&gt; Become avatars] -&gt; [How do we mocapture the face rig?| Support mapping every single possible standard rig?]
[&lt;table&gt; Become avatars] -&gt; [How do we make the face rig fast? |Blend shape baking to skeletals]
[&lt;table&gt; Become avatars] -&gt; [How do we create the standard animation set? |Want to be better than the status quo of mixamo animation sets]
[&lt;table&gt; Become avatars] -&gt; [How do we interact with objects? |Pickup animation is stored on prop]
[&lt;table&gt; Become avatars] -&gt; [How do we have more diverse characters? |Marketplace? Proceduralism? Character generators?]
[&lt;table&gt; Become avatars] -&gt; [How we turn our voice to facial rig keyframes?]

[V-Sekai] - [Last changed datetime|2022-02-15T23:10+00:00]
</desc>
  <rect x="0" y="0" height="1855.75" width="2766" style="stroke:none; fill:transparent;"></rect>
  <path d="M903.4 927 L993.5 186 L1159.3 186 L1159.3 186 " style="stroke:#33322E;fill:none;stroke-dasharray:none;stroke-width:3;"></path>
  <path d="M1152.7 191.3 L1159.3 186 L1152.7 180.7 L1166 186 Z" style="stroke:#33322E;fill:#33322E;stroke-dasharray:none;stroke-width:3;"></path>
  <path d="M1302.4 170.5 L1550.5 44 L1662.3 44 L1662.3 44 " style="stroke:#33322E;fill:none;stroke-dasharray:none;stroke-width:3;"></path>
  <path d="M1655.7 49.3 L1662.3 44 L1655.7 38.7 L1669 44 Z" style="stroke:#33322E;fill:#33322E;stroke-dasharray:none;stroke-width:3;"></path>
  <path d="M1332.8 170.5 L1550.5 115 L1563.8 115 L1563.8 115 " style="stroke:#33322E;fill:none;stroke-dasharray:none;stroke-width:3;"></path>
  <path d="M1557.2 120.3 L1563.8 115 L1557.2 109.7 L1570.5 115 Z" style="stroke:#33322E;fill:#33322E;stroke-dasharray:none;stroke-width:3;"></path>
  <path d="M1378 186 L1550.5 186 L1597.3 186 L1597.3 186 " style="stroke:#33322E;fill:none;stroke-dasharray:none;stroke-width:3;"></path>
  <path d="M1590.7 191.3 L1597.3 186 L1590.7 180.7 L1604 186 Z" style="stroke:#33322E;fill:#33322E;stroke-dasharray:none;stroke-width:3;"></path>
  <path d="M1332.8 201.5 L1550.5 257 L1676.8 257 L1676.8 257 " style="stroke:#33322E;fill:none;stroke-dasharray:none;stroke-width:3;"></path>
  <path d="M1670.2 262.3 L1676.8 257 L1670.2 251.7 L1683.5 257 Z" style="stroke:#33322E;fill:#33322E;stroke-dasharray:none;stroke-width:3;"></path>
  <path d="M1302.4 201.5 L1550.5 328 L1605.8 328 L1605.8 328 " style="stroke:#33322E;fill:none;stroke-dasharray:none;stroke-width:3;"></path>
  <path d="M1599.2 333.3 L1605.8 328 L1599.2 322.7 L1612.5 328 Z" style="stroke:#33322E;fill:#33322E;stroke-dasharray:none;stroke-width:3;"></path>
  <path d="M1292.3 201.5 L1550.5 399 L1697.8 399 L1697.8 399 " style="stroke:#33322E;fill:none;stroke-dasharray:none;stroke-width:3;"></path>
  <path d="M1691.2 404.3 L1697.8 399 L1691.2 393.7 L1704.5 399 Z" style="stroke:#33322E;fill:#33322E;stroke-dasharray:none;stroke-width:3;"></path>
  <path d="M1786.9 170.5 L1938.5 115 L2074.8 115 L2074.8 115 " style="stroke:#33322E;fill:none;stroke-dasharray:none;stroke-width:3;"></path>
  <path d="M2068.2 120.3 L2074.8 115 L2068.2 109.7 L2081.5 115 Z" style="stroke:#33322E;fill:#33322E;stroke-dasharray:none;stroke-width:3;"></path>
  <path d="M2283.5 115 L2426.5 115 L2439.8 115 L2439.8 115 " style="stroke:#33322E;fill:none;stroke-dasharray:none;stroke-width:3;"></path>
  <path d="M2433.2 120.3 L2439.8 115 L2433.2 109.7 L2446.5 115 Z" style="stroke:#33322E;fill:#33322E;stroke-dasharray:none;stroke-width:3;"></path>
  <path d="M1885 186 L1938.5 186 L2078.3 186 L2078.3 186 " style="stroke:#33322E;fill:none;stroke-dasharray:none;stroke-width:3;"></path>
  <path d="M2071.7 191.3 L2078.3 186 L2071.7 180.7 L2085 186 Z" style="stroke:#33322E;fill:#33322E;stroke-dasharray:none;stroke-width:3;"></path>
  <path d="M1287.2 201.5 L1550.5 470 L1670.3 470 L1670.3 470 " style="stroke:#33322E;fill:none;stroke-dasharray:none;stroke-width:3;"></path>
  <path d="M1663.7 475.3 L1670.3 470 L1663.7 464.7 L1677 470 Z" style="stroke:#33322E;fill:#33322E;stroke-dasharray:none;stroke-width:3;"></path>
  <path d="M1284.2 201.5 L1550.5 541 L1614.8 541 L1614.8 541 " style="stroke:#33322E;fill:none;stroke-dasharray:none;stroke-width:3;"></path>
  <path d="M1608.2 546.3 L1614.8 541 L1608.2 535.7 L1621.5 541 Z" style="stroke:#33322E;fill:#33322E;stroke-dasharray:none;stroke-width:3;"></path>
  <path d="M903.7 927 L993.5 292.5 L1093.3 292.5 L1093.3 292.5 " style="stroke:#33322E;fill:none;stroke-dasharray:none;stroke-width:3;"></path>
  <path d="M1086.7 297.8 L1093.3 292.5 L1086.7 287.2 L1100 292.5 Z" style="stroke:#33322E;fill:#33322E;stroke-dasharray:none;stroke-width:3;"></path>
  <path d="M531.5 945.7 L551.5 942.5 L576.8 942.5 L576.8 942.5 " style="stroke:#33322E;fill:none;stroke-dasharray:none;stroke-width:3;"></path>
  <path d="M570.2 947.8 L576.8 942.5 L570.2 937.2 L583.5 942.5 Z" style="stroke:#33322E;fill:#33322E;stroke-dasharray:none;stroke-width:3;"></path>
  <path d="M777.5 942.5 L809.5 942.5 L822.8 942.5 L822.8 942.5 " style="stroke:#33322E;fill:none;stroke-dasharray:none;stroke-width:3;"></path>
  <path d="M816.2 947.8 L822.8 942.5 L816.2 937.2 L829.5 942.5 Z" style="stroke:#33322E;fill:#33322E;stroke-dasharray:none;stroke-width:3;"></path>
  <path d="M904 927 L993.5 363.5 L1180.3 363.5 L1180.3 363.5 " style="stroke:#33322E;fill:none;stroke-dasharray:none;stroke-width:3;"></path>
  <path d="M1173.7 368.8 L1180.3 363.5 L1173.7 358.2 L1187 363.5 Z" style="stroke:#33322E;fill:#33322E;stroke-dasharray:none;stroke-width:3;"></path>
  <path d="M904.3 927 L993.5 434.5 L1175.8 434.5 L1175.8 434.5 " style="stroke:#33322E;fill:none;stroke-dasharray:none;stroke-width:3;"></path>
  <path d="M1169.2 439.8 L1175.8 434.5 L1169.2 429.2 L1182.5 434.5 Z" style="stroke:#33322E;fill:#33322E;stroke-dasharray:none;stroke-width:3;"></path>
  <path d="M904.8 927 L993.5 505.5 L1231.8 505.5 L1231.8 505.5 " style="stroke:#33322E;fill:none;stroke-dasharray:none;stroke-width:3;"></path>
  <path d="M1225.2 510.8 L1231.8 505.5 L1225.2 500.2 L1238.5 505.5 Z" style="stroke:#33322E;fill:#33322E;stroke-dasharray:none;stroke-width:3;"></path>
  <path d="M905.4 927 L993.5 576.5 L1140.8 576.5 L1140.8 576.5 " style="stroke:#33322E;fill:none;stroke-dasharray:none;stroke-width:3;"></path>
  <path d="M1134.2 581.8 L1140.8 576.5 L1134.2 571.2 L1147.5 576.5 Z" style="stroke:#33322E;fill:#33322E;stroke-dasharray:none;stroke-width:3;"></path>
  <path d="M906.3 927 L993.5 647.5 L1088.8 647.5 L1088.8 647.5 " style="stroke:#33322E;fill:none;stroke-dasharray:none;stroke-width:3;"></path>
  <path d="M1082.2 652.8 L1088.8 647.5 L1082.2 642.2 L1095.5 647.5 Z" style="stroke:#33322E;fill:#33322E;stroke-dasharray:none;stroke-width:3;"></path>
  <path d="M907.9 927 L993.5 718.5 L1220.3 718.5 L1220.3 718.5 " style="stroke:#33322E;fill:none;stroke-dasharray:none;stroke-width:3;"></path>
  <path d="M1213.7 723.8 L1220.3 718.5 L1213.7 713.2 L1227 718.5 Z" style="stroke:#33322E;fill:#33322E;stroke-dasharray:none;stroke-width:3;"></path>
  <path d="M1312.5 703 L1550.5 612 L1637.8 612 L1637.8 612 " style="stroke:#33322E;fill:none;stroke-dasharray:none;stroke-width:3;"></path>
  <path d="M1631.2 617.3 L1637.8 612 L1631.2 606.7 L1644.5 612 Z" style="stroke:#33322E;fill:#33322E;stroke-dasharray:none;stroke-width:3;"></path>
  <path d="M1317 724.2 L1550.5 754 L1644.8 754 L1644.8 754 " style="stroke:#33322E;fill:none;stroke-dasharray:none;stroke-width:3;"></path>
  <path d="M1638.2 759.3 L1644.8 754 L1638.2 748.7 L1651.5 754 Z" style="stroke:#33322E;fill:#33322E;stroke-dasharray:none;stroke-width:3;"></path>
  <path d="M914 927 L993.5 828.3 L1120.3 828.3 L1120.3 828.3 " style="stroke:#33322E;fill:none;stroke-dasharray:none;stroke-width:3;"></path>
  <path d="M1113.7 833.6 L1120.3 828.3 L1113.7 822.9 L1127 828.3 Z" style="stroke:#33322E;fill:#33322E;stroke-dasharray:none;stroke-width:3;"></path>
  <path d="M973.5 932.9 L993.5 930.3 L1133.3 930.3 L1133.3 930.3 " style="stroke:#33322E;fill:none;stroke-dasharray:none;stroke-width:3;"></path>
  <path d="M1126.7 935.6 L1133.3 930.3 L1126.7 924.9 L1140 930.3 Z" style="stroke:#33322E;fill:#33322E;stroke-dasharray:none;stroke-width:3;"></path>
  <path d="M1404 930.3 L1550.5 930.3 L1665.3 930.3 L1665.3 930.3 " style="stroke:#33322E;fill:none;stroke-dasharray:none;stroke-width:3;"></path>
  <path d="M1658.7 935.6 L1665.3 930.3 L1658.7 924.9 L1672 930.3 Z" style="stroke:#33322E;fill:#33322E;stroke-dasharray:none;stroke-width:3;"></path>
  <path d="M1796 837.3 L1938.5 579.8 L2115.3 579.8 L2115.3 579.8 " style="stroke:#33322E;fill:none;stroke-dasharray:none;stroke-width:3;"></path>
  <path d="M2108.7 585.1 L2115.3 579.8 L2108.7 574.4 L2122 579.8 Z" style="stroke:#33322E;fill:#33322E;stroke-dasharray:none;stroke-width:3;"></path>
  <path d="M1809.1 837.3 L1938.5 650.8 L2115.3 650.8 L2115.3 650.8 " style="stroke:#33322E;fill:none;stroke-dasharray:none;stroke-width:3;"></path>
  <path d="M2108.7 656.1 L2115.3 650.8 L2108.7 645.4 L2122 650.8 Z" style="stroke:#33322E;fill:#33322E;stroke-dasharray:none;stroke-width:3;"></path>
  <path d="M1817 956.8 L1938.5 1001.3 L2114.8 1001.3 L2114.8 1001.3 " style="stroke:#33322E;fill:none;stroke-dasharray:none;stroke-width:3;"></path>
  <path d="M2108.2 1006.6 L2114.8 1001.3 L2108.2 995.9 L2121.5 1001.3 Z" style="stroke:#33322E;fill:#33322E;stroke-dasharray:none;stroke-width:3;"></path>
  <path d="M1817 983.3 L1938.5 1072.3 L2094.3 1072.3 L2094.3 1072.3 " style="stroke:#33322E;fill:none;stroke-dasharray:none;stroke-width:3;"></path>
  <path d="M2087.7 1077.6 L2094.3 1072.3 L2087.7 1066.9 L2101 1072.3 Z" style="stroke:#33322E;fill:#33322E;stroke-dasharray:none;stroke-width:3;"></path>
  <path d="M2190.8 1056.8 L2426.5 615.3 L2546.8 615.3 L2546.8 615.3 " style="stroke:#33322E;fill:none;stroke-dasharray:none;stroke-width:3;"></path>
  <path d="M2540.2 620.6 L2546.8 615.3 L2540.2 609.9 L2553.5 615.3 Z" style="stroke:#33322E;fill:#33322E;stroke-dasharray:none;stroke-width:3;"></path>
  <path d="M2264 1084.1 L2426.5 1107.8 L2519.3 1107.8 L2519.3 1107.8 " style="stroke:#33322E;fill:none;stroke-dasharray:none;stroke-width:3;"></path>
  <path d="M2512.7 1113.1 L2519.3 1107.8 L2512.7 1102.4 L2526 1107.8 Z" style="stroke:#33322E;fill:#33322E;stroke-dasharray:none;stroke-width:3;"></path>
  <path d="M2218 1087.8 L2426.5 1178.8 L2554.8 1178.8 L2554.8 1178.8 " style="stroke:#33322E;fill:none;stroke-dasharray:none;stroke-width:3;"></path>
  <path d="M2548.2 1184.1 L2554.8 1178.8 L2548.2 1173.4 L2561.5 1178.8 Z" style="stroke:#33322E;fill:#33322E;stroke-dasharray:none;stroke-width:3;"></path>
  <path d="M909.8 958 L993.5 1114.3 L1101.3 1114.3 L1101.3 1114.3 " style="stroke:#33322E;fill:none;stroke-dasharray:none;stroke-width:3;"></path>
  <path d="M1094.7 1119.6 L1101.3 1114.3 L1094.7 1108.9 L1108 1114.3 Z" style="stroke:#33322E;fill:#33322E;stroke-dasharray:none;stroke-width:3;"></path>
  <path d="M1436 1093.3 L1550.5 1078.8 L1673.8 1078.8 L1673.8 1078.8 " style="stroke:#33322E;fill:none;stroke-dasharray:none;stroke-width:3;"></path>
  <path d="M1667.2 1084.1 L1673.8 1078.8 L1667.2 1073.4 L1680.5 1078.8 Z" style="stroke:#33322E;fill:#33322E;stroke-dasharray:none;stroke-width:3;"></path>
  <path d="M1436 1135.2 L1550.5 1149.8 L1657.8 1149.8 L1657.8 1149.8 " style="stroke:#33322E;fill:none;stroke-dasharray:none;stroke-width:3;"></path>
  <path d="M1651.2 1155.1 L1657.8 1149.8 L1651.2 1144.4 L1664.5 1149.8 Z" style="stroke:#33322E;fill:#33322E;stroke-dasharray:none;stroke-width:3;"></path>
  <path d="M1434.1 1176.3 L1550.5 1220.8 L1698.8 1220.8 L1698.8 1220.8 " style="stroke:#33322E;fill:none;stroke-dasharray:none;stroke-width:3;"></path>
  <path d="M1692.2 1226.1 L1698.8 1220.8 L1692.2 1215.4 L1705.5 1220.8 Z" style="stroke:#33322E;fill:#33322E;stroke-dasharray:none;stroke-width:3;"></path>
  <path d="M1783.5 1220.8 L1938.5 1220.8 L1951.8 1220.8 L1951.8 1220.8 " style="stroke:#33322E;fill:none;stroke-dasharray:none;stroke-width:3;"></path>
  <path d="M1945.2 1226.1 L1951.8 1220.8 L1945.2 1215.4 L1958.5 1220.8 Z" style="stroke:#33322E;fill:#33322E;stroke-dasharray:none;stroke-width:3;"></path>
  <path d="M1753.8 201.5 L1938.5 508.8 L2048.8 508.8 L2048.8 508.8 " style="stroke:#33322E;fill:none;stroke-dasharray:none;stroke-width:3;"></path>
  <path d="M2042.2 514.1 L2048.8 508.8 L2042.2 503.4 L2055.5 508.8 Z" style="stroke:#33322E;fill:#33322E;stroke-dasharray:none;stroke-width:3;"></path>
  <path d="M906.4 958 L993.5 1231.8 L1112.3 1231.8 L1112.3 1231.8 " style="stroke:#33322E;fill:none;stroke-dasharray:none;stroke-width:3;"></path>
  <path d="M1105.7 1237.1 L1112.3 1231.8 L1105.7 1226.4 L1119 1231.8 Z" style="stroke:#33322E;fill:#33322E;stroke-dasharray:none;stroke-width:3;"></path>
  <path d="M905.3 958 L993.5 1318.3 L1048.8 1318.3 L1048.8 1318.3 " style="stroke:#33322E;fill:none;stroke-dasharray:none;stroke-width:3;"></path>
  <path d="M1042.2 1323.6 L1048.8 1318.3 L1042.2 1312.9 L1055.5 1318.3 Z" style="stroke:#33322E;fill:#33322E;stroke-dasharray:none;stroke-width:3;"></path>
  <path d="M904.5 958 L993.5 1420.3 L1121.3 1420.3 L1121.3 1420.3 " style="stroke:#33322E;fill:none;stroke-dasharray:none;stroke-width:3;"></path>
  <path d="M1114.7 1425.6 L1121.3 1420.3 L1114.7 1414.9 L1128 1420.3 Z" style="stroke:#33322E;fill:#33322E;stroke-dasharray:none;stroke-width:3;"></path>
  <path d="M904 958 L993.5 1522.3 L1006.8 1522.3 L1006.8 1522.3 " style="stroke:#33322E;fill:none;stroke-dasharray:none;stroke-width:3;"></path>
  <path d="M1000.2 1527.6 L1006.8 1522.3 L1000.2 1516.9 L1013.5 1522.3 Z" style="stroke:#33322E;fill:#33322E;stroke-dasharray:none;stroke-width:3;"></path>
  <path d="M903.6 958 L993.5 1624.3 L1120.3 1624.3 L1120.3 1624.3 " style="stroke:#33322E;fill:none;stroke-dasharray:none;stroke-width:3;"></path>
  <path d="M1113.7 1629.6 L1120.3 1624.3 L1113.7 1618.9 L1127 1624.3 Z" style="stroke:#33322E;fill:#33322E;stroke-dasharray:none;stroke-width:3;"></path>
  <path d="M903.3 958 L993.5 1726.3 L1047.8 1726.3 L1047.8 1726.3 " style="stroke:#33322E;fill:none;stroke-dasharray:none;stroke-width:3;"></path>
  <path d="M1041.2 1731.6 L1047.8 1726.3 L1041.2 1720.9 L1054.5 1726.3 Z" style="stroke:#33322E;fill:#33322E;stroke-dasharray:none;stroke-width:3;"></path>
  <path d="M903.1 958 L993.5 1812.8 L1075.3 1812.8 L1075.3 1812.8 " style="stroke:#33322E;fill:none;stroke-dasharray:none;stroke-width:3;"></path>
  <path d="M1068.7 1818.1 L1075.3 1812.8 L1068.7 1807.4 L1082 1812.8 Z" style="stroke:#33322E;fill:#33322E;stroke-dasharray:none;stroke-width:3;"></path>
  <path d="M531.5 1025.8 L551.5 1029 L571.5 1029 L571.5 1029 " style="stroke:#33322E;fill:none;stroke-dasharray:none;stroke-width:3;"></path>
  <rect x="1672.5" y="837.5" height="186" width="145" data-name="Pickups" style="stroke:#33322E;fill:#eee8d5;stroke-dasharray:none;stroke-width:3;"></rect>
  <path d="M1672.5 868.5 L1817.5 868.5" data-name="Pickups" style="stroke:#33322E;fill:none;stroke-dasharray:none;stroke-width:3;"></path>
  <path d="M1672.5 899.5 L1817.5 899.5" data-name="Pickups" style="stroke:#33322E;fill:none;stroke-dasharray:none;stroke-width:3;"></path>
  <path d="M1672.5 930.5 L1817.5 930.5" data-name="Pickups" style="stroke:#33322E;fill:none;stroke-dasharray:none;stroke-width:3;"></path>
  <path d="M1672.5 961.5 L1817.5 961.5" data-name="Pickups" style="stroke:#33322E;fill:none;stroke-dasharray:none;stroke-width:3;"></path>
  <path d="M1672.5 992.5 L1817.5 992.5" data-name="Pickups" style="stroke:#33322E;fill:none;stroke-dasharray:none;stroke-width:3;"></path>
  <text x="1745" y="859" style="fill: #33322E;font:bold  12pt Helvetica, Helvetica, sans-serif;text-anchor: middle;" data-name="Pickups">Pickups</text>
  <text x="1680.5" y="890" style="fill: #33322E;font:normal  12pt Helvetica, Helvetica, sans-serif;" data-name="Pickups">Wasgo Scripting</text>
  <text x="1680.5" y="921" style="fill: #33322E;font:normal  12pt Helvetica, Helvetica, sans-serif;" data-name="Pickups">In-game menus</text>
  <text x="1680.5" y="952" style="fill: #33322E;font:normal  12pt Helvetica, Helvetica, sans-serif;" data-name="Pickups">Video player</text>
  <text x="1680.5" y="983" style="fill: #33322E;font:normal  12pt Helvetica, Helvetica, sans-serif;" data-name="Pickups">Vehicles</text>
  <text x="1680.5" y="1014" style="fill: #33322E;font:normal  12pt Helvetica, Helvetica, sans-serif;" data-name="Pickups">Buttons</text>
  <rect x="28.5" y="923.5" height="124" width="503" data-name="V-Sekai" style="stroke:#33322E;fill:#eee8d5;stroke-dasharray:none;stroke-width:3;"></rect>
  <path d="M28.5 954.5 L531.5 954.5" data-name="V-Sekai" style="stroke:#33322E;fill:none;stroke-dasharray:none;stroke-width:3;"></path>
  <path d="M28.5 985.5 L531.5 985.5" data-name="V-Sekai" style="stroke:#33322E;fill:none;stroke-dasharray:none;stroke-width:3;"></path>
  <path d="M28.5 1016.5 L531.5 1016.5" data-name="V-Sekai" style="stroke:#33322E;fill:none;stroke-dasharray:none;stroke-width:3;"></path>
  <text x="280" y="945" style="fill: #33322E;font:bold  12pt Helvetica, Helvetica, sans-serif;text-anchor: middle;" data-name="V-Sekai">V-Sekai</text>
  <text x="36.5" y="976" style="fill: #33322E;font:normal  12pt Helvetica, Helvetica, sans-serif;" data-name="V-Sekai">Players want to define the virtual worlds.</text>
  <text x="36.5" y="1007" style="fill: #33322E;font:normal  12pt Helvetica, Helvetica, sans-serif;" data-name="V-Sekai">V-Sekai https://v-sekai.org/</text>
  <text x="36.5" y="1038" style="fill: #33322E;font:normal  12pt Helvetica, Helvetica, sans-serif;" data-name="V-Sekai">Players can&apos;t make their own virtual worlds because it is hard.</text>
  <rect x="1108.5" y="1052.5" height="124" width="328" data-name="Platform host Uro Infrastructure" style="stroke:#33322E;fill:#eee8d5;stroke-dasharray:none;stroke-width:3;"></rect>
  <path d="M1108.5 1083.5 L1436.5 1083.5" data-name="Platform host Uro Infrastructure" style="stroke:#33322E;fill:none;stroke-dasharray:none;stroke-width:3;"></path>
  <path d="M1108.5 1114.5 L1436.5 1114.5" data-name="Platform host Uro Infrastructure" style="stroke:#33322E;fill:none;stroke-dasharray:none;stroke-width:3;"></path>
  <path d="M1108.5 1145.5 L1436.5 1145.5" data-name="Platform host Uro Infrastructure" style="stroke:#33322E;fill:none;stroke-dasharray:none;stroke-width:3;"></path>
  <text x="1272.5" y="1074" style="fill: #33322E;font:bold  12pt Helvetica, Helvetica, sans-serif;text-anchor: middle;" data-name="Platform host Uro Infrastructure">Platform host Uro Infrastructure</text>
  <text x="1116.5" y="1105" style="fill: #33322E;font:normal  12pt Helvetica, Helvetica, sans-serif;" data-name="Platform host Uro Infrastructure">Deployment kit</text>
  <text x="1116.5" y="1136" style="fill: #33322E;font:normal  12pt Helvetica, Helvetica, sans-serif;" data-name="Platform host Uro Infrastructure">Launch uro using Elixir Desktop</text>
  <text x="1116.5" y="1167" style="fill: #33322E;font:normal  12pt Helvetica, Helvetica, sans-serif;" data-name="Platform host Uro Infrastructure">Make TrueNas Scale run V-Sekai mirror</text>
  <rect x="1127.5" y="781.5" height="93" width="290" data-name="Locomotion (flat)" style="stroke:#33322E;fill:#eee8d5;stroke-dasharray:none;stroke-width:3;"></rect>
  <path d="M1127.5 812.5 L1417.5 812.5" data-name="Locomotion (flat)" style="stroke:#33322E;fill:none;stroke-dasharray:none;stroke-width:3;"></path>
  <path d="M1127.5 843.5 L1417.5 843.5" data-name="Locomotion (flat)" style="stroke:#33322E;fill:none;stroke-dasharray:none;stroke-width:3;"></path>
  <text x="1272.5" y="803" style="fill: #33322E;font:bold  12pt Helvetica, Helvetica, sans-serif;text-anchor: middle;" data-name="Locomotion (flat)">Locomotion (flat)</text>
  <text x="1135.5" y="834" style="fill: #33322E;font:normal  12pt Helvetica, Helvetica, sans-serif;" data-name="Locomotion (flat)">How do we animate the character?</text>
  <text x="1135.5" y="865" style="fill: #33322E;font:normal  12pt Helvetica, Helvetica, sans-serif;" data-name="Locomotion (flat)">VRM1 rig</text>
  <rect x="1055.5" y="1287.5" height="62" width="433" data-name="How do we mocapture the face rig?" style="stroke:#33322E;fill:#eee8d5;stroke-dasharray:none;stroke-width:3;"></rect>
  <path d="M1055.5 1318.5 L1488.5 1318.5" data-name="How do we mocapture the face rig?" style="stroke:#33322E;fill:none;stroke-dasharray:none;stroke-width:3;"></path>
  <text x="1272" y="1309" style="fill: #33322E;font:bold  12pt Helvetica, Helvetica, sans-serif;text-anchor: middle;" data-name="How do we mocapture the face rig?">How do we mocapture the face rig?</text>
  <text x="1063.5" y="1340" style="fill: #33322E;font:normal  12pt Helvetica, Helvetica, sans-serif;" data-name="How do we mocapture the face rig?">Support mapping every single possible standard rig?</text>
  <rect x="1128.5" y="1389.5" height="62" width="288" data-name="How do we make the face rig fast?" style="stroke:#33322E;fill:#eee8d5;stroke-dasharray:none;stroke-width:3;"></rect>
  <path d="M1128.5 1420.5 L1416.5 1420.5" data-name="How do we make the face rig fast?" style="stroke:#33322E;fill:none;stroke-dasharray:none;stroke-width:3;"></path>
  <text x="1272.5" y="1411" style="fill: #33322E;font:bold  12pt Helvetica, Helvetica, sans-serif;text-anchor: middle;" data-name="How do we make the face rig fast?">How do we make the face rig fast?</text>
  <text x="1136.5" y="1442" style="fill: #33322E;font:normal  12pt Helvetica, Helvetica, sans-serif;" data-name="How do we make the face rig fast?">Blend shape baking to skeletals</text>
  <rect x="1013.5" y="1491.5" height="62" width="517" data-name="How do we create the standard animation set?" style="stroke:#33322E;fill:#eee8d5;stroke-dasharray:none;stroke-width:3;"></rect>
  <path d="M1013.5 1522.5 L1530.5 1522.5" data-name="How do we create the standard animation set?" style="stroke:#33322E;fill:none;stroke-dasharray:none;stroke-width:3;"></path>
  <text x="1272" y="1513" style="fill: #33322E;font:bold  12pt Helvetica, Helvetica, sans-serif;text-anchor: middle;" data-name="How do we create the standard animation set?">How do we create the standard animation set?</text>
  <text x="1021.5" y="1544" style="fill: #33322E;font:normal  12pt Helvetica, Helvetica, sans-serif;" data-name="How do we create the standard animation set?">Want to be better than the status quo of mixamo animation sets</text>
  <rect x="1127.5" y="1593.5" height="62" width="290" data-name="How do we interact with objects?" style="stroke:#33322E;fill:#eee8d5;stroke-dasharray:none;stroke-width:3;"></rect>
  <path d="M1127.5 1624.5 L1417.5 1624.5" data-name="How do we interact with objects?" style="stroke:#33322E;fill:none;stroke-dasharray:none;stroke-width:3;"></path>
  <text x="1272.5" y="1615" style="fill: #33322E;font:bold  12pt Helvetica, Helvetica, sans-serif;text-anchor: middle;" data-name="How do we interact with objects?">How do we interact with objects?</text>
  <text x="1135.5" y="1646" style="fill: #33322E;font:normal  12pt Helvetica, Helvetica, sans-serif;" data-name="How do we interact with objects?">Pickup animation is stored on prop</text>
  <rect x="1054.5" y="1695.5" height="62" width="435" data-name="How do we have more diverse characters?" style="stroke:#33322E;fill:#eee8d5;stroke-dasharray:none;stroke-width:3;"></rect>
  <path d="M1054.5 1726.5 L1489.5 1726.5" data-name="How do we have more diverse characters?" style="stroke:#33322E;fill:none;stroke-dasharray:none;stroke-width:3;"></path>
  <text x="1272" y="1717" style="fill: #33322E;font:bold  12pt Helvetica, Helvetica, sans-serif;text-anchor: middle;" data-name="How do we have more diverse characters?">How do we have more diverse characters?</text>
  <text x="1062.5" y="1748" style="fill: #33322E;font:normal  12pt Helvetica, Helvetica, sans-serif;" data-name="How do we have more diverse characters?">Marketplace? Proceduralism? Character generators?</text>
  <rect x="571.5" y="998.5" height="62" width="218" data-name="Last changed datetime" style="stroke:#33322E;fill:#eee8d5;stroke-dasharray:none;stroke-width:3;"></rect>
  <path d="M571.5 1029.5 L789.5 1029.5" data-name="Last changed datetime" style="stroke:#33322E;fill:none;stroke-dasharray:none;stroke-width:3;"></path>
  <text x="680.5" y="1020" style="fill: #33322E;font:bold  12pt Helvetica, Helvetica, sans-serif;text-anchor: middle;" data-name="Last changed datetime">Last changed datetime</text>
  <text x="579.5" y="1051" style="fill: #33322E;font:normal  12pt Helvetica, Helvetica, sans-serif;" data-name="Last changed datetime">2022-02-15T23:10+00:00</text>
  <rect x="829.5" y="927.5" height="31" width="144" data-name="Become avatars" style="stroke:#33322E;fill:#eee8d5;stroke-dasharray:none;stroke-width:3;"></rect>
  <text x="901.5" y="949" style="fill: #33322E;font:bold  12pt Helvetica, Helvetica, sans-serif;text-anchor: middle;" data-name="Become avatars">Become avatars</text>
  <rect x="1166.5" y="170.5" height="31" width="212" data-name="Godot world live creation" style="stroke:#33322E;fill:#eee8d5;stroke-dasharray:none;stroke-width:3;"></rect>
  <text x="1272.5" y="192" style="fill: #33322E;font:bold  12pt Helvetica, Helvetica, sans-serif;text-anchor: middle;" data-name="Godot world live creation">Godot world live creation</text>
  <rect x="1669.5" y="28.5" height="31" width="151" data-name="Imported physics" style="stroke:#33322E;fill:#eee8d5;stroke-dasharray:none;stroke-width:3;"></rect>
  <text x="1745" y="50" style="fill: #33322E;font:bold  12pt Helvetica, Helvetica, sans-serif;text-anchor: middle;" data-name="Imported physics">Imported physics</text>
  <rect x="1570.5" y="99.5" height="31" width="348" data-name="Place prexisting blocks with blockmeshing" style="stroke:#33322E;fill:#eee8d5;stroke-dasharray:none;stroke-width:3;"></rect>
  <text x="1744.5" y="121" style="fill: #33322E;font:bold  12pt Helvetica, Helvetica, sans-serif;text-anchor: middle;" data-name="Place prexisting blocks with blockmeshing">Place prexisting blocks with blockmeshing</text>
  <rect x="1604.5" y="170.5" height="31" width="281" data-name="Create Godot world creation tools" style="stroke:#33322E;fill:#eee8d5;stroke-dasharray:none;stroke-width:3;"></rect>
  <text x="1745" y="192" style="fill: #33322E;font:bold  12pt Helvetica, Helvetica, sans-serif;text-anchor: middle;" data-name="Create Godot world creation tools">Create Godot world creation tools</text>
  <rect x="1683.5" y="241.5" height="31" width="122" data-name="Place scenes" style="stroke:#33322E;fill:#eee8d5;stroke-dasharray:none;stroke-width:3;"></rect>
  <text x="1744.5" y="263" style="fill: #33322E;font:bold  12pt Helvetica, Helvetica, sans-serif;text-anchor: middle;" data-name="Place scenes">Place scenes</text>
  <rect x="1612.5" y="312.5" height="31" width="264" data-name="Construct layers collaboratively" style="stroke:#33322E;fill:#eee8d5;stroke-dasharray:none;stroke-width:3;"></rect>
  <text x="1744.5" y="334" style="fill: #33322E;font:bold  12pt Helvetica, Helvetica, sans-serif;text-anchor: middle;" data-name="Construct layers collaboratively">Construct layers collaboratively</text>
  <rect x="1704.5" y="383.5" height="31" width="80" data-name="Painting" style="stroke:#33322E;fill:#eee8d5;stroke-dasharray:none;stroke-width:3;"></rect>
  <text x="1744.5" y="405" style="fill: #33322E;font:bold  12pt Helvetica, Helvetica, sans-serif;text-anchor: middle;" data-name="Painting">Painting</text>
  <rect x="2081.5" y="99.5" height="31" width="202" data-name="3D models with CASSIE" style="stroke:#33322E;fill:#eee8d5;stroke-dasharray:none;stroke-width:3;"></rect>
  <text x="2182.5" y="121" style="fill: #33322E;font:bold  12pt Helvetica, Helvetica, sans-serif;text-anchor: middle;" data-name="3D models with CASSIE">3D models with CASSIE</text>
  <rect x="2446.5" y="99.5" height="31" width="292" data-name="Make cassie commercial remixable" style="stroke:#33322E;fill:#eee8d5;stroke-dasharray:none;stroke-width:3;"></rect>
  <text x="2592.5" y="121" style="fill: #33322E;font:bold  12pt Helvetica, Helvetica, sans-serif;text-anchor: middle;" data-name="Make cassie commercial remixable">Make cassie commercial remixable</text>
  <rect x="2085.5" y="170.5" height="31" width="195" data-name="Painting with MaterialX" style="stroke:#33322E;fill:#eee8d5;stroke-dasharray:none;stroke-width:3;"></rect>
  <text x="2183" y="192" style="fill: #33322E;font:bold  12pt Helvetica, Helvetica, sans-serif;text-anchor: middle;" data-name="Painting with MaterialX">Painting with MaterialX</text>
  <rect x="1677.5" y="454.5" height="31" width="135" data-name="Jeana usability" style="stroke:#33322E;fill:#eee8d5;stroke-dasharray:none;stroke-width:3;"></rect>
  <text x="1745" y="476" style="fill: #33322E;font:bold  12pt Helvetica, Helvetica, sans-serif;text-anchor: middle;" data-name="Jeana usability">Jeana usability</text>
  <rect x="1621.5" y="525.5" height="31" width="246" data-name="VFX (Particles, shaders, Sky)" style="stroke:#33322E;fill:#eee8d5;stroke-dasharray:none;stroke-width:3;"></rect>
  <text x="1744.5" y="547" style="fill: #33322E;font:bold  12pt Helvetica, Helvetica, sans-serif;text-anchor: middle;" data-name="VFX (Particles, shaders, Sky)">VFX (Particles, shaders, Sky)</text>
  <rect x="1100.5" y="277.5" height="31" width="344" data-name="Advanced avatar (shader, IK, animations)" style="stroke:#33322E;fill:#eee8d5;stroke-dasharray:none;stroke-width:3;"></rect>
  <text x="1272.5" y="299" style="fill: #33322E;font:bold  12pt Helvetica, Helvetica, sans-serif;text-anchor: middle;" data-name="Advanced avatar (shader, IK, animations)">Advanced avatar (shader, IK, animations)</text>
  <rect x="583.5" y="927.5" height="31" width="194" data-name="Skeleton modifications" style="stroke:#33322E;fill:#eee8d5;stroke-dasharray:none;stroke-width:3;"></rect>
  <text x="680.5" y="949" style="fill: #33322E;font:bold  12pt Helvetica, Helvetica, sans-serif;text-anchor: middle;" data-name="Skeleton modifications">Skeleton modifications</text>
  <rect x="1187.5" y="348.5" height="31" width="170" data-name="Vocal communicate" style="stroke:#33322E;fill:#eee8d5;stroke-dasharray:none;stroke-width:3;"></rect>
  <text x="1272.5" y="370" style="fill: #33322E;font:bold  12pt Helvetica, Helvetica, sans-serif;text-anchor: middle;" data-name="Vocal communicate">Vocal communicate</text>
  <rect x="1182.5" y="419.5" height="31" width="179" data-name="Motion communicate" style="stroke:#33322E;fill:#eee8d5;stroke-dasharray:none;stroke-width:3;"></rect>
  <text x="1272" y="441" style="fill: #33322E;font:bold  12pt Helvetica, Helvetica, sans-serif;text-anchor: middle;" data-name="Motion communicate">Motion communicate</text>
  <rect x="1238.5" y="490.5" height="31" width="67" data-name="Dance" style="stroke:#33322E;fill:#eee8d5;stroke-dasharray:none;stroke-width:3;"></rect>
  <text x="1272" y="512" style="fill: #33322E;font:bold  12pt Helvetica, Helvetica, sans-serif;text-anchor: middle;" data-name="Dance">Dance</text>
  <rect x="1147.5" y="561.5" height="31" width="249" data-name="Godot speech comms system" style="stroke:#33322E;fill:#eee8d5;stroke-dasharray:none;stroke-width:3;"></rect>
  <text x="1272" y="583" style="fill: #33322E;font:bold  12pt Helvetica, Helvetica, sans-serif;text-anchor: middle;" data-name="Godot speech comms system">Godot speech comms system</text>
  <rect x="1095.5" y="632.5" height="31" width="353" data-name="Virtual reality 6 degree of freedom tracking" style="stroke:#33322E;fill:#eee8d5;stroke-dasharray:none;stroke-width:3;"></rect>
  <text x="1272" y="654" style="fill: #33322E;font:bold  12pt Helvetica, Helvetica, sans-serif;text-anchor: middle;" data-name="Virtual reality 6 degree of freedom tracking">Virtual reality 6 degree of freedom tracking</text>
  <rect x="1227.5" y="703.5" height="31" width="90" data-name="Following" style="stroke:#33322E;fill:#eee8d5;stroke-dasharray:none;stroke-width:3;"></rect>
  <text x="1272.5" y="725" style="fill: #33322E;font:bold  12pt Helvetica, Helvetica, sans-serif;text-anchor: middle;" data-name="Following">Following</text>
  <rect x="1644.5" y="596.5" height="31" width="200" data-name="Double-sided friending." style="stroke:#33322E;fill:#eee8d5;stroke-dasharray:none;stroke-width:3;"></rect>
  <text x="1744.5" y="618" style="fill: #33322E;font:bold  12pt Helvetica, Helvetica, sans-serif;text-anchor: middle;" data-name="Double-sided friending.">Double-sided friending.</text>
  <rect x="1651.5" y="738.5" height="31" width="186" data-name="Discover new friends." style="stroke:#33322E;fill:#eee8d5;stroke-dasharray:none;stroke-width:3;"></rect>
  <text x="1744.5" y="760" style="fill: #33322E;font:bold  12pt Helvetica, Helvetica, sans-serif;text-anchor: middle;" data-name="Discover new friends.">Discover new friends.</text>
  <rect x="1140.5" y="914.5" height="31" width="264" data-name="Virtual reality motion movement" style="stroke:#33322E;fill:#eee8d5;stroke-dasharray:none;stroke-width:3;"></rect>
  <text x="1272.5" y="936" style="fill: #33322E;font:bold  12pt Helvetica, Helvetica, sans-serif;text-anchor: middle;" data-name="Virtual reality motion movement">Virtual reality motion movement</text>
  <rect x="2122.5" y="564.5" height="31" width="121" data-name="Avatar switch" style="stroke:#33322E;fill:#eee8d5;stroke-dasharray:none;stroke-width:3;"></rect>
  <text x="2183" y="586" style="fill: #33322E;font:bold  12pt Helvetica, Helvetica, sans-serif;text-anchor: middle;" data-name="Avatar switch">Avatar switch</text>
  <rect x="2122.5" y="635.5" height="31" width="121" data-name="World portals" style="stroke:#33322E;fill:#eee8d5;stroke-dasharray:none;stroke-width:3;"></rect>
  <text x="2183" y="657" style="fill: #33322E;font:bold  12pt Helvetica, Helvetica, sans-serif;text-anchor: middle;" data-name="World portals">World portals</text>
  <rect x="2121.5" y="985.5" height="31" width="122" data-name="Server switch" style="stroke:#33322E;fill:#eee8d5;stroke-dasharray:none;stroke-width:3;"></rect>
  <text x="2182.5" y="1007" style="fill: #33322E;font:bold  12pt Helvetica, Helvetica, sans-serif;text-anchor: middle;" data-name="Server switch">Server switch</text>
  <rect x="2101.5" y="1056.5" height="31" width="163" data-name="Player interactions" style="stroke:#33322E;fill:#eee8d5;stroke-dasharray:none;stroke-width:3;"></rect>
  <text x="2183" y="1078" style="fill: #33322E;font:bold  12pt Helvetica, Helvetica, sans-serif;text-anchor: middle;" data-name="Player interactions">Player interactions</text>
  <rect x="2553.5" y="599.5" height="31" width="78" data-name="Camera" style="stroke:#33322E;fill:#eee8d5;stroke-dasharray:none;stroke-width:3;"></rect>
  <text x="2592.5" y="621" style="fill: #33322E;font:bold  12pt Helvetica, Helvetica, sans-serif;text-anchor: middle;" data-name="Camera">Camera</text>
  <rect x="2526.5" y="1092.5" height="31" width="133" data-name="Bow and arrow" style="stroke:#33322E;fill:#eee8d5;stroke-dasharray:none;stroke-width:3;"></rect>
  <text x="2593" y="1114" style="fill: #33322E;font:bold  12pt Helvetica, Helvetica, sans-serif;text-anchor: middle;" data-name="Bow and arrow">Bow and arrow</text>
  <rect x="2561.5" y="1163.5" height="31" width="62" data-name="Mirror" style="stroke:#33322E;fill:#eee8d5;stroke-dasharray:none;stroke-width:3;"></rect>
  <text x="2592.5" y="1185" style="fill: #33322E;font:bold  12pt Helvetica, Helvetica, sans-serif;text-anchor: middle;" data-name="Mirror">Mirror</text>
  <rect x="1680.5" y="1063.5" height="31" width="128" data-name="Federation list" style="stroke:#33322E;fill:#eee8d5;stroke-dasharray:none;stroke-width:3;"></rect>
  <text x="1744.5" y="1085" style="fill: #33322E;font:bold  12pt Helvetica, Helvetica, sans-serif;text-anchor: middle;" data-name="Federation list">Federation list</text>
  <rect x="1664.5" y="1134.5" height="31" width="160" data-name="Delegated Identity" style="stroke:#33322E;fill:#eee8d5;stroke-dasharray:none;stroke-width:3;"></rect>
  <text x="1744.5" y="1156" style="fill: #33322E;font:bold  12pt Helvetica, Helvetica, sans-serif;text-anchor: middle;" data-name="Delegated Identity">Delegated Identity</text>
  <rect x="1705.5" y="1205.5" height="31" width="78" data-name="Content" style="stroke:#33322E;fill:#eee8d5;stroke-dasharray:none;stroke-width:3;"></rect>
  <text x="1744.5" y="1227" style="fill: #33322E;font:bold  12pt Helvetica, Helvetica, sans-serif;text-anchor: middle;" data-name="Content">Content</text>
  <rect x="1958.5" y="1205.5" height="31" width="448" data-name="Refuse to attest content because scripting is untrusted" style="stroke:#33322E;fill:#eee8d5;stroke-dasharray:none;stroke-width:3;"></rect>
  <text x="2182.5" y="1227" style="fill: #33322E;font:bold  12pt Helvetica, Helvetica, sans-serif;text-anchor: middle;" data-name="Refuse to attest content because scripting is untrusted">Refuse to attest content because scripting is untrusted</text>
  <rect x="2055.5" y="493.5" height="31" width="254" data-name="Upgrade PLY to Godot Engine" style="stroke:#33322E;fill:#eee8d5;stroke-dasharray:none;stroke-width:3;"></rect>
  <text x="2182.5" y="515" style="fill: #33322E;font:bold  12pt Helvetica, Helvetica, sans-serif;text-anchor: middle;" data-name="Upgrade PLY to Godot Engine">Upgrade PLY to Godot Engine</text>
  <rect x="1119.5" y="1216.5" height="31" width="306" data-name="How do we retarget to the VRM1 rig?" style="stroke:#33322E;fill:#eee8d5;stroke-dasharray:none;stroke-width:3;"></rect>
  <text x="1272.5" y="1238" style="fill: #33322E;font:bold  12pt Helvetica, Helvetica, sans-serif;text-anchor: middle;" data-name="How do we retarget to the VRM1 rig?">How do we retarget to the VRM1 rig?</text>
  <rect x="1082.5" y="1797.5" height="31" width="380" data-name="How we turn our voice to facial rig keyframes?" style="stroke:#33322E;fill:#eee8d5;stroke-dasharray:none;stroke-width:3;"></rect>
  <text x="1272.5" y="1819" style="fill: #33322E;font:bold  12pt Helvetica, Helvetica, sans-serif;text-anchor: middle;" data-name="How we turn our voice to facial rig keyframes?">How we turn our voice to facial rig keyframes?</text>
</svg>